  0
SECTION
  2
HEADER
  9
$ACADVER
  1
AC1014
  9
$HANDSEED
  5
FFFF
  9
$INSUNITS
 70
     0
  9
$MEASUREMENT
 70
     1
  0
ENDSEC
  0
SECTION
  2
TABLES
  0
TABLE
  2
VPORT
  5
8
330
0
100
AcDbSymbolTable
 70
     4
  0
VPORT
  5
2E
330
8
100
AcDbSymbolTableRecord
100
AcDbViewportTableRecord
  2
*ACTIVE
 70
     0
 10
0.0
 20
0.0
 11
1.0
 21
1.0
 12
210.0
 22
148.5
 13
0.0
 23
0.0
 14
10.0
 24
10.0
 15
10.0
 25
10.0
 16
0.0
 26
0.0
 36
1.0
 17
0.0
 27
0.0
 37
0.0
 40
341.0
 41
1.24
 42
50.0
 43
0.0
 44
0.0
 50
0.0
 51
0.0
 71
     0
 72
   100
 73
     1
 74
     3
 75
     0
 76
     0
 77
     0
 78
     0
  0
ENDTAB
  0
TABLE
  2
LTYPE
  5
5
330
0
100
AcDbSymbolTable
 70
     1
  0
LTYPE
  5
14
330
5
100
AcDbSymbolTableRecord
100
AcDbLinetypeTableRecord
  2
BYBLOCK
 70
     0
  3

 72
    65
 73
     0
 40
0.0
  0
LTYPE
  5
15
330
5
100
AcDbSymbolTableRecord
100
AcDbLinetypeTableRecord
  2
BYLAYER
 70
     0
  3

 72
    65
 73
     0
 40
0.0
  0
LTYPE
  5
16
330
5
100
AcDbSymbolTableRecord
100
AcDbLinetypeTableRecord
  2
CONTINUOUS
 70
     0
  3
Solid line
 72
    65
 73
     0
 40
0.0
  0
ENDTAB
  0
TABLE
  2
LAYER
  5
2
100
AcDbSymbolTable
 70
1
  0
LAYER
  5
50
100
AcDbSymbolTableRecord
100
AcDbLayerTableRecord
  2
0
 70
0
  6
CONTINUOUS
  0
ENDTAB
  0
TABLE
  2
STYLE
  5
3
330
0
100
AcDbSymbolTable
 70
     1
  0
STYLE
  5
11
330
3
100
AcDbSymbolTableRecord
100
AcDbTextStyleTableRecord
  2
STANDARD
 70
     0
 40
0.0
 41
1.0
 50
0.0
 71
     0
 42
2.5
  3
txt
  4

  0
ENDTAB
  0
TABLE
  2
VIEW
  5
6
330
0
100
AcDbSymbolTable
 70
     0
  0
ENDTAB
  0
TABLE
  2
UCS
  5
7
330
0
100
AcDbSymbolTable
 70
     0
  0
ENDTAB
  0
TABLE
  2
APPID
  5
9
330
0
100
AcDbSymbolTable
 70
     2
  0
APPID
  5
12
330
9
100
AcDbSymbolTableRecord
100
AcDbRegAppTableRecord
  2
ACAD
 70
     0
  0
ENDTAB
  0
TABLE
  2
DIMSTYLE
  5
A
330
0
100
AcDbSymbolTable
 70
     1
  0
DIMSTYLE
105
27
330
A
100
AcDbSymbolTableRecord
100
AcDbDimStyleTableRecord
  2
ISO-25
 70
     0
  3

  4

  5

  6

  7

 40
1.0
 41
2.5
 42
0.625
 43
3.75
 44
1.25
 45
0.0
 46
0.0
 47
0.0
 48
0.0
140
2.5
141
2.5
142
0.0
143
0.03937007874016
144
1.0
145
0.0
146
1.0
147
0.625
 71
     0
 72
     0
 73
     0
 74
     0
 75
     0
 76
     0
 77
     1
 78
     8
170
     0
171
     3
172
     1
173
     0
174
     0
175
     0
176
     0
177
     0
178
     0
270
     2
271
     2
272
     2
273
     2
274
     3
340
11
275
     0
280
     0
281
     0
282
     0
283
     0
284
     8
285
     0
286
     0
287
     3
288
     0
  0
ENDTAB
  0
TABLE
  2
BLOCK_RECORD
  5
1
330
0
100
AcDbSymbolTable
 70
     1
  0
BLOCK_RECORD
  5
1F
330
1
100
AcDbSymbolTableRecord
100
AcDbBlockTableRecord
  2
*MODEL_SPACE
  0
BLOCK_RECORD
  5
1B
330
1
100
AcDbSymbolTableRecord
100
AcDbBlockTableRecord
  2
*PAPER_SPACE
  0
ENDTAB
  0
ENDSEC
  0
SECTION
  2
BLOCKS
  0
BLOCK
  5
20
330
1F
100
AcDbEntity
  8
0
100
AcDbBlockBegin
  2
*MODEL_SPACE
 70
     0
 10
0.0
 20
0.0
 30
0.0
  3
*MODEL_SPACE
  1

  0
ENDBLK
  5
21
330
1F
100
AcDbEntity
  8
0
100
AcDbBlockEnd
  0
BLOCK
  5
1C
330
1B
100
AcDbEntity
 67
     1
  8
0
100
AcDbBlockBegin
  2
*PAPER_SPACE
  1

  0
ENDBLK
  5
1D
330
1B
100
AcDbEntity
 67
     1
  8
0
100
AcDbBlockEnd
  0
ENDSEC
  0
SECTION
  2
ENTITIES
  0
LWPOLYLINE
  5
100
100
AcDbEntity
  8
0
 62
7
100
AcDbPolyline
 90
8
 70
1
 10
0.000000
 20
840.000000
 30
0.0
 10
1120.000000
 20
840.000000
 30
0.0
 10
1120.000000
 20
0.000000
 30
0.0
 10
0.000000
 20
0.000000
 30
0.0
 10
0.000000
 20
840.000000
 30
0.0
 10
1120.000000
 20
840.000000
 30
0.0
 10
1120.000000
 20
0.000000
 30
0.0
 10
0.000000
 20
0.000000
 30
0.0
  0
LWPOLYLINE
  5
101
100
AcDbEntity
  8
0
 62
7
100
AcDbPolyline
 90
100
 70
0
 10
764.082300
 20
632.410900
 30
0.0
 10
765.926300
 20
626.954300
 30
0.0
 10
767.770300
 20
621.497600
 30
0.0
 10
769.614400
 20
616.040900
 30
0.0
 10
771.458400
 20
610.584300
 30
0.0
 10
773.302400
 20
605.127600
 30
0.0
 10
775.146400
 20
599.670900
 30
0.0
 10
776.990500
 20
594.214200
 30
0.0
 10
778.834500
 20
588.757600
 30
0.0
 10
780.678500
 20
583.300900
 30
0.0
 10
782.522500
 20
577.844200
 30
0.0
 10
784.366600
 20
572.387500
 30
0.0
 10
786.210600
 20
566.930800
 30
0.0
 10
788.054600
 20
561.474200
 30
0.0
 10
789.898700
 20
556.017500
 30
0.0
 10
791.742700
 20
550.560800
 30
0.0
 10
793.586700
 20
545.104200
 30
0.0
 10
795.430800
 20
539.647500
 30
0.0
 10
797.274800
 20
534.190800
 30
0.0
 10
799.118800
 20
528.734100
 30
0.0
 10
800.962800
 20
523.277400
 30
0.0
 10
802.806900
 20
517.820800
 30
0.0
 10
804.650900
 20
512.364100
 30
0.0
 10
806.494900
 20
506.907400
 30
0.0
 10
808.338900
 20
501.450700
 30
0.0
 10
810.183000
 20
495.994000
 30
0.0
 10
812.027000
 20
490.537400
 30
0.0
 10
813.871000
 20
485.080700
 30
0.0
 10
815.715000
 20
479.624000
 30
0.0
 10
817.559100
 20
474.167300
 30
0.0
 10
819.403100
 20
468.710700
 30
0.0
 10
821.247100
 20
463.254000
 30
0.0
 10
823.091200
 20
457.797300
 30
0.0
 10
824.935200
 20
452.340600
 30
0.0
 10
826.779200
 20
446.884000
 30
0.0
 10
828.623200
 20
441.427300
 30
0.0
 10
830.467300
 20
435.970600
 30
0.0
 10
832.311300
 20
430.513900
 30
0.0
 10
834.155300
 20
425.057300
 30
0.0
 10
835.999300
 20
419.600600
 30
0.0
 10
837.843400
 20
414.143900
 30
0.0
 10
839.687400
 20
408.687200
 30
0.0
 10
841.531400
 20
403.230500
 30
0.0
 10
843.375400
 20
397.773900
 30
0.0
 10
845.219500
 20
392.317200
 30
0.0
 10
847.063500
 20
386.860500
 30
0.0
 10
848.907500
 20
381.403800
 30
0.0
 10
850.751500
 20
375.947200
 30
0.0
 10
852.595600
 20
370.490500
 30
0.0
 10
854.439600
 20
365.033800
 30
0.0
 10
856.283600
 20
359.577100
 30
0.0
 10
858.127600
 20
354.120500
 30
0.0
 10
859.971700
 20
348.663800
 30
0.0
 10
861.815700
 20
343.207100
 30
0.0
 10
863.659700
 20
337.750400
 30
0.0
 10
865.503800
 20
332.293800
 30
0.0
 10
867.347800
 20
326.837100
 30
0.0
 10
869.191800
 20
321.380400
 30
0.0
 10
871.035800
 20
315.923700
 30
0.0
 10
872.879900
 20
310.467000
 30
0.0
 10
874.723900
 20
305.010400
 30
0.0
 10
876.567900
 20
299.553700
 30
0.0
 10
878.411900
 20
294.097000
 30
0.0
 10
880.256000
 20
288.640300
 30
0.0
 10
882.100000
 20
283.183700
 30
0.0
 10
883.944100
 20
277.727000
 30
0.0
 10
885.788100
 20
272.270300
 30
0.0
 10
887.632100
 20
266.813700
 30
0.0
 10
889.476200
 20
261.356900
 30
0.0
 10
891.320200
 20
255.900300
 30
0.0
 10
893.164200
 20
250.443600
 30
0.0
 10
895.008200
 20
244.986900
 30
0.0
 10
896.852300
 20
239.530300
 30
0.0
 10
898.696300
 20
234.073600
 30
0.0
 10
900.540300
 20
228.616900
 30
0.0
 10
902.384300
 20
223.160200
 30
0.0
 10
904.228400
 20
217.703600
 30
0.0
 10
906.072400
 20
212.246900
 30
0.0
 10
907.916400
 20
206.790200
 30
0.0
 10
909.760400
 20
201.333500
 30
0.0
 10
911.604500
 20
195.876800
 30
0.0
 10
913.448500
 20
190.420200
 30
0.0
 10
915.292500
 20
184.963500
 30
0.0
 10
917.136500
 20
179.506800
 30
0.0
 10
918.980600
 20
174.050200
 30
0.0
 10
920.824600
 20
168.593400
 30
0.0
 10
922.668600
 20
163.136800
 30
0.0
 10
924.512600
 20
157.680100
 30
0.0
 10
926.356700
 20
152.223400
 30
0.0
 10
928.200700
 20
146.766800
 30
0.0
 10
930.044700
 20
141.310100
 30
0.0
 10
931.888800
 20
135.853400
 30
0.0
 10
933.732800
 20
130.396700
 30
0.0
 10
935.576800
 20
124.940100
 30
0.0
 10
937.420800
 20
119.483400
 30
0.0
 10
939.264900
 20
114.026700
 30
0.0
 10
941.108900
 20
108.570000
 30
0.0
 10
942.952900
 20
103.113300
 30
0.0
 10
944.796900
 20
97.656700
 30
0.0
 10
946.641000
 20
92.200000
 30
0.0
  0
LWPOLYLINE
  5
102
100
AcDbEntity
  8
0
 62
7
100
AcDbPolyline
 90
100
 70
0
 10
213.359000
 20
92.200000
 30
0.0
 10
215.203000
 20
97.656700
 30
0.0
 10
217.047100
 20
103.113300
 30
0.0
 10
218.891100
 20
108.570000
 30
0.0
 10
220.735100
 20
114.026700
 30
0.0
 10
222.579100
 20
119.483400
 30
0.0
 10
224.423200
 20
124.940100
 30
0.0
 10
226.267200
 20
130.396700
 30
0.0
 10
228.111200
 20
135.853400
 30
0.0
 10
229.955300
 20
141.310100
 30
0.0
 10
231.799300
 20
146.766800
 30
0.0
 10
233.643300
 20
152.223400
 30
0.0
 10
235.487300
 20
157.680100
 30
0.0
 10
237.331400
 20
163.136800
 30
0.0
 10
239.175400
 20
168.593400
 30
0.0
 10
241.019400
 20
174.050200
 30
0.0
 10
242.863400
 20
179.506800
 30
0.0
 10
244.707500
 20
184.963500
 30
0.0
 10
246.551500
 20
190.420200
 30
0.0
 10
248.395500
 20
195.876800
 30
0.0
 10
250.239600
 20
201.333500
 30
0.0
 10
252.083600
 20
206.790200
 30
0.0
 10
253.927600
 20
212.246900
 30
0.0
 10
255.771600
 20
217.703600
 30
0.0
 10
257.615700
 20
223.160200
 30
0.0
 10
259.459700
 20
228.616900
 30
0.0
 10
261.303700
 20
234.073600
 30
0.0
 10
263.147700
 20
239.530300
 30
0.0
 10
264.991800
 20
244.986900
 30
0.0
 10
266.835800
 20
250.443600
 30
0.0
 10
268.679800
 20
255.900300
 30
0.0
 10
270.523900
 20
261.356900
 30
0.0
 10
272.367900
 20
266.813700
 30
0.0
 10
274.211900
 20
272.270300
 30
0.0
 10
276.055900
 20
277.727000
 30
0.0
 10
277.900000
 20
283.183700
 30
0.0
 10
279.744000
 20
288.640300
 30
0.0
 10
281.588000
 20
294.097000
 30
0.0
 10
283.432000
 20
299.553700
 30
0.0
 10
285.276100
 20
305.010400
 30
0.0
 10
287.120100
 20
310.467000
 30
0.0
 10
288.964100
 20
315.923700
 30
0.0
 10
290.808200
 20
321.380400
 30
0.0
 10
292.652200
 20
326.837100
 30
0.0
 10
294.496200
 20
332.293800
 30
0.0
 10
296.340200
 20
337.750400
 30
0.0
 10
298.184300
 20
343.207100
 30
0.0
 10
300.028300
 20
348.663800
 30
0.0
 10
301.872300
 20
354.120500
 30
0.0
 10
303.716400
 20
359.577100
 30
0.0
 10
305.560400
 20
365.033800
 30
0.0
 10
307.404400
 20
370.490500
 30
0.0
 10
309.248400
 20
375.947200
 30
0.0
 10
311.092500
 20
381.403800
 30
0.0
 10
312.936500
 20
386.860500
 30
0.0
 10
314.780500
 20
392.317200
 30
0.0
 10
316.624500
 20
397.773900
 30
0.0
 10
318.468600
 20
403.230500
 30
0.0
 10
320.312600
 20
408.687200
 30
0.0
 10
322.156600
 20
414.143900
 30
0.0
 10
324.000700
 20
419.600600
 30
0.0
 10
325.844700
 20
425.057300
 30
0.0
 10
327.688700
 20
430.513900
 30
0.0
 10
329.532700
 20
435.970600
 30
0.0
 10
331.376800
 20
441.427300
 30
0.0
 10
333.220800
 20
446.884000
 30
0.0
 10
335.064800
 20
452.340600
 30
0.0
 10
336.908800
 20
457.797300
 30
0.0
 10
338.752900
 20
463.254000
 30
0.0
 10
340.596900
 20
468.710700
 30
0.0
 10
342.440900
 20
474.167300
 30
0.0
 10
344.285000
 20
479.624000
 30
0.0
 10
346.129000
 20
485.080700
 30
0.0
 10
347.973000
 20
490.537400
 30
0.0
 10
349.817000
 20
495.994000
 30
0.0
 10
351.661100
 20
501.450700
 30
0.0
 10
353.505100
 20
506.907400
 30
0.0
 10
355.349100
 20
512.364100
 30
0.0
 10
357.193100
 20
517.820800
 30
0.0
 10
359.037200
 20
523.277400
 30
0.0
 10
360.881200
 20
528.734100
 30
0.0
 10
362.725300
 20
534.190800
 30
0.0
 10
364.569300
 20
539.647500
 30
0.0
 10
366.413300
 20
545.104200
 30
0.0
 10
368.257300
 20
550.560800
 30
0.0
 10
370.101300
 20
556.017500
 30
0.0
 10
371.945400
 20
561.474200
 30
0.0
 10
373.789400
 20
566.930800
 30
0.0
 10
375.633400
 20
572.387500
 30
0.0
 10
377.477400
 20
577.844200
 30
0.0
 10
379.321500
 20
583.300900
 30
0.0
 10
381.165500
 20
588.757600
 30
0.0
 10
383.009600
 20
594.214200
 30
0.0
 10
384.853600
 20
599.670900
 30
0.0
 10
386.697600
 20
605.127600
 30
0.0
 10
388.541600
 20
610.584300
 30
0.0
 10
390.385700
 20
616.040900
 30
0.0
 10
392.229700
 20
621.497600
 30
0.0
 10
394.073700
 20
626.954300
 30
0.0
 10
395.917700
 20
632.410900
 30
0.0
  0
LWPOLYLINE
  5
103
100
AcDbEntity
  8
0
 62
7
100
AcDbPolyline
 90
100
 70
0
 10
764.082300
 20
632.410900
 30
0.0
 10
763.087600
 20
635.313200
 30
0.0
 10
762.075400
 20
638.185900
 30
0.0
 10
761.045600
 20
641.029200
 30
0.0
 10
759.998000
 20
643.843000
 30
0.0
 10
758.932900
 20
646.627400
 30
0.0
 10
757.850000
 20
649.382300
 30
0.0
 10
756.749600
 20
652.107700
 30
0.0
 10
755.631400
 20
654.803700
 30
0.0
 10
754.495700
 20
657.470200
 30
0.0
 10
753.342200
 20
660.107300
 30
0.0
 10
752.171100
 20
662.714800
 30
0.0
 10
750.982400
 20
665.293000
 30
0.0
 10
749.776100
 20
667.841600
 30
0.0
 10
748.552100
 20
670.360800
 30
0.0
 10
747.310400
 20
672.850500
 30
0.0
 10
746.051000
 20
675.310800
 30
0.0
 10
744.774000
 20
677.741500
 30
0.0
 10
743.479400
 20
680.142900
 30
0.0
 10
742.167200
 20
682.514800
 30
0.0
 10
740.837300
 20
684.857100
 30
0.0
 10
739.489700
 20
687.170000
 30
0.0
 10
738.124500
 20
689.453500
 30
0.0
 10
736.741600
 20
691.707600
 30
0.0
 10
735.341100
 20
693.932100
 30
0.0
 10
733.922900
 20
696.127200
 30
0.0
 10
732.487100
 20
698.292800
 30
0.0
 10
731.033600
 20
700.429000
 30
0.0
 10
729.562400
 20
702.535600
 30
0.0
 10
728.073700
 20
704.612800
 30
0.0
 10
726.567300
 20
706.660600
 30
0.0
 10
725.043200
 20
708.678900
 30
0.0
 10
723.501500
 20
710.667800
 30
0.0
 10
721.942100
 20
712.627100
 30
0.0
 10
720.365100
 20
714.557000
 30
0.0
 10
718.770400
 20
716.457400
 30
0.0
 10
717.158100
 20
718.328400
 30
0.0
 10
715.528100
 20
720.169900
 30
0.0
 10
713.880500
 20
721.982000
 30
0.0
 10
712.215300
 20
723.764600
 30
0.0
 10
710.532300
 20
725.517700
 30
0.0
 10
708.831700
 20
727.241300
 30
0.0
 10
707.113500
 20
728.935500
 30
0.0
 10
705.377600
 20
730.600200
 30
0.0
 10
703.624100
 20
732.235500
 30
0.0
 10
701.853000
 20
733.841300
 30
0.0
 10
700.064100
 20
735.417600
 30
0.0
 10
698.257700
 20
736.964500
 30
0.0
 10
696.433500
 20
738.481900
 30
0.0
 10
694.591800
 20
739.969800
 30
0.0
 10
692.732400
 20
741.428300
 30
0.0
 10
690.855300
 20
742.857300
 30
0.0
 10
688.960600
 20
744.256900
 30
0.0
 10
687.048200
 20
745.626900
 30
0.0
 10
685.118200
 20
746.967600
 30
0.0
 10
683.170600
 20
748.278700
 30
0.0
 10
681.205300
 20
749.560400
 30
0.0
 10
679.222300
 20
750.812600
 30
0.0
 10
677.221700
 20
752.035400
 30
0.0
 10
675.203400
 20
753.228700
 30
0.0
 10
673.167500
 20
754.392500
 30
0.0
 10
671.113900
 20
755.526900
 30
0.0
 10
669.042700
 20
756.631800
 30
0.0
 10
666.953900
 20
757.707200
 30
0.0
 10
664.847400
 20
758.753200
 30
0.0
 10
662.723100
 20
759.769700
 30
0.0
 10
660.581400
 20
760.756800
 30
0.0
 10
658.421900
 20
761.714300
 30
0.0
 10
656.244800
 20
762.642500
 30
0.0
 10
654.050000
 20
763.541100
 30
0.0
 10
651.837600
 20
764.410300
 30
0.0
 10
649.607500
 20
765.250000
 30
0.0
 10
647.359900
 20
766.060300
 30
0.0
 10
645.094400
 20
766.841100
 30
0.0
 10
642.811500
 20
767.592400
 30
0.0
 10
640.510800
 20
768.314300
 30
0.0
 10
638.192500
 20
769.006700
 30
0.0
 10
635.856500
 20
769.669700
 30
0.0
 10
633.502900
 20
770.303200
 30
0.0
 10
631.131700
 20
770.907100
 30
0.0
 10
628.742700
 20
771.481800
 30
0.0
 10
626.336200
 20
772.026800
 30
0.0
 10
623.912000
 20
772.542400
 30
0.0
 10
621.470200
 20
773.028600
 30
0.0
 10
619.010600
 20
773.485300
 30
0.0
 10
616.533400
 20
773.912500
 30
0.0
 10
614.038600
 20
774.310300
 30
0.0
 10
611.526200
 20
774.678600
 30
0.0
 10
608.996100
 20
775.017400
 30
0.0
 10
606.448300
 20
775.326800
 30
0.0
 10
603.882900
 20
775.606700
 30
0.0
 10
601.299900
 20
775.857200
 30
0.0
 10
598.699200
 20
776.078200
 30
0.0
 10
596.080800
 20
776.269700
 30
0.0
 10
593.444800
 20
776.431700
 30
0.0
 10
590.791100
 20
776.564300
 30
0.0
 10
588.119800
 20
776.667400
 30
0.0
 10
585.430800
 20
776.741100
 30
0.0
 10
582.724200
 20
776.785300
 30
0.0
 10
580.000000
 20
776.800000
 30
0.0
  0
LWPOLYLINE
  5
104
100
AcDbEntity
  8
0
 62
7
100
AcDbPolyline
 90
100
 70
0
 10
395.917700
 20
632.410900
 30
0.0
 10
396.912300
 20
635.313200
 30
0.0
 10
397.924500
 20
638.185900
 30
0.0
 10
398.954400
 20
641.029200
 30
0.0
 10
400.002000
 20
643.843000
 30
0.0
 10
401.067100
 20
646.627400
 30
0.0
 10
402.149900
 20
649.382300
 30
0.0
 10
403.250400
 20
652.107700
 30
0.0
 10
404.368600
 20
654.803700
 30
0.0
 10
405.504300
 20
657.470200
 30
0.0
 10
406.657700
 20
660.107300
 30
0.0
 10
407.828800
 20
662.714800
 30
0.0
 10
409.017500
 20
665.293000
 30
0.0
 10
410.223900
 20
667.841600
 30
0.0
 10
411.448000
 20
670.360800
 30
0.0
 10
412.689600
 20
672.850500
 30
0.0
 10
413.948900
 20
675.310800
 30
0.0
 10
415.226000
 20
677.741500
 30
0.0
 10
416.520500
 20
680.142900
 30
0.0
 10
417.832800
 20
682.514800
 30
0.0
 10
419.162800
 20
684.857100
 30
0.0
 10
420.510300
 20
687.170000
 30
0.0
 10
421.875500
 20
689.453500
 30
0.0
 10
423.258400
 20
691.707600
 30
0.0
 10
424.659000
 20
693.932100
 30
0.0
 10
426.077100
 20
696.127200
 30
0.0
 10
427.512900
 20
698.292800
 30
0.0
 10
428.966400
 20
700.429000
 30
0.0
 10
430.437500
 20
702.535600
 30
0.0
 10
431.926300
 20
704.612800
 30
0.0
 10
433.432700
 20
706.660600
 30
0.0
 10
434.956800
 20
708.678900
 30
0.0
 10
436.498500
 20
710.667800
 30
0.0
 10
438.057900
 20
712.627100
 30
0.0
 10
439.634900
 20
714.557000
 30
0.0
 10
441.229600
 20
716.457400
 30
0.0
 10
442.841900
 20
718.328400
 30
0.0
 10
444.471900
 20
720.169900
 30
0.0
 10
446.119500
 20
721.982000
 30
0.0
 10
447.784800
 20
723.764600
 30
0.0
 10
449.467700
 20
725.517700
 30
0.0
 10
451.168200
 20
727.241300
 30
0.0
 10
452.886500
 20
728.935500
 30
0.0
 10
454.622300
 20
730.600200
 30
0.0
 10
456.375900
 20
732.235500
 30
0.0
 10
458.147000
 20
733.841300
 30
0.0
 10
459.935900
 20
735.417600
 30
0.0
 10
461.742300
 20
736.964500
 30
0.0
 10
463.566400
 20
738.481900
 30
0.0
 10
465.408200
 20
739.969800
 30
0.0
 10
467.267600
 20
741.428300
 30
0.0
 10
469.144700
 20
742.857300
 30
0.0
 10
471.039400
 20
744.256900
 30
0.0
 10
472.951800
 20
745.626900
 30
0.0
 10
474.881800
 20
746.967600
 30
0.0
 10
476.829400
 20
748.278700
 30
0.0
 10
478.794700
 20
749.560400
 30
0.0
 10
480.777700
 20
750.812600
 30
0.0
 10
482.778300
 20
752.035400
 30
0.0
 10
484.796600
 20
753.228700
 30
0.0
 10
486.832500
 20
754.392500
 30
0.0
 10
488.886100
 20
755.526900
 30
0.0
 10
490.957300
 20
756.631800
 30
0.0
 10
493.046100
 20
757.707200
 30
0.0
 10
495.152700
 20
758.753200
 30
0.0
 10
497.276800
 20
759.769700
 30
0.0
 10
499.418600
 20
760.756800
 30
0.0
 10
501.578100
 20
761.714300
 30
0.0
 10
503.755200
 20
762.642500
 30
0.0
 10
505.950000
 20
763.541100
 30
0.0
 10
508.162400
 20
764.410300
 30
0.0
 10
510.392500
 20
765.250000
 30
0.0
 10
512.640200
 20
766.060300
 30
0.0
 10
514.905500
 20
766.841100
 30
0.0
 10
517.188500
 20
767.592400
 30
0.0
 10
519.489200
 20
768.314300
 30
0.0
 10
521.807500
 20
769.006700
 30
0.0
 10
524.143500
 20
769.669700
 30
0.0
 10
526.497100
 20
770.303200
 30
0.0
 10
528.868300
 20
770.907100
 30
0.0
 10
531.257300
 20
771.481800
 30
0.0
 10
533.663800
 20
772.026800
 30
0.0
 10
536.088000
 20
772.542400
 30
0.0
 10
538.529900
 20
773.028600
 30
0.0
 10
540.989400
 20
773.485300
 30
0.0
 10
543.466600
 20
773.912500
 30
0.0
 10
545.961400
 20
774.310300
 30
0.0
 10
548.473800
 20
774.678600
 30
0.0
 10
551.004000
 20
775.017400
 30
0.0
 10
553.551700
 20
775.326800
 30
0.0
 10
556.117100
 20
775.606700
 30
0.0
 10
558.700100
 20
775.857200
 30
0.0
 10
561.300800
 20
776.078200
 30
0.0
 10
563.919300
 20
776.269700
 30
0.0
 10
566.555200
 20
776.431700
 30
0.0
 10
569.208900
 20
776.564300
 30
0.0
 10
571.880200
 20
776.667400
 30
0.0
 10
574.569200
 20
776.741100
 30
0.0
 10
577.275800
 20
776.785300
 30
0.0
 10
580.000000
 20
776.800000
 30
0.0
  0
LWPOLYLINE
  5
105
100
AcDbEntity
  8
0
 62
7
100
AcDbPolyline
 90
100
 70
0
 10
855.740900
 20
250.518900
 30
0.0
 10
856.659100
 20
248.919700
 30
0.0
 10
857.577300
 20
247.320500
 30
0.0
 10
858.495500
 20
245.721300
 30
0.0
 10
859.413600
 20
244.122100
 30
0.0
 10
860.331800
 20
242.522900
 30
0.0
 10
861.250100
 20
240.923800
 30
0.0
 10
862.168200
 20
239.324600
 30
0.0
 10
863.086400
 20
237.725500
 30
0.0
 10
864.004500
 20
236.126300
 30
0.0
 10
864.922700
 20
234.527100
 30
0.0
 10
865.840900
 20
232.927900
 30
0.0
 10
866.759100
 20
231.328700
 30
0.0
 10
867.677300
 20
229.729600
 30
0.0
 10
868.595500
 20
228.130400
 30
0.0
 10
869.513700
 20
226.531200
 30
0.0
 10
870.431900
 20
224.932000
 30
0.0
 10
871.350000
 20
223.332800
 30
0.0
 10
872.268200
 20
221.733600
 30
0.0
 10
873.186400
 20
220.134500
 30
0.0
 10
874.104600
 20
218.535300
 30
0.0
 10
875.022800
 20
216.936100
 30
0.0
 10
875.940900
 20
215.336900
 30
0.0
 10
876.859100
 20
213.737700
 30
0.0
 10
877.777300
 20
212.138500
 30
0.0
 10
878.695500
 20
210.539400
 30
0.0
 10
879.613700
 20
208.940200
 30
0.0
 10
880.531900
 20
207.341000
 30
0.0
 10
881.450100
 20
205.741800
 30
0.0
 10
882.368200
 20
204.142600
 30
0.0
 10
883.286400
 20
202.543500
 30
0.0
 10
884.204500
 20
200.944300
 30
0.0
 10
885.122700
 20
199.345100
 30
0.0
 10
886.041000
 20
197.745900
 30
0.0
 10
886.959100
 20
196.146700
 30
0.0
 10
887.877300
 20
194.547500
 30
0.0
 10
888.795500
 20
192.948400
 30
0.0
 10
889.713700
 20
191.349200
 30
0.0
 10
890.631900
 20
189.750000
 30
0.0
 10
891.550000
 20
188.150800
 30
0.0
 10
892.468300
 20
186.551600
 30
0.0
 10
893.386400
 20
184.952500
 30
0.0
 10
894.304600
 20
183.353300
 30
0.0
 10
895.222800
 20
181.754100
 30
0.0
 10
896.140900
 20
180.154900
 30
0.0
 10
897.059100
 20
178.555700
 30
0.0
 10
897.977300
 20
176.956500
 30
0.0
 10
898.895500
 20
175.357400
 30
0.0
 10
899.813700
 20
173.758200
 30
0.0
 10
900.731900
 20
172.159100
 30
0.0
 10
901.650100
 20
170.559900
 30
0.0
 10
902.568200
 20
168.960700
 30
0.0
 10
903.486500
 20
167.361500
 30
0.0
 10
904.404500
 20
165.762300
 30
0.0
 10
905.322800
 20
164.163100
 30
0.0
 10
906.241000
 20
162.564000
 30
0.0
 10
907.159100
 20
160.964800
 30
0.0
 10
908.077300
 20
159.365600
 30
0.0
 10
908.995500
 20
157.766400
 30
0.0
 10
909.913700
 20
156.167200
 30
0.0
 10
910.831900
 20
154.568100
 30
0.0
 10
911.750100
 20
152.968900
 30
0.0
 10
912.668300
 20
151.369700
 30
0.0
 10
913.586500
 20
149.770500
 30
0.0
 10
914.504600
 20
148.171300
 30
0.0
 10
915.422800
 20
146.572100
 30
0.0
 10
916.340900
 20
144.973000
 30
0.0
 10
917.259200
 20
143.373800
 30
0.0
 10
918.177300
 20
141.774600
 30
0.0
 10
919.095500
 20
140.175400
 30
0.0
 10
920.013700
 20
138.576200
 30
0.0
 10
920.931900
 20
136.977100
 30
0.0
 10
921.850100
 20
135.377900
 30
0.0
 10
922.768200
 20
133.778700
 30
0.0
 10
923.686500
 20
132.179500
 30
0.0
 10
924.604600
 20
130.580300
 30
0.0
 10
925.522800
 20
128.981100
 30
0.0
 10
926.441000
 20
127.382000
 30
0.0
 10
927.359100
 20
125.782800
 30
0.0
 10
928.277300
 20
124.183600
 30
0.0
 10
929.195600
 20
122.584400
 30
0.0
 10
930.113700
 20
120.985200
 30
0.0
 10
931.031900
 20
119.386000
 30
0.0
 10
931.950100
 20
117.786900
 30
0.0
 10
932.868300
 20
116.187700
 30
0.0
 10
933.786500
 20
114.588500
 30
0.0
 10
934.704600
 20
112.989300
 30
0.0
 10
935.622800
 20
111.390200
 30
0.0
 10
936.541000
 20
109.791000
 30
0.0
 10
937.459200
 20
108.191800
 30
0.0
 10
938.377300
 20
106.592700
 30
0.0
 10
939.295500
 20
104.993500
 30
0.0
 10
940.213700
 20
103.394300
 30
0.0
 10
941.131900
 20
101.795100
 30
0.0
 10
942.050100
 20
100.195900
 30
0.0
 10
942.968300
 20
98.596700
 30
0.0
 10
943.886500
 20
96.997600
 30
0.0
 10
944.804600
 20
95.398400
 30
0.0
 10
945.722800
 20
93.799200
 30
0.0
 10
946.641000
 20
92.200000
 30
0.0
  0
LWPOLYLINE
  5
106
100
AcDbEntity
  8
0
 62
7
100
AcDbPolyline
 90
100
 70
0
 10
304.259100
 20
250.518900
 30
0.0
 10
309.829600
 20
259.848100
 30
0.0
 10
315.400100
 20
268.508900
 30
0.0
 10
320.970600
 20
276.595500
 30
0.0
 10
326.541200
 20
284.180600
 30
0.0
 10
332.111700
 20
291.321400
 30
0.0
 10
337.682200
 20
298.064100
 30
0.0
 10
343.252700
 20
304.446700
 30
0.0
 10
348.823200
 20
310.500800
 30
0.0
 10
354.393800
 20
316.253100
 30
0.0
 10
359.964300
 20
321.726100
 30
0.0
 10
365.534900
 20
326.939500
 30
0.0
 10
371.105300
 20
331.910200
 30
0.0
 10
376.675900
 20
336.652900
 30
0.0
 10
382.246400
 20
341.180800
 30
0.0
 10
387.816900
 20
345.505300
 30
0.0
 10
393.387500
 20
349.636700
 30
0.0
 10
398.958000
 20
353.584200
 30
0.0
 10
404.528500
 20
357.356000
 30
0.0
 10
410.099000
 20
360.959400
 30
0.0
 10
415.669600
 20
364.401100
 30
0.0
 10
421.240100
 20
367.687200
 30
0.0
 10
426.810600
 20
370.823300
 30
0.0
 10
432.381100
 20
373.814300
 30
0.0
 10
437.951600
 20
376.664800
 30
0.0
 10
443.522200
 20
379.378900
 30
0.0
 10
449.092700
 20
381.960600
 30
0.0
 10
454.663200
 20
384.413300
 30
0.0
 10
460.233700
 20
386.740300
 30
0.0
 10
465.804300
 20
388.944400
 30
0.0
 10
471.374800
 20
391.028500
 30
0.0
 10
476.945300
 20
392.995000
 30
0.0
 10
482.515800
 20
394.846300
 30
0.0
 10
488.086400
 20
396.584300
 30
0.0
 10
493.656900
 20
398.211100
 30
0.0
 10
499.227400
 20
399.728400
 30
0.0
 10
504.797900
 20
401.137800
 30
0.0
 10
510.368400
 20
402.440900
 30
0.0
 10
515.939000
 20
403.638800
 30
0.0
 10
521.509500
 20
404.732900
 30
0.0
 10
527.080000
 20
405.724200
 30
0.0
 10
532.650600
 20
406.613700
 30
0.0
 10
538.221100
 20
407.402300
 30
0.0
 10
543.791600
 20
408.090600
 30
0.0
 10
549.362100
 20
408.679500
 30
0.0
 10
554.932700
 20
409.169300
 30
0.0
 10
560.503200
 20
409.560700
 30
0.0
 10
566.073700
 20
409.853900
 30
0.0
 10
571.644200
 20
410.049200
 30
0.0
 10
577.214700
 20
410.146800
 30
0.0
 10
582.785300
 20
410.146800
 30
0.0
 10
588.355800
 20
410.049200
 30
0.0
 10
593.926300
 20
409.853900
 30
0.0
 10
599.496800
 20
409.560700
 30
0.0
 10
605.067400
 20
409.169300
 30
0.0
 10
610.637900
 20
408.679500
 30
0.0
 10
616.208400
 20
408.090600
 30
0.0
 10
621.778900
 20
407.402300
 30
0.0
 10
627.349400
 20
406.613700
 30
0.0
 10
632.920000
 20
405.724200
 30
0.0
 10
638.490500
 20
404.732900
 30
0.0
 10
644.061000
 20
403.638800
 30
0.0
 10
649.631500
 20
402.440900
 30
0.0
 10
655.202100
 20
401.137800
 30
0.0
 10
660.772600
 20
399.728400
 30
0.0
 10
666.343100
 20
398.211100
 30
0.0
 10
671.913600
 20
396.584300
 30
0.0
 10
677.484200
 20
394.846300
 30
0.0
 10
683.054700
 20
392.995000
 30
0.0
 10
688.625200
 20
391.028500
 30
0.0
 10
694.195700
 20
388.944400
 30
0.0
 10
699.766200
 20
386.740300
 30
0.0
 10
705.336800
 20
384.413300
 30
0.0
 10
710.907300
 20
381.960600
 30
0.0
 10
716.477800
 20
379.378900
 30
0.0
 10
722.048300
 20
376.664800
 30
0.0
 10
727.618900
 20
373.814300
 30
0.0
 10
733.189400
 20
370.823300
 30
0.0
 10
738.759900
 20
367.687200
 30
0.0
 10
744.330400
 20
364.401100
 30
0.0
 10
749.900900
 20
360.959400
 30
0.0
 10
755.471500
 20
357.356000
 30
0.0
 10
761.042000
 20
353.584200
 30
0.0
 10
766.612500
 20
349.636700
 30
0.0
 10
772.183000
 20
345.505300
 30
0.0
 10
777.753600
 20
341.180800
 30
0.0
 10
783.324100
 20
336.652900
 30
0.0
 10
788.894700
 20
331.910200
 30
0.0
 10
794.465200
 20
326.939500
 30
0.0
 10
800.035700
 20
321.726100
 30
0.0
 10
805.606300
 20
316.253100
 30
0.0
 10
811.176800
 20
310.500800
 30
0.0
 10
816.747300
 20
304.446700
 30
0.0
 10
822.317800
 20
298.064100
 30
0.0
 10
827.888400
 20
291.321400
 30
0.0
 10
833.458900
 20
284.180600
 30
0.0
 10
839.029400
 20
276.595500
 30
0.0
 10
844.599900
 20
268.508900
 30
0.0
 10
850.170400
 20
259.848100
 30
0.0
 10
855.740900
 20
250.518900
 30
0.0
  0
LWPOLYLINE
  5
107
100
AcDbEntity
  8
0
 62
7
100
AcDbPolyline
 90
100
 70
0
 10
213.359000
 20
92.200000
 30
0.0
 10
214.277200
 20
93.799200
 30
0.0
 10
215.195400
 20
95.398400
 30
0.0
 10
216.113600
 20
96.997600
 30
0.0
 10
217.031700
 20
98.596700
 30
0.0
 10
217.949900
 20
100.195900
 30
0.0
 10
218.868100
 20
101.795100
 30
0.0
 10
219.786300
 20
103.394300
 30
0.0
 10
220.704500
 20
104.993500
 30
0.0
 10
221.622700
 20
106.592700
 30
0.0
 10
222.540800
 20
108.191800
 30
0.0
 10
223.459000
 20
109.791000
 30
0.0
 10
224.377200
 20
111.390200
 30
0.0
 10
225.295400
 20
112.989300
 30
0.0
 10
226.213600
 20
114.588500
 30
0.0
 10
227.131700
 20
116.187700
 30
0.0
 10
228.049900
 20
117.786900
 30
0.0
 10
228.968100
 20
119.386000
 30
0.0
 10
229.886300
 20
120.985200
 30
0.0
 10
230.804500
 20
122.584400
 30
0.0
 10
231.722700
 20
124.183600
 30
0.0
 10
232.640800
 20
125.782800
 30
0.0
 10
233.559000
 20
127.382000
 30
0.0
 10
234.477200
 20
128.981100
 30
0.0
 10
235.395400
 20
130.580300
 30
0.0
 10
236.313600
 20
132.179500
 30
0.0
 10
237.231800
 20
133.778700
 30
0.0
 10
238.149900
 20
135.377900
 30
0.0
 10
239.068100
 20
136.977100
 30
0.0
 10
239.986300
 20
138.576200
 30
0.0
 10
240.904500
 20
140.175400
 30
0.0
 10
241.822700
 20
141.774600
 30
0.0
 10
242.740800
 20
143.373800
 30
0.0
 10
243.659000
 20
144.973000
 30
0.0
 10
244.577200
 20
146.572100
 30
0.0
 10
245.495400
 20
148.171300
 30
0.0
 10
246.413600
 20
149.770500
 30
0.0
 10
247.331800
 20
151.369700
 30
0.0
 10
248.249900
 20
152.968900
 30
0.0
 10
249.168100
 20
154.568100
 30
0.0
 10
250.086300
 20
156.167200
 30
0.0
 10
251.004500
 20
157.766400
 30
0.0
 10
251.922700
 20
159.365600
 30
0.0
 10
252.840900
 20
160.964800
 30
0.0
 10
253.759000
 20
162.564000
 30
0.0
 10
254.677200
 20
164.163100
 30
0.0
 10
255.595400
 20
165.762300
 30
0.0
 10
256.513600
 20
167.361500
 30
0.0
 10
257.431800
 20
168.960700
 30
0.0
 10
258.349900
 20
170.559900
 30
0.0
 10
259.268100
 20
172.159100
 30
0.0
 10
260.186300
 20
173.758200
 30
0.0
 10
261.104500
 20
175.357400
 30
0.0
 10
262.022700
 20
176.956500
 30
0.0
 10
262.940900
 20
178.555700
 30
0.0
 10
263.859000
 20
180.154900
 30
0.0
 10
264.777200
 20
181.754100
 30
0.0
 10
265.695400
 20
183.353300
 30
0.0
 10
266.613600
 20
184.952500
 30
0.0
 10
267.531800
 20
186.551600
 30
0.0
 10
268.450000
 20
188.150800
 30
0.0
 10
269.368100
 20
189.750000
 30
0.0
 10
270.286300
 20
191.349200
 30
0.0
 10
271.204500
 20
192.948400
 30
0.0
 10
272.122700
 20
194.547500
 30
0.0
 10
273.040900
 20
196.146700
 30
0.0
 10
273.959000
 20
197.745900
 30
0.0
 10
274.877200
 20
199.345100
 30
0.0
 10
275.795400
 20
200.944300
 30
0.0
 10
276.713600
 20
202.543500
 30
0.0
 10
277.631800
 20
204.142600
 30
0.0
 10
278.550000
 20
205.741800
 30
0.0
 10
279.468100
 20
207.341000
 30
0.0
 10
280.386300
 20
208.940200
 30
0.0
 10
281.304500
 20
210.539400
 30
0.0
 10
282.222700
 20
212.138500
 30
0.0
 10
283.140900
 20
213.737700
 30
0.0
 10
284.059100
 20
215.336900
 30
0.0
 10
284.977200
 20
216.936100
 30
0.0
 10
285.895400
 20
218.535300
 30
0.0
 10
286.813600
 20
220.134500
 30
0.0
 10
287.731800
 20
221.733600
 30
0.0
 10
288.650000
 20
223.332800
 30
0.0
 10
289.568100
 20
224.932000
 30
0.0
 10
290.486300
 20
226.531200
 30
0.0
 10
291.404500
 20
228.130400
 30
0.0
 10
292.322700
 20
229.729600
 30
0.0
 10
293.240900
 20
231.328700
 30
0.0
 10
294.159100
 20
232.927900
 30
0.0
 10
295.077200
 20
234.527100
 30
0.0
 10
295.995400
 20
236.126300
 30
0.0
 10
296.913600
 20
237.725500
 30
0.0
 10
297.831800
 20
239.324600
 30
0.0
 10
298.750000
 20
240.923800
 30
0.0
 10
299.668200
 20
242.522900
 30
0.0
 10
300.586300
 20
244.122100
 30
0.0
 10
301.504500
 20
245.721300
 30
0.0
 10
302.422700
 20
247.320500
 30
0.0
 10
303.340900
 20
248.919700
 30
0.0
 10
304.259100
 20
250.518900
 30
0.0
  0
ENDSEC
  0
SECTION
  2
OBJECTS
  0
DICTIONARY
  5
C
330
0
100
AcDbDictionary
  3
ACAD_GROUP
350
D
  3
ACAD_MLINESTYLE
350
17
  0
DICTIONARY
  5
D
330
C
100
AcDbDictionary
  0
DICTIONARY
  5
1A
330
C
100
AcDbDictionary
  0
DICTIONARY
  5
17
330
C
100
AcDbDictionary
  3
STANDARD
350
18
  0
DICTIONARY
  5
19
330
C
100
AcDbDictionary
  0
ENDSEC
  0
EOF
