                                                                        S      1
,,9H(Unsaved),11HContour_CFD,7Hunknown,7Hunknown,32,38,7,99,15,,1.,1,4HIG      1
NCH,1,0.08,15H20260610.152210,0.000393700787401575,10000.,7Hunknown,7HunG      2
known,11,0,;                                                            G      3
     143       1                                                00000000D      1
     143       0     -97       1       0                               0D      2
     143       2                                                00000000D      3
     143       0     -97       1       0                               0D      4
     143       3                                                00000000D      5
     143       0     -97       1       0                               0D      6
     143       4                                                00000000D      7
     143       0     -97       1       0                               0D      8
     143       5                                                00000000D      9
     143       0     -97       1       0                               0D     10
     143       6                                                00000000D     11
     143       0     -97       1       0                               0D     12
     141       7                                                00010000D     13
     141       0               1       0                               0D     14
     141       8                                                00010000D     15
     141       0               1       0                               0D     16
     141       9                                                00010000D     17
     141       0               1       0                               0D     18
     141      10                                                00010000D     19
     141       0               1       0                               0D     20
     141      11                                                00010000D     21
     141       0               1       0                               0D     22
     141      12                                                00010000D     23
     141       0               1       0                               0D     24
     126      13                                                00010000D     25
     126       0               3       0                               0D     26
     126      16                                                00010000D     27
     126       0               3       0                               0D     28
     126      19                                                00010000D     29
     126       0               3       0                               0D     30
     126      22                                                00010000D     31
     126       0             108       0                               0D     32
     126     130                                                00010000D     33
     126       0               3       0                               0D     34
     126     133                                                00010000D     35
     126       0               4       0                               0D     36
     126     137                                                00010000D     37
     126       0               3       0                               0D     38
     126     140                                                00010000D     39
     126       0             108       0                               0D     40
     126     248                                                00010000D     41
     126       0               3       0                               0D     42
     126     251                                                00010000D     43
     126       0               4       0                               0D     44
     126     255                                                00010000D     45
     126       0               3       0                               0D     46
     126     258                                                00010000D     47
     126       0             108       0                               0D     48
     126     366                                                00010000D     49
     126       0               3       0                               0D     50
     126     369                                                00010000D     51
     126       0               3       0                               0D     52
     126     372                                                00010000D     53
     126       0               3       0                               0D     54
     126     375                                                00010000D     55
     126       0             108       0                               0D     56
     126     483                                                00010000D     57
     126       0               3       0                               0D     58
     126     486                                                00010000D     59
     126       0               4       0                               0D     60
     126     490                                                00010000D     61
     126       0               3       0                               0D     62
     126     493                                                00010000D     63
     126       0             109       0                               0D     64
     126     602                                                00010000D     65
     126       0             108       0                               0D     66
     126     710                                                00010000D     67
     126       0               3       0                               0D     68
     126     713                                                00010000D     69
     126       0               4       0                               0D     70
     126     717                                                00010000D     71
     126       0               3       0                               0D     72
     128     720                                                00010000D     73
     128       0               7       0                               0D     74
     128     727                                                00010000D     75
     128       0               7       0                               0D     76
     128     734                                                00010000D     77
     128       0               7       0                               0D     78
     128     741                                                00010000D     79
     128       0               7       0                               0D     80
     128     748                                                00010000D     81
     128       0               7       0                               0D     82
     128     755                                                00010000D     83
     128       0               7       0                               0D     84
     406     762                                                00000000D     85
     406                       1      15                               0D     86
     406     763                                                00000000D     87
     406                       1      15                               0D     88
     406     764                                                00000000D     89
     406                       1      15                               0D     90
     406     765                                                00000000D     91
     406                       1      15                               0D     92
     406     766                                                00000000D     93
     406                       1      15                               0D     94
     406     767                                                00000000D     95
     406                       1      15                               0D     96
     314     768                                                00000200D     97
     314                       2       0                               0D     98
143,0,73,1,13,0,1,85;                                                  1P      1
143,0,75,1,15,0,1,87;                                                  3P      2
143,0,77,1,17,0,1,89;                                                  5P      3
143,0,79,1,19,0,1,91;                                                  7P      4
143,0,81,1,21,0,1,93;                                                  9P      5
143,0,83,1,23,0,1,95;                                                 11P      6
141,0,1,73,4,25,1,0,27,1,0,29,2,0,31,2,0;                             13P      7
141,0,1,75,4,33,1,0,35,1,0,37,2,0,39,2,0;                             15P      8
141,0,1,77,4,41,1,0,43,1,0,45,2,0,47,2,0;                             17P      9
141,0,1,79,4,49,1,0,51,1,0,53,2,0,55,2,0;                             19P     10
141,0,1,81,4,57,1,0,59,1,0,61,2,0,63,2,0;                             21P     11
141,0,1,83,4,65,2,0,67,1,0,69,1,0,71,2,0;                             23P     12
126,1,1,0,0,1,0,0.,0.,4.86249594582877,4.86249594582877,1.,1.,        25P     13
-10.5003317051322,1.91436848260975,0.,-10.5003317051322,0.,0.,        25P     14
0.,4.86249594582877,0.,0.,0.;                                         25P     15
126,1,1,0,0,1,0,0.,0.,22.2932382482762,22.2932382482762,1.,1.,        27P     16
-10.5003317051322,0.,0.,-1.72346625305498,0.,0.,0.,                   27P     17
22.2932382482762,0.,0.,0.;                                            27P     18
126,1,1,0,0,1,0,0.,0.,4.86249594582877,4.86249594582877,1.,1.,        29P     19
-1.72346625305498,1.91436848260975,0.,-1.72346625305498,0.,0.,        29P     20
0.,4.86249594582877,0.,0.,0.;                                         29P     21
126,101,3,0,0,1,0,0.,0.,0.,0.,0.225184224730057,                      31P     22
0.450368449460125,0.675552674190175,0.90073689892025,                 31P     23
1.12592112365031,1.35110534838037,1.57628957311043,                   31P     24
1.8014737978405,2.02665802257056,2.25184224730062,                    31P     25
2.47702647203069,2.70221069676075,2.92739492149081,                   31P     26
3.15257914622087,3.37776337095093,3.602947595681,                     31P     27
3.82813182041106,4.05331604514112,4.27850026987118,                   31P     28
4.50368449460125,4.72886871933131,4.95405294406137,                   31P     29
5.17923716879143,5.4044213935215,5.62960561825156,                    31P     30
5.85478984298162,6.07997406771169,6.30515829244175,                   31P     31
6.53034251717181,6.75552674190187,6.98071096663193,                   31P     32
7.205895191362,7.43107941609206,7.65626364082212,                     31P     33
7.88144786555218,8.10663209028224,8.3318163150123,                    31P     34
8.55700053974237,8.78218476447243,9.00736898920249,                   31P     35
9.23255321393255,9.45773743866262,9.68292166339268,                   31P     36
9.90810588812274,10.1332901128528,10.3584743375829,                   31P     37
10.5836585623129,10.808842787043,11.0340270117731,                    31P     38
11.2592112365031,11.4843954612332,11.7095796859632,                   31P     39
11.9347639106933,12.1599481354234,12.3851323601534,                   31P     40
12.6103165848835,12.8355008096136,13.0606850343436,                   31P     41
13.2858692590737,13.5110534838037,13.7362377085338,                   31P     42
13.9614219332639,14.1866061579939,14.411790382724,                    31P     43
14.6369746074541,14.8621588321841,15.0873430569142,                   31P     44
15.3125272816442,15.5377115063743,15.7628957311044,                   31P     45
15.9880799558344,16.2132641805645,16.4384484052946,                   31P     46
16.6636326300246,16.8888168547547,17.1140010794847,                   31P     47
17.3391853042148,17.5643695289449,17.7895537536749,                   31P     48
18.014737978405,18.2399222031351,18.4651064278651,                    31P     49
18.6902906525952,18.9154748773252,19.1406591020553,                   31P     50
19.3658433267854,19.5910275515154,19.8162117762455,                   31P     51
20.0413960009756,20.2665802257056,20.4917644504357,                   31P     52
20.7169486751657,20.9421328998958,21.1673171246259,                   31P     53
21.3925013493559,21.617685574086,21.8428697988161,                    31P     54
22.0680540235461,22.2932382482762,22.2932382482762,                   31P     55
22.2932382482762,22.2932382482762,1.,1.,1.,1.,1.,1.,1.,1.,1.,1.,      31P     56
1.,1.,1.,1.,1.,1.,1.,1.,1.,1.,1.,1.,1.,1.,1.,1.,1.,1.,1.,1.,1.,       31P     57
1.,1.,1.,1.,1.,1.,1.,1.,1.,1.,1.,1.,1.,1.,1.,1.,1.,1.,1.,1.,1.,       31P     58
1.,1.,1.,1.,1.,1.,1.,1.,1.,1.,1.,1.,1.,1.,1.,1.,1.,1.,1.,1.,1.,       31P     59
1.,1.,1.,1.,1.,1.,1.,1.,1.,1.,1.,1.,1.,1.,1.,1.,1.,1.,1.,1.,1.,       31P     60
1.,1.,1.,1.,1.,1.,1.,1.,-10.5003317051322,1.91436848260975,0.,        31P     61
-10.4707799696033,1.91436848260975,0.,-10.4116764985456,              31P     62
1.91436848260975,0.,-10.3230212919589,1.91436848260975,0.,            31P     63
-10.2343660853723,1.91436848260975,0.,-10.1457108787857,              31P     64
1.91436848260975,0.,-10.057055672199,1.91436848260975,0.,             31P     65
-9.96840046561238,1.91436848260975,0.,-9.87974525902574,              31P     66
1.91436848260975,0.,-9.7910900524391,1.91436848260975,0.,             31P     67
-9.70243484585246,1.91436848260975,0.,-9.61377963926582,              31P     68
1.91436848260975,0.,-9.52512443267918,1.91436848260975,0.,            31P     69
-9.43646922609254,1.91436848260975,0.,-9.3478140195059,               31P     70
1.91436848260975,0.,-9.25915881291927,1.91436848260975,0.,            31P     71
-9.17050360633262,1.91436848260975,0.,-9.08184839974599,              31P     72
1.91436848260975,0.,-8.99319319315935,1.91436848260975,0.,            31P     73
-8.90453798657271,1.91436848260975,0.,-8.81588277998607,              31P     74
1.91436848260975,0.,-8.72722757339943,1.91436848260975,0.,            31P     75
-8.6385723668128,1.91436848260975,0.,-8.54991716022615,               31P     76
1.91436848260975,0.,-8.46126195363952,1.91436848260975,0.,            31P     77
-8.37260674705288,1.91436848260975,0.,-8.28395154046624,              31P     78
1.91436848260975,0.,-8.1952963338796,1.91436848260975,0.,             31P     79
-8.10664112729297,1.91436848260975,0.,-8.01798592070632,              31P     80
1.91436848260975,0.,-7.92933071411969,1.91436848260975,0.,            31P     81
-7.84067550753305,1.91436848260975,0.,-7.75202030094641,              31P     82
1.91436848260975,0.,-7.66336509435977,1.91436848260975,0.,            31P     83
-7.57470988777313,1.91436848260975,0.,-7.48605468118649,              31P     84
1.91436848260975,0.,-7.39739947459985,1.91436848260975,0.,            31P     85
-7.30874426801321,1.91436848260975,0.,-7.22008906142658,              31P     86
1.91436848260975,0.,-7.13143385483994,1.91436848260975,0.,            31P     87
-7.0427786482533,1.91436848260975,0.,-6.95412344166666,               31P     88
1.91436848260975,0.,-6.86546823508002,1.91436848260975,0.,            31P     89
-6.77681302849338,1.91436848260975,0.,-6.68815782190674,              31P     90
1.91436848260975,0.,-6.5995026153201,1.91436848260975,0.,             31P     91
-6.51084740873347,1.91436848260975,0.,-6.42219220214683,              31P     92
1.91436848260975,0.,-6.33353699556019,1.91436848260975,0.,            31P     93
-6.24488178897355,1.91436848260975,0.,-6.15622658238691,              31P     94
1.91436848260975,0.,-6.06757137580027,1.91436848260975,0.,            31P     95
-5.97891616921363,1.91436848260975,0.,-5.89026096262699,              31P     96
1.91436848260975,0.,-5.80160575604036,1.91436848260975,0.,            31P     97
-5.71295054945372,1.91436848260975,0.,-5.62429534286708,              31P     98
1.91436848260975,0.,-5.53564013628044,1.91436848260975,0.,            31P     99
-5.4469849296938,1.91436848260975,0.,-5.35832972310716,               31P    100
1.91436848260975,0.,-5.26967451652053,1.91436848260975,0.,            31P    101
-5.18101930993388,1.91436848260975,0.,-5.09236410334725,              31P    102
1.91436848260975,0.,-5.00370889676061,1.91436848260975,0.,            31P    103
-4.91505369017397,1.91436848260975,0.,-4.82639848358733,              31P    104
1.91436848260975,0.,-4.73774327700069,1.91436848260975,0.,            31P    105
-4.64908807041405,1.91436848260975,0.,-4.56043286382741,              31P    106
1.91436848260975,0.,-4.47177765724078,1.91436848260975,0.,            31P    107
-4.38312245065414,1.91436848260975,0.,-4.2944672440675,               31P    108
1.91436848260975,0.,-4.20581203748086,1.91436848260975,0.,            31P    109
-4.11715683089422,1.91436848260975,0.,-4.02850162430758,              31P    110
1.91436848260975,0.,-3.93984641772094,1.91436848260975,0.,            31P    111
-3.8511912111343,1.91436848260975,0.,-3.76253600454767,               31P    112
1.91436848260975,0.,-3.67388079796103,1.91436848260975,0.,            31P    113
-3.58522559137439,1.91436848260975,0.,-3.49657038478775,              31P    114
1.91436848260975,0.,-3.40791517820111,1.91436848260975,0.,            31P    115
-3.31925997161447,1.91436848260975,0.,-3.23060476502783,              31P    116
1.91436848260975,0.,-3.14194955844119,1.91436848260975,0.,            31P    117
-3.05329435185456,1.91436848260975,0.,-2.96463914526792,              31P    118
1.91436848260975,0.,-2.87598393868128,1.91436848260975,0.,            31P    119
-2.78732873209464,1.91436848260975,0.,-2.698673525508,                31P    120
1.91436848260975,0.,-2.61001831892136,1.91436848260975,0.,            31P    121
-2.52136311233472,1.91436848260975,0.,-2.43270790574808,              31P    122
1.91436848260975,0.,-2.34405269916145,1.91436848260975,0.,            31P    123
-2.25539749257481,1.91436848260975,0.,-2.16674228598817,              31P    124
1.91436848260975,0.,-2.07808707940153,1.91436848260975,0.,            31P    125
-1.98943187281489,1.91436848260975,0.,-1.90077666622825,              31P    126
1.91436848260975,0.,-1.81212145964161,1.91436848260975,0.,            31P    127
-1.75301798858386,1.91436848260975,0.,-1.72346625305498,              31P    128
1.91436848260975,0.,0.,22.2932382482762,0.,0.,0.;                     31P    129
126,1,1,0,0,1,0,0.,0.,4.86249594582877,4.86249594582877,1.,1.,        33P    130
-1.72346625305498,1.91436848260975,0.,-1.72346625305498,0.,0.,        33P    131
0.,4.86249594582877,0.,0.,0.;                                         33P    132
126,1,1,0,0,1,0,22.2932382482762,22.2932382482762,                    35P    133
23.1302880742348,23.1302880742348,1.,1.,-1.72346625305498,0.,0.,      35P    134
-1.3939190774807,0.,0.,22.2932382482762,23.1302880742348,0.,0.,       35P    135
0.;                                                                   35P    136
126,1,1,0,0,1,0,0.,0.,4.51577855553465,4.51577855553465,1.,1.,        37P    137
-1.3939190774807,1.77786557304514,0.,-1.3939190774807,0.,0.,0.,       37P    138
4.51577855553465,0.,0.,0.;                                            37P    139
126,101,3,0,0,1,0,0.,0.,0.,0.,0.00939117332748708,                    39P    140
0.0187823466549734,0.0281735199824605,0.0375646933099473,             39P    141
0.0469558666374345,0.0563470399649207,0.0657382132924079,             39P    142
0.0751293866198946,0.0845205599473811,0.0939117332748673,             39P    143
0.103302906602355,0.112694079929841,0.122085253257328,                39P    144
0.131476426584814,0.140867599912302,0.150258773239789,                39P    145
0.159649946567275,0.169041119894762,0.178432293222249,                39P    146
0.187823466549735,0.197214639877222,0.206605813204708,                39P    147
0.215996986532196,0.225388159859682,0.23477933318717,                 39P    148
0.244170506514656,0.253561679842143,0.262952853169629,                39P    149
0.272344026497117,0.281735199824603,0.291126373152089,                39P    150
0.300517546479576,0.309908719807063,0.31929989313455,                 39P    151
0.328691066462038,0.338082239789523,0.34747341311701,                 39P    152
0.356864586444498,0.366255759771984,0.375646933099471,                39P    153
0.385038106426958,0.394429279754444,0.403820453081931,                39P    154
0.413211626409418,0.422602799736905,0.431993973064392,                39P    155
0.441385146391879,0.450776319719365,0.460167493046851,                39P    156
0.469558666374339,0.478949839701825,0.488341013029312,                39P    157
0.4977321863568,0.507123359684286,0.516514533011772,                  39P    158
0.525905706339259,0.535296879666745,0.544688052994233,                39P    159
0.554079226321719,0.563470399649207,0.572861572976695,                39P    160
0.582252746304179,0.591643919631666,0.601035092959153,                39P    161
0.61042626628664,0.619817439614127,0.629208612941613,                 39P    162
0.6385997862691,0.647990959596586,0.657382132924073,                  39P    163
0.666773306251561,0.676164479579048,0.685555652906534,                39P    164
0.69494682623402,0.704337999561507,0.713729172888994,                 39P    165
0.723120346216481,0.732511519543967,0.741902692871455,                39P    166
0.751293866198941,0.760685039526429,0.770076212853915,                39P    167
0.779467386181401,0.788858559508888,0.798249732836375,                39P    168
0.807640906163862,0.817032079491349,0.826423252818836,                39P    169
0.835814426146323,0.845205599473808,0.854596772801296,                39P    170
0.863987946128782,0.87337911945627,0.882770292783756,                 39P    171
0.892161466111243,0.901552639438729,0.910943812766215,                39P    172
0.920334986093704,0.92972615942119,0.92972615942119,                  39P    173
0.92972615942119,0.92972615942119,1.,1.,1.,1.,1.,1.,1.,1.,1.,1.,      39P    174
1.,1.,1.,1.,1.,1.,1.,1.,1.,1.,1.,1.,1.,1.,1.,1.,1.,1.,1.,1.,1.,       39P    175
1.,1.,1.,1.,1.,1.,1.,1.,1.,1.,1.,1.,1.,1.,1.,1.,1.,1.,1.,1.,1.,       39P    176
1.,1.,1.,1.,1.,1.,1.,1.,1.,1.,1.,1.,1.,1.,1.,1.,1.,1.,1.,1.,1.,       39P    177
1.,1.,1.,1.,1.,1.,1.,1.,1.,1.,1.,1.,1.,1.,1.,1.,1.,1.,1.,1.,1.,       39P    178
1.,1.,1.,1.,1.,1.,1.,1.,-1.72346625305498,1.91436848260975,0.,        39P    179
-1.72223381237851,1.91436566012005,0.,-1.71976893102557,              39P    180
1.91436001514066,0.,-1.71607184169509,1.9143143568891,0.,             39P    181
-1.7123752177478,1.91424147611159,0.,-1.70867929183871,               39P    182
1.91413870717875,0.,-1.70498429657887,1.91400677204084,0.,            39P    183
-1.70129046452075,1.91384548728859,0.,-1.69759802814363,              39P    184
1.91365491444213,0.,-1.69390721983896,1.91343505173119,0.,            39P    185
-1.69021827189569,1.91318591668146,0.,-1.6865314164857,               39P    186
1.91290752398456,0.,-1.68284688564919,1.91259989142652,0.,            39P    187
-1.67916491128004,1.91226303829792,0.,-1.67548572511122,              39P    188
1.91189698581833,0.,-1.67180955870025,1.91150175702097,0.,            39P    189
-1.66813664341458,1.91107737678178,0.,-1.66446721041702,              39P    190
1.91062387180967,0.,-1.66080149065126,1.91014127064706,0.,            39P    191
-1.65713971482727,1.90962960366745,0.,-1.65348211340677,              39P    192
1.90908890307374,0.,-1.64982891658881,1.90851920289605,0.,            39P    193
-1.64618035429518,1.90792053898972,0.,-1.64253665615602,              39P    194
1.90729294903293,0.,-1.6388980514953,1.90663647252441,0.,             39P    195
-1.63526476931645,1.90595115078093,0.,-1.63163703828791,              39P    196
1.90523702693468,0.,-1.62801508672873,1.90449414593058,0.,            39P    197
-1.62439914259425,1.90372255452346,0.,-1.62078943346169,              39P    198
1.90292230127508,0.,-1.61718618651587,1.9020934365511,0.,             39P    199
-1.61358962853489,1.9012360125179,0.,-1.60999998587588,               39P    200
1.90035008313932,0.,-1.60641748446073,1.89943570417323,0.,            39P    201
-1.60284234976186,1.89849293316803,0.,-1.5992748067881,               39P    202
1.89752182945905,0.,-1.59571508007044,1.8965224541648,0.,             39P    203
-1.59216339364793,1.8954948701831,0.,-1.58861997105363,               39P    204
1.89443914218718,0.,-1.58508503530044,1.89335533662153,0.,            39P    205
-1.58155880886718,1.89224352169781,0.,-1.5780415136845,               39P    206
1.89110376739048,0.,-1.57453337112093,1.88993614543243,0.,            39P    207
-1.57103460196899,1.88874072931046,0.,-1.56754542643125,              39P    208
1.88751759426066,0.,-1.56406606410648,1.88626681726366,0.,            39P    209
-1.56059673397584,1.88498847703982,0.,-1.5571376543891,               39P    210
1.88368265404422,0.,-1.55368904305088,1.88234943046165,0.,            39P    211
-1.55025111700696,1.88098889020141,0.,-1.54682409263061,              39P    212
1.87960111889202,0.,-1.543408185609,1.87818620387586,0.,              39P    213
-1.54000361092959,1.87674423420366,0.,-1.53661058286662,              39P    214
1.87527530062888,0.,-1.53322931496761,1.87377949560202,0.,            39P    215
-1.52986002003995,1.87225691326479,0.,-1.52650291013746,              39P    216
1.87070764944418,0.,-1.52315819654708,1.86913180164646,0.,            39P    217
-1.51982608977557,1.867529469051,0.,-1.51650679953624,                39P    218
1.86590075250404,0.,-1.51320053473577,1.86424575451237,0.,            39P    219
-1.50990750346106,1.86256457923686,0.,-1.50662791296612,              39P    220
1.86085733248589,0.,-1.50336196965903,1.85912412170871,0.,            39P    221
-1.50010987908898,1.85736505598867,0.,-1.49687184593328,              39P    222
1.85558024603637,0.,-1.49364807398453,1.85376980418265,0.,            39P    223
-1.49043876613775,1.85193384437159,0.,-1.48724412437765,              39P    224
1.85007248215325,0.,-1.48406434976589,1.84818583467648,0.,            39P    225
-1.48089964242842,1.8462740206815,0.,-1.47775020154291,               39P    226
1.84433716049245,0.,-1.47461622532622,1.84237537600978,0.,            39P    227
-1.47149791102188,1.84038879070263,0.,-1.46839545488771,              39P    228
1.83837752960103,0.,-1.46530905218348,1.83634171928802,0.,            39P    229
-1.46223889715859,1.83428148789171,0.,-1.45918518303985,              39P    230
1.83219696507719,0.,-1.45614810201934,1.8300882820384,0.,             39P    231
-1.45312784524228,1.82795557148985,0.,-1.45012460279506,              39P    232
1.82579896765827,0.,-1.44713856369318,1.82361860627416,0.,            39P    233
-1.44416991586946,1.82141462456326,0.,-1.44121884616215,              39P    234
1.81918716123791,0.,-1.43828554030316,1.81693635648831,0.,            39P    235
-1.4353701829064,1.81466235197371,0.,-1.43247295745624,               39P    236
1.81236529081342,0.,-1.42959404629553,1.81004531757818,0.,            39P    237
-1.42673363061573,1.80770257827955,0.,-1.42389189043964,              39P    238
1.80533722036647,0.,-1.42106900463176,1.80294939269438,0.,            39P    239
-1.41826515080629,1.80053924559654,0.,-1.41548050561707,              39P    240
1.79810693057351,0.,-1.41271524362293,1.79565260140704,0.,            39P    241
-1.40996954146953,1.79317640995773,0.,-1.40724356223066,              39P    242
1.79067852180289,0.,-1.40453751379528,1.78815905782889,0.,            39P    243
-1.40185143091288,1.78561831216512,0.,-1.39918598856027,              39P    244
1.78305593879649,0.,-1.39653946636474,1.78047398711955,0.,            39P    245
-1.39479254044205,1.77873504440328,0.,-1.3939190774807,               39P    246
1.77786557304514,0.,0.,0.92972615942119,0.,0.,0.;                     39P    247
126,1,1,0,0,1,0,0.,0.,4.51577855553465,4.51577855553465,1.,1.,        41P    248
-1.3939190774807,1.77786557304514,0.,-1.3939190774807,0.,0.,0.,       41P    249
4.51577855553465,0.,0.,0.;                                            41P    250
126,1,1,0,0,1,0,23.1302880742348,23.1302880742348,                    43P    251
23.9392953182544,23.9392953182544,1.,1.,-1.3939190774807,0.,0.,       43P    252
-1.07541228849661,0.,0.,23.1302880742348,23.9392953182544,0.,0.,      43P    253
0.;                                                                   43P    254
126,1,1,0,0,1,0,0.,0.,3.70677131151506,3.70677131151506,1.,1.,        45P    255
-1.07541228849661,1.45935878406105,0.,-1.07541228849661,0.,0.,        45P    256
0.,3.70677131151506,0.,0.,0.;                                         45P    257
126,101,3,0,0,1,0,0.,0.,0.,0.,0.0115566567328342,                     47P    258
0.0231133134656694,0.0346699701985027,0.0462266269313369,             47P    259
0.0577832836641711,0.069339940397005,0.0808965971298405,              47P    260
0.0924532538626744,0.104009910595507,0.115566567328343,               47P    261
0.127123224061177,0.138679880794011,0.150236537526846,                47P    262
0.161793194259679,0.173349850992514,0.184906507725349,                47P    263
0.196463164458182,0.208019821191017,0.219576477923851,                47P    264
0.231133134656685,0.24268979138952,0.254246448122353,                 47P    265
0.265803104855187,0.277359761588023,0.288916418320856,                47P    266
0.30047307505369,0.312029731786525,0.323586388519359,                 47P    267
0.335143045252193,0.346699701985029,0.358256358717862,                47P    268
0.369813015450696,0.38136967218353,0.392926328916366,                 47P    269
0.4044829856492,0.416039642382033,0.427596299114866,                  47P    270
0.439152955847703,0.450709612580536,0.46226626931337,                 47P    271
0.473822926046205,0.485379582779039,0.496936239511874,                47P    272
0.508492896244707,0.520049552977542,0.531606209710376,                47P    273
0.54316286644321,0.554719523176044,0.566276179908879,                 47P    274
0.577832836641712,0.589389493374547,0.600946150107381,                47P    275
0.612502806840216,0.62405946357305,0.635616120305884,                 47P    276
0.647172777038718,0.658729433771552,0.670286090504387,                47P    277
0.681842747237221,0.693399403970055,0.704956060702889,                47P    278
0.716512717435724,0.728069374168558,0.739626030901392,                47P    279
0.751182687634227,0.762739344367061,0.774296001099895,                47P    280
0.785852657832729,0.797409314565564,0.808965971298398,                47P    281
0.820522628031232,0.832079284764067,0.843635941496901,                47P    282
0.855192598229735,0.866749254962569,0.878305911695404,                47P    283
0.889862568428238,0.901419225161072,0.912975881893907,                47P    284
0.924532538626741,0.936089195359574,0.947645852092409,                47P    285
0.959202508825243,0.970759165558077,0.982315822290911,                47P    286
0.993872479023746,1.00542913575658,1.01698579248941,                  47P    287
1.02854244922225,1.04009910595508,1.05165576268792,                   47P    288
1.06321241942075,1.07476907615359,1.08632573288642,                   47P    289
1.09788238961925,1.10943904635209,1.12099570308492,                   47P    290
1.13255235981776,1.14410901655059,1.14410901655059,                   47P    291
1.14410901655059,1.14410901655059,1.,1.,1.,1.,1.,1.,1.,1.,1.,1.,      47P    292
1.,1.,1.,1.,1.,1.,1.,1.,1.,1.,1.,1.,1.,1.,1.,1.,1.,1.,1.,1.,1.,       47P    293
1.,1.,1.,1.,1.,1.,1.,1.,1.,1.,1.,1.,1.,1.,1.,1.,1.,1.,1.,1.,1.,       47P    294
1.,1.,1.,1.,1.,1.,1.,1.,1.,1.,1.,1.,1.,1.,1.,1.,1.,1.,1.,1.,1.,       47P    295
1.,1.,1.,1.,1.,1.,1.,1.,1.,1.,1.,1.,1.,1.,1.,1.,1.,1.,1.,1.,1.,       47P    296
1.,1.,1.,1.,1.,1.,1.,1.,-1.3939190774807,1.77786557304514,0.,         47P    297
-1.39284666404978,1.77679315961422,0.,-1.39070183718793,              47P    298
1.77464833275237,0.,-1.38748459689517,1.7714310924596,0.,             47P    299
-1.3842673566024,1.76821385216683,0.,-1.38105011630963,               47P    300
1.76499661187407,0.,-1.37783287601686,1.7617793715813,0.,             47P    301
-1.37461563572409,1.75856213128853,0.,-1.37139839543132,              47P    302
1.75534489099576,0.,-1.36818115513855,1.75212765070299,0.,            47P    303
-1.36496391484579,1.74891041041022,0.,-1.36174667455302,              47P    304
1.74569317011745,0.,-1.35852943426025,1.74247592982468,0.,            47P    305
-1.35531219396748,1.73925868953192,0.,-1.35209495367471,              47P    306
1.73604144923915,0.,-1.34887771338194,1.73282420894638,0.,            47P    307
-1.34566047308917,1.72960696865361,0.,-1.34244323279641,              47P    308
1.72638972836084,0.,-1.33922599250364,1.72317248806807,0.,            47P    309
-1.33600875221087,1.7199552477753,0.,-1.3327915119181,                47P    310
1.71673800748254,0.,-1.32957427162533,1.71352076718977,0.,            47P    311
-1.32635703133256,1.710303526897,0.,-1.32313979103979,                47P    312
1.70708628660423,0.,-1.31992255074703,1.70386904631146,0.,            47P    313
-1.31670531045426,1.70065180601869,0.,-1.31348807016149,              47P    314
1.69743456572592,0.,-1.31027082986872,1.69421732543316,0.,            47P    315
-1.30705358957595,1.69100008514039,0.,-1.30383634928318,              47P    316
1.68778284484762,0.,-1.30061910899041,1.68456560455485,0.,            47P    317
-1.29740186869764,1.68134836426208,0.,-1.29418462840488,              47P    318
1.67813112396931,0.,-1.29096738811211,1.67491388367654,0.,            47P    319
-1.28775014781934,1.67169664338377,0.,-1.28453290752657,              47P    320
1.66847940309101,0.,-1.2813156672338,1.66526216279824,0.,             47P    321
-1.27809842694103,1.66204492250547,0.,-1.27488118664826,              47P    322
1.6588276822127,0.,-1.2716639463555,1.65561044191993,0.,              47P    323
-1.26844670606273,1.65239320162716,0.,-1.26522946576996,              47P    324
1.6491759613344,0.,-1.26201222547719,1.64595872104163,0.,             47P    325
-1.25879498518442,1.64274148074886,0.,-1.25557774489165,              47P    326
1.63952424045609,0.,-1.25236050459888,1.63630700016332,0.,            47P    327
-1.24914326430612,1.63308975987055,0.,-1.24592602401335,              47P    328
1.62987251957778,0.,-1.24270878372058,1.62665527928501,0.,            47P    329
-1.23949154342781,1.62343803899225,0.,-1.23627430313504,              47P    330
1.62022079869948,0.,-1.23305706284227,1.61700355840671,0.,            47P    331
-1.2298398225495,1.61378631811394,0.,-1.22662258225674,               47P    332
1.61056907782117,0.,-1.22340534196397,1.6073518375284,0.,             47P    333
-1.2201881016712,1.60413459723563,0.,-1.21697086137843,               47P    334
1.60091735694287,0.,-1.21375362108566,1.5977001166501,0.,             47P    335
-1.21053638079289,1.59448287635733,0.,-1.20731914050012,              47P    336
1.59126563606456,0.,-1.20410190020736,1.58804839577179,0.,            47P    337
-1.20088465991459,1.58483115547902,0.,-1.19766741962182,              47P    338
1.58161391518625,0.,-1.19445017932905,1.57839667489349,0.,            47P    339
-1.19123293903628,1.57517943460072,0.,-1.18801569874351,              47P    340
1.57196219430795,0.,-1.18479845845074,1.56874495401518,0.,            47P    341
-1.18158121815798,1.56552771372241,0.,-1.17836397786521,              47P    342
1.56231047342964,0.,-1.17514673757244,1.55909323313687,0.,            47P    343
-1.17192949727967,1.55587599284411,0.,-1.1687122569869,               47P    344
1.55265875255134,0.,-1.16549501669413,1.54944151225857,0.,            47P    345
-1.16227777640136,1.5462242719658,0.,-1.1590605361086,                47P    346
1.54300703167303,0.,-1.15584329581583,1.53978979138026,0.,            47P    347
-1.15262605552306,1.53657255108749,0.,-1.14940881523029,              47P    348
1.53335531079472,0.,-1.14619157493752,1.53013807050196,0.,            47P    349
-1.14297433464475,1.52692083020919,0.,-1.13975709435198,              47P    350
1.52370358991642,0.,-1.13653985405921,1.52048634962365,0.,            47P    351
-1.13332261376645,1.51726910933088,0.,-1.13010537347368,              47P    352
1.51405186903811,0.,-1.12688813318091,1.51083462874534,0.,            47P    353
-1.12367089288814,1.50761738845258,0.,-1.12045365259537,              47P    354
1.50440014815981,0.,-1.1172364123026,1.50118290786704,0.,             47P    355
-1.11401917200983,1.49796566757427,0.,-1.11080193171707,              47P    356
1.4947484272815,0.,-1.1075846914243,1.49153118698873,0.,              47P    357
-1.10436745113153,1.48831394669596,0.,-1.10115021083876,              47P    358
1.4850967064032,0.,-1.09793297054599,1.48187946611043,0.,             47P    359
-1.09471573025322,1.47866222581766,0.,-1.09149848996045,              47P    360
1.47544498552489,0.,-1.08828124966769,1.47222774523212,0.,            47P    361
-1.08506400937492,1.46901050493935,0.,-1.08184676908215,              47P    362
1.46579326464658,0.,-1.07862952878938,1.46257602435382,0.,            47P    363
-1.07648470192753,1.46043119749197,0.,-1.07541228849661,              47P    364
1.45935878406105,0.,0.,1.14410901655059,0.,0.,0.;                     47P    365
126,1,1,0,0,1,0,0.,0.,3.70677131151506,3.70677131151506,1.,1.,        49P    366
-1.07541228849661,1.45935878406105,0.,-1.07541228849661,0.,0.,        49P    367
0.,3.70677131151506,0.,0.,0.;                                         49P    368
126,1,1,0,0,1,0,23.9392953182544,23.9392953182544,                    51P    369
26.6708425310358,26.6708425310358,1.,1.,-1.07541228849661,0.,0.,      51P    370
0.,0.,0.,23.9392953182544,26.6708425310358,0.,0.,0.;                  51P    371
126,1,1,0,0,1,0,0.,0.,2.57532740971858,2.57532740971858,1.,1.,        53P    372
9.31259784173712D-17,1.01390842902306,0.,0.,0.,0.,0.,                 53P    373
2.57532740971858,0.,0.,0.;                                            53P    374
126,101,3,0,0,1,0,0.,0.,0.,0.,0.0306462441445053,                     55P    375
0.0612924882890085,0.0919387324335128,0.122584976578016,              55P    376
0.15323122072252,0.183877464867024,0.21452370901153,                  55P    377
0.245169953156033,0.275816197300536,0.306462441445041,                55P    378
0.337108685589544,0.367754929734049,0.398401173878553,                55P    379
0.429047418023058,0.459693662167561,0.490339906312065,                55P    380
0.520986150456569,0.551632394601072,0.582278638745578,                55P    381
0.612924882890081,0.643571127034587,0.674217371179088,                55P    382
0.704863615323593,0.735509859468098,0.766156103612601,                55P    383
0.796802347757106,0.827448591901609,0.858094836046113,                55P    384
0.888741080190617,0.919387324335122,0.950033568479627,                55P    385
0.980679812624129,1.01132605676863,1.04197230091314,                  55P    386
1.07261854505764,1.10326478920214,1.13391103334665,                   55P    387
1.16455727749115,1.19520352163566,1.22584976578016,                   55P    388
1.25649600992467,1.28714225406917,1.31778849821367,                   55P    389
1.34843474235818,1.37908098650268,1.40972723064719,                   55P    390
1.44037347479169,1.47101971893619,1.5016659630807,                    55P    391
1.5323122072252,1.56295845136971,1.59360469551421,                    55P    392
1.62425093965871,1.65489718380322,1.68554342794772,                   55P    393
1.71618967209223,1.74683591623673,1.77748216038124,                   55P    394
1.80812840452574,1.83877464867024,1.86942089281475,                   55P    395
1.90006713695925,1.93071338110375,1.96135962524826,                   55P    396
1.99200586939276,2.02265211353727,2.05329835768177,                   55P    397
2.08394460182628,2.11459084597078,2.14523709011528,                   55P    398
2.17588333425979,2.20652957840429,2.23717582254879,                   55P    399
2.2678220666933,2.2984683108378,2.32911455498231,                     55P    400
2.35976079912681,2.39040704327132,2.42105328741582,                   55P    401
2.45169953156032,2.48234577570483,2.51299201984933,                   55P    402
2.54363826399384,2.57428450813834,2.60493075228284,                   55P    403
2.63557699642735,2.66622324057185,2.69686948471636,                   55P    404
2.72751572886086,2.75816197300536,2.78880821714987,                   55P    405
2.81945446129437,2.85010070543888,2.88074694958338,                   55P    406
2.91139319372788,2.94203943787239,2.97268568201689,                   55P    407
3.0033319261614,3.0339781703059,3.0339781703059,3.0339781703059,      55P    408
3.0339781703059,1.,1.,1.,1.,1.,1.,1.,1.,1.,1.,1.,1.,1.,1.,1.,1.,      55P    409
1.,1.,1.,1.,1.,1.,1.,1.,1.,1.,1.,1.,1.,1.,1.,1.,1.,1.,1.,1.,1.,       55P    410
1.,1.,1.,1.,1.,1.,1.,1.,1.,1.,1.,1.,1.,1.,1.,1.,1.,1.,1.,1.,1.,       55P    411
1.,1.,1.,1.,1.,1.,1.,1.,1.,1.,1.,1.,1.,1.,1.,1.,1.,1.,1.,1.,1.,       55P    412
1.,1.,1.,1.,1.,1.,1.,1.,1.,1.,1.,1.,1.,1.,1.,1.,1.,1.,1.,1.,1.,       55P    413
1.,1.,-1.07541228849661,1.45935878406105,0.,-1.07256191418968,        55P    414
1.45652143556487,0.,-1.06686116557583,1.4508467385725,0.,             55P    415
-1.0582247617411,1.44242104790515,0.,-1.0495266157009,                55P    416
1.43405924719017,0.,-1.04076111335784,1.42576802422945,0.,            55P    417
-1.03193045736571,1.41754624987092,0.,-1.02303476112263,              55P    418
1.40939488394788,0.,-1.0140747030333,1.40131432094921,0.,             55P    419
-1.00505081525693,1.39330510120388,0.,-0.995963674241761,             55P    420
1.38536772027894,0.,-0.986813849626212,1.37750268001093,0.,           55P    421
-0.97760191788522,1.36971047479206,0.,-0.968328458627826,             55P    422
1.36199159520528,0.,-0.958994055543023,1.35434652701102,0.,           55P    423
-0.949599296099817,1.34677575137986,0.,-0.940144771580772,            55P    424
1.33927974479173,0.,-0.930631077025904,1.33185897902478,0.,           55P    425
-0.921058811200291,1.32451392112066,0.,-0.911428576555036,            55P    426
1.31724503335647,0.,-0.901740979189709,1.31005277321529,0.,           55P    427
-0.891996628814106,1.30293759335751,0.,-0.882196138709902,            55P    428
1.29589994159229,0.,-0.872340125692046,1.2889402608494,0.,            55P    429
-0.862429210069939,1.28205898915133,0.,-0.852464015608401,            55P    430
1.27525655958574,0.,-0.842445169488398,1.26853340027818,0.,           55P    431
-0.83237330226759,1.26188993436516,0.,-0.822249047840625,             55P    432
1.25532657996751,0.,-0.812073043399258,1.24884375016407,0.,           55P    433
-0.80184592939224,1.24244185296569,0.,-0.791568349485013,             55P    434
1.23612129128957,0.,-0.781240950519201,1.22988246293386,0.,           55P    435
-0.770864382471896,1.22372576055265,0.,-0.760439298414752,            55P    436
1.21765157163128,0.,-0.749966354472882,1.21166027846189,0.,           55P    437
-0.739446209783565,1.20575225811943,0.,-0.728879526454761,            55P    438
1.19992788243787,0.,-0.718266969523439,1.19418751798685,0.,           55P    439
-0.707609206913721,1.18853152604856,0.,-0.696906909394848,            55P    440
1.18296026259504,0.,-0.686160750538958,1.17747407826573,0.,           55P    441
-0.6753714066787,1.17207331834548,0.,-0.664539556864663,              55P    442
1.16675832274273,0.,-0.653665882822639,1.16152942596818,0.,           55P    443
-0.642751068910719,1.15638695711371,0.,-0.631795802076219,            55P    444
1.15133123983166,0.,-0.620800771812448,1.14636259231449,0.,           55P    445
-0.609766670115312,1.14148132727473,0.,-0.598694191439761,            55P    446
1.13668775192531,0.,-0.587584032656083,1.13198216796021,0.,           55P    447
-0.576436893006046,1.1273648715355,0.,-0.565253474058886,             55P    448
1.12283615325067,0.,-0.554034479667157,1.11839629813035,0.,           55P    449
-0.542780615922429,1.11404558560638,0.,-0.53149259111085,             55P    450
1.10978428950023,0.,-0.520171115668569,1.10561267800575,0.,           55P    451
-0.50881690213702,1.10153101367228,0.,-0.497430665118083,             55P    452
1.09753955338816,0.,-0.486013121229103,1.09363854836454,0.,           55P    453
-0.47456498905779,1.08982824411957,0.,-0.463086989116994,             55P    454
1.08610888046295,0.,-0.451579843799356,1.08248069148085,0.,           55P    455
-0.440044277331847,1.07894390552114,0.,-0.428481015730182,            55P    456
1.07549874517907,0.,-0.416890786753129,1.07214542728323,0.,           55P    457
-0.405274319856707,1.06888416288189,0.,-0.393632346148274,            55P    458
1.06571515722976,0.,-0.381965598340514,1.06263860977503,0.,           55P    459
-0.370274810705323,1.05965471414683,0.,-0.358560719027595,            55P    460
1.05676365814307,0.,-0.346824060558914,1.05396562371858,0.,           55P    461
-0.335065573971154,1.05126078697368,0.,-0.323285999309988,            55P    462
1.04864931814309,0.,-0.311486077948313,1.04613138158524,0.,           55P    463
-0.299666552539589,1.04370713577188,0.,-0.287828166971098,            55P    464
1.04137673327813,0.,-0.275971666317129,1.0391403207729,0.,            55P    465
-0.264097796792081,1.03699803900963,0.,-0.252207305703502,            55P    466
1.03495002281744,0.,-0.240300941405051,1.03299640109262,0.,           55P    467
-0.228379453249405,1.03113729679057,0.,-0.216443591541091,            55P    468
1.02937282691803,0.,-0.204494107489269,1.0277031025257,0.,            55P    469
-0.192531753160448,1.0261282287013,0.,-0.180557281431156,             55P    470
1.02464830456282,0.,-0.168571445940557,1.02326342325279,0.,           55P    471
-0.156575001043018,1.02197367193052,0.,-0.14456870176063,             55P    472
1.02077913177372,0.,-0.132553303735691,1.01967987794674,0.,           55P    473
-0.120529563183151,1.01867597969551,0.,-0.108498236843011,            55P    474
1.01776749997101,0.,-0.0964600819327029,1.01695449681446,0.,          55P    475
-0.0844158560994273,1.01623701816907,0.,-0.0723663173724725,          55P    476
1.01561512122644,0.,-0.0603122241155053,1.0150888002097,0.,           55P    477
-0.0482543349788406,1.01465825587764,0.,-0.0361934088516967,          55P    478
1.01432288971021,0.,-0.0241302048144301,1.01408505764993,0.,          55P    479
-0.0120654820907632,1.01393606094039,0.,-0.00402182736358768,         55P    480
1.01391763966217,0.,9.31259784173712D-17,1.01390842902306,0.,0.,      55P    481
3.0339781703059,0.,0.,0.;                                             55P    482
126,1,1,0,0,1,0,0.,0.,2.57532740971858,2.57532740971858,1.,1.,        57P    483
9.31259784173712D-17,1.01390842902306,0.,0.,0.,0.,0.,                 57P    484
2.57532740971858,0.,0.,0.;                                            57P    485
126,1,1,0,0,1,0,26.6708425310358,26.6708425310358,                    59P    486
27.0705357721691,27.0705357721691,1.,1.,0.,0.,0.,                     59P    487
0.157359543753269,0.,0.,26.6708425310358,27.0705357721691,0.,0.,      59P    488
0.;                                                                   59P    489
126,1,1,0,0,1,0,0.,0.,2.66018162589838,2.66018162589838,1.,1.,        61P    490
0.157359543753268,1.04731560074739,0.,0.157359543753268,0.,0.,        61P    491
0.,2.66018162589838,0.,0.,0.;                                         61P    492
126,101,3,0,0,1,0,0.,0.,0.,0.,0.00415753864441337,                    63P    493
0.00831507728882674,0.0124726159332403,0.0166301545776537,            63P    494
0.0207876932220671,0.0249452318664805,0.0291027705108938,             63P    495
0.0332603091553074,0.0374178477997208,0.0415753864441341,             63P    496
0.0457329250885475,0.0498904637329611,0.0540480023773744,             63P    497
0.0582055410217878,0.0623630796662012,0.0665206183106145,             63P    498
0.0706781569550282,0.0748356955994415,0.0789932342438549,             63P    499
0.0831507728882683,0.0873083115326816,0.0914658501770953,             63P    500
0.0956233888215085,0.099780927465922,0.103938466110335,               63P    501
0.108096004754749,0.112253543399162,0.116411082043576,                63P    502
0.120568620687989,0.124726159332402,0.128883697976816,                63P    503
0.133041236621229,0.137198775265643,0.141356313910056,                63P    504
0.145513852554469,0.149671391198883,0.153828929843296,                63P    505
0.15798646848771,0.162144007132123,0.166301545776537,                 63P    506
0.17045908442095,0.174616623065363,0.178774161709777,                 63P    507
0.18293170035419,0.187089238998604,0.191246777643017,                 63P    508
0.195404316287431,0.199561854931844,0.203719393576257,                63P    509
0.207876932220671,0.212034470865084,0.216192009509498,                63P    510
0.220349548153911,0.224507086798324,0.228664625442738,                63P    511
0.232822164087151,0.236979702731565,0.241137241375978,                63P    512
0.245294780020392,0.249452318664805,0.253609857309218,                63P    513
0.257767395953632,0.261924934598045,0.266082473242459,                63P    514
0.270240011886872,0.274397550531285,0.278555089175699,                63P    515
0.282712627820112,0.286870166464526,0.291027705108939,                63P    516
0.295185243753353,0.299342782397766,0.303500321042179,                63P    517
0.307657859686593,0.311815398331006,0.31597293697542,                 63P    518
0.320130475619833,0.324288014264246,0.32844555290866,                 63P    519
0.332603091553073,0.336760630197487,0.3409181688419,                  63P    520
0.345075707486313,0.349233246130727,0.35339078477514,                 63P    521
0.357548323419554,0.361705862063967,0.36586340070838,                 63P    522
0.370020939352794,0.374178477997207,0.378336016641621,                63P    523
0.382493555286034,0.386651093930448,0.390808632574861,                63P    524
0.394966171219275,0.399123709863688,0.403281248508102,                63P    525
0.407438787152515,0.411596325796928,0.411596325796928,                63P    526
0.411596325796928,0.411596325796928,1.,1.,1.,1.,1.,1.,1.,1.,1.,       63P    527
1.,1.,1.,1.,1.,1.,1.,1.,1.,1.,1.,1.,1.,1.,1.,1.,1.,1.,1.,1.,1.,       63P    528
1.,1.,1.,1.,1.,1.,1.,1.,1.,1.,1.,1.,1.,1.,1.,1.,1.,1.,1.,1.,1.,       63P    529
1.,1.,1.,1.,1.,1.,1.,1.,1.,1.,1.,1.,1.,1.,1.,1.,1.,1.,1.,1.,1.,       63P    530
1.,1.,1.,1.,1.,1.,1.,1.,1.,1.,1.,1.,1.,1.,1.,1.,1.,1.,1.,1.,1.,       63P    531
1.,1.,1.,1.,1.,1.,1.,1.,1.,2.37160825036239D-17,                      63P    532
1.01390842902306,0.,0.000545609152009262,1.01390909465243,0.,         63P    533
0.00163682745602774,1.01391042591117,0.,0.00327362567835018,          63P    534
1.01392119367878,0.,0.00491036543378417,1.01393838197396,0.,          63P    535
0.0065470174901907,1.0139626202131,0.,0.00818355261699712,            63P    536
1.01399373922944,0.,0.00981994158571913,1.01403178367928,0.,          63P    537
0.0114561551704829,1.01407674076862,0.,0.0130921641485467,            63P    538
1.01412861294061,0.,0.0147279393008234,1.01418739839901,0.,           63P    539
0.0163634514124017,1.01425309632699,0.,0.0179986712730685,            63P    540
1.01432570548873,0.,0.0196335696778299,1.01440522460417,0.,           63P    541
0.0212681174274336,1.01449165224861,0.,0.0229022853288897,            63P    542
1.01458498687965,0.,0.0245360441959926,1.01468522683004,0.,           63P    543
0.026169364849842,1.01479237030955,0.,0.0278022181193637,             63P    544
1.0149064154046,0.,0.0294345748418317,1.01502736007834,0.,            63P    545
0.0310664058633876,1.0151552021707,0.,0.0326976820395626,             63P    546
1.01528993939843,0.,0.0343283742357969,1.01543156935513,0.,           63P    547
0.035958453327961,1.01558008951127,0.,0.0375878902028752,             63P    548
1.01573549721431,0.,0.0392166557588297,1.01589778968865,0.,           63P    549
0.0408447209061049,1.01606696403576,0.,0.0424720565674899,            63P    550
1.01624301723419,0.,0.0440986336788026,1.01642594613963,0.,           63P    551
0.0457244231894089,1.01661574748498,0.,0.0473493960627409,            63P    552
1.01681241788038,0.,0.0489735232768158,1.01701595381331,0.,           63P    553
0.0505967758247545,1.01722635164862,0.,0.0522191247152994,            63P    554
1.01744360762861,0.,0.0538405409733317,1.01766771787309,0.,           63P    555
0.0554609956403901,1.01789867837946,0.,0.0570804597751871,            63P    556
1.01813648502276,0.,0.0586989044541256,1.01838113355578,0.,           63P    557
0.0603163007718166,1.01863261960909,0.,0.0619326198415946,            63P    558
1.01889093869117,0.,0.0635478327960333,1.01915608618843,0.,           63P    559
0.0651619107874625,1.01942805736535,0.,0.0667748249884813,            63P    560
1.01970684736454,0.,0.0683865465924752,1.01999245120679,0.,           63P    561
0.0699970468141285,1.02028486379125,0.,0.0716062968899402,            63P    562
1.02058407989541,0.,0.073214268078736,1.0208900941753,0.,             63P    563
0.0748209316621832,1.0212029011655,0.,0.0764262589453027,             63P    564
1.02152249527928,0.,0.0780302212569816,1.02184887080871,0.,           63P    565
0.0796327899504853,1.02218202192471,0.,0.0812339364039696,            63P    566
1.02252194267722,0.,0.0828336320209909,1.02286862699526,0.,           63P    567
0.0844318482310179,1.02322206868706,0.,0.0860285564899415,            63P    568
1.02358226144015,0.,0.0876237282805842,1.02394919882149,0.,           63P    569
0.0892173351132104,1.0243228742776,0.,0.090809348526034,              63P    570
1.02470328113464,0.,0.0923997400857276,1.02509041259855,0.,           63P    571
0.0939884813879303,1.02548426175517,0.,0.0955755440577542,            63P    572
1.02588482157036,0.,0.0971608997502927,1.02629208489012,0.,           63P    573
0.0987445201511242,1.02670604444076,0.,0.100326376976821,             63P    574
1.02712669282895,0.,0.101906441975452,1.02755402254193,0.,            63P    575
0.103484686927089,1.02798802594759,0.,0.105061083644308,              63P    576
1.02842869529465,0.,0.106635603972695,1.02887602271275,0.,            63P    577
0.108208219791351,1.02933000021264,0.,0.109778903013387,              63P    578
1.02979061968629,0.,0.111347625586433,1.03025787290705,0.,            63P    579
0.112914359493136,1.03073175152978,0.,0.11447907675166,               63P    580
1.03121224709102,0.,0.116041749416186,1.03169935100912,0.,            63P    581
0.117602349577412,1.03219305458443,0.,0.119160849363051,              63P    582
1.03269334899941,0.,0.120717220938327,1.03320022531881,0.,            63P    583
0.122271436506477,1.03371367448982,0.,0.123823468309241,              63P    584
1.03423368734226,0.,0.125373288627363,1.0347602545887,0.,             63P    585
0.126920869781083,1.03529336682467,0.,0.128466184130634,              63P    586
1.0358330145288,0.,0.130009204076731,1.03637918806298,0.,             63P    587
0.13154990206107,1.03693187767256,0.,0.133088250566816,               63P    588
1.03749107348653,0.,0.134624222119098,1.03805676551766,0.,            63P    589
0.136157789285485,1.0386289436627,0.,0.137688924676535,               63P    590
1.0392075977025,0.,0.139217600946068,1.03979271730261,0.,             63P    591
0.140743790792446,1.04038429201169,0.,0.142267466956128,              63P    592
1.04098231126833,0.,0.143788602231086,1.04158676437663,0.,            63P    593
0.145307169424503,1.04219764059814,0.,0.146823141509489,              63P    594
1.04281492880965,0.,0.148336491057431,1.04343861878119,0.,            63P    595
0.149847192358772,1.04406869640755,0.,0.151355213510457,              63P    596
1.0447051615052,0.,0.152860545948268,1.04534796139447,0.,             63P    597
0.154363094232923,1.04599723877494,0.,0.155863087376224,              63P    598
1.0466524066431,0.,0.15686072496092,1.04709453604596,0.,              63P    599
0.157359543753268,1.04731560074739,0.,0.,0.411596325796928,0.,        63P    600
0.,0.;                                                                63P    601
126,101,3,0,0,1,0,0.,0.,0.,0.,0.134440580593212,                      65P    602
0.268624798777666,0.402553035786415,0.536225675042679,                65P    603
0.669643102173338,0.802805705022483,0.935713873665042,                65P    604
1.06836800042046,1.20076847986648,1.3329157088529,                    65P    605
1.46481008651552,1.59645201429006,1.72784189592615,                   65P    606
1.85898013750146,1.98986714743578,2.12050333650525,                   65P    607
2.25088911785662,2.38102490702156,2.5109111219311,                    65P    608
2.64054818293002,2.76993651279136,2.89907653673107,                   65P    609
3.02796868242254,3.15661338001137,3.28501106213008,                   65P    610
3.41316216391292,3.54106712301077,3.66872637960602,                   65P    611
3.7961403764276,3.92330955876597,4.05023437448825,                    65P    612
4.17691527405337,4.30335271052725,4.42954713959805,                   65P    613
4.55549901959155,4.6812088114864,4.80667697892964,                    65P    614
4.93190398825211,5.05689030848396,5.18163641137023,                   65P    615
5.30614277138646,5.43040986575434,5.55443817445741,                   65P    616
5.67822818025684,5.80178036870715,5.92509522817213,                   65P    617
6.04817324984065,6.17101492774263,6.29362075876496,                   65P    618
6.41599124266751,6.53812688209914,6.66002818261383,                   65P    619
6.78169565268671,6.90312980373024,7.02433115011037,                   65P    620
7.14530020916273,7.26603750120889,7.38654354957256,                   65P    621
7.50681888059593,7.62686402365595,7.74667951118068,                   65P    622
7.86626587866559,7.98562366469002,8.10475341093349,                   65P    623
8.22365566219215,8.34233096639522,8.46077987462137,                   65P    624
8.57900294111522,8.69700072330377,8.81477378181287,                   65P    625
8.93232268048371,9.04964798638925,9.16675026985076,                   65P    626
9.28363010445421,9.40028806706685,9.51672473785357,                   65P    627
9.63294070029343,9.74893654119611,9.86471285071831,                   65P    628
9.9802702223802,10.0956092530818,10.2107305431196,                    65P    629
10.3256346962024,10.4403223194682,10.5547940235002,                   65P    630
10.6690504223435,10.7830921335206,10.8969197780485,                   65P    631
11.0105339804541,11.1239353687911,11.2371245746554,                   65P    632
11.3501022332017,11.4628689831591,11.5754254668476,                   65P    633
11.6877723301933,11.7999102227448,11.9118397976887,                   65P    634
12.0235617118655,12.1350766257851,12.1350766257851,                   65P    635
12.1350766257851,12.1350766257851,1.,1.,1.,1.,1.,1.,1.,1.,1.,1.,      65P    636
1.,1.,1.,1.,1.,1.,1.,1.,1.,1.,1.,1.,1.,1.,1.,1.,1.,1.,1.,1.,1.,       65P    637
1.,1.,1.,1.,1.,1.,1.,1.,1.,1.,1.,1.,1.,1.,1.,1.,1.,1.,1.,1.,1.,       65P    638
1.,1.,1.,1.,1.,1.,1.,1.,1.,1.,1.,1.,1.,1.,1.,1.,1.,1.,1.,1.,1.,       65P    639
1.,1.,1.,1.,1.,1.,1.,1.,1.,1.,1.,1.,1.,1.,1.,1.,1.,1.,1.,1.,1.,       65P    640
1.,1.,1.,1.,1.,1.,1.,1.,0.157359543753268,1.04731560074739,0.,        65P    641
0.173484346571864,1.0544759493783,0.,0.205703204102546,               65P    642
1.06878299269565,0.,0.254031015888958,1.09012017060443,0.,            65P    643
0.3022999650362,1.1113409443789,0.,0.350513316659885,                 65P    644
1.13243797075313,0.,0.398670198383582,1.15341321171872,0.,            65P    645
0.446770843296395,1.17426614306517,0.,0.49481518912675,               65P    646
1.19499690485088,0.,0.542803252518136,1.21560545965355,0.,            65P    647
0.590735029029422,1.23609181747045,0.,0.638610519852929,              65P    648
1.25645597562916,0.,0.686429724675863,1.27669793484229,0.,            65P    649
0.734192643587597,1.29681769491802,0.,0.781899276570093,              65P    650
1.3168152559061,0.,0.829549623634041,1.33669061779169,0.,             65P    651
0.877143684782493,1.35644378057716,0.,0.924681460020573,              65P    652
1.37607474426022,0.,0.972162949352886,1.39558350883977,0.,            65P    653
1.01958815278421,1.41497007431434,0.,1.06695707031931,                65P    654
1.4342344406825,0.,1.11426970196299,1.45337660794276,0.,              65P    655
1.16152604772006,1.47239657609357,0.,1.20872610759539,                65P    656
1.49129434513335,0.,1.25586988159385,1.51006991506046,0.,             65P    657
1.30295736972034,1.52872328587323,0.,1.34998857197979,                65P    658
1.54725445756991,0.,1.39696348837715,1.56566343014874,0.,             65P    659
1.44388211891741,1.58395020360786,0.,1.49074446360555,                65P    660
1.60211477794542,0.,1.53755052244661,1.62015715315945,0.,             65P    661
1.58430029544563,1.63807732924799,0.,1.6309937826077,                 65P    662
1.65587530620899,0.,1.67763098393791,1.67355108404035,0.,             65P    663
1.72421189944138,1.69110466273992,0.,1.77073652912326,                65P    664
1.70853604230549,0.,1.81720487298871,1.72584522273481,0.,             65P    665
1.86361693104292,1.74303220402555,0.,1.9099727032911,                 65P    666
1.76009698617534,0.,1.95627218973849,1.77703956918174,0.,             65P    667
2.00251539039034,1.79385995304225,0.,2.04870230525192,                65P    668
1.81055813775432,0.,2.09483293432854,1.82713412331533,0.,             65P    669
2.1409072776255,1.8435879097226,0.,2.18692533514814,                  65P    670
1.85991949697339,0.,2.23288710690182,1.87612888506489,0.,             65P    671
2.27879259289191,1.89221607399424,0.,2.32464179312381,                65P    672
1.90818106375849,0.,2.37043470760291,1.92402385435466,0.,             65P    673
2.41617133633466,1.93974444577967,0.,2.46185167932449,                65P    674
1.95534283803039,0.,2.50747573657786,1.97081903110362,0.,             65P    675
2.55304350810025,1.98617302499607,0.,2.59855499389716,                65P    676
2.00140481970443,0.,2.64401019397408,2.01651441522526,0.,             65P    677
2.68940910833655,2.03150181155508,0.,2.73475173699009,                65P    678
2.04636700869034,0.,2.78003807994024,2.06111000662742,0.,             65P    679
2.82526813719258,2.07573080536259,0.,2.87044190875267,                65P    680
2.09022940489209,0.,2.91555939462609,2.10460580521207,0.,             65P    681
2.96062059481843,2.11886000631858,0.,3.00562550933529,                65P    682
2.13299200820762,0.,3.0505741381823,2.1470018108751,0.,               65P    683
3.09546648136505,2.16088941431686,0.,3.14030253888918,                65P    684
2.17465481852866,0.,3.18508231076032,2.18829802350615,0.,             65P    685
3.22980579698411,2.20181902924494,0.,3.27447299756619,                65P    686
2.21521783574053,0.,3.31908391251221,2.22849444298834,0.,             65P    687
3.36363854182782,2.24164885098373,0.,3.40813688551865,                65P    688
2.25468105972194,0.,3.45257894359039,2.26759106919814,0.,             65P    689
3.49696471604866,2.28037887940743,0.,3.54129420289913,                65P    690
2.29304449034478,0.,3.58556740414745,2.30558790200511,0.,             65P    691
3.62978431979926,2.31800911438325,0.,3.67394494986021,                65P    692
2.33030812747391,0.,3.71804929433594,2.34248494127174,0.,             65P    693
3.76209735323209,2.35453955577127,0.,3.80608912655428,                65P    694
2.36647197096698,0.,3.85002461430813,2.3782821868532,0.,              65P    695
3.89390381649925,2.38997020342421,0.,3.93772673313325,                65P    696
2.40153602067419,0.,3.98149336421571,2.41297963859718,0.,             65P    697
4.02520370975219,2.42430105718727,0.,4.06885776974834,                65P    698
2.43550027643798,0.,4.11245554420939,2.44657729634443,0.,             65P    699
4.155997033142,2.45753211689527,0.,4.19948223654754,                  65P    700
2.46836473810289,0.,4.24291115444691,2.47907515989077,0.,             65P    701
4.28628378678823,2.48966338251286,0.,4.32960013379037,                65P    702
2.50012940499274,0.,4.37286019466457,2.51047323093236,0.,             65P    703
4.41606397237186,2.52069484689449,0.,4.4592114559179,                 65P    704
2.53079430285452,0.,4.50230268624489,2.54077141278934,0.,             65P    705
4.54533751100592,2.55062686897639,0.,4.58831649720856,                65P    706
2.56035809496449,0.,4.63123753466424,2.56997467941253,0.,             65P    707
4.65984463247478,2.5762913621012,0.,4.6741349181639,                  65P    708
2.57944677481823,0.,0.,12.1350766257851,0.,0.,0.;                     65P    709
126,1,1,0,0,1,0,0.,0.,2.66018162589838,2.66018162589838,1.,1.,        67P    710
0.157359543753268,1.04731560074739,0.,0.157359543753268,0.,0.,        67P    711
0.,2.66018162589838,0.,0.,0.;                                         67P    712
126,1,1,0,0,1,0,27.0705357721691,27.0705357721691,                    69P    713
38.5431452231721,38.5431452231721,1.,1.,0.157359543753269,0.,0.,      69P    714
4.6741349181639,0.,0.,27.0705357721691,38.5431452231721,0.,0.,        69P    715
0.;                                                                   69P    716
126,1,1,0,0,1,0,0.,0.,6.55179480803829,6.55179480803829,1.,1.,        71P    717
4.6741349181639,2.57944677481823,0.,4.6741349181639,0.,0.,0.,         71P    718
6.55179480803829,0.,0.,0.;                                            71P    719
128,1,1,1,1,0,0,1,0,0,-11.1476191241381,-11.1476191241381,            73P    720
11.1476191241381,11.1476191241381,-2.43224797291438,                  73P    721
-2.43224797291438,2.43224797291438,2.43224797291438,1.,1.,1.,1.,      73P    722
-10.5007254059196,-0.000393700787401531,0.,-1.72307255226757,         73P    723
-0.000393700787401531,0.,-10.5007254059196,1.91476218339715,0.,       73P    724
-1.72307255226757,1.91476218339715,0.,-11.1476191241381,              73P    725
11.1476191241381,-2.43224797291438,2.43224797291438;                  73P    726
128,1,1,1,1,0,0,1,0,0,-0.419524912979326,-0.419524912979326,          75P    727
0.419524912979326,0.419524912979326,-2.43224797291438,                75P    728
-2.43224797291438,2.43224797291438,2.43224797291438,1.,1.,1.,1.,      75P    729
-1.72385995384238,-0.000393700787401531,0.,-1.3935253766933,          75P    730
-0.000393700787401531,0.,-1.72385995384238,1.91476218339715,0.,       75P    731
-1.3935253766933,1.91476218339715,0.,-0.419524912979326,              75P    732
0.419524912979326,-2.43224797291438,2.43224797291438;                 75P    733
128,1,1,1,1,0,0,1,0,0,-0.405503622009798,-0.405503622009798,          77P    734
0.405503622009797,0.405503622009797,-2.25888927776733,                77P    735
-2.25888927776733,2.25888927776733,2.25888927776733,1.,1.,1.,1.,      77P    736
-1.3943127782681,-0.000393700787401531,0.,-1.07501858770921,          77P    737
-0.000393700787401531,0.,-1.3943127782681,1.77825927383254,0.,        77P    738
-1.07501858770921,1.77825927383254,0.,-0.405503622009798,             77P    739
0.405503622009797,-2.25888927776733,2.25888927776733;                 77P    740
128,1,1,1,1,0,0,1,0,0,-1.3667736063907,-1.3667736063907,              79P    741
1.3667736063907,1.3667736063907,-1.85438565575753,                    79P    742
-1.85438565575753,1.85438565575753,1.85438565575753,1.,1.,1.,1.,      79P    743
-1.07580598928401,-0.000393700787401531,0.,0.000393700787401619,      79P    744
-0.000393700787401531,0.,-1.07580598928401,1.45975248484845,0.,       79P    745
0.000393700787401531,1.45975248484845,0.,-1.3667736063907,            79P    746
1.3667736063907,-1.85438565575753,1.85438565575753;                   79P    747
128,1,1,1,1,0,0,1,0,0,-0.200846620566651,-0.200846620566651,          81P    748
0.200846620566651,0.200846620566651,-1.33109081294919,                81P    749
-1.33109081294919,1.33109081294919,1.33109081294919,1.,1.,1.,1.,      81P    750
-0.000393700787401575,-0.000393700787401531,0.,0.15775324454067,      81P    751
-0.000393700787401531,0.,-0.000393700787401575,1.0477093015348,       81P    752
0.,0.15775324454067,1.0477093015348,0.,-0.200846620566651,            81P    753
0.200846620566651,-1.33109081294919,1.33109081294919;                 81P    754
128,1,1,1,1,0,0,1,0,0,-5.73730472550151,-5.73730472550151,            83P    755
5.73730472550151,5.73730472550151,-3.27689740401915,                  83P    756
-3.27689740401915,3.27689740401915,3.27689740401915,1.,1.,1.,1.,      83P    757
0.156965842965867,-0.000393700787401531,0.,4.67452861895131,          83P    758
-0.000393700787401531,0.,0.156965842965867,2.57984047560563,0.,       83P    759
4.67452861895131,2.57984047560563,0.,-5.73730472550151,               83P    760
5.73730472550151,-3.27689740401915,3.27689740401915;                  83P    761
406,1,5HBody1;                                                        85P    762
406,1,5HBody2;                                                        87P    763
406,1,5HBody3;                                                        89P    764
406,1,5HBody4;                                                        91P    765
406,1,5HBody5;                                                        93P    766
406,1,5HBody6;                                                        95P    767
314,62.7450980392157,62.7450980392157,62.7450980392157,13HSteel       97P    768
- Satin;                                                              97P    769
S      1G      3D     98P    769                                        T      1
