  0
SECTION
  2
HEADER
  9
$ACADVER
  1
AC1024
  9
$ACADMAINTVER
 70
6
  9
$DWGCODEPAGE
  3
ANSI_1252
  9
$LASTSAVEDBY
  1
ezdxf
  9
$INSBASE
 10
0.0
 20
0.0
 30
0.0
  9
$EXTMIN
 10
1e+20
 20
1e+20
 30
1e+20
  9
$EXTMAX
 10
-1e+20
 20
-1e+20
 30
-1e+20
  9
$LIMMIN
 10
0.0
 20
0.0
  9
$LIMMAX
 10
420.0
 20
297.0
  9
$ORTHOMODE
 70
0
  9
$REGENMODE
 70
1
  9
$FILLMODE
 70
1
  9
$QTEXTMODE
 70
0
  9
$MIRRTEXT
 70
1
  9
$LTSCALE
 40
1.0
  9
$ATTMODE
 70
1
  9
$TEXTSIZE
 40
2.5
  9
$TRACEWID
 40
1.0
  9
$TEXTSTYLE
  7
Standard
  9
$CLAYER
  8
0
  9
$CELTYPE
  6
ByLayer
  9
$CECOLOR
 62
256
  9
$CELTSCALE
 40
1.0
  9
$DISPSILH
 70
0
  9
$DIMSCALE
 40
1.0
  9
$DIMASZ
 40
2.5
  9
$DIMEXO
 40
0.625
  9
$DIMDLI
 40
3.75
  9
$DIMRND
 40
0.0
  9
$DIMDLE
 40
0.0
  9
$DIMEXE
 40
1.25
  9
$DIMTP
 40
0.0
  9
$DIMTM
 40
0.0
  9
$DIMTXT
 40
2.5
  9
$DIMCEN
 40
2.5
  9
$DIMTSZ
 40
0.0
  9
$DIMTOL
 70
0
  9
$DIMLIM
 70
0
  9
$DIMTIH
 70
0
  9
$DIMTOH
 70
0
  9
$DIMSE1
 70
0
  9
$DIMSE2
 70
0
  9
$DIMTAD
 70
1
  9
$DIMZIN
 70
8
  9
$DIMBLK
  1

  9
$DIMASO
 70
1
  9
$DIMSHO
 70
1
  9
$DIMPOST
  1

  9
$DIMAPOST
  1

  9
$DIMALT
 70
0
  9
$DIMALTD
 70
3
  9
$DIMALTF
 40
0.03937007874
  9
$DIMLFAC
 40
1.0
  9
$DIMTOFL
 70
1
  9
$DIMTVP
 40
0.0
  9
$DIMTIX
 70
0
  9
$DIMSOXD
 70
0
  9
$DIMSAH
 70
0
  9
$DIMBLK1
  1

  9
$DIMBLK2
  1

  9
$DIMSTYLE
  2
ISO-25
  9
$DIMCLRD
 70
0
  9
$DIMCLRE
 70
0
  9
$DIMCLRT
 70
0
  9
$DIMTFAC
 40
1.0
  9
$DIMGAP
 40
0.625
  9
$DIMJUST
 70
0
  9
$DIMSD1
 70
0
  9
$DIMSD2
 70
0
  9
$DIMTOLJ
 70
0
  9
$DIMTZIN
 70
8
  9
$DIMALTZ
 70
0
  9
$DIMALTTZ
 70
0
  9
$DIMUPT
 70
0
  9
$DIMDEC
 70
2
  9
$DIMTDEC
 70
2
  9
$DIMALTU
 70
2
  9
$DIMALTTD
 70
3
  9
$DIMTXSTY
  7
Standard
  9
$DIMAUNIT
 70
0
  9
$DIMADEC
 70
0
  9
$DIMALTRND
 40
0.0
  9
$DIMAZIN
 70
0
  9
$DIMDSEP
 70
44
  9
$DIMATFIT
 70
3
  9
$DIMFRAC
 70
0
  9
$DIMLDRBLK
  1

  9
$DIMLUNIT
 70
2
  9
$DIMLWD
 70
-2
  9
$DIMLWE
 70
-2
  9
$DIMTMOVE
 70
0
  9
$DIMFXL
 40
1.0
  9
$DIMFXLON
 70
0
  9
$DIMJOGANG
 40
0.785398163397
  9
$DIMTFILL
 70
0
  9
$DIMTFILLCLR
 70
0
  9
$DIMARCSYM
 70
0
  9
$DIMLTYPE
  6

  9
$DIMLTEX1
  6

  9
$DIMLTEX2
  6

  9
$DIMTXTDIRECTION
 70
0
  9
$LUNITS
 70
2
  9
$LUPREC
 70
4
  9
$SKETCHINC
 40
1.0
  9
$FILLETRAD
 40
10.0
  9
$AUNITS
 70
0
  9
$AUPREC
 70
2
  9
$MENU
  1
.
  9
$ELEVATION
 40
0.0
  9
$PELEVATION
 40
0.0
  9
$THICKNESS
 40
0.0
  9
$LIMCHECK
 70
0
  9
$CHAMFERA
 40
0.0
  9
$CHAMFERB
 40
0.0
  9
$CHAMFERC
 40
0.0
  9
$CHAMFERD
 40
0.0
  9
$SKPOLY
 70
0
  9
$TDCREATE
 40
2461199.820011574
  9
$TDUCREATE
 40
2458532.153996898
  9
$TDUPDATE
 40
2461199.820011574
  9
$TDUUPDATE
 40
2458532.1544311
  9
$TDINDWG
 40
0.0
  9
$TDUSRTIMER
 40
0.0
  9
$USRTIMER
 70
1
  9
$ANGBASE
 50
0.0
  9
$ANGDIR
 70
0
  9
$PDMODE
 70
0
  9
$PDSIZE
 40
0.0
  9
$PLINEWID
 40
0.0
  9
$SPLFRAME
 70
0
  9
$SPLINETYPE
 70
6
  9
$SPLINESEGS
 70
8
  9
$HANDSEED
  5
38
  9
$SURFTAB1
 70
6
  9
$SURFTAB2
 70
6
  9
$SURFTYPE
 70
6
  9
$SURFU
 70
6
  9
$SURFV
 70
6
  9
$UCSBASE
  2

  9
$UCSNAME
  2

  9
$UCSORG
 10
0.0
 20
0.0
 30
0.0
  9
$UCSXDIR
 10
1.0
 20
0.0
 30
0.0
  9
$UCSYDIR
 10
0.0
 20
1.0
 30
0.0
  9
$UCSORTHOREF
  2

  9
$UCSORTHOVIEW
 70
0
  9
$UCSORGTOP
 10
0.0
 20
0.0
 30
0.0
  9
$UCSORGBOTTOM
 10
0.0
 20
0.0
 30
0.0
  9
$UCSORGLEFT
 10
0.0
 20
0.0
 30
0.0
  9
$UCSORGRIGHT
 10
0.0
 20
0.0
 30
0.0
  9
$UCSORGFRONT
 10
0.0
 20
0.0
 30
0.0
  9
$UCSORGBACK
 10
0.0
 20
0.0
 30
0.0
  9
$PUCSBASE
  2

  9
$PUCSNAME
  2

  9
$PUCSORG
 10
0.0
 20
0.0
 30
0.0
  9
$PUCSXDIR
 10
1.0
 20
0.0
 30
0.0
  9
$PUCSYDIR
 10
0.0
 20
1.0
 30
0.0
  9
$PUCSORTHOREF
  2

  9
$PUCSORTHOVIEW
 70
0
  9
$PUCSORGTOP
 10
0.0
 20
0.0
 30
0.0
  9
$PUCSORGBOTTOM
 10
0.0
 20
0.0
 30
0.0
  9
$PUCSORGLEFT
 10
0.0
 20
0.0
 30
0.0
  9
$PUCSORGRIGHT
 10
0.0
 20
0.0
 30
0.0
  9
$PUCSORGFRONT
 10
0.0
 20
0.0
 30
0.0
  9
$PUCSORGBACK
 10
0.0
 20
0.0
 30
0.0
  9
$USERI1
 70
0
  9
$USERI2
 70
0
  9
$USERI3
 70
0
  9
$USERI4
 70
0
  9
$USERI5
 70
0
  9
$USERR1
 40
0.0
  9
$USERR2
 40
0.0
  9
$USERR3
 40
0.0
  9
$USERR4
 40
0.0
  9
$USERR5
 40
0.0
  9
$WORLDVIEW
 70
1
  9
$SHADEDGE
 70
3
  9
$SHADEDIF
 70
70
  9
$TILEMODE
 70
1
  9
$MAXACTVP
 70
64
  9
$PINSBASE
 10
0.0
 20
0.0
 30
0.0
  9
$PLIMCHECK
 70
0
  9
$PEXTMIN
 10
1e+20
 20
1e+20
 30
1e+20
  9
$PEXTMAX
 10
-1e+20
 20
-1e+20
 30
-1e+20
  9
$PLIMMIN
 10
0.0
 20
0.0
  9
$PLIMMAX
 10
420.0
 20
297.0
  9
$UNITMODE
 70
0
  9
$VISRETAIN
 70
1
  9
$PLINEGEN
 70
0
  9
$PSLTSCALE
 70
1
  9
$TREEDEPTH
 70
3020
  9
$CMLSTYLE
  2
Standard
  9
$CMLJUST
 70
0
  9
$CMLSCALE
 40
20.0
  9
$PROXYGRAPHICS
 70
1
  9
$MEASUREMENT
 70
1
  9
$CELWEIGHT
370
-1
  9
$ENDCAPS
280
0
  9
$JOINSTYLE
280
0
  9
$LWDISPLAY
290
0
  9
$INSUNITS
 70
6
  9
$HYPERLINKBASE
  1

  9
$STYLESHEET
  1

  9
$XEDIT
290
1
  9
$CEPSNTYPE
380
0
  9
$PSTYLEMODE
290
1
  9
$FINGERPRINTGUID
  2
{69E2B1DC-AB87-45A6-AA95-611062748E7F}
  9
$VERSIONGUID
  2
{85E41F32-8F44-496E-908F-EB9C07A0D304}
  9
$EXTNAMES
290
1
  9
$PSVPSCALE
 40
0.0
  9
$OLESTARTUP
290
0
  9
$SORTENTS
280
127
  9
$INDEXCTL
280
0
  9
$HIDETEXT
280
1
  9
$XCLIPFRAME
280
1
  9
$HALOGAP
280
0
  9
$OBSCOLOR
 70
257
  9
$OBSLTYPE
280
0
  9
$INTERSECTIONDISPLAY
280
0
  9
$INTERSECTIONCOLOR
 70
257
  9
$DIMASSOC
280
2
  9
$PROJECTNAME
  1

  9
$CAMERADISPLAY
290
0
  9
$LENSLENGTH
 40
50.0
  9
$CAMERAHEIGHT
 40
0.0
  9
$STEPSPERSEC
 40
24.0
  9
$STEPSIZE
 40
100.0
  9
$3DDWFPREC
 40
2.0
  9
$PSOLWIDTH
 40
0.005
  9
$PSOLHEIGHT
 40
0.08
  9
$LOFTANG1
 40
1.570796326795
  9
$LOFTANG2
 40
1.570796326795
  9
$LOFTMAG1
 40
0.0
  9
$LOFTMAG2
 40
0.0
  9
$LOFTPARAM
 70
7
  9
$LOFTNORMALS
280
1
  9
$LATITUDE
 40
37.795
  9
$LONGITUDE
 40
-122.394
  9
$NORTHDIRECTION
 40
0.0
  9
$TIMEZONE
 70
-8000
  9
$LIGHTGLYPHDISPLAY
280
1
  9
$TILEMODELIGHTSYNCH
280
1
  9
$CMATERIAL
347
20
  9
$SOLIDHIST
280
0
  9
$SHOWHIST
280
1
  9
$DWFFRAME
280
2
  9
$DGNFRAME
280
2
  9
$REALWORLDSCALE
290
1
  9
$INTERFERECOLOR
 62
256
  9
$CSHADOW
280
0
  9
$SHADOWPLANELOCATION
 40
0.0
  0
ENDSEC
  0
SECTION
  2
CLASSES
  0
CLASS
  1
ACDBDICTIONARYWDFLT
  2
AcDbDictionaryWithDefault
  3
ObjectDBX Classes
 90
0
 91
0
280
0
281
0
  0
CLASS
  1
SUN
  2
AcDbSun
  3
SCENEOE
 90
1153
 91
0
280
0
281
0
  0
CLASS
  1
VISUALSTYLE
  2
AcDbVisualStyle
  3
ObjectDBX Classes
 90
4095
 91
0
280
0
281
0
  0
CLASS
  1
MATERIAL
  2
AcDbMaterial
  3
ObjectDBX Classes
 90
1153
 91
0
280
0
281
0
  0
CLASS
  1
SCALE
  2
AcDbScale
  3
ObjectDBX Classes
 90
1153
 91
0
280
0
281
0
  0
CLASS
  1
TABLESTYLE
  2
AcDbTableStyle
  3
ObjectDBX Classes
 90
4095
 91
0
280
0
281
0
  0
CLASS
  1
MLEADERSTYLE
  2
AcDbMLeaderStyle
  3
ACDB_MLEADERSTYLE_CLASS
 90
4095
 91
0
280
0
281
0
  0
CLASS
  1
DICTIONARYVAR
  2
AcDbDictionaryVar
  3
ObjectDBX Classes
 90
0
 91
0
280
0
281
0
  0
CLASS
  1
CELLSTYLEMAP
  2
AcDbCellStyleMap
  3
ObjectDBX Classes
 90
1152
 91
0
280
0
281
0
  0
CLASS
  1
MENTALRAYRENDERSETTINGS
  2
AcDbMentalRayRenderSettings
  3
SCENEOE
 90
1024
 91
0
280
0
281
0
  0
CLASS
  1
ACDBDETAILVIEWSTYLE
  2
AcDbDetailViewStyle
  3
ObjectDBX Classes
 90
1025
 91
0
280
0
281
0
  0
CLASS
  1
ACDBSECTIONVIEWSTYLE
  2
AcDbSectionViewStyle
  3
ObjectDBX Classes
 90
1025
 91
0
280
0
281
0
  0
CLASS
  1
RASTERVARIABLES
  2
AcDbRasterVariables
  3
ISM
 90
0
 91
0
280
0
281
0
  0
CLASS
  1
ACDBPLACEHOLDER
  2
AcDbPlaceHolder
  3
ObjectDBX Classes
 90
0
 91
0
280
0
281
0
  0
CLASS
  1
LAYOUT
  2
AcDbLayout
  3
ObjectDBX Classes
 90
0
 91
0
280
0
281
0
  0
ENDSEC
  0
SECTION
  2
TABLES
  0
TABLE
  2
VPORT
  5
8
330
0
100
AcDbSymbolTable
 70
1
  0
VPORT
  5
23
330
8
100
AcDbSymbolTableRecord
100
AcDbViewportTableRecord
  2
*Active
 70
0
 10
0.0
 20
0.0
 11
1.0
 21
1.0
 12
0.0
 22
0.0
 13
0.0
 23
0.0
 14
0.5
 24
0.5
 15
0.5
 25
0.5
 16
0.0
 26
0.0
 36
1.0
 17
0.0
 27
0.0
 37
0.0
 40
1000.0
 41
1.34
 42
50.0
 43
0.0
 44
0.0
 50
0.0
 51
0.0
 71
0
 72
1000
 73
1
 74
3
 75
0
 76
0
 77
0
 78
0
281
0
 65
0
146
0.0
  0
ENDTAB
  0
TABLE
  2
LTYPE
  5
2
330
0
100
AcDbSymbolTable
 70
3
  0
LTYPE
  5
24
330
2
100
AcDbSymbolTableRecord
100
AcDbLinetypeTableRecord
  2
ByBlock
 70
0
  3

 72
65
 73
0
 40
0.0
  0
LTYPE
  5
25
330
2
100
AcDbSymbolTableRecord
100
AcDbLinetypeTableRecord
  2
ByLayer
 70
0
  3

 72
65
 73
0
 40
0.0
  0
LTYPE
  5
26
330
2
100
AcDbSymbolTableRecord
100
AcDbLinetypeTableRecord
  2
Continuous
 70
0
  3

 72
65
 73
0
 40
0.0
  0
ENDTAB
  0
TABLE
  2
LAYER
  5
1
330
0
100
AcDbSymbolTable
 70
2
  0
LAYER
  5
27
330
1
100
AcDbSymbolTableRecord
100
AcDbLayerTableRecord
  2
0
 70
0
 62
7
  6
Continuous
370
-3
390
13
347
21
  0
LAYER
  5
28
330
1
100
AcDbSymbolTableRecord
100
AcDbLayerTableRecord
  2
Defpoints
 70
0
 62
7
  6
Continuous
290
0
370
-3
390
13
347
21
  0
ENDTAB
  0
TABLE
  2
STYLE
  5
5
330
0
100
AcDbSymbolTable
 70
1
  0
STYLE
  5
29
330
5
100
AcDbSymbolTableRecord
100
AcDbTextStyleTableRecord
  2
Standard
 70
0
 40
0.0
 41
1.0
 50
0.0
 71
0
 42
2.5
  3
txt
  4

  0
ENDTAB
  0
TABLE
  2
VIEW
  5
7
330
0
100
AcDbSymbolTable
 70
0
  0
ENDTAB
  0
TABLE
  2
UCS
  5
6
330
0
100
AcDbSymbolTable
 70
0
  0
ENDTAB
  0
TABLE
  2
APPID
  5
3
330
0
100
AcDbSymbolTable
 70
3
  0
APPID
  5
2A
330
3
100
AcDbSymbolTableRecord
100
AcDbRegAppTableRecord
  2
ACAD
 70
0
  0
APPID
  5
35
330
3
100
AcDbSymbolTableRecord
100
AcDbRegAppTableRecord
  2
HATCHBACKGROUNDCOLOR
 70
0
  0
APPID
  5
36
330
3
100
AcDbSymbolTableRecord
100
AcDbRegAppTableRecord
  2
EZDXF
 70
0
  0
ENDTAB
  0
TABLE
  2
DIMSTYLE
  5
4
330
0
100
AcDbSymbolTable
 70
1
100
AcDbDimStyleTable
  0
DIMSTYLE
105
2B
330
4
100
AcDbSymbolTableRecord
100
AcDbDimStyleTableRecord
  2
Standard
 70
0
 40
1.0
 41
2.5
 42
0.625
 43
3.75
 44
1.25
 45
0.0
 46
0.0
 47
0.0
 48
0.0
 49
2.5
140
2.5
141
2.5
142
0.0
143
0.03937007874
144
1.0
145
0.0
146
1.0
147
0.625
148
0.0
 69
0
 70
0
 71
0
 72
0
 73
0
 74
0
 75
0
 76
0
 77
1
 78
8
 79
3
170
0
171
3
172
1
173
0
174
0
175
0
176
0
177
0
178
0
179
2
271
2
272
2
273
2
274
3
275
0
276
0
277
2
278
44
279
0
280
0
281
0
282
0
283
0
284
8
285
0
286
0
288
0
289
3
290
0
371
-2
372
-2
  0
ENDTAB
  0
TABLE
  2
BLOCK_RECORD
  5
9
330
0
100
AcDbSymbolTable
 70
2
  0
BLOCK_RECORD
  5
17
330
9
100
AcDbSymbolTableRecord
100
AcDbBlockTableRecord
  2
*Model_Space
340
1A
 70
0
280
1
281
0
  0
BLOCK_RECORD
  5
1B
330
9
100
AcDbSymbolTableRecord
100
AcDbBlockTableRecord
  2
*Paper_Space
340
1E
 70
0
280
1
281
0
  0
ENDTAB
  0
ENDSEC
  0
SECTION
  2
BLOCKS
  0
BLOCK
  5
18
330
17
100
AcDbEntity
  8
0
100
AcDbBlockBegin
  2
*Model_Space
 70
0
 10
0.0
 20
0.0
 30
0.0
  3
*Model_Space
  1

  0
ENDBLK
  5
19
330
17
100
AcDbEntity
  8
0
100
AcDbBlockEnd
  0
BLOCK
  5
1C
330
1B
100
AcDbEntity
  8
0
100
AcDbBlockBegin
  2
*Paper_Space
 70
0
 10
0.0
 20
0.0
 30
0.0
  3
*Paper_Space
  1

  0
ENDBLK
  5
1D
330
1B
100
AcDbEntity
  8
0
100
AcDbBlockEnd
  0
ENDSEC
  0
SECTION
  2
ENTITIES
  0
SPLINE
  5
2F
330
17
100
AcDbEntity
  8
0
100
AcDbSpline
 70
0
 71
3
 72
0
 73
0
 74
100
 11
-0.32909696933324584
 21
0.04864556258113604
 31
0.0
 11
-0.32618827561949976
 21
0.04864556258113604
 31
0.0
 11
-0.3232795819057536
 21
0.04864556258113604
 31
0.0
 11
-0.3203708881920075
 21
0.04864556258113604
 31
0.0
 11
-0.3174621944782614
 21
0.04864556258113604
 31
0.0
 11
-0.31455350076451527
 21
0.04864556258113604
 31
0.0
 11
-0.31164480705076913
 21
0.04864556258113604
 31
0.0
 11
-0.30873611333702305
 21
0.04864556258113604
 31
0.0
 11
-0.3058274196232769
 21
0.04864556258113604
 31
0.0
 11
-0.3029187259095308
 21
0.04864556258113604
 31
0.0
 11
-0.30001003219578465
 21
0.04864556258113604
 31
0.0
 11
-0.2971013384820385
 21
0.04864556258113604
 31
0.0
 11
-0.29419264476829243
 21
0.04864556258113604
 31
0.0
 11
-0.29128395105454624
 21
0.04864556258113604
 31
0.0
 11
-0.2883752573408002
 21
0.04864556258113604
 31
0.0
 11
-0.285466563627054
 21
0.04864556258113604
 31
0.0
 11
-0.28255786991330795
 21
0.04864556258113604
 31
0.0
 11
-0.2796491761995618
 21
0.04864556258113604
 31
0.0
 11
-0.27674048248581573
 21
0.04864556258113604
 31
0.0
 11
-0.27383178877206954
 21
0.04864556258113604
 31
0.0
 11
-0.2709230950583235
 21
0.04864556258113604
 31
0.0
 11
-0.2680144013445773
 21
0.04864556258113604
 31
0.0
 11
-0.26510570763083124
 21
0.04864556258113604
 31
0.0
 11
-0.2621970139170851
 21
0.04864556258113604
 31
0.0
 11
-0.25928832020333903
 21
0.04864556258113604
 31
0.0
 11
-0.25637962648959284
 21
0.04864556258113604
 31
0.0
 11
-0.25347093277584676
 21
0.04864556258113604
 31
0.0
 11
-0.2505622390621006
 21
0.04864556258113604
 31
0.0
 11
-0.24765354534835451
 21
0.04864556258113604
 31
0.0
 11
-0.2447448516346084
 21
0.04864556258113604
 31
0.0
 11
-0.2418361579208623
 21
0.04864556258113604
 31
0.0
 11
-0.23892746420711616
 21
0.04864556258113604
 31
0.0
 11
-0.23601877049337006
 21
0.04864556258113604
 31
0.0
 11
-0.23311007677962395
 21
0.04864556258113604
 31
0.0
 11
-0.2302013830658778
 21
0.04864556258113604
 31
0.0
 11
-0.2272926893521317
 21
0.04864556258113604
 31
0.0
 11
-0.2243839956383856
 21
0.04864556258113604
 31
0.0
 11
-0.22147530192463946
 21
0.04864556258113604
 31
0.0
 11
-0.21856660821089335
 21
0.04864556258113604
 31
0.0
 11
-0.21565791449714722
 21
0.04864556258113604
 31
0.0
 11
-0.2127492207834011
 21
0.04864556258113604
 31
0.0
 11
-0.209840527069655
 21
0.04864556258113604
 31
0.0
 11
-0.20693183335590887
 21
0.04864556258113604
 31
0.0
 11
-0.20402313964216276
 21
0.04864556258113604
 31
0.0
 11
-0.20111444592841665
 21
0.04864556258113604
 31
0.0
 11
-0.19820575221467052
 21
0.04864556258113604
 31
0.0
 11
-0.1952970585009244
 21
0.04864556258113604
 31
0.0
 11
-0.1923883647871783
 21
0.04864556258113604
 31
0.0
 11
-0.18947967107343217
 21
0.04864556258113604
 31
0.0
 11
-0.18657097735968606
 21
0.04864556258113604
 31
0.0
 11
-0.18366228364593995
 21
0.04864556258113604
 31
0.0
 11
-0.18075358993219381
 21
0.04864556258113604
 31
0.0
 11
-0.1778448962184477
 21
0.04864556258113604
 31
0.0
 11
-0.17493620250470157
 21
0.04864556258113604
 31
0.0
 11
-0.17202750879095546
 21
0.04864556258113604
 31
0.0
 11
-0.16911881507720933
 21
0.04864556258113604
 31
0.0
 11
-0.1662101213634632
 21
0.04864556258113604
 31
0.0
 11
-0.16330142764971708
 21
0.04864556258113604
 31
0.0
 11
-0.16039273393597098
 21
0.04864556258113604
 31
0.0
 11
-0.15748404022222484
 21
0.04864556258113604
 31
0.0
 11
-0.15457534650847873
 21
0.04864556258113604
 31
0.0
 11
-0.15166665279473263
 21
0.04864556258113604
 31
0.0
 11
-0.1487579590809865
 21
0.04864556258113604
 31
0.0
 11
-0.14584926536724038
 21
0.04864556258113604
 31
0.0
 11
-0.14294057165349425
 21
0.04864556258113604
 31
0.0
 11
-0.14003187793974814
 21
0.04864556258113604
 31
0.0
 11
-0.13712318422600203
 21
0.04864556258113604
 31
0.0
 11
-0.1342144905122559
 21
0.04864556258113604
 31
0.0
 11
-0.1313057967985098
 21
0.04864556258113604
 31
0.0
 11
-0.12839710308476368
 21
0.04864556258113604
 31
0.0
 11
-0.12548840937101757
 21
0.04864556258113604
 31
0.0
 11
-0.12257971565727145
 21
0.04864556258113604
 31
0.0
 11
-0.11967102194352533
 21
0.04864556258113604
 31
0.0
 11
-0.11676232822977921
 21
0.04864556258113604
 31
0.0
 11
-0.1138536345160331
 21
0.04864556258113604
 31
0.0
 11
-0.11094494080228698
 21
0.04864556258113604
 31
0.0
 11
-0.10803624708854086
 21
0.04864556258113604
 31
0.0
 11
-0.10512755337479474
 21
0.04864556258113604
 31
0.0
 11
-0.10221885966104861
 21
0.04864556258113604
 31
0.0
 11
-0.09931016594730249
 21
0.04864556258113604
 31
0.0
 11
-0.09640147223355637
 21
0.04864556258113604
 31
0.0
 11
-0.09349277851981026
 21
0.04864556258113604
 31
0.0
 11
-0.09058408480606414
 21
0.04864556258113604
 31
0.0
 11
-0.08767539109231802
 21
0.04864556258113604
 31
0.0
 11
-0.08476669737857191
 21
0.04864556258113604
 31
0.0
 11
-0.08185800366482579
 21
0.04864556258113604
 31
0.0
 11
-0.07894930995107967
 21
0.04864556258113604
 31
0.0
 11
-0.07604061623733355
 21
0.04864556258113604
 31
0.0
 11
-0.07313192252358744
 21
0.04864556258113604
 31
0.0
 11
-0.07022322880984132
 21
0.04864556258113604
 31
0.0
 11
-0.0673145350960952
 21
0.04864556258113604
 31
0.0
 11
-0.06440584138234907
 21
0.04864556258113604
 31
0.0
 11
-0.06149714766860297
 21
0.04864556258113604
 31
0.0
 11
-0.058588453954856845
 21
0.04864556258113604
 31
0.0
 11
-0.05567976024111073
 21
0.04864556258113604
 31
0.0
 11
-0.05277106652736461
 21
0.04864556258113604
 31
0.0
 11
-0.049862372813618494
 21
0.04864556258113604
 31
0.0
 11
-0.04695367909987237
 21
0.04864556258113604
 31
0.0
 11
-0.04404498538612626
 21
0.04864556258113604
 31
0.0
 11
-0.041136291672380136
 21
0.04864556258113604
 31
0.0
  0
SPLINE
  5
30
330
17
100
AcDbEntity
  8
0
100
AcDbSpline
 70
0
 71
3
 72
0
 73
0
 74
100
 11
-0.041136291672380136
 21
0.04864556258113604
 31
0.0
 11
-0.041073766507145254
 21
0.04864531456392645
 31
0.0
 11
-0.041011245277066274
 21
0.048644570527907154
 31
0.0
 11
-0.040948731917051444
 21
0.04864333051990568
 31
0.0
 11
-0.040886230361513703
 21
0.04864159461796459
 31
0.0
 11
-0.04082374454412303
 21
0.048639362931336624
 31
0.0
 11
-0.04076127839755889
 21
0.048636635600477776
 31
0.0
 11
-0.04069883585326272
 21
0.048633412797038485
 31
0.0
 11
-0.040636420841190526
 21
0.04862969472385282
 31
0.0
 11
-0.04057403728956548
 21
0.04862548161492574
 31
0.0
 11
-0.04051168912463073
 21
0.048620773735418316
 31
0.0
 11
-0.040449380270402305
 21
0.04861557138163108
 31
0.0
 11
-0.04038711464842212
 21
0.04860987488098538
 31
0.0
 11
-0.040324896177511164
 21
0.04860368459200275
 31
0.0
 11
-0.040262728773522875
 21
0.04859700090428234
 31
0.0
 11
-0.0402006163490967
 21
0.048589824238476444
 31
0.0
 11
-0.04013856281341183
 21
0.04858215504626399
 31
0.0
 11
-0.040076572071941124
 21
0.04857399381032207
 31
0.0
 11
-0.040014648026205406
 21
0.04856534104429567
 31
0.0
 11
-0.039952794573527836
 21
0.04855619729276524
 31
0.0
 11
-0.03989101560678865
 21
0.04854656313121248
 31
0.0
 11
-0.03982931501418015
 21
0.04853643916598409
 31
0.0
 11
-0.039767696678961975
 21
0.04852582603425362
 31
0.0
 11
-0.039706164479216766
 21
0.048514724403981364
 31
0.0
 11
-0.039644722287605995
 21
0.04850313497387233
 31
0.0
 11
-0.03958337397112631
 21
0.04849105847333228
 31
0.0
 11
-0.03952212339086609
 21
0.04847849566242175
 31
0.0
 11
-0.03946097440176252
 21
0.04846544733180831
 31
0.0
 11
-0.039399930852358885
 21
0.048451914302716746
 31
0.0
 11
-0.03933899658456243
 21
0.048437897426877374
 31
0.0
 11
-0.0392781754334025
 21
0.04842339758647248
 31
0.0
 11
-0.039217471226789216
 21
0.04840841569408073
 31
0.0
 11
-0.039156887785272536
 21
0.04839295269261976
 31
0.0
 11
-0.03909642892180181
 21
0.04837700955528691
 31
0.0
 11
-0.0390360984414858
 21
0.04836058728549782
 31
0.0
 11
-0.03897590014135318
 21
0.048343686916823427
 31
0.0
 11
-0.038915837810113624
 21
0.04832630951292482
 31
0.0
 11
-0.038855915227919265
 21
0.04830845616748631
 31
0.0
 11
-0.03879613616612684
 21
0.048290128004146664
 31
0.0
 11
-0.03873650438706034
 21
0.0482713261764283
 31
0.0
 11
-0.03867702364377419
 21
0.04825205186766473
 31
0.0
 11
-0.03861769767981705
 21
0.048232306290926084
 31
0.0
 11
-0.0385585302289962
 21
0.04821209068894274
 31
0.0
 11
-0.03849952501514257
 21
0.04819140633402716
 31
0.0
 11
-0.03844068575187634
 21
0.04817025452799374
 31
0.0
 11
-0.03838201614237327
 21
0.04814863660207696
 31
0.0
 11
-0.03832351987913156
 21
0.048126553916847524
 31
0.0
 11
-0.038265200643739485
 21
0.048104007862126784
 31
0.0
 11
-0.03820706210664372
 21
0.048080999856899245
 31
0.0
 11
-0.03814910792691827
 21
0.048057531349223255
 31
0.0
 11
-0.03809134175203427
 21
0.04803360381613988
 31
0.0
 11
-0.03803376721763028
 21
0.048009218763579935
 31
0.0
 11
-0.03797638794728363
 21
0.04798437772626923
 31
0.0
 11
-0.03791920755228224
 21
0.047959082267631924
 31
0.0
 11
-0.037862229631397404
 21
0.04793333397969216
 31
0.0
 11
-0.03780545777065727
 21
0.04790713448297392
 31
0.0
 11
-0.03774889554312114
 21
0.04788048542639893
 31
0.0
 11
-0.03769254650865459
 21
0.04785338848718294
 31
0.0
 11
-0.03763641421370546
 21
0.04782584537073019
 31
0.0
 11
-0.0375805021910806
 21
0.047797857810526
 31
0.0
 11
-0.03752481395972354
 21
0.047769427568027746
 31
0.0
 11
-0.03746935302449304
 21
0.04774055643255397
 31
0.0
 11
-0.03741412287594249
 21
0.04771124622117173
 31
0.0
 11
-0.03735912699010023
 21
0.047681498778582326
 31
0.0
 11
-0.03730436882825073
 21
0.04765131597700508
 31
0.0
 11
-0.037249851836716835
 21
0.04762069971605963
 31
0.0
 11
-0.03719557944664281
 21
0.047589651922646276
 31
0.0
 11
-0.03714155507377837
 21
0.047558174550824735
 31
0.0
 11
-0.037087782118263767
 21
0.04752626958169122
 31
0.0
 11
-0.03703426396441575
 21
0.047493939023253634
 31
0.0
 11
-0.036981003980514564
 21
0.0474611849103053
 31
0.0
 11
-0.03692800551859199
 21
0.04742800930429686
 31
0.0
 11
-0.03687527191422034
 21
0.0473944142932065
 31
0.0
 11
-0.036822806486302574
 21
0.04736040199140858
 31
0.0
 11
-0.036770612536863374
 21
0.04732597453954057
 31
0.0
 11
-0.03671869335084132
 21
0.04729113410436828
 31
0.0
 11
-0.036667052195882205
 21
0.04725588287864952
 31
0.0
 11
-0.036615692322133304
 21
0.04722022308099609
 31
0.0
 11
-0.036564616962038866
 21
0.04718415695573414
 31
0.0
 11
-0.03651382933013667
 21
0.04714768677276294
 31
0.0
 11
-0.0364633326228557
 21
0.047110814827411966
 31
0.0
 11
-0.03641313001831493
 21
0.0470735434402965
 31
0.0
 11
-0.036363224676123414
 21
0.04703587495717156
 31
0.0
 11
-0.036313619737181314
 21
0.046997811748784236
 31
0.0
 11
-0.03626431832348227
 21
0.046959356210724515
 31
0.0
 11
-0.03621532353791693
 21
0.046920510763274484
 31
0.0
 11
-0.036166638464077625
 21
0.04688127785125604
 31
0.0
 11
-0.0361182661660643
 21
0.04684165994387697
 31
0.0
 11
-0.0360702096882917
 21
0.04680165953457559
 31
0.0
 11
-0.03602247205529773
 21
0.04676127914086378
 31
0.0
 11
-0.035975056271553126
 21
0.0467205213041686
 31
0.0
 11
-0.03592796532127234
 21
0.046679388589672244
 31
0.0
 11
-0.03588120216822572
 21
0.04663788358615068
 31
0.0
 11
-0.035834769755553005
 21
0.04659600890581068
 31
0.0
 11
-0.035788671005578074
 21
0.04655376718412541
 31
0.0
 11
-0.035742908819625024
 21
0.0465111610796686
 31
0.0
 11
-0.03569748607783556
 21
0.046468193273947175
 31
0.0
 11
-0.03565240563898775
 21
0.04642486647123251
 31
0.0
 11
-0.035607670340316096
 21
0.04638118339839022
 31
0.0
 11
-0.03556328299733294
 21
0.04633714680470858
 31
0.0
  0
SPLINE
  5
31
330
17
100
AcDbEntity
  8
0
100
AcDbSpline
 70
0
 71
3
 72
0
 73
0
 74
100
 11
-0.03556328299733294
 21
0.04633714680470858
 31
0.0
 11
-0.035508875891491216
 21
0.04628273969886686
 31
0.0
 11
-0.035454468785649486
 21
0.046228332593025126
 31
0.0
 11
-0.03540006167980776
 21
0.0461739254871834
 31
0.0
 11
-0.035345654573966045
 21
0.046119518381341686
 31
0.0
 11
-0.035291247468124315
 21
0.04606511127549996
 31
0.0
 11
-0.03523684036228259
 21
0.04601070416965823
 31
0.0
 11
-0.03518243325644087
 21
0.04595629706381651
 31
0.0
 11
-0.03512802615059914
 21
0.045901889957974784
 31
0.0
 11
-0.03507361904475742
 21
0.04584748285213306
 31
0.0
 11
-0.0350192119389157
 21
0.04579307574629134
 31
0.0
 11
-0.03496480483307397
 21
0.04573866864044961
 31
0.0
 11
-0.03491039772723224
 21
0.04568426153460788
 31
0.0
 11
-0.03485599062139052
 21
0.04562985442876616
 31
0.0
 11
-0.034801583515548795
 21
0.045575447322924435
 31
0.0
 11
-0.034747176409707065
 21
0.045521040217082705
 31
0.0
 11
-0.03469276930386535
 21
0.04546663311124099
 31
0.0
 11
-0.034638362198023624
 21
0.045412226005399264
 31
0.0
 11
-0.034583955092181894
 21
0.045357818899557534
 31
0.0
 11
-0.03452954798634017
 21
0.04530341179371581
 31
0.0
 11
-0.034475140880498446
 21
0.045249004687874086
 31
0.0
 11
-0.03442073377465672
 21
0.04519459758203236
 31
0.0
 11
-0.034366326668815
 21
0.04514019047619064
 31
0.0
 11
-0.034311919562973275
 21
0.045085783370348916
 31
0.0
 11
-0.034257512457131545
 21
0.045031376264507185
 31
0.0
 11
-0.03420310535128982
 21
0.04497696915866546
 31
0.0
 11
-0.0341486982454481
 21
0.04492256205282374
 31
0.0
 11
-0.034094291139606374
 21
0.044868154946982014
 31
0.0
 11
-0.03403988403376465
 21
0.04481374784114029
 31
0.0
 11
-0.03398547692792293
 21
0.04475934073529857
 31
0.0
 11
-0.033931069822081196
 21
0.044704933629456836
 31
0.0
 11
-0.03387666271623947
 21
0.04465052652361511
 31
0.0
 11
-0.03382225561039775
 21
0.04459611941777339
 31
0.0
 11
-0.033767848504556025
 21
0.044541712311931665
 31
0.0
 11
-0.0337134413987143
 21
0.04448730520608994
 31
0.0
 11
-0.03365903429287258
 21
0.04443289810024822
 31
0.0
 11
-0.03360462718703085
 21
0.04437849099440649
 31
0.0
 11
-0.033550220081189124
 21
0.044324083888564764
 31
0.0
 11
-0.03349581297534741
 21
0.04426967678272305
 31
0.0
 11
-0.033441405869505676
 21
0.04421526967688132
 31
0.0
 11
-0.03338699876366395
 21
0.04416086257103959
 31
0.0
 11
-0.03333259165782223
 21
0.04410645546519787
 31
0.0
 11
-0.0332781845519805
 21
0.044052048359356145
 31
0.0
 11
-0.033223777446138775
 21
0.043997641253514415
 31
0.0
 11
-0.03316937034029706
 21
0.0439432341476727
 31
0.0
 11
-0.033114963234455334
 21
0.043888827041830974
 31
0.0
 11
-0.033060556128613604
 21
0.043834419935989244
 31
0.0
 11
-0.03300614902277188
 21
0.04378001283014752
 31
0.0
 11
-0.032951741916930156
 21
0.0437256057243058
 31
0.0
 11
-0.032897334811088426
 21
0.043671198618464066
 31
0.0
 11
-0.03284292770524671
 21
0.04361679151262235
 31
0.0
 11
-0.032788520599404986
 21
0.043562384406780626
 31
0.0
 11
-0.032734113493563255
 21
0.043507977300938895
 31
0.0
 11
-0.03267970638772153
 21
0.04345357019509717
 31
0.0
 11
-0.03262529928187981
 21
0.04339916308925545
 31
0.0
 11
-0.03257089217603808
 21
0.04334475598341372
 31
0.0
 11
-0.03251648507019636
 21
0.043290348877572
 31
0.0
 11
-0.03246207796435464
 21
0.04323594177173028
 31
0.0
 11
-0.032407670858512906
 21
0.043181534665888546
 31
0.0
 11
-0.03235326375267118
 21
0.04312712756004682
 31
0.0
 11
-0.03229885664682946
 21
0.0430727204542051
 31
0.0
 11
-0.03224444954098773
 21
0.04301831334836337
 31
0.0
 11
-0.03219004243514601
 21
0.04296390624252165
 31
0.0
 11
-0.03213563532930429
 21
0.04290949913667993
 31
0.0
 11
-0.03208122822346256
 21
0.0428550920308382
 31
0.0
 11
-0.032026821117620834
 21
0.042800684924996474
 31
0.0
 11
-0.03197241401177911
 21
0.04274627781915475
 31
0.0
 11
-0.031918006905937386
 21
0.04269187071331302
 31
0.0
 11
-0.03186359980009566
 21
0.042637463607471296
 31
0.0
 11
-0.03180919269425394
 21
0.04258305650162958
 31
0.0
 11
-0.03175478558841221
 21
0.04252864939578785
 31
0.0
 11
-0.031700378482570485
 21
0.042474242289946125
 31
0.0
 11
-0.03164597137672876
 21
0.0424198351841044
 31
0.0
 11
-0.03159156427088704
 21
0.04236542807826267
 31
0.0
 11
-0.031537157165045314
 21
0.04231102097242095
 31
0.0
 11
-0.03148275005920359
 21
0.04225661386657923
 31
0.0
 11
-0.03142834295336186
 21
0.04220220676073751
 31
0.0
 11
-0.031373935847520136
 21
0.042147799654895776
 31
0.0
 11
-0.03131952874167841
 21
0.04209339254905405
 31
0.0
 11
-0.03126512163583669
 21
0.04203898544321233
 31
0.0
 11
-0.031210714529994965
 21
0.041984578337370605
 31
0.0
 11
-0.03115630742415324
 21
0.04193017123152888
 31
0.0
 11
-0.031101900318311514
 21
0.04187576412568716
 31
0.0
 11
-0.031047493212469787
 21
0.04182135701984543
 31
0.0
 11
-0.030993086106628067
 21
0.041766949914003704
 31
0.0
 11
-0.03093867900078634
 21
0.04171254280816198
 31
0.0
 11
-0.030884271894944616
 21
0.041658135702320256
 31
0.0
 11
-0.030829864789102893
 21
0.04160372859647853
 31
0.0
 11
-0.030775457683261166
 21
0.04154932149063681
 31
0.0
 11
-0.030721050577419445
 21
0.04149491438479508
 31
0.0
 11
-0.030666643471577718
 21
0.041440507278953355
 31
0.0
 11
-0.03061223636573599
 21
0.04138610017311163
 31
0.0
 11
-0.03055782925989427
 21
0.04133169306726991
 31
0.0
 11
-0.030503422154052544
 21
0.041277285961428184
 31
0.0
 11
-0.030449015048210817
 21
0.04122287885558646
 31
0.0
 11
-0.030394607942369097
 21
0.04116847174974473
 31
0.0
 11
-0.03034020083652737
 21
0.041114064643903006
 31
0.0
 11
-0.030285793730685642
 21
0.04105965753806128
 31
0.0
 11
-0.030231386624843922
 21
0.04100525043221956
 31
0.0
 11
-0.030176979519002195
 21
0.040950843326377835
 31
0.0
  0
SPLINE
  5
32
330
17
100
AcDbEntity
  8
0
100
AcDbSpline
 70
0
 71
3
 72
0
 73
0
 74
100
 11
-0.030176979519002195
 21
0.040950843326377835
 31
0.0
 11
-0.02993662892595484
 21
0.040712391986517625
 31
0.0
 11
-0.029694394206702487
 21
0.0404758549072931
 31
0.0
 11
-0.029450290606808777
 21
0.040241246975674654
 31
0.0
 11
-0.02920433348945944
 21
0.040008582957217695
 31
0.0
 11
-0.028956538334495248
 21
0.039777877495133195
 31
0.0
 11
-0.028706920737437903
 21
0.03954914510936623
 31
0.0
 11
-0.02845549640850834
 21
0.03932240019568199
 31
0.0
 11
-0.02820228117163813
 21
0.03909765702475992
 31
0.0
 11
-0.027947290963473474
 21
0.0388749297412954
 31
0.0
 11
-0.027690541832372167
 21
0.03865423236310963
 31
0.0
 11
-0.02743204993739368
 21
0.03843557878026735
 31
0.0
 11
-0.027171831547282005
 21
0.038218982754202616
 31
0.0
 11
-0.02690990303944189
 21
0.03800445791685274
 31
0.0
 11
-0.026646280898907974
 21
0.0377920177698003
 31
0.0
 11
-0.02638098171730736
 21
0.0375816756834234
 31
0.0
 11
-0.026114022191815297
 21
0.0373734448960542
 31
0.0
 11
-0.025845419124104384
 21
0.03716733851314568
 31
0.0
 11
-0.025575189419287096
 21
0.03696336950644687
 31
0.0
 11
-0.025303350084851767
 21
0.03676155071318641
 31
0.0
 11
-0.02502991822959231
 21
0.03656189483526466
 31
0.0
 11
-0.024754911062531283
 21
0.03636441443845419
 31
0.0
 11
-0.024478345891836967
 21
0.036169121951609054
 31
0.0
 11
-0.024200240123733886
 21
0.0359760296658824
 31
0.0
 11
-0.02392061126140742
 21
0.03578514973395304
 31
0.0
 11
-0.023639476903902175
 21
0.035596494169260536
 31
0.0
 11
-0.02335685474501428
 21
0.03541007484524907
 31
0.0
 11
-0.023072762572177923
 21
0.03522590349462023
 31
0.0
 11
-0.022787218265345705
 21
0.035043991708594534
 31
0.0
 11
-0.022500239795863484
 21
0.03486435093618197
 31
0.0
 11
-0.022211845225339172
 21
0.03468699248346137
 31
0.0
 11
-0.021922052704506086
 21
0.03451192751286886
 31
0.0
 11
-0.021630880472080567
 21
0.03433916704249537
 31
0.0
 11
-0.021338346853614007
 21
0.034168721945393075
 31
0.0
 11
-0.02104447026033965
 21
0.034000602948891206
 31
0.0
 11
-0.02074926918801367
 21
0.03383482063392081
 31
0.0
 11
-0.02045276221575126
 21
0.033671385434348895
 31
0.0
 11
-0.02015496800485716
 21
0.03351030763632164
 31
0.0
 11
-0.0198559052976513
 21
0.03335159737761713
 31
0.0
 11
-0.01955559291628916
 21
0.03319526464700726
 31
0.0
 11
-0.019254049761577092
 21
0.033041319283629064
 31
0.0
 11
-0.018951294811782905
 21
0.032889770976365494
 31
0.0
 11
-0.018647347121441258
 21
0.03274062926323558
 31
0.0
 11
-0.018342225820154573
 21
0.03259390353079421
 31
0.0
 11
-0.01803595011138895
 21
0.03244960301354128
 31
0.0
 11
-0.01772853927126565
 21
0.03230773679334059
 31
0.0
 11
-0.017420012647347854
 21
0.032168313798848186
 31
0.0
 11
-0.01711038965742299
 21
0.032031342804950465
 31
0.0
 11
-0.016799689788280663
 21
0.03189683243221184
 31
0.0
 11
-0.01648793259448616
 21
0.0317647911463323
 31
0.0
 11
-0.016175137697149802
 21
0.03163522725761448
 31
0.0
 11
-0.01586132478269201
 21
0.031508148920440716
 31
0.0
 11
-0.015546513601604289
 21
0.031383564132759806
 31
0.0
 11
-0.01523072396720622
 21
0.03126148073558363
 31
0.0
 11
-0.01491397575439844
 21
0.031141906412493675
 31
0.0
 11
-0.014596288898411794
 21
0.03102484868915745
 31
0.0
 11
-0.01427768339355263
 21
0.030910314932854833
 31
0.0
 11
-0.013958179291944496
 21
0.030798312352014412
 31
0.0
 11
-0.013637796702265986
 21
0.030688847995759785
 31
0.0
 11
-0.013316555788485295
 21
0.030581928753465937
 31
0.0
 11
-0.012994476768591072
 21
0.030477561354325607
 31
0.0
 11
-0.012671579913319969
 21
0.030375752366925794
 31
0.0
 11
-0.01234788554488088
 21
0.030276508198834356
 31
0.0
 11
-0.012023414035675905
 21
0.030179835096196712
 31
0.0
 11
-0.011698185807018171
 21
0.03008573914334275
 31
0.0
 11
-0.011372221327846562
 21
0.02999422626240388
 31
0.0
 11
-0.011045541113437508
 21
0.029905302212940327
 31
0.0
 11
-0.010718165724113745
 21
0.029818972591578615
 31
0.0
 11
-0.01039011576395034
 21
0.02973524283165938
 31
0.0
 11
-0.010061411879477948
 21
0.029654118202895347
 31
0.0
 11
-0.009732074758383334
 21
0.02957560381103972
 31
0.0
 11
-0.009402125128207412
 21
0.029499704597564815
 31
0.0
 11
-0.009071583755040614
 21
0.02942642533935107
 31
0.0
 11
-0.008740471442216064
 21
0.02935577064838639
 31
0.0
 11
-0.008408809029000127
 21
0.02928774497147591
 31
0.0
 11
-0.008076617389280987
 21
0.029222352589962072
 31
0.0
 11
-0.007743917430254798
 21
0.02915959761945522
 31
0.0
 11
-0.007410730091109898
 21
0.02909948400957457
 31
0.0
 11
-0.00707707634170894
 21
0.029042015543699583
 31
0.0
 11
-0.006742977181269097
 21
0.02898719583873192
 31
0.0
 11
-0.006408453637040489
 21
0.028935028344867768
 31
0.0
 11
-0.006073526762982676
 21
0.028885516345380665
 31
0.0
 11
-0.005738217638439713
 21
0.028838662956414927
 31
0.0
 11
-0.005402547366813377
 21
0.02879447112678948
 31
0.0
 11
-0.005066537074235024
 21
0.028752943637812278
 31
0.0
 11
-0.004730207908235958
 21
0.02871408310310527
 31
0.0
 11
-0.004393581036416459
 21
0.02867789196843988
 31
0.0
 11
-0.004056677645113608
 21
0.028644372511583093
 31
0.0
 11
-0.0037195189380677617
 21
0.028613526842154114
 31
0.0
 11
-0.0033821261350881903
 21
0.02858535690149157
 31
0.0
 11
-0.0030445204707174617
 21
0.028559864462531344
 31
0.0
 11
-0.002706723192895039
 21
0.02853705112969496
 31
0.0
 11
-0.0023687555616199933
 21
0.02851691833878865
 31
0.0
 11
-0.002030638847612947
 21
0.028499467356912958
 31
0.0
 11
-0.0016923943309774003
 21
0.02848469928238302
 31
0.0
 11
-0.0013540432998603255
 21
0.02847261504465939
 31
0.0
 11
-0.001015607049112476
 21
0.0284632154042896
 31
0.0
 11
-0.0006771068789480498
 21
0.02845650095286026
 31
0.0
 11
-0.00033856409360415987
 21
0.028452472112959832
 31
0.0
 11
2.6131938173374396e-18
 21
0.028451129138152013
 31
0.0
  0
SPLINE
  5
33
330
17
100
AcDbEntity
  8
0
100
AcDbSpline
 70
0
 71
3
 72
0
 73
0
 74
100
 11
6.654933588152679e-19
 21
0.028451129138152013
 31
0.0
 11
4.488886672778901e-05
 21
0.02845122183954693
 31
0.0
 11
8.977696769670441e-05
 21
0.028451499942150304
 31
0.0
 11
0.00013466353716094431
 21
0.02845196344121797
 31
0.0
 11
0.00017954780940082236
 21
0.028452612328843115
 31
0.0
 11
0.00022442901873585017
 21
0.028453446593956357
 31
0.0
 11
0.0002693063995377822
 21
0.028454466222325978
 31
0.0
 11
0.00031417918624368404
 21
0.02845567119655815
 31
0.0
 11
0.0003590466133689988
 21
0.028457061496097218
 31
0.0
 11
0.0004039079155205892
 21
0.028458637097226073
 31
0.0
 11
0.00044876232740981357
 21
0.02846039797306655
 31
0.0
 11
0.0004936090838655638
 21
0.02846234409357988
 31
0.0
 11
0.0005384474198473257
 21
0.0284644754255672
 31
0.0
 11
0.0005832765704582375
 21
0.028466791932670134
 31
0.0
 11
0.0006280957709581203
 21
0.02846929357537141
 31
0.0
 11
0.0006729042567765446
 21
0.02847198031099552
 31
0.0
 11
0.0007177012635258544
 21
0.028474852093709452
 31
0.0
 11
0.0007624860270142158
 21
0.02847790887452349
 31
0.0
 11
0.0008072577832586595
 21
0.028481150601292034
 31
0.0
 11
0.000852015768498097
 21
0.02848457721871448
 31
0.0
 11
0.0008967592192063692
 21
0.028488188668336193
 31
0.0
 11
0.000941487372105254
 21
0.028491984888549482
 31
0.0
 11
0.0009861994641774947
 21
0.02849596581459464
 31
0.0
 11
0.001030894732679823
 21
0.028500131378561087
 31
0.0
 11
0.0010755724151559544
 21
0.028504481509388484
 31
0.0
 11
0.001120231749449614
 21
0.028509016132868
 31
0.0
 11
0.0011648719737175214
 21
0.0285137351716435
 31
0.0
 11
0.001209492326442393
 21
0.028518638545212947
 31
0.0
 11
0.0012540920464459424
 21
0.028523726169929726
 31
0.0
 11
0.0012986703729018483
 21
0.02852899795900408
 31
0.0
 11
0.0013432265453487422
 21
0.028534453822504587
 31
0.0
 11
0.0013877598037031877
 21
0.02854009366735972
 31
0.0
 11
0.0014322693882726305
 21
0.028545917397359403
 31
0.0
 11
0.0014767545397683765
 21
0.028551924913156654
 31
0.0
 11
0.0015212144993185287
 21
0.028558116112269317
 31
0.0
 11
0.0015656485084809377
 21
0.02856449088908176
 31
0.0
 11
0.001610055809256151
 21
0.028571049134846715
 31
0.0
 11
0.0016544356441003229
 21
0.0285777907376871
 31
0.0
 11
0.0016987872559381598
 21
0.028584715582597977
 31
0.0
 11
0.0017431098881758153
 21
0.028591823551448448
 31
0.0
 11
0.0017874027847138076
 21
0.028599114522983728
 31
0.0
 11
0.0018316651899599218
 21
0.02860658837282718
 31
0.0
 11
0.0018758963488420854
 21
0.028614244973482462
 31
0.0
 11
0.0019200955068212656
 21
0.02862208419433566
 31
0.0
 11
0.001964261909904327
 21
0.028630105901657564
 31
0.0
 11
0.0020083948046568986
 21
0.02863830995860593
 31
0.0
 11
0.002052493438216235
 21
0.0286466962252278
 31
0.0
 11
0.0020965570583040467
 21
0.02865526455846191
 31
0.0
 11
0.002140584913239337
 21
0.028664014812141123
 31
0.0
 11
0.002184576251951234
 21
0.028672946836994926
 31
0.0
 11
0.0022285303239917877
 21
0.028682060480651955
 31
0.0
 11
0.0022724463795487874
 21
0.02869135558764264
 31
0.0
 11
0.0023163236694585397
 21
0.028700831999401807
 31
0.0
 11
0.0023601614452186544
 21
0.028710489554271416
 31
0.0
 11
0.002403958959000819
 21
0.028720328087503296
 31
0.0
 11
0.00244771546366354
 21
0.02873034743126199
 31
0.0
 11
0.002491430212764909
 21
0.02874054741462757
 31
0.0
 11
0.002535102460575318
 21
0.02875092786359859
 31
0.0
 11
0.002578731462090187
 21
0.02876148860109505
 31
0.0
 11
0.0026223164730426836
 21
0.028772229446961395
 31
0.0
 11
0.0026658567499163975
 21
0.028783150217969605
 31
0.0
 11
0.002709351549958049
 21
0.028794250727822334
 31
0.0
 11
0.00275280013119014
 21
0.02880553078715605
 31
0.0
 11
0.0027962017524236172
 21
0.028816990203544304
 31
0.0
 11
0.0028395556732705254
 21
0.028828628781500987
 31
0.0
 11
0.0028828611541566206
 21
0.028840446322483677
 31
0.0
 11
0.0029261174563340064
 21
0.028852442624897022
 31
0.0
 11
0.002969323841893716
 21
0.028864617484096185
 31
0.0
 11
0.0030124795737783124
 21
0.02887697069239033
 31
0.0
 11
0.0030555839157944643
 21
0.02888950203904615
 31
0.0
 11
0.0030986361326254914
 21
0.02890221131029149
 31
0.0
 11
0.003141635489843927
 21
0.02891509828931899
 31
0.0
 11
0.0031845812539240273
 21
0.028928162756289753
 31
0.0
 11
0.0032274726922542937
 21
0.02894140448833713
 31
0.0
 11
0.003270309073149978
 21
0.0289548232595705
 31
0.0
 11
0.0033130896658655476
 21
0.028968418841079143
 31
0.0
 11
0.003355813740607168
 21
0.028982191000936124
 31
0.0
 11
0.003398480568545138
 21
0.028996139504202257
 31
0.0
 11
0.0034410894218263295
 21
0.02901026411293013
 31
0.0
 11
0.0034836395735866107
 21
0.029024564586168134
 31
0.0
 11
0.0035261302979632285
 21
0.02903904067996459
 31
0.0
 11
0.003568560870107211
 21
0.02905369214737192
 31
0.0
 11
0.0036109305661957162
 21
0.029068518738450837
 31
0.0
 11
0.0036532386634443854
 21
0.02908352020027463
 31
0.0
 11
0.003695484440119683
 21
0.02909869627693346
 31
0.0
 11
0.003737667175551188
 21
0.02911404670953874
 31
0.0
 11
0.003779786150143909
 21
0.029129571236227544
 31
0.0
 11
0.0038218406453905457
 21
0.02914526959216708
 31
0.0
 11
0.003863829943883748
 21
0.029161141509559202
 31
0.0
 11
0.0039057533293283654
 21
0.02917718671764498
 31
0.0
 11
0.003947610086553647
 21
0.02919340494270931
 31
0.0
 11
0.003989399501525463
 21
0.029209795908085614
 31
0.0
 11
0.004031120861358465
 21
0.02922635933416052
 31
0.0
 11
0.004072773454328261
 21
0.029243094938378653
 31
0.0
 11
0.004114356569883557
 21
0.029260002435247463
 31
0.0
 11
0.004155869498658262
 21
0.029277081536342068
 31
0.0
 11
0.004197311532483615
 21
0.029294331950310205
 31
0.0
 11
0.0042386819644002404
 21
0.029311753382877177
 31
0.0
 11
0.004279980088670221
 21
0.029329345536850886
 31
0.0
 11
0.004321205200789144
 21
0.029347108112126905
 31
0.0
  0
SPLINE
  5
34
330
17
100
AcDbEntity
  8
0
100
AcDbSpline
 70
0
 71
3
 72
0
 73
0
 74
100
 11
0.004321205200789144
 21
0.029347108112126905
 31
0.0
 11
0.005568756722398013
 21
0.029886621121016352
 31
0.0
 11
0.006814063410194591
 21
0.030423013002428206
 31
0.0
 11
0.008057125264178878
 21
0.03095628375636249
 31
0.0
 11
0.009297942284350878
 21
0.03148643338281918
 31
0.0
 11
0.010536514470710582
 21
0.032013461881798294
 31
0.0
 11
0.011772841823258001
 21
0.03253736925329983
 31
0.0
 11
0.013006924341993124
 21
0.03305815549732376
 31
0.0
 11
0.01423876202691596
 21
0.03357582061387013
 31
0.0
 11
0.0154683548780265
 21
0.034090364602938905
 31
0.0
 11
0.016695702895324755
 21
0.0346017874645301
 31
0.0
 11
0.017920806078810712
 21
0.03511008919864371
 31
0.0
 11
0.019143664428484385
 21
0.03561526980527973
 31
0.0
 11
0.02036427794434577
 21
0.036117329284438185
 31
0.0
 11
0.021582646626394857
 21
0.03661626763611905
 31
0.0
 11
0.02279877047463166
 21
0.037112084860322324
 31
0.0
 11
0.024012649489056168
 21
0.037604780957048015
 31
0.0
 11
0.02522428366966838
 21
0.038094355926296126
 31
0.0
 11
0.026433673016468307
 21
0.03858080976806665
 31
0.0
 11
0.02764081752945595
 21
0.03906414248235961
 31
0.0
 11
0.0288457172086313
 21
0.039544354069174954
 31
0.0
 11
0.03004837205399434
 21
0.04002144452851274
 31
0.0
 11
0.031248782065545114
 21
0.040495413860372934
 31
0.0
 11
0.03244694724328359
 21
0.040966262064755544
 31
0.0
 11
0.03364286758720977
 21
0.04143398914166057
 31
0.0
 11
0.03483654309732366
 21
0.04189859509108801
 31
0.0
 11
0.036027973773625266
 21
0.042360079913037876
 31
0.0
 11
0.037217159616114576
 21
0.042818443607510165
 31
0.0
 11
0.0384041006247916
 21
0.04327368617450486
 31
0.0
 11
0.03958879679965632
 21
0.04372580761402196
 31
0.0
 11
0.04077124814070877
 21
0.044174807926061495
 31
0.0
 11
0.04195145464794891
 21
0.04462068711062343
 31
0.0
 11
0.04312941632137676
 21
0.0450634451677078
 31
0.0
 11
0.044305133160992334
 21
0.04550308209731457
 31
0.0
 11
0.04547860516679561
 21
0.045939597899443775
 31
0.0
 11
0.0466498323387866
 21
0.046372992574095384
 31
0.0
 11
0.04781881467696528
 21
0.04680326612126941
 31
0.0
 11
0.048985552181331694
 21
0.04723041854096586
 31
0.0
 11
0.0501500448518858
 21
0.047654449833184724
 31
0.0
 11
0.05131229268862762
 21
0.04807535999792599
 31
0.0
 11
0.052472295691557154
 21
0.0484931490351897
 31
0.0
 11
0.0536300538606744
 21
0.048907816944975806
 31
0.0
 11
0.05478556719597934
 21
0.049319363727284335
 31
0.0
 11
0.055938835697472
 21
0.04972778938211528
 31
0.0
 11
0.05708985936515238
 21
0.05013309390946864
 31
0.0
 11
0.05823863819902044
 21
0.050535277309344415
 31
0.0
 11
0.059385172199076235
 21
0.050934339581742615
 31
0.0
 11
0.06052946136531973
 21
0.05133028072666323
 31
0.0
 11
0.061671505697750935
 21
0.05172310074410626
 31
0.0
 11
0.06281130519636985
 21
0.05211279963407169
 31
0.0
 11
0.06394885986117647
 21
0.05249937739655956
 31
0.0
 11
0.06508416969217082
 21
0.05288283403156984
 31
0.0
 11
0.06621723468935287
 21
0.05326316953910253
 31
0.0
 11
0.06734805485272259
 21
0.053640383919157646
 31
0.0
 11
0.06847663018228008
 21
0.05401447717173517
 31
0.0
 11
0.06960296067802522
 21
0.05438544929683512
 31
0.0
 11
0.07072704633995812
 21
0.05475330029445749
 31
0.0
 11
0.0718488871680787
 21
0.05511803016460226
 31
0.0
 11
0.07296848316238701
 21
0.055479638907269445
 31
0.0
 11
0.07408583432288302
 21
0.05583812652245907
 31
0.0
 11
0.07520094064956673
 21
0.0561934930101711
 31
0.0
 11
0.07631380214243816
 21
0.05654573837040554
 31
0.0
 11
0.0774244188014973
 21
0.0568948626031624
 31
0.0
 11
0.07853279062674415
 21
0.05724086570844168
 31
0.0
 11
0.07963891761817868
 21
0.05758374768624337
 31
0.0
 11
0.08074279977580094
 21
0.05792350853656748
 31
0.0
 11
0.08184443709961092
 21
0.058260148259414016
 31
0.0
 11
0.08294382958960861
 21
0.05859366685478296
 31
0.0
 11
0.08404097724579401
 21
0.05892406432267432
 31
0.0
 11
0.0851358800681671
 21
0.0592513406630881
 31
0.0
 11
0.08622853805672792
 21
0.0595754958760243
 31
0.0
 11
0.08731895121147643
 21
0.05989652996148291
 31
0.0
 11
0.08840711953241265
 21
0.060214442919463936
 31
0.0
 11
0.0894930430195366
 21
0.06052923474996739
 31
0.0
 11
0.09057672167284823
 21
0.06084090545299324
 31
0.0
 11
0.0916581554923476
 21
0.06114945502854152
 31
0.0
 11
0.09273734447803465
 21
0.061454883476612224
 31
0.0
 11
0.09381428862990944
 21
0.061757190797205326
 31
0.0
 11
0.09488898794797193
 21
0.062056376990320856
 31
0.0
 11
0.09596144243222211
 21
0.0623524420559588
 31
0.0
 11
0.09703165208266003
 21
0.06264538599411919
 31
0.0
 11
0.09809961689928563
 21
0.06293520880480194
 31
0.0
 11
0.09916533688209897
 21
0.06322191048800714
 31
0.0
 11
0.10022881203109998
 21
0.06350549104373476
 31
0.0
 11
0.10129004234628873
 21
0.06378595047198479
 31
0.0
 11
0.10234902782766518
 21
0.06406328877275723
 31
0.0
 11
0.10340576847522934
 21
0.06433750594605209
 31
0.0
 11
0.10446026428898121
 21
0.06460860199186938
 31
0.0
 11
0.10551251526892078
 21
0.06487657691020907
 31
0.0
 11
0.10656252141504807
 21
0.06514143070107119
 31
0.0
 11
0.10761028272736306
 21
0.0654031633644557
 31
0.0
 11
0.10865579920586577
 21
0.06566177490036265
 31
0.0
 11
0.10969907085055618
 21
0.06591726530879202
 31
0.0
 11
0.11074009766143429
 21
0.0661696345897438
 31
0.0
 11
0.11177887963850013
 21
0.06641888274321799
 31
0.0
 11
0.11281541678175368
 21
0.0666650097692146
 31
0.0
 11
0.11384970909119492
 21
0.06690801566773363
 31
0.0
 11
0.11488175656682388
 21
0.06714790043877508
 31
0.0
 11
0.11591155920864056
 21
0.06738466408233894
 31
0.0
 11
0.11693911701664493
 21
0.06761830659842522
 31
0.0
  0
ENDSEC
  0
SECTION
  2
OBJECTS
  0
DICTIONARY
  5
A
330
0
100
AcDbDictionary
281
1
  3
ACAD_COLOR
350
B
  3
ACAD_GROUP
350
C
  3
ACAD_LAYOUT
350
D
  3
ACAD_MATERIAL
350
E
  3
ACAD_MLEADERSTYLE
350
F
  3
ACAD_MLINESTYLE
350
10
  3
ACAD_PLOTSETTINGS
350
11
  3
ACAD_PLOTSTYLENAME
350
12
  3
ACAD_SCALELIST
350
14
  3
ACAD_TABLESTYLE
350
15
  3
ACAD_VISUALSTYLE
350
16
  3
EZDXF_META
350
2D
  0
DICTIONARY
  5
B
330
A
100
AcDbDictionary
281
1
  0
DICTIONARY
  5
C
330
A
100
AcDbDictionary
281
1
  0
DICTIONARY
  5
D
330
A
100
AcDbDictionary
281
1
  3
Model
350
1A
  3
Layout1
350
1E
  0
DICTIONARY
  5
E
330
A
100
AcDbDictionary
281
1
  3
ByBlock
350
1F
  3
ByLayer
350
20
  3
Global
350
21
  0
DICTIONARY
  5
F
330
A
100
AcDbDictionary
281
1
  3
Standard
350
2C
  0
DICTIONARY
  5
10
330
A
100
AcDbDictionary
281
1
  3
Standard
350
22
  0
DICTIONARY
  5
11
330
A
100
AcDbDictionary
281
1
  0
ACDBDICTIONARYWDFLT
  5
12
330
A
100
AcDbDictionary
281
1
  3
Normal
350
13
100
AcDbDictionaryWithDefault
340
13
  0
ACDBPLACEHOLDER
  5
13
330
12
  0
DICTIONARY
  5
14
330
A
100
AcDbDictionary
281
1
  0
DICTIONARY
  5
15
330
A
100
AcDbDictionary
281
1
  0
DICTIONARY
  5
16
330
A
100
AcDbDictionary
281
1
  0
LAYOUT
  5
1A
330
D
100
AcDbPlotSettings
  1

  4
A3
  6

 40
7.5
 41
20.0
 42
7.5
 43
20.0
 44
420.0
 45
297.0
 46
0.0
 47
0.0
 48
0.0
 49
0.0
140
0.0
141
0.0
142
1.0
143
1.0
 70
1024
 72
1
 73
0
 74
5
  7

 75
16
 76
0
 77
2
 78
300
147
1.0
148
0.0
149
0.0
100
AcDbLayout
  1
Model
 70
1
 71
0
 10
0.0
 20
0.0
 11
420.0
 21
297.0
 12
0.0
 22
0.0
 32
0.0
 14
1e+20
 24
1e+20
 34
1e+20
 15
-1e+20
 25
-1e+20
 35
-1e+20
146
0.0
 13
0.0
 23
0.0
 33
0.0
 16
1.0
 26
0.0
 36
0.0
 17
0.0
 27
1.0
 37
0.0
 76
1
330
17
  0
LAYOUT
  5
1E
330
D
100
AcDbPlotSettings
  1

  4
A3
  6

 40
7.5
 41
20.0
 42
7.5
 43
20.0
 44
420.0
 45
297.0
 46
0.0
 47
0.0
 48
0.0
 49
0.0
140
0.0
141
0.0
142
1.0
143
1.0
 70
0
 72
1
 73
0
 74
5
  7

 75
16
 76
0
 77
2
 78
300
147
1.0
148
0.0
149
0.0
100
AcDbLayout
  1
Layout1
 70
1
 71
1
 10
0.0
 20
0.0
 11
420.0
 21
297.0
 12
0.0
 22
0.0
 32
0.0
 14
1e+20
 24
1e+20
 34
1e+20
 15
-1e+20
 25
-1e+20
 35
-1e+20
146
0.0
 13
0.0
 23
0.0
 33
0.0
 16
1.0
 26
0.0
 36
0.0
 17
0.0
 27
1.0
 37
0.0
 76
1
330
1B
  0
MATERIAL
  5
1F
102
{ACAD_REACTORS
330
E
102
}
330
E
100
AcDbMaterial
  1
ByBlock
  2

 70
0
 40
1.0
 71
1
 41
1.0
 91
-1023410177
 42
1.0
 72
1
  3

 73
1
 74
1
 75
1
 44
0.5
 73
0
 45
1.0
 46
1.0
 77
1
  4

 78
1
 79
1
170
1
 48
1.0
171
1
  6

172
1
173
1
174
1
140
1.0
141
1.0
175
1
  7

176
1
177
1
178
1
143
1.0
179
1
  8

270
1
271
1
272
1
145
1.0
146
1.0
273
1
  9

274
1
275
1
276
1
 42
1.0
 72
1
  3

 73
1
 74
1
 75
1
 94
63
  0
MATERIAL
  5
20
102
{ACAD_REACTORS
330
E
102
}
330
E
100
AcDbMaterial
  1
ByLayer
  2

 70
0
 40
1.0
 71
1
 41
1.0
 91
-1023410177
 42
1.0
 72
1
  3

 73
1
 74
1
 75
1
 44
0.5
 73
0
 45
1.0
 46
1.0
 77
1
  4

 78
1
 79
1
170
1
 48
1.0
171
1
  6

172
1
173
1
174
1
140
1.0
141
1.0
175
1
  7

176
1
177
1
178
1
143
1.0
179
1
  8

270
1
271
1
272
1
145
1.0
146
1.0
273
1
  9

274
1
275
1
276
1
 42
1.0
 72
1
  3

 73
1
 74
1
 75
1
 94
63
  0
MATERIAL
  5
21
102
{ACAD_REACTORS
330
E
102
}
330
E
100
AcDbMaterial
  1
Global
  2

 70
0
 40
1.0
 71
1
 41
1.0
 91
-1023410177
 42
1.0
 72
1
  3

 73
1
 74
1
 75
1
 44
0.5
 73
0
 45
1.0
 46
1.0
 77
1
  4

 78
1
 79
1
170
1
 48
1.0
171
1
  6

172
1
173
1
174
1
140
1.0
141
1.0
175
1
  7

176
1
177
1
178
1
143
1.0
179
1
  8

270
1
271
1
272
1
145
1.0
146
1.0
273
1
  9

274
1
275
1
276
1
 42
1.0
 72
1
  3

 73
1
 74
1
 75
1
 94
63
  0
MLINESTYLE
  5
22
102
{ACAD_REACTORS
330
10
102
}
330
10
100
AcDbMlineStyle
  2
Standard
 70
0
  3

 62
256
 51
90.0
 52
90.0
 71
2
 49
0.5
 62
256
  6
BYLAYER
 49
-0.5
 62
256
  6
BYLAYER
  0
MLEADERSTYLE
  5
2C
102
{ACAD_REACTORS
330
F
102
}
330
F
100
AcDbMLeaderStyle
179
2
170
2
171
1
172
0
 90
2
 40
0.0
 41
0.0
173
1
 91
-1056964608
 92
-2
290
1
 42
2.0
291
1
 43
8.0
  3
Standard
 44
4.0
300

342
29
174
1
175
1
176
0
178
1
 93
-1056964608
 45
4.0
292
0
297
0
 46
4.0
 94
-1056964608
 47
1.0
 49
1.0
140
1.0
294
1
141
0.0
177
0
142
1.0
295
0
296
0
143
3.75
271
0
272
9
273
9
  0
DICTIONARY
  5
2D
330
A
100
AcDbDictionary
280
1
281
1
  3
CREATED_BY_EZDXF
350
2E
  3
WRITTEN_BY_EZDXF
350
37
  0
DICTIONARYVAR
  5
2E
330
2D
100
DictionaryVariables
280
0
  1
1.4.4 @ 2026-06-07T17:40:49.268168+00:00
  0
DICTIONARYVAR
  5
37
330
2D
100
DictionaryVariables
280
0
  1
1.4.4 @ 2026-06-07T17:40:49.269678+00:00
  0
ENDSEC
  0
EOF
