  0
SECTION
  2
HEADER
  9
$ACADVER
  1
AC1024
  9
$ACADMAINTVER
 70
6
  9
$DWGCODEPAGE
  3
ANSI_1252
  9
$LASTSAVEDBY
  1
ezdxf
  9
$INSBASE
 10
0.0
 20
0.0
 30
0.0
  9
$EXTMIN
 10
1e+20
 20
1e+20
 30
1e+20
  9
$EXTMAX
 10
-1e+20
 20
-1e+20
 30
-1e+20
  9
$LIMMIN
 10
0.0
 20
0.0
  9
$LIMMAX
 10
420.0
 20
297.0
  9
$ORTHOMODE
 70
0
  9
$REGENMODE
 70
1
  9
$FILLMODE
 70
1
  9
$QTEXTMODE
 70
0
  9
$MIRRTEXT
 70
1
  9
$LTSCALE
 40
1.0
  9
$ATTMODE
 70
1
  9
$TEXTSIZE
 40
2.5
  9
$TRACEWID
 40
1.0
  9
$TEXTSTYLE
  7
Standard
  9
$CLAYER
  8
0
  9
$CELTYPE
  6
ByLayer
  9
$CECOLOR
 62
256
  9
$CELTSCALE
 40
1.0
  9
$DISPSILH
 70
0
  9
$DIMSCALE
 40
1.0
  9
$DIMASZ
 40
2.5
  9
$DIMEXO
 40
0.625
  9
$DIMDLI
 40
3.75
  9
$DIMRND
 40
0.0
  9
$DIMDLE
 40
0.0
  9
$DIMEXE
 40
1.25
  9
$DIMTP
 40
0.0
  9
$DIMTM
 40
0.0
  9
$DIMTXT
 40
2.5
  9
$DIMCEN
 40
2.5
  9
$DIMTSZ
 40
0.0
  9
$DIMTOL
 70
0
  9
$DIMLIM
 70
0
  9
$DIMTIH
 70
0
  9
$DIMTOH
 70
0
  9
$DIMSE1
 70
0
  9
$DIMSE2
 70
0
  9
$DIMTAD
 70
1
  9
$DIMZIN
 70
8
  9
$DIMBLK
  1

  9
$DIMASO
 70
1
  9
$DIMSHO
 70
1
  9
$DIMPOST
  1

  9
$DIMAPOST
  1

  9
$DIMALT
 70
0
  9
$DIMALTD
 70
3
  9
$DIMALTF
 40
0.03937007874
  9
$DIMLFAC
 40
1.0
  9
$DIMTOFL
 70
1
  9
$DIMTVP
 40
0.0
  9
$DIMTIX
 70
0
  9
$DIMSOXD
 70
0
  9
$DIMSAH
 70
0
  9
$DIMBLK1
  1

  9
$DIMBLK2
  1

  9
$DIMSTYLE
  2
ISO-25
  9
$DIMCLRD
 70
0
  9
$DIMCLRE
 70
0
  9
$DIMCLRT
 70
0
  9
$DIMTFAC
 40
1.0
  9
$DIMGAP
 40
0.625
  9
$DIMJUST
 70
0
  9
$DIMSD1
 70
0
  9
$DIMSD2
 70
0
  9
$DIMTOLJ
 70
0
  9
$DIMTZIN
 70
8
  9
$DIMALTZ
 70
0
  9
$DIMALTTZ
 70
0
  9
$DIMUPT
 70
0
  9
$DIMDEC
 70
2
  9
$DIMTDEC
 70
2
  9
$DIMALTU
 70
2
  9
$DIMALTTD
 70
3
  9
$DIMTXSTY
  7
Standard
  9
$DIMAUNIT
 70
0
  9
$DIMADEC
 70
0
  9
$DIMALTRND
 40
0.0
  9
$DIMAZIN
 70
0
  9
$DIMDSEP
 70
44
  9
$DIMATFIT
 70
3
  9
$DIMFRAC
 70
0
  9
$DIMLDRBLK
  1

  9
$DIMLUNIT
 70
2
  9
$DIMLWD
 70
-2
  9
$DIMLWE
 70
-2
  9
$DIMTMOVE
 70
0
  9
$DIMFXL
 40
1.0
  9
$DIMFXLON
 70
0
  9
$DIMJOGANG
 40
0.785398163397
  9
$DIMTFILL
 70
0
  9
$DIMTFILLCLR
 70
0
  9
$DIMARCSYM
 70
0
  9
$DIMLTYPE
  6

  9
$DIMLTEX1
  6

  9
$DIMLTEX2
  6

  9
$DIMTXTDIRECTION
 70
0
  9
$LUNITS
 70
2
  9
$LUPREC
 70
4
  9
$SKETCHINC
 40
1.0
  9
$FILLETRAD
 40
10.0
  9
$AUNITS
 70
0
  9
$AUPREC
 70
2
  9
$MENU
  1
.
  9
$ELEVATION
 40
0.0
  9
$PELEVATION
 40
0.0
  9
$THICKNESS
 40
0.0
  9
$LIMCHECK
 70
0
  9
$CHAMFERA
 40
0.0
  9
$CHAMFERB
 40
0.0
  9
$CHAMFERC
 40
0.0
  9
$CHAMFERD
 40
0.0
  9
$SKPOLY
 70
0
  9
$TDCREATE
 40
2461199.80431713
  9
$TDUCREATE
 40
2458532.153996898
  9
$TDUPDATE
 40
2461199.80431713
  9
$TDUUPDATE
 40
2458532.1544311
  9
$TDINDWG
 40
0.0
  9
$TDUSRTIMER
 40
0.0
  9
$USRTIMER
 70
1
  9
$ANGBASE
 50
0.0
  9
$ANGDIR
 70
0
  9
$PDMODE
 70
0
  9
$PDSIZE
 40
0.0
  9
$PLINEWID
 40
0.0
  9
$SPLFRAME
 70
0
  9
$SPLINETYPE
 70
6
  9
$SPLINESEGS
 70
8
  9
$HANDSEED
  5
38
  9
$SURFTAB1
 70
6
  9
$SURFTAB2
 70
6
  9
$SURFTYPE
 70
6
  9
$SURFU
 70
6
  9
$SURFV
 70
6
  9
$UCSBASE
  2

  9
$UCSNAME
  2

  9
$UCSORG
 10
0.0
 20
0.0
 30
0.0
  9
$UCSXDIR
 10
1.0
 20
0.0
 30
0.0
  9
$UCSYDIR
 10
0.0
 20
1.0
 30
0.0
  9
$UCSORTHOREF
  2

  9
$UCSORTHOVIEW
 70
0
  9
$UCSORGTOP
 10
0.0
 20
0.0
 30
0.0
  9
$UCSORGBOTTOM
 10
0.0
 20
0.0
 30
0.0
  9
$UCSORGLEFT
 10
0.0
 20
0.0
 30
0.0
  9
$UCSORGRIGHT
 10
0.0
 20
0.0
 30
0.0
  9
$UCSORGFRONT
 10
0.0
 20
0.0
 30
0.0
  9
$UCSORGBACK
 10
0.0
 20
0.0
 30
0.0
  9
$PUCSBASE
  2

  9
$PUCSNAME
  2

  9
$PUCSORG
 10
0.0
 20
0.0
 30
0.0
  9
$PUCSXDIR
 10
1.0
 20
0.0
 30
0.0
  9
$PUCSYDIR
 10
0.0
 20
1.0
 30
0.0
  9
$PUCSORTHOREF
  2

  9
$PUCSORTHOVIEW
 70
0
  9
$PUCSORGTOP
 10
0.0
 20
0.0
 30
0.0
  9
$PUCSORGBOTTOM
 10
0.0
 20
0.0
 30
0.0
  9
$PUCSORGLEFT
 10
0.0
 20
0.0
 30
0.0
  9
$PUCSORGRIGHT
 10
0.0
 20
0.0
 30
0.0
  9
$PUCSORGFRONT
 10
0.0
 20
0.0
 30
0.0
  9
$PUCSORGBACK
 10
0.0
 20
0.0
 30
0.0
  9
$USERI1
 70
0
  9
$USERI2
 70
0
  9
$USERI3
 70
0
  9
$USERI4
 70
0
  9
$USERI5
 70
0
  9
$USERR1
 40
0.0
  9
$USERR2
 40
0.0
  9
$USERR3
 40
0.0
  9
$USERR4
 40
0.0
  9
$USERR5
 40
0.0
  9
$WORLDVIEW
 70
1
  9
$SHADEDGE
 70
3
  9
$SHADEDIF
 70
70
  9
$TILEMODE
 70
1
  9
$MAXACTVP
 70
64
  9
$PINSBASE
 10
0.0
 20
0.0
 30
0.0
  9
$PLIMCHECK
 70
0
  9
$PEXTMIN
 10
1e+20
 20
1e+20
 30
1e+20
  9
$PEXTMAX
 10
-1e+20
 20
-1e+20
 30
-1e+20
  9
$PLIMMIN
 10
0.0
 20
0.0
  9
$PLIMMAX
 10
420.0
 20
297.0
  9
$UNITMODE
 70
0
  9
$VISRETAIN
 70
1
  9
$PLINEGEN
 70
0
  9
$PSLTSCALE
 70
1
  9
$TREEDEPTH
 70
3020
  9
$CMLSTYLE
  2
Standard
  9
$CMLJUST
 70
0
  9
$CMLSCALE
 40
20.0
  9
$PROXYGRAPHICS
 70
1
  9
$MEASUREMENT
 70
1
  9
$CELWEIGHT
370
-1
  9
$ENDCAPS
280
0
  9
$JOINSTYLE
280
0
  9
$LWDISPLAY
290
0
  9
$INSUNITS
 70
6
  9
$HYPERLINKBASE
  1

  9
$STYLESHEET
  1

  9
$XEDIT
290
1
  9
$CEPSNTYPE
380
0
  9
$PSTYLEMODE
290
1
  9
$FINGERPRINTGUID
  2
{71868DE2-60F8-4720-B036-F37BBE690B9F}
  9
$VERSIONGUID
  2
{98B1E1BD-D1B2-4E3E-95B8-DFFBEC2BBCBC}
  9
$EXTNAMES
290
1
  9
$PSVPSCALE
 40
0.0
  9
$OLESTARTUP
290
0
  9
$SORTENTS
280
127
  9
$INDEXCTL
280
0
  9
$HIDETEXT
280
1
  9
$XCLIPFRAME
280
1
  9
$HALOGAP
280
0
  9
$OBSCOLOR
 70
257
  9
$OBSLTYPE
280
0
  9
$INTERSECTIONDISPLAY
280
0
  9
$INTERSECTIONCOLOR
 70
257
  9
$DIMASSOC
280
2
  9
$PROJECTNAME
  1

  9
$CAMERADISPLAY
290
0
  9
$LENSLENGTH
 40
50.0
  9
$CAMERAHEIGHT
 40
0.0
  9
$STEPSPERSEC
 40
24.0
  9
$STEPSIZE
 40
100.0
  9
$3DDWFPREC
 40
2.0
  9
$PSOLWIDTH
 40
0.005
  9
$PSOLHEIGHT
 40
0.08
  9
$LOFTANG1
 40
1.570796326795
  9
$LOFTANG2
 40
1.570796326795
  9
$LOFTMAG1
 40
0.0
  9
$LOFTMAG2
 40
0.0
  9
$LOFTPARAM
 70
7
  9
$LOFTNORMALS
280
1
  9
$LATITUDE
 40
37.795
  9
$LONGITUDE
 40
-122.394
  9
$NORTHDIRECTION
 40
0.0
  9
$TIMEZONE
 70
-8000
  9
$LIGHTGLYPHDISPLAY
280
1
  9
$TILEMODELIGHTSYNCH
280
1
  9
$CMATERIAL
347
20
  9
$SOLIDHIST
280
0
  9
$SHOWHIST
280
1
  9
$DWFFRAME
280
2
  9
$DGNFRAME
280
2
  9
$REALWORLDSCALE
290
1
  9
$INTERFERECOLOR
 62
256
  9
$CSHADOW
280
0
  9
$SHADOWPLANELOCATION
 40
0.0
  0
ENDSEC
  0
SECTION
  2
CLASSES
  0
CLASS
  1
ACDBDICTIONARYWDFLT
  2
AcDbDictionaryWithDefault
  3
ObjectDBX Classes
 90
0
 91
0
280
0
281
0
  0
CLASS
  1
SUN
  2
AcDbSun
  3
SCENEOE
 90
1153
 91
0
280
0
281
0
  0
CLASS
  1
VISUALSTYLE
  2
AcDbVisualStyle
  3
ObjectDBX Classes
 90
4095
 91
0
280
0
281
0
  0
CLASS
  1
MATERIAL
  2
AcDbMaterial
  3
ObjectDBX Classes
 90
1153
 91
0
280
0
281
0
  0
CLASS
  1
SCALE
  2
AcDbScale
  3
ObjectDBX Classes
 90
1153
 91
0
280
0
281
0
  0
CLASS
  1
TABLESTYLE
  2
AcDbTableStyle
  3
ObjectDBX Classes
 90
4095
 91
0
280
0
281
0
  0
CLASS
  1
MLEADERSTYLE
  2
AcDbMLeaderStyle
  3
ACDB_MLEADERSTYLE_CLASS
 90
4095
 91
0
280
0
281
0
  0
CLASS
  1
DICTIONARYVAR
  2
AcDbDictionaryVar
  3
ObjectDBX Classes
 90
0
 91
0
280
0
281
0
  0
CLASS
  1
CELLSTYLEMAP
  2
AcDbCellStyleMap
  3
ObjectDBX Classes
 90
1152
 91
0
280
0
281
0
  0
CLASS
  1
MENTALRAYRENDERSETTINGS
  2
AcDbMentalRayRenderSettings
  3
SCENEOE
 90
1024
 91
0
280
0
281
0
  0
CLASS
  1
ACDBDETAILVIEWSTYLE
  2
AcDbDetailViewStyle
  3
ObjectDBX Classes
 90
1025
 91
0
280
0
281
0
  0
CLASS
  1
ACDBSECTIONVIEWSTYLE
  2
AcDbSectionViewStyle
  3
ObjectDBX Classes
 90
1025
 91
0
280
0
281
0
  0
CLASS
  1
RASTERVARIABLES
  2
AcDbRasterVariables
  3
ISM
 90
0
 91
0
280
0
281
0
  0
CLASS
  1
LAYOUT
  2
AcDbLayout
  3
ObjectDBX Classes
 90
0
 91
0
280
0
281
0
  0
CLASS
  1
ACDBPLACEHOLDER
  2
AcDbPlaceHolder
  3
ObjectDBX Classes
 90
0
 91
0
280
0
281
0
  0
ENDSEC
  0
SECTION
  2
TABLES
  0
TABLE
  2
VPORT
  5
8
330
0
100
AcDbSymbolTable
 70
1
  0
VPORT
  5
23
330
8
100
AcDbSymbolTableRecord
100
AcDbViewportTableRecord
  2
*Active
 70
0
 10
0.0
 20
0.0
 11
1.0
 21
1.0
 12
0.0
 22
0.0
 13
0.0
 23
0.0
 14
0.5
 24
0.5
 15
0.5
 25
0.5
 16
0.0
 26
0.0
 36
1.0
 17
0.0
 27
0.0
 37
0.0
 40
1000.0
 41
1.34
 42
50.0
 43
0.0
 44
0.0
 50
0.0
 51
0.0
 71
0
 72
1000
 73
1
 74
3
 75
0
 76
0
 77
0
 78
0
281
0
 65
0
146
0.0
  0
ENDTAB
  0
TABLE
  2
LTYPE
  5
2
330
0
100
AcDbSymbolTable
 70
3
  0
LTYPE
  5
24
330
2
100
AcDbSymbolTableRecord
100
AcDbLinetypeTableRecord
  2
ByBlock
 70
0
  3

 72
65
 73
0
 40
0.0
  0
LTYPE
  5
25
330
2
100
AcDbSymbolTableRecord
100
AcDbLinetypeTableRecord
  2
ByLayer
 70
0
  3

 72
65
 73
0
 40
0.0
  0
LTYPE
  5
26
330
2
100
AcDbSymbolTableRecord
100
AcDbLinetypeTableRecord
  2
Continuous
 70
0
  3

 72
65
 73
0
 40
0.0
  0
ENDTAB
  0
TABLE
  2
LAYER
  5
1
330
0
100
AcDbSymbolTable
 70
2
  0
LAYER
  5
27
330
1
100
AcDbSymbolTableRecord
100
AcDbLayerTableRecord
  2
0
 70
0
 62
7
  6
Continuous
370
-3
390
13
347
21
  0
LAYER
  5
28
330
1
100
AcDbSymbolTableRecord
100
AcDbLayerTableRecord
  2
Defpoints
 70
0
 62
7
  6
Continuous
290
0
370
-3
390
13
347
21
  0
ENDTAB
  0
TABLE
  2
STYLE
  5
5
330
0
100
AcDbSymbolTable
 70
1
  0
STYLE
  5
29
330
5
100
AcDbSymbolTableRecord
100
AcDbTextStyleTableRecord
  2
Standard
 70
0
 40
0.0
 41
1.0
 50
0.0
 71
0
 42
2.5
  3
txt
  4

  0
ENDTAB
  0
TABLE
  2
VIEW
  5
7
330
0
100
AcDbSymbolTable
 70
0
  0
ENDTAB
  0
TABLE
  2
UCS
  5
6
330
0
100
AcDbSymbolTable
 70
0
  0
ENDTAB
  0
TABLE
  2
APPID
  5
3
330
0
100
AcDbSymbolTable
 70
3
  0
APPID
  5
2A
330
3
100
AcDbSymbolTableRecord
100
AcDbRegAppTableRecord
  2
ACAD
 70
0
  0
APPID
  5
35
330
3
100
AcDbSymbolTableRecord
100
AcDbRegAppTableRecord
  2
HATCHBACKGROUNDCOLOR
 70
0
  0
APPID
  5
36
330
3
100
AcDbSymbolTableRecord
100
AcDbRegAppTableRecord
  2
EZDXF
 70
0
  0
ENDTAB
  0
TABLE
  2
DIMSTYLE
  5
4
330
0
100
AcDbSymbolTable
 70
1
100
AcDbDimStyleTable
  0
DIMSTYLE
105
2B
330
4
100
AcDbSymbolTableRecord
100
AcDbDimStyleTableRecord
  2
Standard
 70
0
 40
1.0
 41
2.5
 42
0.625
 43
3.75
 44
1.25
 45
0.0
 46
0.0
 47
0.0
 48
0.0
 49
2.5
140
2.5
141
2.5
142
0.0
143
0.03937007874
144
1.0
145
0.0
146
1.0
147
0.625
148
0.0
 69
0
 70
0
 71
0
 72
0
 73
0
 74
0
 75
0
 76
0
 77
1
 78
8
 79
3
170
0
171
3
172
1
173
0
174
0
175
0
176
0
177
0
178
0
179
2
271
2
272
2
273
2
274
3
275
0
276
0
277
2
278
44
279
0
280
0
281
0
282
0
283
0
284
8
285
0
286
0
288
0
289
3
290
0
371
-2
372
-2
  0
ENDTAB
  0
TABLE
  2
BLOCK_RECORD
  5
9
330
0
100
AcDbSymbolTable
 70
2
  0
BLOCK_RECORD
  5
17
330
9
100
AcDbSymbolTableRecord
100
AcDbBlockTableRecord
  2
*Model_Space
340
1A
 70
0
280
1
281
0
  0
BLOCK_RECORD
  5
1B
330
9
100
AcDbSymbolTableRecord
100
AcDbBlockTableRecord
  2
*Paper_Space
340
1E
 70
0
280
1
281
0
  0
ENDTAB
  0
ENDSEC
  0
SECTION
  2
BLOCKS
  0
BLOCK
  5
18
330
17
100
AcDbEntity
  8
0
100
AcDbBlockBegin
  2
*Model_Space
 70
0
 10
0.0
 20
0.0
 30
0.0
  3
*Model_Space
  1

  0
ENDBLK
  5
19
330
17
100
AcDbEntity
  8
0
100
AcDbBlockEnd
  0
BLOCK
  5
1C
330
1B
100
AcDbEntity
  8
0
100
AcDbBlockBegin
  2
*Paper_Space
 70
0
 10
0.0
 20
0.0
 30
0.0
  3
*Paper_Space
  1

  0
ENDBLK
  5
1D
330
1B
100
AcDbEntity
  8
0
100
AcDbBlockEnd
  0
ENDSEC
  0
SECTION
  2
ENTITIES
  0
SPLINE
  5
2F
330
17
100
AcDbEntity
  8
0
100
AcDbSpline
 70
0
 71
3
 72
0
 73
0
 74
100
 11
-0.22773136144106587
 21
0.05162624134928403
 31
0.0
 11
-0.22591950654219262
 21
0.05162624134928403
 31
0.0
 11
-0.2241076516433193
 21
0.05162624134928403
 31
0.0
 11
-0.22229579674444605
 21
0.05162624134928403
 31
0.0
 11
-0.2204839418455728
 21
0.05162624134928403
 31
0.0
 11
-0.21867208694669948
 21
0.05162624134928403
 31
0.0
 11
-0.21686023204782623
 21
0.05162624134928403
 31
0.0
 11
-0.21504837714895297
 21
0.05162624134928403
 31
0.0
 11
-0.21323652225007966
 21
0.05162624134928403
 31
0.0
 11
-0.2114246673512064
 21
0.05162624134928403
 31
0.0
 11
-0.20961281245233315
 21
0.05162624134928403
 31
0.0
 11
-0.20780095755345984
 21
0.05162624134928403
 31
0.0
 11
-0.2059891026545866
 21
0.05162624134928403
 31
0.0
 11
-0.20417724775571333
 21
0.05162624134928403
 31
0.0
 11
-0.20236539285684002
 21
0.05162624134928403
 31
0.0
 11
-0.20055353795796677
 21
0.05162624134928403
 31
0.0
 11
-0.1987416830590935
 21
0.05162624134928403
 31
0.0
 11
-0.1969298281602202
 21
0.05162624134928403
 31
0.0
 11
-0.19511797326134694
 21
0.05162624134928403
 31
0.0
 11
-0.1933061183624737
 21
0.05162624134928403
 31
0.0
 11
-0.19149426346360038
 21
0.05162624134928403
 31
0.0
 11
-0.18968240856472712
 21
0.05162624134928403
 31
0.0
 11
-0.18787055366585384
 21
0.05162624134928403
 31
0.0
 11
-0.18605869876698056
 21
0.05162624134928403
 31
0.0
 11
-0.1842468438681073
 21
0.05162624134928403
 31
0.0
 11
-0.18243498896923402
 21
0.05162624134928403
 31
0.0
 11
-0.18062313407036074
 21
0.05162624134928403
 31
0.0
 11
-0.17881127917148748
 21
0.05162624134928403
 31
0.0
 11
-0.1769994242726142
 21
0.05162624134928403
 31
0.0
 11
-0.17518756937374091
 21
0.05162624134928403
 31
0.0
 11
-0.17337571447486766
 21
0.05162624134928403
 31
0.0
 11
-0.1715638595759944
 21
0.05162624134928403
 31
0.0
 11
-0.1697520046771211
 21
0.05162624134928403
 31
0.0
 11
-0.1679401497782478
 21
0.05162624134928403
 31
0.0
 11
-0.16612829487937456
 21
0.05162624134928403
 31
0.0
 11
-0.1643164399805013
 21
0.05162624134928403
 31
0.0
 11
-0.16250458508162802
 21
0.05162624134928403
 31
0.0
 11
-0.16069273018275476
 21
0.05162624134928403
 31
0.0
 11
-0.15888087528388148
 21
0.05162624134928403
 31
0.0
 11
-0.15706902038500817
 21
0.05162624134928403
 31
0.0
 11
-0.1552571654861349
 21
0.05162624134928403
 31
0.0
 11
-0.15344531058726166
 21
0.05162624134928403
 31
0.0
 11
-0.15163345568838837
 21
0.05162624134928403
 31
0.0
 11
-0.1498216007895151
 21
0.05162624134928403
 31
0.0
 11
-0.14800974589064184
 21
0.05162624134928403
 31
0.0
 11
-0.14619789099176853
 21
0.05162624134928403
 31
0.0
 11
-0.14438603609289527
 21
0.05162624134928403
 31
0.0
 11
-0.14257418119402201
 21
0.05162624134928403
 31
0.0
 11
-0.14076232629514873
 21
0.05162624134928403
 31
0.0
 11
-0.13895047139627545
 21
0.05162624134928403
 31
0.0
 11
-0.1371386164974022
 21
0.05162624134928403
 31
0.0
 11
-0.13532676159852888
 21
0.05162624134928403
 31
0.0
 11
-0.13351490669965563
 21
0.05162624134928403
 31
0.0
 11
-0.13170305180078237
 21
0.05162624134928403
 31
0.0
 11
-0.1298911969019091
 21
0.05162624134928403
 31
0.0
 11
-0.1280793420030358
 21
0.05162624134928403
 31
0.0
 11
-0.12626748710416255
 21
0.05162624134928403
 31
0.0
 11
-0.12445563220528927
 21
0.05162624134928403
 31
0.0
 11
-0.12264377730641599
 21
0.05162624134928403
 31
0.0
 11
-0.12083192240754272
 21
0.05162624134928403
 31
0.0
 11
-0.11902006750866945
 21
0.05162624134928403
 31
0.0
 11
-0.11720821260979616
 21
0.05162624134928403
 31
0.0
 11
-0.11539635771092288
 21
0.05162624134928403
 31
0.0
 11
-0.11358450281204963
 21
0.05162624134928403
 31
0.0
 11
-0.11177264791317634
 21
0.05162624134928403
 31
0.0
 11
-0.10996079301430307
 21
0.05162624134928403
 31
0.0
 11
-0.10814893811542979
 21
0.05162624134928403
 31
0.0
 11
-0.10633708321655652
 21
0.05162624134928403
 31
0.0
 11
-0.10452522831768325
 21
0.05162624134928403
 31
0.0
 11
-0.10271337341880997
 21
0.05162624134928403
 31
0.0
 11
-0.1009015185199367
 21
0.05162624134928403
 31
0.0
 11
-0.09908966362106342
 21
0.05162624134928403
 31
0.0
 11
-0.09727780872219015
 21
0.05162624134928403
 31
0.0
 11
-0.09546595382331688
 21
0.05162624134928403
 31
0.0
 11
-0.0936540989244436
 21
0.05162624134928403
 31
0.0
 11
-0.09184224402557033
 21
0.05162624134928403
 31
0.0
 11
-0.09003038912669706
 21
0.05162624134928403
 31
0.0
 11
-0.08821853422782377
 21
0.05162624134928403
 31
0.0
 11
-0.0864066793289505
 21
0.05162624134928403
 31
0.0
 11
-0.08459482443007724
 21
0.05162624134928403
 31
0.0
 11
-0.08278296953120395
 21
0.05162624134928403
 31
0.0
 11
-0.08097111463233068
 21
0.05162624134928403
 31
0.0
 11
-0.07915925973345742
 21
0.05162624134928403
 31
0.0
 11
-0.07734740483458415
 21
0.05162624134928403
 31
0.0
 11
-0.07553554993571086
 21
0.05162624134928403
 31
0.0
 11
-0.0737236950368376
 21
0.05162624134928403
 31
0.0
 11
-0.07191184013796433
 21
0.05162624134928403
 31
0.0
 11
-0.07009998523909104
 21
0.05162624134928403
 31
0.0
 11
-0.06828813034021777
 21
0.05162624134928403
 31
0.0
 11
-0.0664762754413445
 21
0.05162624134928403
 31
0.0
 11
-0.06466442054247122
 21
0.05162624134928403
 31
0.0
 11
-0.06285256564359795
 21
0.05162624134928403
 31
0.0
 11
-0.061040710744724676
 21
0.05162624134928403
 31
0.0
 11
-0.0592288558458514
 21
0.05162624134928403
 31
0.0
 11
-0.05741700094697813
 21
0.05162624134928403
 31
0.0
 11
-0.055605146048104855
 21
0.05162624134928403
 31
0.0
 11
-0.05379329114923158
 21
0.05162624134928403
 31
0.0
 11
-0.05198143625035831
 21
0.05162624134928403
 31
0.0
 11
-0.050169581351485026
 21
0.05162624134928403
 31
0.0
 11
-0.04835772645261176
 21
0.05162624134928403
 31
0.0
  0
SPLINE
  5
30
330
17
100
AcDbEntity
  8
0
100
AcDbSpline
 70
0
 71
3
 72
0
 73
0
 74
100
 11
-0.04835772645261176
 21
0.05162624134928403
 31
0.0
 11
-0.04823579783166462
 21
0.051625757697681934
 31
0.0
 11
-0.04811387688455779
 21
0.051624306773315295
 31
0.0
 11
-0.04799197128464862
 21
0.051621888667501184
 31
0.0
 11
-0.047870088704328545
 21
0.051618503532428264
 31
0.0
 11
-0.04774823681454019
 21
0.05161415158114734
 31
0.0
 11
-0.04762642328429465
 21
0.0516088330875578
 31
0.0
 11
-0.04750465578018875
 21
0.05160254838639051
 31
0.0
 11
-0.04738294196592256
 21
0.05159529787318667
 31
0.0
 11
-0.04726128950181708
 21
0.05158708200427293
 31
0.0
 11
-0.0471397060443321
 21
0.05157790129673272
 31
0.0
 11
-0.047018199245584306
 21
0.051567756328373605
 31
0.0
 11
-0.046896776752865736
 21
0.05155664773769102
 31
0.0
 11
-0.046775446208162444
 21
0.05154457622382806
 31
0.0
 11
-0.0466542152476735
 21
0.051531542546531424
 31
0.0
 11
-0.046533091501330476
 21
0.05151754752610367
 31
0.0
 11
-0.046412082592317154
 21
0.051502592043351544
 31
0.0
 11
-0.0462911961365898
 21
0.05148667703953055
 31
0.0
 11
-0.046170439742397824
 21
0.051469803516285724
 31
0.0
 11
-0.046049821009804905
 21
0.05145197253558859
 31
0.0
 11
-0.04592934753021072
 21
0.05143318521967032
 31
0.0
 11
-0.04580902688587313
 21
0.05141344275095109
 31
0.0
 11
-0.04568886664943097
 21
0.05139274637196567
 31
0.0
 11
-0.04556887438342747
 21
0.051371097385285266
 31
0.0
 11
-0.04544905763983428
 21
0.051348497153435445
 31
0.0
 11
-0.04532942395957615
 21
0.05132494709881047
 31
0.0
 11
-0.04520998087205636
 21
0.05130044870358375
 31
0.0
 11
-0.04509073589468284
 21
0.05127500350961454
 31
0.0
 11
-0.044971696532395
 21
0.051248613118350904
 31
0.0
 11
-0.044852870277191446
 21
0.05122127919072895
 31
0.0
 11
-0.04473426460765841
 21
0.05119300344706828
 31
0.0
 11
-0.044615886988499116
 21
0.0511637876669637
 31
0.0
 11
-0.04449774487006392
 21
0.05113363368917324
 31
0.0
 11
-0.044379845687881454
 21
0.05110254341150242
 31
0.0
 11
-0.04426219686219062
 21
0.05107051879068483
 31
0.0
 11
-0.0441448057974736
 21
0.051037561842258924
 31
0.0
 11
-0.04402767988198984
 21
0.05100367464044122
 31
0.0
 11
-0.04391082648731103
 21
0.05096885931799575
 31
0.0
 11
-0.0437942529678572
 21
0.05093311806609978
 31
0.0
 11
-0.04367796666043382
 21
0.05089645313420598
 31
0.0
 11
-0.04356197488377004
 21
0.050858866829900776
 31
0.0
 11
-0.0434462849380581
 21
0.05082036151875917
 31
0.0
 11
-0.04333090410449385
 21
0.05078093962419585
 31
0.0
 11
-0.04321583964481851
 21
0.05074060362731261
 31
0.0
 11
-0.043101098800861604
 21
0.0506993560667423
 31
0.0
 11
-0.04298668879408525
 21
0.05065719953848893
 31
0.0
 11
-0.04287261682512957
 21
0.050614136695764415
 31
0.0
 11
-0.04275889007335956
 21
0.05057017024882147
 31
0.0
 11
-0.04264551569641325
 21
0.05052530296478311
 31
0.0
 11
-0.04253250082975117
 21
0.050479537667468495
 31
0.0
 11
-0.04241985258620733
 21
0.050432877237215124
 31
0.0
 11
-0.04230757805554149
 21
0.05038532461069767
 31
0.0
 11
-0.042195684303993
 21
0.05033688278074307
 31
0.0
 11
-0.04208417837383608
 21
0.050287554796142206
 31
0.0
 11
-0.04197306728293654
 21
0.05023734376145802
 31
0.0
 11
-0.04186235802431014
 21
0.05018625283683009
 31
0.0
 11
-0.041752057565682475
 21
0.050134285237775786
 31
0.0
 11
-0.04164217284905042
 21
0.050081444234987844
 31
0.0
 11
-0.04153271079024523
 21
0.050027733154128555
 31
0.0
 11
-0.04142367827849729
 21
0.04997315537562045
 31
0.0
 11
-0.041315082176002514
 21
0.049917714334433566
 31
0.0
 11
-0.04120692931749044
 21
0.049861413519869204
 31
0.0
 11
-0.04109922650979412
 21
0.049804256475340355
 31
0.0
 11
-0.04099198053142168
 21
0.04974624679814869
 31
0.0
 11
-0.0408851981321297
 21
0.04968738813925817
 31
0.0
 11
-0.040778886032498414
 21
0.04962768420306523
 31
0.0
 11
-0.04067305092350874
 21
0.04956713874716566
 31
0.0
 11
-0.04056769946612116
 21
0.049505755582118095
 31
0.0
 11
-0.04046283829085651
 21
0.0494435385712042
 31
0.0
 11
-0.040358473997378644
 21
0.04938049163018556
 31
0.0
 11
-0.04025461315407911
 21
0.04931661872705713
 31
0.0
 11
-0.04015126229766373
 21
0.04925192388179764
 31
0.0
 11
-0.040048427932741194
 21
0.049186411166116474
 31
0.0
 11
-0.0399461165314137
 21
0.049120084703197446
 31
0.0
 11
-0.039844334532869605
 21
0.04905294866743935
 31
0.0
 11
-0.03974308834297815
 21
0.04898500728419316
 31
0.0
 11
-0.03964238433388631
 21
0.04891626482949611
 31
0.0
 11
-0.039542228843617765
 21
0.04884672562980265
 31
0.0
 11
-0.03944262817567394
 21
0.04877639406171201
 31
0.0
 11
-0.03934358859863736
 21
0.04870527455169289
 31
0.0
 11
-0.03924511634577707
 21
0.048633371575804815
 31
0.0
 11
-0.039147217614656345
 21
0.04856068965941638
 31
0.0
 11
-0.03904989856674263
 21
0.04848723337692051
 31
0.0
 11
-0.038953165327019784
 21
0.04841300735144654
 31
0.0
 11
-0.03885702398360253
 21
0.04833801625456918
 31
0.0
 11
-0.03876148058735335
 21
0.048262264806014615
 31
0.0
 11
-0.03866654115150161
 21
0.048185757773363376
 31
0.0
 11
-0.03857221165126516
 21
0.048108499971750304
 31
0.0
 11
-0.038478498023474215
 21
0.048030496263561505
 31
0.0
 11
-0.03838540616619773
 21
0.047951751558128336
 31
0.0
 11
-0.03829294193837221
 21
0.04787227081141837
 31
0.0
 11
-0.038201111159432935
 21
0.047792059025723574
 31
0.0
 11
-0.03810991960894771
 21
0.04771112124934538
 31
0.0
 11
-0.03801937302625314
 21
0.047629462576277065
 31
0.0
 11
-0.037929477110093396
 21
0.04754708814588302
 31
0.0
 11
-0.037840237518261516
 21
0.047464003142575435
 31
0.0
 11
-0.03775165986724338
 21
0.04738021279548788
 31
0.0
 11
-0.037663749731864204
 21
0.047295722378146283
 31
0.0
 11
-0.03757651264493765
 21
0.047210537208136984
 31
0.0
 11
-0.037489954096917626
 21
0.047124662646772106
 31
0.0
  0
SPLINE
  5
31
330
17
100
AcDbEntity
  8
0
100
AcDbSpline
 70
0
 71
3
 72
0
 73
0
 74
100
 11
-0.037489954096917626
 21
0.04712466264677211
 31
0.0
 11
-0.03738385628238031
 21
0.047018564832234794
 31
0.0
 11
-0.037277758467842995
 21
0.04691246701769748
 31
0.0
 11
-0.037171660653305676
 21
0.04680636920316016
 31
0.0
 11
-0.03706556283876836
 21
0.046700271388622844
 31
0.0
 11
-0.03695946502423104
 21
0.046594173574085525
 31
0.0
 11
-0.036853367209693726
 21
0.04648807575954821
 31
0.0
 11
-0.03674726939515641
 21
0.046381977945010894
 31
0.0
 11
-0.03664117158061909
 21
0.046275880130473575
 31
0.0
 11
-0.03653507376608177
 21
0.046169782315936256
 31
0.0
 11
-0.03642897595154445
 21
0.04606368450139894
 31
0.0
 11
-0.03632287813700714
 21
0.045957586686861625
 31
0.0
 11
-0.03621678032246982
 21
0.045851488872324306
 31
0.0
 11
-0.03611068250793249
 21
0.04574539105778698
 31
0.0
 11
-0.03600458469339518
 21
0.04563929324324967
 31
0.0
 11
-0.03589848687885787
 21
0.045533195428712356
 31
0.0
 11
-0.03579238906432054
 21
0.04542709761417503
 31
0.0
 11
-0.035686291249783224
 21
0.04532099979963771
 31
0.0
 11
-0.03558019343524591
 21
0.0452149019851004
 31
0.0
 11
-0.03547409562070859
 21
0.04510880417056308
 31
0.0
 11
-0.035367997806171274
 21
0.04500270635602576
 31
0.0
 11
-0.035261899991633955
 21
0.04489660854148844
 31
0.0
 11
-0.035155802177096636
 21
0.04479051072695112
 31
0.0
 11
-0.035049704362559324
 21
0.04468441291241381
 31
0.0
 11
-0.034943606548022005
 21
0.04457831509787649
 31
0.0
 11
-0.03483750873348469
 21
0.04447221728333918
 31
0.0
 11
-0.03473141091894737
 21
0.044366119468801854
 31
0.0
 11
-0.034625313104410055
 21
0.04426002165426454
 31
0.0
 11
-0.034519215289872736
 21
0.04415392383972722
 31
0.0
 11
-0.03441311747533542
 21
0.044047826025189904
 31
0.0
 11
-0.0343070196607981
 21
0.043941728210652585
 31
0.0
 11
-0.034200921846260786
 21
0.04383563039611527
 31
0.0
 11
-0.03409482403172346
 21
0.04372953258157795
 31
0.0
 11
-0.03398872621718615
 21
0.043623434767040635
 31
0.0
 11
-0.03388262840264883
 21
0.043517336952503316
 31
0.0
 11
-0.03377653058811151
 21
0.043411239137966
 31
0.0
 11
-0.03367043277357419
 21
0.04330514132342868
 31
0.0
 11
-0.03356433495903688
 21
0.043199043508891366
 31
0.0
 11
-0.03345823714449955
 21
0.04309294569435404
 31
0.0
 11
-0.03335213932996224
 21
0.04298684787981673
 31
0.0
 11
-0.03324604151542492
 21
0.04288075006527941
 31
0.0
 11
-0.0331399437008876
 21
0.04277465225074209
 31
0.0
 11
-0.033033845886350284
 21
0.04266855443620477
 31
0.0
 11
-0.03292774807181297
 21
0.04256245662166746
 31
0.0
 11
-0.03282165025727565
 21
0.04245635880713014
 31
0.0
 11
-0.032715552442738334
 21
0.04235026099259282
 31
0.0
 11
-0.032609454628201015
 21
0.0422441631780555
 31
0.0
 11
-0.0325033568136637
 21
0.04213806536351819
 31
0.0
 11
-0.03239725899912638
 21
0.042031967548980864
 31
0.0
 11
-0.032291161184589065
 21
0.04192586973444355
 31
0.0
 11
-0.032185063370051746
 21
0.04181977191990623
 31
0.0
 11
-0.03207896555551443
 21
0.041713674105368914
 31
0.0
 11
-0.03197286774097711
 21
0.041607576290831595
 31
0.0
 11
-0.031866769926439796
 21
0.04150147847629428
 31
0.0
 11
-0.03176067211190247
 21
0.04139538066175696
 31
0.0
 11
-0.03165457429736516
 21
0.041289282847219645
 31
0.0
 11
-0.03154847648282784
 21
0.041183185032682326
 31
0.0
 11
-0.03144237866829052
 21
0.04107708721814501
 31
0.0
 11
-0.0313362808537532
 21
0.04097098940360769
 31
0.0
 11
-0.03123018303921589
 21
0.040864891589070376
 31
0.0
 11
-0.031124085224678567
 21
0.04075879377453305
 31
0.0
 11
-0.03101798741014125
 21
0.04065269595999574
 31
0.0
 11
-0.030911889595603936
 21
0.04054659814545842
 31
0.0
 11
-0.030805791781066617
 21
0.04044050033092111
 31
0.0
 11
-0.030699693966529298
 21
0.04033440251638378
 31
0.0
 11
-0.030593596151991982
 21
0.04022830470184647
 31
0.0
 11
-0.030487498337454663
 21
0.04012220688730915
 31
0.0
 11
-0.030381400522917348
 21
0.04001610907277183
 31
0.0
 11
-0.03027530270838003
 21
0.03991001125823451
 31
0.0
 11
-0.03016920489384271
 21
0.0398039134436972
 31
0.0
 11
-0.030063107079305394
 21
0.039697815629159874
 31
0.0
 11
-0.029957009264768075
 21
0.03959171781462256
 31
0.0
 11
-0.029850911450230756
 21
0.03948562000008524
 31
0.0
 11
-0.02974481363569344
 21
0.039379522185547924
 31
0.0
 11
-0.029638715821156122
 21
0.039273424371010605
 31
0.0
 11
-0.029532618006618803
 21
0.03916732655647329
 31
0.0
 11
-0.029426520192081487
 21
0.03906122874193597
 31
0.0
 11
-0.02932042237754417
 21
0.038955130927398655
 31
0.0
 11
-0.029214324563006853
 21
0.038849033112861336
 31
0.0
 11
-0.029108226748469534
 21
0.03874293529832402
 31
0.0
 11
-0.029002128933932215
 21
0.0386368374837867
 31
0.0
 11
-0.0288960311193949
 21
0.038530739669249386
 31
0.0
 11
-0.02878993330485758
 21
0.03842464185471207
 31
0.0
 11
-0.02868383549032026
 21
0.03831854404017475
 31
0.0
 11
-0.028577737675782946
 21
0.03821244622563743
 31
0.0
 11
-0.028471639861245627
 21
0.03810634841110012
 31
0.0
 11
-0.02836554204670831
 21
0.03800025059656279
 31
0.0
 11
-0.028259444232170992
 21
0.03789415278202548
 31
0.0
 11
-0.028153346417633673
 21
0.03778805496748816
 31
0.0
 11
-0.028047248603096358
 21
0.03768195715295084
 31
0.0
 11
-0.02794115078855904
 21
0.03757585933841352
 31
0.0
 11
-0.02783505297402172
 21
0.03746976152387621
 31
0.0
 11
-0.027728955159484404
 21
0.037363663709338885
 31
0.0
 11
-0.027622857344947085
 21
0.03725756589480157
 31
0.0
 11
-0.027516759530409766
 21
0.037151468080264254
 31
0.0
 11
-0.02741066171587245
 21
0.037045370265726935
 31
0.0
 11
-0.027304563901335132
 21
0.036939272451189616
 31
0.0
 11
-0.027198466086797816
 21
0.036833174636652304
 31
0.0
 11
-0.027092368272260497
 21
0.03672707682211498
 31
0.0
 11
-0.02698627045772318
 21
0.036620979007577666
 31
0.0
  0
SPLINE
  5
32
330
17
100
AcDbEntity
  8
0
100
AcDbSpline
 70
0
 71
3
 72
0
 73
0
 74
100
 11
-0.02698627045772318
 21
0.036620979007577666
 31
0.0
 11
-0.026771332905587922
 21
0.03640773989448411
 31
0.0
 11
-0.02655471044196865
 21
0.03619621264109504
 31
0.0
 11
-0.026336416700466544
 21
0.035986410560333595
 31
0.0
 11
-0.02611646541986831
 21
0.035778346856545525
 31
0.0
 11
-0.025894870443281395
 21
0.03557203462466805
 31
0.0
 11
-0.02567164571726285
 21
0.03536748684940576
 31
0.0
 11
-0.025446805290941444
 21
0.035164716404413314
 31
0.0
 11
-0.025220363315133592
 21
0.03496373605148533
 31
0.0
 11
-0.024992334041452662
 21
0.0347645584397531
 31
0.0
 11
-0.02476273182141197
 21
0.034567196104888495
 31
0.0
 11
-0.024531571105521687
 21
0.034371661468315065
 31
0.0
 11
-0.02429886644237921
 21
0.034177966836426196
 31
0.0
 11
-0.024064632477753617
 21
0.03398612439981065
 31
0.0
 11
-0.02382888395366384
 21
0.03379614623248527
 31
0.0
 11
-0.023591635707450914
 21
0.0336080442911351
 31
0.0
 11
-0.023352902670844056
 21
0.03342183041436087
 31
0.0
 11
-0.023112699869021015
 21
0.03323751632193389
 31
0.0
 11
-0.022871042419662372
 21
0.03305511361405847
 31
0.0
 11
-0.022627945532000048
 21
0.03287463377064178
 31
0.0
 11
-0.02238342450586016
 21
0.03269608815057143
 31
0.0
 11
-0.022137494730699994
 21
0.032519487991000455
 31
0.0
 11
-0.021890171684639553
 21
0.032344844406640205
 31
0.0
 11
-0.021641470933487277
 21
0.03217216838906071
 31
0.0
 11
-0.021391408129760495
 21
0.032001470805998966
 31
0.0
 11
-0.021139999011700238
 21
0.031832762400674945
 31
0.0
 11
-0.020887259402280686
 21
0.03166605379111541
 31
0.0
 11
-0.02063320520821343
 21
0.03150135546948569
 31
0.0
 11
-0.020377852418946203
 21
0.03133867780142929
 31
0.0
 11
-0.020121217105656678
 21
0.031178031025415578
 31
0.0
 11
-0.0198633154202409
 21
0.031019425252095303
 31
0.0
 11
-0.019604163594296807
 21
0.030862870463664344
 31
0.0
 11
-0.019343777938102612
 21
0.03070837651323545
 31
0.0
 11
-0.019082174839590252
 21
0.03055595312421803
 31
0.0
 11
-0.018819370763314087
 21
0.03040560988970632
 31
0.0
 11
-0.018555382249414533
 21
0.030257356271875507
 31
0.0
 11
-0.01829022591257719
 21
0.030111201601386285
 31
0.0
 11
-0.018023918440987066
 21
0.02996715507679754
 31
0.0
 11
-0.01775647659527835
 21
0.02982522576398748
 31
0.0
 11
-0.017487917207479498
 21
0.029685422595583055
 31
0.0
 11
-0.017218257179953855
 21
0.029547754370397677
 31
0.0
 11
-0.016947513484335954
 21
0.029412229752877564
 31
0.0
 11
-0.01667570316046325
 21
0.029278857272556344
 31
0.0
 11
-0.016402843315303797
 21
0.029147645323518268
 31
0.0
 11
-0.016128951121879485
 21
0.029018602163869874
 31
0.0
 11
-0.01585404381818531
 21
0.0288917359152203
 31
0.0
 11
-0.01557813870610439
 21
0.028767054562170095
 31
0.0
 11
-0.01530125315031907
 21
0.028644565951808688
 31
0.0
 11
-0.015023404577218027
 21
0.028524277793220528
 31
0.0
 11
-0.014744610473799505
 21
0.028406197656999893
 31
0.0
 11
-0.014464888386570753
 21
0.028290332974774436
 31
0.0
 11
-0.014184255920443659
 21
0.028176691038737416
 31
0.0
 11
-0.013902730737626774
 21
0.028065279001188798
 31
0.0
 11
-0.013620330556513698
 21
0.02795610387408506
 31
0.0
 11
-0.013337073150567928
 21
0.027849172528597924
 31
0.0
 11
-0.01305297634720426
 21
0.02774449169468187
 31
0.0
 11
-0.012768058026666754
 21
0.0276420679606506
 31
0.0
 11
-0.012482336120903466
 21
0.027541907772762372
 31
0.0
 11
-0.012195828612437757
 21
0.02744401743481427
 31
0.0
 11
-0.011908553533236641
 21
0.027348403107745525
 31
0.0
 11
-0.011620528963575823
 21
0.027255070809249694
 31
0.0
 11
-0.011331773030901804
 21
0.02716402641339595
 31
0.0
 11
-0.011042303908690994
 21
0.027075275650259408
 31
0.0
 11
-0.010752139815305924
 21
0.026988824105560447
 31
0.0
 11
-0.010461299012848632
 21
0.026904677220313197
 31
0.0
 11
-0.01016979980601129
 21
0.026822840290483065
 31
0.0
 11
-0.00987766054092419
 21
0.02674331846665347
 31
0.0
 11
-0.00958489960400105
 21
0.026666116753701622
 31
0.0
 11
-0.00929153542078184
 21
0.026591240010483568
 31
0.0
 11
-0.008997586454773148
 21
0.02651869294952838
 31
0.0
 11
-0.008703071206286108
 21
0.026448480136741552
 31
0.0
 11
-0.0084080082112721
 21
0.026380605991117648
 31
0.0
 11
-0.008112416040156053
 21
0.026315074784462184
 31
0.0
 11
-0.007816313296667793
 21
0.026251890641122756
 31
0.0
 11
-0.0075197186166710605
 21
0.026191057537729486
 31
0.0
 11
-0.007222650666990731
 21
0.026132579302944728
 31
0.0
 11
-0.006925128144237897
 21
0.026076459617222113
 31
0.0
 11
-0.0066271697736331936
 21
0.026022702012574905
 31
0.0
 11
-0.006328794307828277
 21
0.025971309872353708
 31
0.0
 11
-0.0060300205257255825
 21
0.025922286431033534
 31
0.0
 11
-0.00573086723129647
 21
0.02587563477401023
 31
0.0
 11
-0.005431353252397672
 21
0.02583135783740628
 31
0.0
 11
-0.005131497439586423
 21
0.02578945840788604
 31
0.0
 11
-0.004831318664933989
 21
0.02574993912248032
 31
0.0
 11
-0.004530835820837935
 21
0.025712802468420455
 31
0.0
 11
-0.004230067818833095
 21
0.02567805078298173
 31
0.0
 11
-0.003929033588401319
 21
0.025645686253336308
 31
0.0
 11
-0.0036277520757801544
 21
0.025615710916415537
 31
0.0
 11
-0.0033262422427703217
 21
0.02558812665878181
 31
0.0
 11
-0.003024523065542439
 21
0.02556293521650977
 31
0.0
 11
-0.0027226135334426195
 21
0.025540138175077096
 31
0.0
 11
-0.002420532647797376
 21
0.025519736969264656
 31
0.0
 11
-0.0021182994207177286
 21
0.02550173288306629
 31
0.0
 11
-0.0018159328739026249
 21
0.025486127049607923
 31
0.0
 11
-0.0015134520374418088
 21
0.02547292045107629
 31
0.0
 11
-0.0012108759486180324
 21
0.025462113918657103
 31
0.0
 11
-0.0009082236507090177
 21
0.025453708132482752
 31
0.0
 11
-0.000605514191788837
 21
0.025447703621589497
 31
0.0
 11
-0.0003027666235291221
 21
0.025444100763884158
 31
0.0
 11
2.336892433807437e-18
 21
0.025442899786120337
 31
0.0
  0
SPLINE
  5
33
330
17
100
AcDbEntity
  8
0
100
AcDbSpline
 70
0
 71
3
 72
0
 73
0
 74
100
 11
5.951286064762938e-19
 21
0.02544289978612034
 31
0.0
 11
4.1960048169608735e-05
 21
0.025442990362303117
 31
0.0
 11
8.391931426131026e-05
 21
0.025443262089163234
 31
0.0
 11
0.00012587701621177326
 21
0.02544371496163607
 31
0.0
 11
0.00016783237198682573
 21
0.025444348971280704
 31
0.0
 11
0.0002097845995960188
 21
0.025445164106280067
 31
0.0
 11
0.0002517329171072103
 21
0.02544616035144115
 31
0.0
 11
0.000293676542661135
 21
0.025447337688195314
 31
0.0
 11
0.0003356146944859855
 21
0.02544869609459861
 31
0.0
 11
0.00037754659091197114
 21
0.02545023554533219
 31
0.0
 11
0.00041947145038589523
 21
0.025451956011702814
 31
0.0
 11
0.0004613884914857181
 21
0.02545385746164333
 31
0.0
 11
0.0005032969329351306
 21
0.025455939859713318
 31
0.0
 11
0.0005451959936181023
 21
0.02545820316709973
 31
0.0
 11
0.0005870848925934503
 21
0.0254606473416176
 31
0.0
 11
0.0006289628491093893
 21
0.02546327233771087
 31
0.0
 11
0.0006708290826180931
 21
0.025466078106453193
 31
0.0
 11
0.0007126828127902299
 21
0.025469064595548884
 31
0.0
 11
0.0007545232595295154
 21
0.025472231749333867
 31
0.0
 11
0.0007963496429872476
 21
0.025475579508776734
 31
0.0
 11
0.0008381611835768516
 21
0.02547910781147982
 31
0.0
 11
0.0008799571019883969
 21
0.025482816591680394
 31
0.0
 11
0.0009217366192031312
 21
0.02548670578025186
 31
0.0
 11
0.0009634989565079957
 21
0.02549077530470507
 31
0.0
 11
0.0010052433355101482
 21
0.025495025089189653
 31
0.0
 11
0.0010469689781514582
 21
0.025499455054495433
 31
0.0
 11
0.0010886751067230175
 21
0.025504065118053917
 31
0.0
 11
0.0011303609438796313
 21
0.02550885519393983
 31
0.0
 11
0.0011720257126543157
 21
0.025513825192872708
 31
0.0
 11
0.0012136686364727658
 21
0.02551897502221857
 31
0.0
 11
0.0012552889391678394
 21
0.025524304585991635
 31
0.0
 11
0.0012968858449940186
 21
0.02552981378485613
 31
0.0
 11
0.0013384585786418773
 21
0.025535502516128118
 31
0.0
 11
0.00138000636525252
 21
0.025541370673777434
 31
0.0
 11
0.0014215284304320318
 21
0.025547418148429642
 31
0.0
 11
0.0014630240002659095
 21
0.025553644827368088
 31
0.0
 11
0.0015044923013334856
 21
0.02556005059453599
 31
0.0
 11
0.0015459325607223514
 21
0.025566635330538618
 31
0.0
 11
0.0015873440060427497
 21
0.025573398912645488
 31
0.0
 11
0.001628725865441978
 21
0.02558034121479269
 31
0.0
 11
0.001670077367618783
 21
0.025587462107585196
 31
0.0
 11
0.00171139774183772
 21
0.025594761458299316
 31
0.0
 11
0.0017526862179435302
 21
0.02560223913088513
 31
0.0
 11
0.001793942026375492
 21
0.025609894985969058
 31
0.0
 11
0.0018351643981817617
 21
0.02561772888085642
 31
0.0
 11
0.0018763525650337149
 21
0.02562574066953413
 31
0.0
 11
0.001917505759240256
 21
0.025633930202673415
 31
0.0
 11
0.001958623213762132
 21
0.025642297327632572
 31
0.0
 11
0.001999704162226228
 21
0.02565084188845984
 31
0.0
 11
0.0020407478389398567
 21
0.02565956372589629
 31
0.0
 11
0.0020817534789050207
 21
0.0256684626773788
 31
0.0
 11
0.002122720317832676
 21
0.025677538577043087
 31
0.0
 11
0.002163647592156977
 21
0.025686791255726798
 31
0.0
 11
0.002204534539049512
 21
0.025696220540972654
 31
0.0
 11
0.002245380396433513
 21
0.025705826257031678
 31
0.0
 11
0.002286184402998066
 21
0.025715608224866456
 31
0.0
 11
0.0023269457982122957
 21
0.025725566262154494
 31
0.0
 11
0.002367663822339552
 21
0.02573570018329159
 31
0.0
 11
0.0024083377164515547
 21
0.02574600979939532
 31
0.0
 11
0.0024489667224425506
 21
0.02575649491830854
 31
0.0
 11
0.0024895500830434385
 21
0.025767155344602968
 31
0.0
 11
0.0025300870418358836
 21
0.02577799087958285
 31
0.0
 11
0.0025705768432664213
 21
0.025789001321288627
 31
0.0
 11
0.002611018732660532
 21
0.025800186464500725
 31
0.0
 11
0.0026514119562367116
 21
0.025811546100743377
 31
0.0
 11
0.0026917557611205226
 21
0.0258230800182885
 31
0.0
 11
0.0027320493953586224
 21
0.02583478800215965
 31
0.0
 11
0.002772292107932779
 21
0.02584666983413601
 31
0.0
 11
0.0028124831487738745
 21
0.025858725292756488
 31
0.0
 11
0.002852621768775876
 21
0.025870954153323834
 31
0.0
 11
0.0028927072198098105
 21
0.0258833561879088
 31
0.0
 11
0.0029327387547376967
 21
0.025895931165354432
 31
0.0
 11
0.002972715627426475
 21
0.025908678851280346
 31
0.0
 11
0.00301263709276192
 21
0.025921599008087114
 31
0.0
 11
0.003052502406662521
 21
0.02593469139496069
 31
0.0
 11
0.0030923108260933517
 21
0.025947955767876882
 31
0.0
 11
0.003132061609079922
 21
0.025961391879605923
 31
0.0
 11
0.003171754014722006
 21
0.02597499947971707
 31
0.0
 11
0.003211387303207454
 21
0.025988778314583263
 31
0.0
 11
0.0032509607358259776
 21
0.02600272812738588
 31
0.0
 11
0.003290473574982916
 21
0.02601684865811947
 31
0.0
 11
0.0033299250842129965
 21
0.026031139643596674
 31
0.0
 11
0.003369314528194045
 21
0.02604560081745306
 31
0.0
 11
0.003408641172760701
 21
0.026060231910152127
 31
0.0
 11
0.003447904284918099
 21
0.026075032648990314
 31
0.0
 11
0.0034871031328555313
 21
0.026090002758102103
 31
0.0
 11
0.0035262369859600847
 21
0.026105141958465125
 31
0.0
 11
0.0035653051148302668
 21
0.026120449967905402
 31
0.0
 11
0.0036043067912895897
 21
0.026135926501102566
 31
0.0
 11
0.003643241288400147
 21
0.026151571269595216
 31
0.0
 11
0.0036821078804761694
 21
0.02616738398178626
 31
0.0
 11
0.0037209058430975384
 21
0.02618336434294837
 31
0.0
 11
0.0037596344531232975
 21
0.026199512055229475
 31
0.0
 11
0.003798292988705128
 21
0.026215826817658303
 31
0.0
 11
0.0038368807293007994
 21
0.02623230832615
 31
0.0
 11
0.00387539695568761
 21
0.02624895627351178
 31
0.0
 11
0.003913840949975778
 21
0.026265770349448686
 31
0.0
 11
0.003952211995621831
 21
0.026282750240569336
 31
0.0
 11
0.0039905093774419646
 21
0.02629989563039178
 31
0.0
 11
0.004028732381625361
 21
0.026317206199349408
 31
0.0
  0
SPLINE
  5
34
330
17
100
AcDbEntity
  8
0
100
AcDbSpline
 70
0
 71
3
 72
0
 73
0
 74
100
 11
0.004028732381625361
 21
0.026317206199349408
 31
0.0
 11
0.005327187129875009
 21
0.026907151648169255
 31
0.0
 11
0.006624833156610679
 21
0.027493759962246875
 31
0.0
 11
0.007921670461832377
 21
0.028077031141582286
 31
0.0
 11
0.009217699045540099
 21
0.02865696518617547
 31
0.0
 11
0.010512918907733843
 21
0.02923356209602644
 31
0.0
 11
0.011807330048413615
 21
0.029806821871135196
 31
0.0
 11
0.013100932467579412
 21
0.030376744511501724
 31
0.0
 11
0.014393726165231232
 21
0.030943330017126045
 31
0.0
 11
0.01568571114136907
 21
0.03150657838800813
 31
0.0
 11
0.016976887395992943
 21
0.032066489624148015
 31
0.0
 11
0.018267254929102833
 21
0.03262306372554567
 31
0.0
 11
0.019556813740698755
 21
0.0331763006922011
 31
0.0
 11
0.0208455638307807
 21
0.03372620052411433
 31
0.0
 11
0.022133505199348667
 21
0.03427276322128533
 31
0.0
 11
0.02342063784640266
 21
0.03481598878371412
 31
0.0
 11
0.024706961771942672
 21
0.03535587721140068
 31
0.0
 11
0.025992476975968713
 21
0.03589242850434503
 31
0.0
 11
0.027277183458480778
 21
0.03642564266254716
 31
0.0
 11
0.028561081219478875
 21
0.03695551968600706
 31
0.0
 11
0.029844170258962993
 21
0.03748205957472475
 31
0.0
 11
0.031126450576933123
 21
0.03800526232870022
 31
0.0
 11
0.032407922173389295
 21
0.038525127947933474
 31
0.0
 11
0.033688585048331485
 21
0.039041656432424514
 31
0.0
 11
0.034968439201759696
 21
0.03955484778217333
 31
0.0
 11
0.036247484633673936
 21
0.04006470199717992
 31
0.0
 11
0.0375257213440742
 21
0.040571219077444313
 31
0.0
 11
0.03880314933296049
 21
0.04107439902296647
 31
0.0
 11
0.0400797686003328
 21
0.0415742418337464
 31
0.0
 11
0.041355579146191125
 21
0.04207074750978414
 31
0.0
 11
0.042630580970535494
 21
0.04256391605107965
 31
0.0
 11
0.043904774073365876
 21
0.04305374745763292
 31
0.0
 11
0.04517815845468229
 21
0.04354024172944399
 31
0.0
 11
0.04645073411448473
 21
0.04402339886651284
 31
0.0
 11
0.04772250105277319
 21
0.044503218868839484
 31
0.0
 11
0.04899345926954767
 21
0.044979701736423884
 31
0.0
 11
0.050263608764808176
 21
0.04545284746926608
 31
0.0
 11
0.05153294953855471
 21
0.045922656067366056
 31
0.0
 11
0.05280148159078728
 21
0.046389127530723814
 31
0.0
 11
0.05406920492150585
 21
0.046852261859339335
 31
0.0
 11
0.055336119530710465
 21
0.04731205905321267
 31
0.0
 11
0.0566022254184011
 21
0.047768519112343776
 31
0.0
 11
0.05786752258457776
 21
0.04822164203673264
 31
0.0
 11
0.05913201102924043
 21
0.048671427826379315
 31
0.0
 11
0.060395690752389146
 21
0.04911787648128376
 31
0.0
 11
0.061658561754023865
 21
0.049560988001445976
 31
0.0
 11
0.06292062403414463
 21
0.05000076238686599
 31
0.0
 11
0.0641818775927514
 21
0.05043719963754378
 31
0.0
 11
0.06544232242984421
 21
0.05087029975347934
 31
0.0
 11
0.06670195854542303
 21
0.05130006273467269
 31
0.0
 11
0.06796078593948789
 21
0.05172648858112383
 31
0.0
 11
0.06921880461203878
 21
0.05214957729283275
 31
0.0
 11
0.07047601456307566
 21
0.052569328869799446
 31
0.0
 11
0.07173241579259859
 21
0.052985743312023915
 31
0.0
 11
0.07298800830060756
 21
0.05339882061950618
 31
0.0
 11
0.07424279208710254
 21
0.053808560792246225
 31
0.0
 11
0.07549676715208355
 21
0.054214963830244045
 31
0.0
 11
0.07674993349555055
 21
0.05461802973349964
 31
0.0
 11
0.0780022911175036
 21
0.05501775850201302
 31
0.0
 11
0.0792538400179427
 21
0.0554141501357842
 31
0.0
 11
0.08050458019686778
 21
0.05580720463481314
 31
0.0
 11
0.0817545116542789
 21
0.05619692199909987
 31
0.0
 11
0.08300363439017605
 21
0.05658330222864438
 31
0.0
 11
0.08425194840455924
 21
0.056966345323446674
 31
0.0
 11
0.08549945369742842
 21
0.05734605128350674
 31
0.0
 11
0.08674615026878364
 21
0.05772242010882459
 31
0.0
 11
0.08799203811862491
 21
0.05809545179940024
 31
0.0
 11
0.08923711724695217
 21
0.05846514635523366
 31
0.0
 11
0.09048138765376547
 21
0.05883150377632485
 31
0.0
 11
0.09172484933906479
 21
0.05919452406267383
 31
0.0
 11
0.09296750230285014
 21
0.0595542072142806
 31
0.0
 11
0.0942093465451215
 21
0.05991055323114513
 31
0.0
 11
0.09545038206587889
 21
0.06026356211326746
 31
0.0
 11
0.09669060886512232
 21
0.06061323386064757
 31
0.0
 11
0.09793002694285176
 21
0.06095956847328545
 31
0.0
 11
0.09916863629906725
 21
0.06130256595118112
 31
0.0
 11
0.10040643693376873
 21
0.061642226294334565
 31
0.0
 11
0.10164342884695624
 21
0.0619785495027458
 31
0.0
 11
0.10287961203862979
 21
0.06231153557641481
 31
0.0
 11
0.10411498650878934
 21
0.0626411845153416
 31
0.0
 11
0.10534955225743496
 21
0.06296749631952618
 31
0.0
 11
0.10658330928456657
 21
0.06329047098896855
 31
0.0
 11
0.10781625759018422
 21
0.06361010852366868
 31
0.0
 11
0.10904839717428785
 21
0.0639264089236266
 31
0.0
 11
0.11027972803687758
 21
0.06423937218884229
 31
0.0
 11
0.11151025017795328
 21
0.06454899831931579
 31
0.0
 11
0.11273996359751501
 21
0.06485528731504706
 31
0.0
 11
0.11396886829556278
 21
0.0651582391760361
 31
0.0
 11
0.11519696427209657
 21
0.06545785390228291
 31
0.0
 11
0.11642425152711638
 21
0.06575413149378753
 31
0.0
 11
0.11765073006062221
 21
0.0660470719505499
 31
0.0
 11
0.11887639987261409
 21
0.06633667527257008
 31
0.0
 11
0.12010126096309198
 21
0.06662294145984804
 31
0.0
 11
0.12132531333205589
 21
0.06690587051238377
 31
0.0
 11
0.12254855697950581
 21
0.06718546243017728
 31
0.0
 11
0.12377099190544179
 21
0.06746171721322858
 31
0.0
 11
0.12499261810986377
 21
0.06773463486153768
 31
0.0
 11
0.1262134355927718
 21
0.06800421537510452
 31
0.0
 11
0.12743344435416581
 21
0.06827045875392915
 31
0.0
 11
0.12865264439404586
 21
0.06853336499801158
 31
0.0
  0
ENDSEC
  0
SECTION
  2
OBJECTS
  0
DICTIONARY
  5
A
330
0
100
AcDbDictionary
281
1
  3
ACAD_COLOR
350
B
  3
ACAD_GROUP
350
C
  3
ACAD_LAYOUT
350
D
  3
ACAD_MATERIAL
350
E
  3
ACAD_MLEADERSTYLE
350
F
  3
ACAD_MLINESTYLE
350
10
  3
ACAD_PLOTSETTINGS
350
11
  3
ACAD_PLOTSTYLENAME
350
12
  3
ACAD_SCALELIST
350
14
  3
ACAD_TABLESTYLE
350
15
  3
ACAD_VISUALSTYLE
350
16
  3
EZDXF_META
350
2D
  0
DICTIONARY
  5
B
330
A
100
AcDbDictionary
281
1
  0
DICTIONARY
  5
C
330
A
100
AcDbDictionary
281
1
  0
DICTIONARY
  5
D
330
A
100
AcDbDictionary
281
1
  3
Model
350
1A
  3
Layout1
350
1E
  0
DICTIONARY
  5
E
330
A
100
AcDbDictionary
281
1
  3
ByBlock
350
1F
  3
ByLayer
350
20
  3
Global
350
21
  0
DICTIONARY
  5
F
330
A
100
AcDbDictionary
281
1
  3
Standard
350
2C
  0
DICTIONARY
  5
10
330
A
100
AcDbDictionary
281
1
  3
Standard
350
22
  0
DICTIONARY
  5
11
330
A
100
AcDbDictionary
281
1
  0
ACDBDICTIONARYWDFLT
  5
12
330
A
100
AcDbDictionary
281
1
  3
Normal
350
13
100
AcDbDictionaryWithDefault
340
13
  0
ACDBPLACEHOLDER
  5
13
330
12
  0
DICTIONARY
  5
14
330
A
100
AcDbDictionary
281
1
  0
DICTIONARY
  5
15
330
A
100
AcDbDictionary
281
1
  0
DICTIONARY
  5
16
330
A
100
AcDbDictionary
281
1
  0
LAYOUT
  5
1A
330
D
100
AcDbPlotSettings
  1

  4
A3
  6

 40
7.5
 41
20.0
 42
7.5
 43
20.0
 44
420.0
 45
297.0
 46
0.0
 47
0.0
 48
0.0
 49
0.0
140
0.0
141
0.0
142
1.0
143
1.0
 70
1024
 72
1
 73
0
 74
5
  7

 75
16
 76
0
 77
2
 78
300
147
1.0
148
0.0
149
0.0
100
AcDbLayout
  1
Model
 70
1
 71
0
 10
0.0
 20
0.0
 11
420.0
 21
297.0
 12
0.0
 22
0.0
 32
0.0
 14
1e+20
 24
1e+20
 34
1e+20
 15
-1e+20
 25
-1e+20
 35
-1e+20
146
0.0
 13
0.0
 23
0.0
 33
0.0
 16
1.0
 26
0.0
 36
0.0
 17
0.0
 27
1.0
 37
0.0
 76
1
330
17
  0
LAYOUT
  5
1E
330
D
100
AcDbPlotSettings
  1

  4
A3
  6

 40
7.5
 41
20.0
 42
7.5
 43
20.0
 44
420.0
 45
297.0
 46
0.0
 47
0.0
 48
0.0
 49
0.0
140
0.0
141
0.0
142
1.0
143
1.0
 70
0
 72
1
 73
0
 74
5
  7

 75
16
 76
0
 77
2
 78
300
147
1.0
148
0.0
149
0.0
100
AcDbLayout
  1
Layout1
 70
1
 71
1
 10
0.0
 20
0.0
 11
420.0
 21
297.0
 12
0.0
 22
0.0
 32
0.0
 14
1e+20
 24
1e+20
 34
1e+20
 15
-1e+20
 25
-1e+20
 35
-1e+20
146
0.0
 13
0.0
 23
0.0
 33
0.0
 16
1.0
 26
0.0
 36
0.0
 17
0.0
 27
1.0
 37
0.0
 76
1
330
1B
  0
MATERIAL
  5
1F
102
{ACAD_REACTORS
330
E
102
}
330
E
100
AcDbMaterial
  1
ByBlock
  2

 70
0
 40
1.0
 71
1
 41
1.0
 91
-1023410177
 42
1.0
 72
1
  3

 73
1
 74
1
 75
1
 44
0.5
 73
0
 45
1.0
 46
1.0
 77
1
  4

 78
1
 79
1
170
1
 48
1.0
171
1
  6

172
1
173
1
174
1
140
1.0
141
1.0
175
1
  7

176
1
177
1
178
1
143
1.0
179
1
  8

270
1
271
1
272
1
145
1.0
146
1.0
273
1
  9

274
1
275
1
276
1
 42
1.0
 72
1
  3

 73
1
 74
1
 75
1
 94
63
  0
MATERIAL
  5
20
102
{ACAD_REACTORS
330
E
102
}
330
E
100
AcDbMaterial
  1
ByLayer
  2

 70
0
 40
1.0
 71
1
 41
1.0
 91
-1023410177
 42
1.0
 72
1
  3

 73
1
 74
1
 75
1
 44
0.5
 73
0
 45
1.0
 46
1.0
 77
1
  4

 78
1
 79
1
170
1
 48
1.0
171
1
  6

172
1
173
1
174
1
140
1.0
141
1.0
175
1
  7

176
1
177
1
178
1
143
1.0
179
1
  8

270
1
271
1
272
1
145
1.0
146
1.0
273
1
  9

274
1
275
1
276
1
 42
1.0
 72
1
  3

 73
1
 74
1
 75
1
 94
63
  0
MATERIAL
  5
21
102
{ACAD_REACTORS
330
E
102
}
330
E
100
AcDbMaterial
  1
Global
  2

 70
0
 40
1.0
 71
1
 41
1.0
 91
-1023410177
 42
1.0
 72
1
  3

 73
1
 74
1
 75
1
 44
0.5
 73
0
 45
1.0
 46
1.0
 77
1
  4

 78
1
 79
1
170
1
 48
1.0
171
1
  6

172
1
173
1
174
1
140
1.0
141
1.0
175
1
  7

176
1
177
1
178
1
143
1.0
179
1
  8

270
1
271
1
272
1
145
1.0
146
1.0
273
1
  9

274
1
275
1
276
1
 42
1.0
 72
1
  3

 73
1
 74
1
 75
1
 94
63
  0
MLINESTYLE
  5
22
102
{ACAD_REACTORS
330
10
102
}
330
10
100
AcDbMlineStyle
  2
Standard
 70
0
  3

 62
256
 51
90.0
 52
90.0
 71
2
 49
0.5
 62
256
  6
BYLAYER
 49
-0.5
 62
256
  6
BYLAYER
  0
MLEADERSTYLE
  5
2C
102
{ACAD_REACTORS
330
F
102
}
330
F
100
AcDbMLeaderStyle
179
2
170
2
171
1
172
0
 90
2
 40
0.0
 41
0.0
173
1
 91
-1056964608
 92
-2
290
1
 42
2.0
291
1
 43
8.0
  3
Standard
 44
4.0
300

342
29
174
1
175
1
176
0
178
1
 93
-1056964608
 45
4.0
292
0
297
0
 46
4.0
 94
-1056964608
 47
1.0
 49
1.0
140
1.0
294
1
141
0.0
177
0
142
1.0
295
0
296
0
143
3.75
271
0
272
9
273
9
  0
DICTIONARY
  5
2D
330
A
100
AcDbDictionary
280
1
281
1
  3
CREATED_BY_EZDXF
350
2E
  3
WRITTEN_BY_EZDXF
350
37
  0
DICTIONARYVAR
  5
2E
330
2D
100
DictionaryVariables
280
0
  1
1.4.4 @ 2026-06-07T17:18:13.060197+00:00
  0
DICTIONARYVAR
  5
37
330
2D
100
DictionaryVariables
280
0
  1
1.4.4 @ 2026-06-07T17:18:13.061615+00:00
  0
ENDSEC
  0
EOF
