  0
SECTION
  2
HEADER
  9
$ACADVER
  1
AC1024
  9
$ACADMAINTVER
 70
6
  9
$DWGCODEPAGE
  3
ANSI_1252
  9
$LASTSAVEDBY
  1
ezdxf
  9
$INSBASE
 10
0.0
 20
0.0
 30
0.0
  9
$EXTMIN
 10
1e+20
 20
1e+20
 30
1e+20
  9
$EXTMAX
 10
-1e+20
 20
-1e+20
 30
-1e+20
  9
$LIMMIN
 10
0.0
 20
0.0
  9
$LIMMAX
 10
420.0
 20
297.0
  9
$ORTHOMODE
 70
0
  9
$REGENMODE
 70
1
  9
$FILLMODE
 70
1
  9
$QTEXTMODE
 70
0
  9
$MIRRTEXT
 70
1
  9
$LTSCALE
 40
1.0
  9
$ATTMODE
 70
1
  9
$TEXTSIZE
 40
2.5
  9
$TRACEWID
 40
1.0
  9
$TEXTSTYLE
  7
Standard
  9
$CLAYER
  8
0
  9
$CELTYPE
  6
ByLayer
  9
$CECOLOR
 62
256
  9
$CELTSCALE
 40
1.0
  9
$DISPSILH
 70
0
  9
$DIMSCALE
 40
1.0
  9
$DIMASZ
 40
2.5
  9
$DIMEXO
 40
0.625
  9
$DIMDLI
 40
3.75
  9
$DIMRND
 40
0.0
  9
$DIMDLE
 40
0.0
  9
$DIMEXE
 40
1.25
  9
$DIMTP
 40
0.0
  9
$DIMTM
 40
0.0
  9
$DIMTXT
 40
2.5
  9
$DIMCEN
 40
2.5
  9
$DIMTSZ
 40
0.0
  9
$DIMTOL
 70
0
  9
$DIMLIM
 70
0
  9
$DIMTIH
 70
0
  9
$DIMTOH
 70
0
  9
$DIMSE1
 70
0
  9
$DIMSE2
 70
0
  9
$DIMTAD
 70
1
  9
$DIMZIN
 70
8
  9
$DIMBLK
  1

  9
$DIMASO
 70
1
  9
$DIMSHO
 70
1
  9
$DIMPOST
  1

  9
$DIMAPOST
  1

  9
$DIMALT
 70
0
  9
$DIMALTD
 70
3
  9
$DIMALTF
 40
0.03937007874
  9
$DIMLFAC
 40
1.0
  9
$DIMTOFL
 70
1
  9
$DIMTVP
 40
0.0
  9
$DIMTIX
 70
0
  9
$DIMSOXD
 70
0
  9
$DIMSAH
 70
0
  9
$DIMBLK1
  1

  9
$DIMBLK2
  1

  9
$DIMSTYLE
  2
ISO-25
  9
$DIMCLRD
 70
0
  9
$DIMCLRE
 70
0
  9
$DIMCLRT
 70
0
  9
$DIMTFAC
 40
1.0
  9
$DIMGAP
 40
0.625
  9
$DIMJUST
 70
0
  9
$DIMSD1
 70
0
  9
$DIMSD2
 70
0
  9
$DIMTOLJ
 70
0
  9
$DIMTZIN
 70
8
  9
$DIMALTZ
 70
0
  9
$DIMALTTZ
 70
0
  9
$DIMUPT
 70
0
  9
$DIMDEC
 70
2
  9
$DIMTDEC
 70
2
  9
$DIMALTU
 70
2
  9
$DIMALTTD
 70
3
  9
$DIMTXSTY
  7
Standard
  9
$DIMAUNIT
 70
0
  9
$DIMADEC
 70
0
  9
$DIMALTRND
 40
0.0
  9
$DIMAZIN
 70
0
  9
$DIMDSEP
 70
44
  9
$DIMATFIT
 70
3
  9
$DIMFRAC
 70
0
  9
$DIMLDRBLK
  1

  9
$DIMLUNIT
 70
2
  9
$DIMLWD
 70
-2
  9
$DIMLWE
 70
-2
  9
$DIMTMOVE
 70
0
  9
$DIMFXL
 40
1.0
  9
$DIMFXLON
 70
0
  9
$DIMJOGANG
 40
0.785398163397
  9
$DIMTFILL
 70
0
  9
$DIMTFILLCLR
 70
0
  9
$DIMARCSYM
 70
0
  9
$DIMLTYPE
  6

  9
$DIMLTEX1
  6

  9
$DIMLTEX2
  6

  9
$DIMTXTDIRECTION
 70
0
  9
$LUNITS
 70
2
  9
$LUPREC
 70
4
  9
$SKETCHINC
 40
1.0
  9
$FILLETRAD
 40
10.0
  9
$AUNITS
 70
0
  9
$AUPREC
 70
2
  9
$MENU
  1
.
  9
$ELEVATION
 40
0.0
  9
$PELEVATION
 40
0.0
  9
$THICKNESS
 40
0.0
  9
$LIMCHECK
 70
0
  9
$CHAMFERA
 40
0.0
  9
$CHAMFERB
 40
0.0
  9
$CHAMFERC
 40
0.0
  9
$CHAMFERD
 40
0.0
  9
$SKPOLY
 70
0
  9
$TDCREATE
 40
2461202.7343287035
  9
$TDUCREATE
 40
2458532.153996898
  9
$TDUPDATE
 40
2461202.7343287035
  9
$TDUUPDATE
 40
2458532.1544311
  9
$TDINDWG
 40
0.0
  9
$TDUSRTIMER
 40
0.0
  9
$USRTIMER
 70
1
  9
$ANGBASE
 50
0.0
  9
$ANGDIR
 70
0
  9
$PDMODE
 70
0
  9
$PDSIZE
 40
0.0
  9
$PLINEWID
 40
0.0
  9
$SPLFRAME
 70
0
  9
$SPLINETYPE
 70
6
  9
$SPLINESEGS
 70
8
  9
$HANDSEED
  5
38
  9
$SURFTAB1
 70
6
  9
$SURFTAB2
 70
6
  9
$SURFTYPE
 70
6
  9
$SURFU
 70
6
  9
$SURFV
 70
6
  9
$UCSBASE
  2

  9
$UCSNAME
  2

  9
$UCSORG
 10
0.0
 20
0.0
 30
0.0
  9
$UCSXDIR
 10
1.0
 20
0.0
 30
0.0
  9
$UCSYDIR
 10
0.0
 20
1.0
 30
0.0
  9
$UCSORTHOREF
  2

  9
$UCSORTHOVIEW
 70
0
  9
$UCSORGTOP
 10
0.0
 20
0.0
 30
0.0
  9
$UCSORGBOTTOM
 10
0.0
 20
0.0
 30
0.0
  9
$UCSORGLEFT
 10
0.0
 20
0.0
 30
0.0
  9
$UCSORGRIGHT
 10
0.0
 20
0.0
 30
0.0
  9
$UCSORGFRONT
 10
0.0
 20
0.0
 30
0.0
  9
$UCSORGBACK
 10
0.0
 20
0.0
 30
0.0
  9
$PUCSBASE
  2

  9
$PUCSNAME
  2

  9
$PUCSORG
 10
0.0
 20
0.0
 30
0.0
  9
$PUCSXDIR
 10
1.0
 20
0.0
 30
0.0
  9
$PUCSYDIR
 10
0.0
 20
1.0
 30
0.0
  9
$PUCSORTHOREF
  2

  9
$PUCSORTHOVIEW
 70
0
  9
$PUCSORGTOP
 10
0.0
 20
0.0
 30
0.0
  9
$PUCSORGBOTTOM
 10
0.0
 20
0.0
 30
0.0
  9
$PUCSORGLEFT
 10
0.0
 20
0.0
 30
0.0
  9
$PUCSORGRIGHT
 10
0.0
 20
0.0
 30
0.0
  9
$PUCSORGFRONT
 10
0.0
 20
0.0
 30
0.0
  9
$PUCSORGBACK
 10
0.0
 20
0.0
 30
0.0
  9
$USERI1
 70
0
  9
$USERI2
 70
0
  9
$USERI3
 70
0
  9
$USERI4
 70
0
  9
$USERI5
 70
0
  9
$USERR1
 40
0.0
  9
$USERR2
 40
0.0
  9
$USERR3
 40
0.0
  9
$USERR4
 40
0.0
  9
$USERR5
 40
0.0
  9
$WORLDVIEW
 70
1
  9
$SHADEDGE
 70
3
  9
$SHADEDIF
 70
70
  9
$TILEMODE
 70
1
  9
$MAXACTVP
 70
64
  9
$PINSBASE
 10
0.0
 20
0.0
 30
0.0
  9
$PLIMCHECK
 70
0
  9
$PEXTMIN
 10
1e+20
 20
1e+20
 30
1e+20
  9
$PEXTMAX
 10
-1e+20
 20
-1e+20
 30
-1e+20
  9
$PLIMMIN
 10
0.0
 20
0.0
  9
$PLIMMAX
 10
420.0
 20
297.0
  9
$UNITMODE
 70
0
  9
$VISRETAIN
 70
1
  9
$PLINEGEN
 70
0
  9
$PSLTSCALE
 70
1
  9
$TREEDEPTH
 70
3020
  9
$CMLSTYLE
  2
Standard
  9
$CMLJUST
 70
0
  9
$CMLSCALE
 40
20.0
  9
$PROXYGRAPHICS
 70
1
  9
$MEASUREMENT
 70
1
  9
$CELWEIGHT
370
-1
  9
$ENDCAPS
280
0
  9
$JOINSTYLE
280
0
  9
$LWDISPLAY
290
0
  9
$INSUNITS
 70
6
  9
$HYPERLINKBASE
  1

  9
$STYLESHEET
  1

  9
$XEDIT
290
1
  9
$CEPSNTYPE
380
0
  9
$PSTYLEMODE
290
1
  9
$FINGERPRINTGUID
  2
{49A9B4C7-3884-4FFA-BF95-C73263BF07AD}
  9
$VERSIONGUID
  2
{D14CC2E9-4E78-41BF-B59E-617086C0B64C}
  9
$EXTNAMES
290
1
  9
$PSVPSCALE
 40
0.0
  9
$OLESTARTUP
290
0
  9
$SORTENTS
280
127
  9
$INDEXCTL
280
0
  9
$HIDETEXT
280
1
  9
$XCLIPFRAME
280
1
  9
$HALOGAP
280
0
  9
$OBSCOLOR
 70
257
  9
$OBSLTYPE
280
0
  9
$INTERSECTIONDISPLAY
280
0
  9
$INTERSECTIONCOLOR
 70
257
  9
$DIMASSOC
280
2
  9
$PROJECTNAME
  1

  9
$CAMERADISPLAY
290
0
  9
$LENSLENGTH
 40
50.0
  9
$CAMERAHEIGHT
 40
0.0
  9
$STEPSPERSEC
 40
24.0
  9
$STEPSIZE
 40
100.0
  9
$3DDWFPREC
 40
2.0
  9
$PSOLWIDTH
 40
0.005
  9
$PSOLHEIGHT
 40
0.08
  9
$LOFTANG1
 40
1.570796326795
  9
$LOFTANG2
 40
1.570796326795
  9
$LOFTMAG1
 40
0.0
  9
$LOFTMAG2
 40
0.0
  9
$LOFTPARAM
 70
7
  9
$LOFTNORMALS
280
1
  9
$LATITUDE
 40
37.795
  9
$LONGITUDE
 40
-122.394
  9
$NORTHDIRECTION
 40
0.0
  9
$TIMEZONE
 70
-8000
  9
$LIGHTGLYPHDISPLAY
280
1
  9
$TILEMODELIGHTSYNCH
280
1
  9
$CMATERIAL
347
20
  9
$SOLIDHIST
280
0
  9
$SHOWHIST
280
1
  9
$DWFFRAME
280
2
  9
$DGNFRAME
280
2
  9
$REALWORLDSCALE
290
1
  9
$INTERFERECOLOR
 62
256
  9
$CSHADOW
280
0
  9
$SHADOWPLANELOCATION
 40
0.0
  0
ENDSEC
  0
SECTION
  2
CLASSES
  0
CLASS
  1
ACDBDICTIONARYWDFLT
  2
AcDbDictionaryWithDefault
  3
ObjectDBX Classes
 90
0
 91
0
280
0
281
0
  0
CLASS
  1
SUN
  2
AcDbSun
  3
SCENEOE
 90
1153
 91
0
280
0
281
0
  0
CLASS
  1
VISUALSTYLE
  2
AcDbVisualStyle
  3
ObjectDBX Classes
 90
4095
 91
0
280
0
281
0
  0
CLASS
  1
MATERIAL
  2
AcDbMaterial
  3
ObjectDBX Classes
 90
1153
 91
0
280
0
281
0
  0
CLASS
  1
SCALE
  2
AcDbScale
  3
ObjectDBX Classes
 90
1153
 91
0
280
0
281
0
  0
CLASS
  1
TABLESTYLE
  2
AcDbTableStyle
  3
ObjectDBX Classes
 90
4095
 91
0
280
0
281
0
  0
CLASS
  1
MLEADERSTYLE
  2
AcDbMLeaderStyle
  3
ACDB_MLEADERSTYLE_CLASS
 90
4095
 91
0
280
0
281
0
  0
CLASS
  1
DICTIONARYVAR
  2
AcDbDictionaryVar
  3
ObjectDBX Classes
 90
0
 91
0
280
0
281
0
  0
CLASS
  1
CELLSTYLEMAP
  2
AcDbCellStyleMap
  3
ObjectDBX Classes
 90
1152
 91
0
280
0
281
0
  0
CLASS
  1
MENTALRAYRENDERSETTINGS
  2
AcDbMentalRayRenderSettings
  3
SCENEOE
 90
1024
 91
0
280
0
281
0
  0
CLASS
  1
ACDBDETAILVIEWSTYLE
  2
AcDbDetailViewStyle
  3
ObjectDBX Classes
 90
1025
 91
0
280
0
281
0
  0
CLASS
  1
ACDBSECTIONVIEWSTYLE
  2
AcDbSectionViewStyle
  3
ObjectDBX Classes
 90
1025
 91
0
280
0
281
0
  0
CLASS
  1
RASTERVARIABLES
  2
AcDbRasterVariables
  3
ISM
 90
0
 91
0
280
0
281
0
  0
CLASS
  1
ACDBPLACEHOLDER
  2
AcDbPlaceHolder
  3
ObjectDBX Classes
 90
0
 91
0
280
0
281
0
  0
CLASS
  1
LAYOUT
  2
AcDbLayout
  3
ObjectDBX Classes
 90
0
 91
0
280
0
281
0
  0
ENDSEC
  0
SECTION
  2
TABLES
  0
TABLE
  2
VPORT
  5
8
330
0
100
AcDbSymbolTable
 70
1
  0
VPORT
  5
23
330
8
100
AcDbSymbolTableRecord
100
AcDbViewportTableRecord
  2
*Active
 70
0
 10
0.0
 20
0.0
 11
1.0
 21
1.0
 12
0.0
 22
0.0
 13
0.0
 23
0.0
 14
0.5
 24
0.5
 15
0.5
 25
0.5
 16
0.0
 26
0.0
 36
1.0
 17
0.0
 27
0.0
 37
0.0
 40
1000.0
 41
1.34
 42
50.0
 43
0.0
 44
0.0
 50
0.0
 51
0.0
 71
0
 72
1000
 73
1
 74
3
 75
0
 76
0
 77
0
 78
0
281
0
 65
0
146
0.0
  0
ENDTAB
  0
TABLE
  2
LTYPE
  5
2
330
0
100
AcDbSymbolTable
 70
3
  0
LTYPE
  5
24
330
2
100
AcDbSymbolTableRecord
100
AcDbLinetypeTableRecord
  2
ByBlock
 70
0
  3

 72
65
 73
0
 40
0.0
  0
LTYPE
  5
25
330
2
100
AcDbSymbolTableRecord
100
AcDbLinetypeTableRecord
  2
ByLayer
 70
0
  3

 72
65
 73
0
 40
0.0
  0
LTYPE
  5
26
330
2
100
AcDbSymbolTableRecord
100
AcDbLinetypeTableRecord
  2
Continuous
 70
0
  3

 72
65
 73
0
 40
0.0
  0
ENDTAB
  0
TABLE
  2
LAYER
  5
1
330
0
100
AcDbSymbolTable
 70
2
  0
LAYER
  5
27
330
1
100
AcDbSymbolTableRecord
100
AcDbLayerTableRecord
  2
0
 70
0
 62
7
  6
Continuous
370
-3
390
13
347
21
  0
LAYER
  5
28
330
1
100
AcDbSymbolTableRecord
100
AcDbLayerTableRecord
  2
Defpoints
 70
0
 62
7
  6
Continuous
290
0
370
-3
390
13
347
21
  0
ENDTAB
  0
TABLE
  2
STYLE
  5
5
330
0
100
AcDbSymbolTable
 70
1
  0
STYLE
  5
29
330
5
100
AcDbSymbolTableRecord
100
AcDbTextStyleTableRecord
  2
Standard
 70
0
 40
0.0
 41
1.0
 50
0.0
 71
0
 42
2.5
  3
txt
  4

  0
ENDTAB
  0
TABLE
  2
VIEW
  5
7
330
0
100
AcDbSymbolTable
 70
0
  0
ENDTAB
  0
TABLE
  2
UCS
  5
6
330
0
100
AcDbSymbolTable
 70
0
  0
ENDTAB
  0
TABLE
  2
APPID
  5
3
330
0
100
AcDbSymbolTable
 70
3
  0
APPID
  5
2A
330
3
100
AcDbSymbolTableRecord
100
AcDbRegAppTableRecord
  2
ACAD
 70
0
  0
APPID
  5
35
330
3
100
AcDbSymbolTableRecord
100
AcDbRegAppTableRecord
  2
HATCHBACKGROUNDCOLOR
 70
0
  0
APPID
  5
36
330
3
100
AcDbSymbolTableRecord
100
AcDbRegAppTableRecord
  2
EZDXF
 70
0
  0
ENDTAB
  0
TABLE
  2
DIMSTYLE
  5
4
330
0
100
AcDbSymbolTable
 70
1
100
AcDbDimStyleTable
  0
DIMSTYLE
105
2B
330
4
100
AcDbSymbolTableRecord
100
AcDbDimStyleTableRecord
  2
Standard
 70
0
 40
1.0
 41
2.5
 42
0.625
 43
3.75
 44
1.25
 45
0.0
 46
0.0
 47
0.0
 48
0.0
 49
2.5
140
2.5
141
2.5
142
0.0
143
0.03937007874
144
1.0
145
0.0
146
1.0
147
0.625
148
0.0
 69
0
 70
0
 71
0
 72
0
 73
0
 74
0
 75
0
 76
0
 77
1
 78
8
 79
3
170
0
171
3
172
1
173
0
174
0
175
0
176
0
177
0
178
0
179
2
271
2
272
2
273
2
274
3
275
0
276
0
277
2
278
44
279
0
280
0
281
0
282
0
283
0
284
8
285
0
286
0
288
0
289
3
290
0
371
-2
372
-2
  0
ENDTAB
  0
TABLE
  2
BLOCK_RECORD
  5
9
330
0
100
AcDbSymbolTable
 70
2
  0
BLOCK_RECORD
  5
17
330
9
100
AcDbSymbolTableRecord
100
AcDbBlockTableRecord
  2
*Model_Space
340
1A
 70
0
280
1
281
0
  0
BLOCK_RECORD
  5
1B
330
9
100
AcDbSymbolTableRecord
100
AcDbBlockTableRecord
  2
*Paper_Space
340
1E
 70
0
280
1
281
0
  0
ENDTAB
  0
ENDSEC
  0
SECTION
  2
BLOCKS
  0
BLOCK
  5
18
330
17
100
AcDbEntity
  8
0
100
AcDbBlockBegin
  2
*Model_Space
 70
0
 10
0.0
 20
0.0
 30
0.0
  3
*Model_Space
  1

  0
ENDBLK
  5
19
330
17
100
AcDbEntity
  8
0
100
AcDbBlockEnd
  0
BLOCK
  5
1C
330
1B
100
AcDbEntity
  8
0
100
AcDbBlockBegin
  2
*Paper_Space
 70
0
 10
0.0
 20
0.0
 30
0.0
  3
*Paper_Space
  1

  0
ENDBLK
  5
1D
330
1B
100
AcDbEntity
  8
0
100
AcDbBlockEnd
  0
ENDSEC
  0
SECTION
  2
ENTITIES
  0
SPLINE
  5
2F
330
17
100
AcDbEntity
  8
0
100
AcDbSpline
 70
0
 71
3
 72
0
 73
0
 74
100
 11
-0.2650445806536468
 21
0.048624869601999535
 31
0.0
 11
-0.2628102987999066
 21
0.048624869601999535
 31
0.0
 11
-0.26057601694616644
 21
0.048624869601999535
 31
0.0
 11
-0.25834173509242625
 21
0.048624869601999535
 31
0.0
 11
-0.25610745323868606
 21
0.048624869601999535
 31
0.0
 11
-0.25387317138494586
 21
0.048624869601999535
 31
0.0
 11
-0.25163888953120567
 21
0.048624869601999535
 31
0.0
 11
-0.24940460767746547
 21
0.048624869601999535
 31
0.0
 11
-0.24717032582372528
 21
0.048624869601999535
 31
0.0
 11
-0.24493604396998506
 21
0.048624869601999535
 31
0.0
 11
-0.2427017621162449
 21
0.048624869601999535
 31
0.0
 11
-0.2404674802625047
 21
0.048624869601999535
 31
0.0
 11
-0.2382331984087645
 21
0.048624869601999535
 31
0.0
 11
-0.23599891655502434
 21
0.048624869601999535
 31
0.0
 11
-0.2337646347012841
 21
0.048624869601999535
 31
0.0
 11
-0.23153035284754392
 21
0.048624869601999535
 31
0.0
 11
-0.22929607099380372
 21
0.048624869601999535
 31
0.0
 11
-0.22706178914006353
 21
0.048624869601999535
 31
0.0
 11
-0.22482750728632334
 21
0.048624869601999535
 31
0.0
 11
-0.22259322543258314
 21
0.048624869601999535
 31
0.0
 11
-0.22035894357884298
 21
0.048624869601999535
 31
0.0
 11
-0.21812466172510278
 21
0.048624869601999535
 31
0.0
 11
-0.21589037987136256
 21
0.048624869601999535
 31
0.0
 11
-0.2136560980176224
 21
0.048624869601999535
 31
0.0
 11
-0.2114218161638822
 21
0.048624869601999535
 31
0.0
 11
-0.20918753431014198
 21
0.048624869601999535
 31
0.0
 11
-0.2069532524564018
 21
0.048624869601999535
 31
0.0
 11
-0.20471897060266162
 21
0.048624869601999535
 31
0.0
 11
-0.20248468874892142
 21
0.048624869601999535
 31
0.0
 11
-0.20025040689518125
 21
0.048624869601999535
 31
0.0
 11
-0.19801612504144103
 21
0.048624869601999535
 31
0.0
 11
-0.19578184318770084
 21
0.048624869601999535
 31
0.0
 11
-0.19354756133396067
 21
0.048624869601999535
 31
0.0
 11
-0.19131327948022045
 21
0.048624869601999535
 31
0.0
 11
-0.18907899762648026
 21
0.048624869601999535
 31
0.0
 11
-0.18684471577274006
 21
0.048624869601999535
 31
0.0
 11
-0.1846104339189999
 21
0.048624869601999535
 31
0.0
 11
-0.1823761520652597
 21
0.048624869601999535
 31
0.0
 11
-0.18014187021151948
 21
0.048624869601999535
 31
0.0
 11
-0.1779075883577793
 21
0.048624869601999535
 31
0.0
 11
-0.17567330650403912
 21
0.048624869601999535
 31
0.0
 11
-0.1734390246502989
 21
0.048624869601999535
 31
0.0
 11
-0.17120474279655873
 21
0.048624869601999535
 31
0.0
 11
-0.16897046094281853
 21
0.048624869601999535
 31
0.0
 11
-0.16673617908907834
 21
0.048624869601999535
 31
0.0
 11
-0.16450189723533817
 21
0.048624869601999535
 31
0.0
 11
-0.16226761538159795
 21
0.048624869601999535
 31
0.0
 11
-0.16003333352785776
 21
0.048624869601999535
 31
0.0
 11
-0.1577990516741176
 21
0.048624869601999535
 31
0.0
 11
-0.15556476982037737
 21
0.048624869601999535
 31
0.0
 11
-0.15333048796663717
 21
0.048624869601999535
 31
0.0
 11
-0.15109620611289698
 21
0.048624869601999535
 31
0.0
 11
-0.1488619242591568
 21
0.048624869601999535
 31
0.0
 11
-0.14662764240541662
 21
0.048624869601999535
 31
0.0
 11
-0.1443933605516764
 21
0.048624869601999535
 31
0.0
 11
-0.14215907869793623
 21
0.048624869601999535
 31
0.0
 11
-0.13992479684419604
 21
0.048624869601999535
 31
0.0
 11
-0.13769051499045581
 21
0.048624869601999535
 31
0.0
 11
-0.13545623313671565
 21
0.048624869601999535
 31
0.0
 11
-0.13322195128297545
 21
0.048624869601999535
 31
0.0
 11
-0.13098766942923526
 21
0.048624869601999535
 31
0.0
 11
-0.1287533875754951
 21
0.048624869601999535
 31
0.0
 11
-0.12651910572175487
 21
0.048624869601999535
 31
0.0
 11
-0.12428482386801468
 21
0.048624869601999535
 31
0.0
 11
-0.1220505420142745
 21
0.048624869601999535
 31
0.0
 11
-0.1198162601605343
 21
0.048624869601999535
 31
0.0
 11
-0.1175819783067941
 21
0.048624869601999535
 31
0.0
 11
-0.11534769645305391
 21
0.048624869601999535
 31
0.0
 11
-0.11311341459931373
 21
0.048624869601999535
 31
0.0
 11
-0.11087913274557352
 21
0.048624869601999535
 31
0.0
 11
-0.10864485089183333
 21
0.048624869601999535
 31
0.0
 11
-0.10641056903809315
 21
0.048624869601999535
 31
0.0
 11
-0.10417628718435296
 21
0.048624869601999535
 31
0.0
 11
-0.10194200533061276
 21
0.048624869601999535
 31
0.0
 11
-0.09970772347687255
 21
0.048624869601999535
 31
0.0
 11
-0.09747344162313237
 21
0.048624869601999535
 31
0.0
 11
-0.09523915976939219
 21
0.048624869601999535
 31
0.0
 11
-0.09300487791565198
 21
0.048624869601999535
 31
0.0
 11
-0.09077059606191179
 21
0.048624869601999535
 31
0.0
 11
-0.08853631420817161
 21
0.048624869601999535
 31
0.0
 11
-0.08630203235443142
 21
0.048624869601999535
 31
0.0
 11
-0.08406775050069122
 21
0.048624869601999535
 31
0.0
 11
-0.08183346864695101
 21
0.048624869601999535
 31
0.0
 11
-0.07959918679321083
 21
0.048624869601999535
 31
0.0
 11
-0.07736490493947065
 21
0.048624869601999535
 31
0.0
 11
-0.07513062308573044
 21
0.048624869601999535
 31
0.0
 11
-0.07289634123199025
 21
0.048624869601999535
 31
0.0
 11
-0.07066205937825007
 21
0.048624869601999535
 31
0.0
 11
-0.06842777752450988
 21
0.048624869601999535
 31
0.0
 11
-0.06619349567076968
 21
0.048624869601999535
 31
0.0
 11
-0.06395921381702949
 21
0.048624869601999535
 31
0.0
 11
-0.06172493196328929
 21
0.048624869601999535
 31
0.0
 11
-0.0594906501095491
 21
0.048624869601999535
 31
0.0
 11
-0.05725636825580891
 21
0.048624869601999535
 31
0.0
 11
-0.055022086402068716
 21
0.048624869601999535
 31
0.0
 11
-0.05278780454832852
 21
0.048624869601999535
 31
0.0
 11
-0.05055352269458833
 21
0.048624869601999535
 31
0.0
 11
-0.04831924084084814
 21
0.048624869601999535
 31
0.0
 11
-0.046084958987107946
 21
0.048624869601999535
 31
0.0
 11
-0.04385067713336775
 21
0.048624869601999535
 31
0.0
  0
SPLINE
  5
30
330
17
100
AcDbEntity
  8
0
100
AcDbSpline
 70
0
 71
3
 72
0
 73
0
 74
100
 11
-0.04385067713336775
 21
0.048624869601999535
 31
0.0
 11
-0.04375588305178788
 21
0.04862449358438309
 31
0.0
 11
-0.043661094936277664
 21
0.04862336555519922
 31
0.0
 11
-0.04356631875253125
 21
0.04862148558544288
 31
0.0
 11
-0.04347156046549185
 21
0.04861885379343403
 31
0.0
 11
-0.04337682603897631
 21
0.04861547034481013
 31
0.0
 11
-0.043282121435299754
 21
0.048611335452515836
 31
0.0
 11
-0.043187452614900354
 21
0.048606449376789485
 31
0.0
 11
-0.043092825535964156
 21
0.048600812425146786
 31
0.0
 11
-0.04299824615405016
 21
0.04859442495236141
 31
0.0
 11
-0.042903720421715405
 21
0.048587287360442724
 31
0.0
 11
-0.04280925428814041
 21
0.04857940009861044
 31
0.0
 11
-0.042714853698754725
 21
0.048570763663266375
 31
0.0
 11
-0.042620524594862694
 21
0.04856137859796317
 31
0.0
 11
-0.0425262729132696
 21
0.04855124549337013
 31
0.0
 11
-0.04243210458590799
 21
0.048540364987236004
 31
0.0
 11
-0.042338025539464315
 21
0.048528737764348885
 31
0.0
 11
-0.04224404169500594
 21
0.04851636455649307
 31
0.0
 11
-0.04215015896760851
 21
0.048503246142403054
 31
0.0
 11
-0.042056383265983606
 21
0.048489383347714465
 31
0.0
 11
-0.041962720492106975
 21
0.04847477704491215
 31
0.0
 11
-0.04186917654084696
 21
0.048459428153275204
 31
0.0
 11
-0.04177575729959356
 21
0.048443337638819195
 31
0.0
 11
-0.04168246864788791
 21
0.0484265065142353
 31
0.0
 11
-0.041589316457052154
 21
0.04840893583882657
 31
0.0
 11
-0.04149630658982004
 21
0.04839062671844131
 31
0.0
 11
-0.04140344489996781
 21
0.04837158030540344
 31
0.0
 11
-0.04131073723194592
 21
0.04835179779843997
 31
0.0
 11
-0.04121818942051105
 21
0.048331280442605574
 31
0.0
 11
-0.04112580729035902
 21
0.04831002952920422
 31
0.0
 11
-0.04103359665575811
 21
0.04828804639570792
 31
0.0
 11
-0.04094156332018318
 21
0.0482653324256725
 31
0.0
 11
-0.04084971307595037
 21
0.04824188904865058
 31
0.0
 11
-0.040758051703852584
 21
0.04821771774010157
 31
0.0
 11
-0.04066658497279567
 21
0.04819282002129883
 31
0.0
 11
-0.04057531863943529
 21
0.0481671974592339
 31
0.0
 11
-0.04048425844781467
 21
0.04814085166651791
 31
0.0
 11
-0.04039341012900304
 21
0.04811378430128004
 31
0.0
 11
-0.04030277940073499
 21
0.04808599706706322
 31
0.0
 11
-0.04021237196705055
 21
0.04805749171271685
 31
0.0
 11
-0.04012219351793623
 21
0.04802827003228681
 31
0.0
 11
-0.04003224972896693
 21
0.04799833386490248
 31
0.0
 11
-0.03994254626094866
 21
0.04796768509466099
 31
0.0
 11
-0.03985308875956236
 21
0.047936325650508725
 31
0.0
 11
-0.03976388285500851
 21
0.04790425750611982
 31
0.0
 11
-0.0396749341616528
 21
0.04787148267977199
 31
0.0
 11
-0.039586248277672785
 21
0.0478380032342195
 31
0.0
 11
-0.03949783078470554
 21
0.04780382127656336
 31
0.0
 11
-0.039409687247496376
 21
0.04776893895811868
 31
0.0
 11
-0.03932182321354863
 21
0.047733358474279286
 31
0.0
 11
-0.039234244212774445
 21
0.04769708206437954
 31
0.0
 11
-0.039146955757146835
 21
0.04766011201155341
 31
0.0
 11
-0.03905996334035273
 21
0.047622450642590776
 31
0.0
 11
-0.03897327243744719
 21
0.047584100327791014
 31
0.0
 11
-0.038886888504508874
 21
0.047545063480813755
 31
0.0
 11
-0.038800816978296605
 21
0.047505342558527015
 31
0.0
 11
-0.03871506327590723
 21
0.04746494006085257
 31
0.0
 11
-0.03862963279443466
 21
0.047423858530608626
 31
0.0
 11
-0.03854453091063022
 21
0.04738210055334974
 31
0.0
 11
-0.03845976298056421
 21
0.04733966875720412
 31
0.0
 11
-0.038375334339288844
 21
0.04729656581270826
 31
0.0
 11
-0.03829125030050246
 21
0.04725279443263875
 31
0.0
 11
-0.03820751615621511
 21
0.047208357371841675
 31
0.0
 11
-0.03812413717641546
 21
0.047163257427059124
 31
0.0
 11
-0.038041118608739155
 21
0.04711749743675325
 31
0.0
 11
-0.037958465678138514
 21
0.047071080280927574
 31
0.0
 11
-0.037876183586553716
 21
0.04702400888094576
 31
0.0
 11
-0.03779427751258535
 21
0.04697628619934771
 31
0.0
 11
-0.03771275261116858
 21
0.046927915239663165
 31
0.0
 11
-0.03763161401324862
 21
0.04687889904622262
 31
0.0
 11
-0.03755086682545783
 21
0.046829240703965776
 31
0.0
 11
-0.03747051612979437
 21
0.046778943338247315
 31
0.0
 11
-0.03739056698330229
 21
0.04672801011464026
 31
0.0
 11
-0.03731102441775327
 21
0.04667644423873673
 31
0.0
 11
-0.037231893439329956
 21
0.04662424895594614
 31
0.0
 11
-0.03715317902831089
 21
0.046571427551291025
 31
0.0
 11
-0.03707488613875701
 21
0.04651798334920022
 31
0.0
 11
-0.036997019698199914
 21
0.046463919713299676
 31
0.0
 11
-0.03691958460733171
 21
0.04640924004620072
 31
0.0
 11
-0.03684258573969659
 21
0.046353947789285956
 31
0.0
 11
-0.0367660279413841
 21
0.046298046422492634
 31
0.0
 11
-0.036689916030724114
 21
0.046241539464093644
 31
0.0
 11
-0.036614254797983636
 21
0.046184430470476094
 31
0.0
 11
-0.036539049005065265
 21
0.046126723035917465
 31
0.0
 11
-0.03646430338520752
 21
0.046068420792359434
 31
0.0
 11
-0.03639002264268695
 21
0.04600952740917922
 31
0.0
 11
-0.036316211452522035
 21
0.04595004659295872
 31
0.0
 11
-0.03624287446017895
 21
0.04588998208725119
 31
0.0
 11
-0.036170016281279256
 21
0.04582933767234563
 31
0.0
 11
-0.036097641501309306
 21
0.04576811716502888
 31
0.0
 11
-0.036025754675331735
 21
0.045706324418345406
 31
0.0
 11
-0.03595436032769872
 21
0.04564396332135476
 31
0.0
 11
-0.035883462951767295
 21
0.045581037798886885
 31
0.0
 11
-0.035813067009616444
 21
0.04551755181129502
 31
0.0
 11
-0.0357431769317664
 21
0.045453509354206514
 31
0.0
 11
-0.03567379711689969
 21
0.045388914458271305
 31
0.0
 11
-0.03560493193158437
 21
0.04532377118890827
 31
0.0
 11
-0.03553658570999917
 21
0.04525808364604933
 31
0.0
 11
-0.03546876275366071
 21
0.04519185596388144
 31
0.0
 11
-0.0354014673311528
 21
0.0451250923105864
 31
0.0
  0
SPLINE
  5
31
330
17
100
AcDbEntity
  8
0
100
AcDbSpline
 70
0
 71
3
 72
0
 73
0
 74
100
 11
-0.0354014673311528
 21
0.0451250923105864
 31
0.0
 11
-0.03531898099768515
 21
0.04504260597711875
 31
0.0
 11
-0.0352364946642175
 21
0.044960119643651104
 31
0.0
 11
-0.03515400833074985
 21
0.044877633310183455
 31
0.0
 11
-0.0350715219972822
 21
0.044795146976715806
 31
0.0
 11
-0.034989035663814554
 21
0.04471266064324816
 31
0.0
 11
-0.034906549330346905
 21
0.04463017430978051
 31
0.0
 11
-0.034824062996879256
 21
0.04454768797631286
 31
0.0
 11
-0.03474157666341161
 21
0.04446520164284521
 31
0.0
 11
-0.03465909032994396
 21
0.04438271530937756
 31
0.0
 11
-0.03457660399647631
 21
0.04430022897590991
 31
0.0
 11
-0.03449411766300866
 21
0.04421774264244226
 31
0.0
 11
-0.03441163132954101
 21
0.044135256308974614
 31
0.0
 11
-0.03432914499607336
 21
0.04405276997550696
 31
0.0
 11
-0.03424665866260571
 21
0.04397028364203931
 31
0.0
 11
-0.034164172329138064
 21
0.04388779730857166
 31
0.0
 11
-0.034081685995670415
 21
0.04380531097510401
 31
0.0
 11
-0.033999199662202766
 21
0.04372282464163636
 31
0.0
 11
-0.03391671332873512
 21
0.043640338308168714
 31
0.0
 11
-0.033834226995267454
 21
0.04355785197470106
 31
0.0
 11
-0.03375174066179981
 21
0.043475365641233416
 31
0.0
 11
-0.033669254328332156
 21
0.04339287930776576
 31
0.0
 11
-0.033586767994864514
 21
0.04331039297429812
 31
0.0
 11
-0.03350428166139686
 21
0.04322790664083046
 31
0.0
 11
-0.033421795327929216
 21
0.04314542030736282
 31
0.0
 11
-0.03333930899446156
 21
0.043062933973895164
 31
0.0
 11
-0.03325682266099391
 21
0.042980447640427515
 31
0.0
 11
-0.03317433632752626
 21
0.042897961306959866
 31
0.0
 11
-0.03309184999405861
 21
0.04281547497349222
 31
0.0
 11
-0.033009363660590964
 21
0.04273298864002457
 31
0.0
 11
-0.032926877327123315
 21
0.04265050230655692
 31
0.0
 11
-0.032844390993655666
 21
0.04256801597308927
 31
0.0
 11
-0.03276190466018802
 21
0.04248552963962162
 31
0.0
 11
-0.03267941832672037
 21
0.04240304330615397
 31
0.0
 11
-0.03259693199325272
 21
0.042320556972686316
 31
0.0
 11
-0.03251444565978507
 21
0.04223807063921867
 31
0.0
 11
-0.03243195932631742
 21
0.04215558430575102
 31
0.0
 11
-0.03234947299284977
 21
0.04207309797228337
 31
0.0
 11
-0.03226698665938212
 21
0.04199061163881572
 31
0.0
 11
-0.032184500325914474
 21
0.04190812530534807
 31
0.0
 11
-0.03210201399244682
 21
0.04182563897188042
 31
0.0
 11
-0.03201952765897917
 21
0.04174315263841277
 31
0.0
 11
-0.03193704132551152
 21
0.041660666304945124
 31
0.0
 11
-0.03185455499204387
 21
0.041578179971477475
 31
0.0
 11
-0.03177206865857622
 21
0.041495693638009826
 31
0.0
 11
-0.03168958232510857
 21
0.04141320730454218
 31
0.0
 11
-0.031607095991640924
 21
0.04133072097107453
 31
0.0
 11
-0.031524609658173275
 21
0.04124823463760688
 31
0.0
 11
-0.031442123324705626
 21
0.04116574830413923
 31
0.0
 11
-0.03135963699123798
 21
0.04108326197067158
 31
0.0
 11
-0.03127715065777033
 21
0.04100077563720393
 31
0.0
 11
-0.03119466432430268
 21
0.04091828930373628
 31
0.0
 11
-0.03111217799083503
 21
0.040835802970268634
 31
0.0
 11
-0.03102969165736738
 21
0.040753316636800985
 31
0.0
 11
-0.030947205323899732
 21
0.040670830303333336
 31
0.0
 11
-0.03086471899043208
 21
0.04058834396986568
 31
0.0
 11
-0.03078223265696443
 21
0.04050585763639803
 31
0.0
 11
-0.03069974632349678
 21
0.04042337130293038
 31
0.0
 11
-0.030617259990029132
 21
0.04034088496946273
 31
0.0
 11
-0.030534773656561483
 21
0.040258398635995084
 31
0.0
 11
-0.030452287323093834
 21
0.040175912302527435
 31
0.0
 11
-0.030369800989626185
 21
0.040093425969059786
 31
0.0
 11
-0.030287314656158536
 21
0.04001093963559214
 31
0.0
 11
-0.030204828322690884
 21
0.03992845330212448
 31
0.0
 11
-0.030122341989223235
 21
0.03984596696865683
 31
0.0
 11
-0.030039855655755586
 21
0.03976348063518918
 31
0.0
 11
-0.029957369322287934
 21
0.039680994301721534
 31
0.0
 11
-0.029874882988820285
 21
0.039598507968253885
 31
0.0
 11
-0.029792396655352636
 21
0.039516021634786236
 31
0.0
 11
-0.029709910321884987
 21
0.03943353530131859
 31
0.0
 11
-0.029627423988417338
 21
0.03935104896785094
 31
0.0
 11
-0.02954493765494969
 21
0.03926856263438329
 31
0.0
 11
-0.02946245132148204
 21
0.03918607630091564
 31
0.0
 11
-0.02937996498801439
 21
0.03910358996744799
 31
0.0
 11
-0.02929747865454674
 21
0.03902110363398034
 31
0.0
 11
-0.029214992321079093
 21
0.038938617300512686
 31
0.0
 11
-0.02913250598761144
 21
0.03885613096704504
 31
0.0
 11
-0.02905001965414379
 21
0.03877364463357739
 31
0.0
 11
-0.028967533320676142
 21
0.03869115830010974
 31
0.0
 11
-0.028885046987208493
 21
0.03860867196664209
 31
0.0
 11
-0.028802560653740844
 21
0.03852618563317444
 31
0.0
 11
-0.028720074320273195
 21
0.03844369929970679
 31
0.0
 11
-0.028637587986805546
 21
0.03836121296623914
 31
0.0
 11
-0.028555101653337897
 21
0.038278726632771494
 31
0.0
 11
-0.028472615319870248
 21
0.038196240299303845
 31
0.0
 11
-0.0283901289864026
 21
0.038113753965836196
 31
0.0
 11
-0.028307642652934943
 21
0.03803126763236855
 31
0.0
 11
-0.028225156319467294
 21
0.0379487812989009
 31
0.0
 11
-0.028142669985999645
 21
0.03786629496543325
 31
0.0
 11
-0.028060183652531996
 21
0.0377838086319656
 31
0.0
 11
-0.027977697319064347
 21
0.03770132229849795
 31
0.0
 11
-0.027895210985596698
 21
0.0376188359650303
 31
0.0
 11
-0.02781272465212905
 21
0.03753634963156265
 31
0.0
 11
-0.0277302383186614
 21
0.037453863298095004
 31
0.0
 11
-0.02764775198519375
 21
0.037371376964627355
 31
0.0
 11
-0.027565265651726102
 21
0.037288890631159706
 31
0.0
 11
-0.027482779318258453
 21
0.03720640429769205
 31
0.0
 11
-0.0274002929847908
 21
0.0371239179642244
 31
0.0
 11
-0.02731780665132315
 21
0.03704143163075675
 31
0.0
 11
-0.027235320317855503
 21
0.0369589452972891
 31
0.0
  0
SPLINE
  5
32
330
17
100
AcDbEntity
  8
0
100
AcDbSpline
 70
0
 71
3
 72
0
 73
0
 74
100
 11
-0.027235320317855503
 21
0.0369589452972891
 31
0.0
 11
-0.02701839915826399
 21
0.036743738251228536
 31
0.0
 11
-0.026799777537541834
 21
0.036530258863217764
 31
0.0
 11
-0.026579469215111468
 21
0.036318520569041765
 31
0.0
 11
-0.0263574880565516
 21
0.03610853669490604
 31
0.0
 11
-0.026133848032724408
 21
0.03590032045659784
 31
0.0
 11
-0.02590856321889639
 21
0.03569388495865451
 31
0.0
 11
-0.02568164779385239
 21
0.035489243193538626
 31
0.0
 11
-0.025453116039003326
 21
0.03528640804082034
 31
0.0
 11
-0.02522298233748731
 21
0.03508539226636677
 31
0.0
 11
-0.024991261173264362
 21
0.034886208521538516
 31
0.0
 11
-0.024757967130204967
 21
0.034688869342393486
 31
0.0
 11
-0.024523114891172048
 21
0.03449338714889784
 31
0.0
 11
-0.024286719237097017
 21
0.03429977424414438
 31
0.0
 11
-0.02404879504604937
 21
0.03410804281357817
 31
0.0
 11
-0.023809357292300434
 21
0.03391820492422966
 31
0.0
 11
-0.0235684210453808
 21
0.03373027252395518
 31
0.0
 11
-0.023326001469131996
 21
0.03354425744068506
 31
0.0
 11
-0.02308211382075208
 21
0.03336017138167909
 31
0.0
 11
-0.02283677344983534
 21
0.0331780259327898
 31
0.0
 11
-0.022589995797406358
 21
0.032997832557733246
 31
0.0
 11
-0.022341796394948044
 21
0.03281960259736748
 31
0.0
 11
-0.022092190863424288
 21
0.03264334726897887
 31
0.0
 11
-0.021841194912296667
 21
0.032469077665576024
 31
0.0
 11
-0.02158882433853586
 21
0.032296804755191706
 31
0.0
 11
-0.02133509502562737
 21
0.0321265393801925
 31
0.0
 11
-0.02108002294257185
 21
0.0319582922565964
 31
0.0
 11
-0.02082362414288013
 21
0.03179207397339844
 31
0.0
 11
-0.02056591476356275
 21
0.03162789499190418
 31
0.0
 11
-0.02030691102411445
 21
0.031465765645071364
 31
0.0
 11
-0.020046629225493284
 21
0.031305696136859545
 31
0.0
 11
-0.019785085749094725
 21
0.031147696541587912
 31
0.0
 11
-0.019522297055720676
 21
0.03099177680330122
 31
0.0
 11
-0.01925827968454338
 21
0.030837946735143937
 31
0.0
 11
-0.018993050252064644
 21
0.030686216018742662
 31
0.0
 11
-0.01872662545106991
 21
0.03053659420359675
 31
0.0
 11
-0.018459022049577747
 21
0.030389090706477325
 31
0.0
 11
-0.018190256889784446
 21
0.030243714810834602
 31
0.0
 11
-0.017920346887004092
 21
0.03010047566621361
 31
0.0
 11
-0.01764930902860393
 21
0.02995938228767838
 31
0.0
 11
-0.017377160372935182
 21
0.02982044355524448
 31
0.0
 11
-0.017103918048259555
 21
0.029683668213320247
 31
0.0
 11
-0.016829599251671098
 21
0.029549064870156322
 31
0.0
 11
-0.01655422124801401
 21
0.02941664199730397
 31
0.0
 11
-0.016277801368795898
 21
0.029286407929081833
 31
0.0
 11
-0.01600035701109711
 21
0.02915837086205144
 31
0.0
 11
-0.015721905636475714
 21
0.029032538854501317
 31
0.0
 11
-0.01544246476986858
 21
0.028908919825939804
 31
0.0
 11
-0.015162051998488373
 21
0.028787521556596665
 31
0.0
 11
-0.014880684970716674
 21
0.028668351686933383
 31
0.0
 11
-0.014598381394993268
 21
0.02855141771716233
 31
0.0
 11
-0.01431515903870158
 21
0.02843672700677468
 31
0.0
 11
-0.014031035727050474
 21
0.02832428677407727
 31
0.0
 11
-0.013746029341952386
 21
0.028214104095738258
 31
0.0
 11
-0.01346015782089787
 21
0.02810618590634177
 31
0.0
 11
-0.013173439155826685
 21
0.02800053899795143
 31
0.0
 11
-0.012885891391995408
 21
0.027897170019682924
 31
0.0
 11
-0.012597532626841766
 21
0.02779608547728548
 31
0.0
 11
-0.012308381008845546
 21
0.027697291732732447
 31
0.0
 11
-0.012018454736386486
 21
0.027600795003820865
 31
0.0
 11
-0.01172777205659885
 21
0.02750660136378017
 31
0.0
 11
-0.011436351264223025
 21
0.027414716740889914
 31
0.0
 11
-0.0111442107004541
 21
0.02732514691810671
 31
0.0
 11
-0.01085136875178754
 21
0.027237897532700225
 31
0.0
 11
-0.010557843848861968
 21
0.0271529740758984
 31
0.0
 11
-0.010263654465299194
 21
0.02707038189254186
 31
0.0
 11
-0.009968819116541582
 21
0.026990126180747524
 31
0.0
 11
-0.009673356358686677
 21
0.026912211991581416
 31
0.0
 11
-0.00937728478731937
 21
0.026836644228740818
 31
0.0
 11
-0.00908062303634155
 21
0.026763427648245595
 31
0.0
 11
-0.008783389776799318
 21
0.02669256685813891
 31
0.0
 11
-0.00848560371570793
 21
0.02662406631819718
 31
0.0
 11
-0.008187283594874339
 21
0.026557930339649375
 31
0.0
 11
-0.007888448189717767
 21
0.02649416308490573
 31
0.0
 11
-0.007589116308087895
 21
0.02643276856729573
 31
0.0
 11
-0.0072893067890812836
 21
0.026373750650815545
 31
0.0
 11
-0.00698903850185559
 21
0.026317113049884832
 31
0.0
 11
-0.006688330344442049
 21
0.026262859329112962
 31
0.0
 11
-0.006387201242556072
 21
0.026210992903074683
 31
0.0
 11
-0.006085670148406111
 21
0.026161517036095205
 31
0.0
 11
-0.0057837560395008975
 21
0.02611443484204476
 31
0.0
 11
-0.005481477917454965
 21
0.026069749284142595
 31
0.0
 11
-0.005178854806792851
 21
0.02602746317477054
 31
0.0
 11
-0.004875905753751671
 21
0.025987579175295934
 31
0.0
 11
-0.004572649825082426
 21
0.025950099795904166
 31
0.0
 11
-0.0042691061068499975
 21
0.025915027395440687
 31
0.0
 11
-0.0039652937032319145
 21
0.025882364181262545
 31
0.0
 11
-0.003661231735316036
 21
0.025852112209099453
 31
0.0
 11
-0.0033569393398970235
 21
0.025824273382924423
 31
0.0
 11
-0.0030524356682720523
 21
0.025798849454833933
 31
0.0
 11
-0.002747739885035386
 21
0.025775842024937646
 31
0.0
 11
-0.0024428711668722535
 21
0.02575525254125769
 31
0.0
 11
-0.002137848701351917
 21
0.025737082299637563
 31
0.0
 11
-0.0018326916857200504
 21
0.02572133244366056
 31
0.0
 11
-0.001527419325690563
 21
0.02570800396457776
 31
0.0
 11
-0.001222050834236753
 21
0.02569709770124571
 31
0.0
 11
-0.000916605430382215
 21
0.02568861434007358
 31
0.0
 11
-0.0006111023379911586
 21
0.02568255441497996
 31
0.0
 11
-0.0003055607845585534
 21
0.025678918307359296
 31
0.0
 11
2.3584590572760555e-18
 21
0.025677706246057846
 31
0.0
  0
SPLINE
  5
33
330
17
100
AcDbEntity
  8
0
100
AcDbSpline
 70
0
 71
3
 72
0
 73
0
 74
100
 11
6.006209065863022e-19
 21
0.025677706246057846
 31
0.0
 11
4.170774829200983e-05
 21
0.025677794917927564
 31
0.0
 11
8.341474251166924e-05
 21
0.025678060931933536
 31
0.0
 11
0.0001251202286002626
 21
0.025678504283266252
 31
0.0
 11
0.0001668234525263427
 21
0.025679124963909967
 31
0.0
 11
0.0002085236602993555
 21
0.02567992296264282
 31
0.0
 11
0.00025022009798328533
 21
0.025680898265037076
 31
0.0
 11
0.0002919120117102771
 21
0.025682050853459346
 31
0.0
 11
0.0003335986476942685
 21
0.02568338070707094
 31
0.0
 11
0.00037527925224461843
 21
0.025684887801828225
 31
0.0
 11
0.00041695307177973343
 21
0.025686572110483055
 31
0.0
 11
0.00045861935284069477
 21
0.025688433602583292
 31
0.0
 11
0.0005002773421048721
 21
0.025690472244473312
 31
0.0
 11
0.0005419262863995565
 21
0.02569268799929467
 31
0.0
 11
0.0005835654327155694
 21
0.025695080826986696
 31
0.0
 11
0.0006251940282208784
 21
0.0256976506842873
 31
0.0
 11
0.0006668113202742087
 21
0.02570039752473368
 31
0.0
 11
0.0007084165564386517
 21
0.025703321298663213
 31
0.0
 11
0.0007500089844952674
 21
0.025706421953214324
 31
0.0
 11
0.0007915878524566874
 21
0.02570969943232746
 31
0.0
 11
0.0008331524085807028
 21
0.025713153676746096
 31
0.0
 11
0.0008747019013838675
 21
0.025716784624017792
 31
0.0
 11
0.0009162355796550765
 21
0.025720592208495353
 31
0.0
 11
0.0009577526924691506
 21
0.025724576361337993
 31
0.0
 11
0.0009992524892004121
 21
0.02572873701051259
 31
0.0
 11
0.001040734219536257
 21
0.02573307408079497
 31
0.0
 11
0.001082197133490722
 21
0.0257375874937713
 31
0.0
 11
0.0011236404814180354
 21
0.025742277167839476
 31
0.0
 11
0.0011650635140261852
 21
0.025747143018210607
 31
0.0
 11
0.0012064654823904547
 21
0.025752184956910562
 31
0.0
 11
0.001247845637966969
 21
0.025757402892781535
 31
0.0
 11
0.0012892032326062238
 21
0.025762796731483715
 31
0.0
 11
0.001330537518566617
 21
0.02576836637549698
 31
0.0
 11
0.0013718477485279662
 21
0.02577411172412267
 31
0.0
 11
0.001413133175605013
 21
0.025780032673485394
 31
0.0
 11
0.0014543930533609392
 21
0.02578612911653492
 31
0.0
 11
0.0014956266358208544
 21
0.0257924009430481
 31
0.0
 11
0.0015368331774852839
 21
0.025798848039630885
 31
0.0
 11
0.00157801193334365
 21
0.025805470289720328
 31
0.0
 11
0.0016191621588877375
 21
0.025812267573586754
 31
0.0
 11
0.0016602831101251608
 21
0.02581923976833588
 31
0.0
 11
0.0017013740435928035
 21
0.025826386747911045
 31
0.0
 11
0.0017424342163702752
 21
0.0258337083830955
 31
0.0
 11
0.0017834628860933326
 21
0.025841204541514742
 31
0.0
 11
0.001824459310967306
 21
0.025848875087638896
 31
0.0
 11
0.0018654227497805088
 21
0.02585671988278517
 31
0.0
 11
0.0019063524619176405
 21
0.02586473878512038
 31
0.0
 11
0.0019472477073731766
 21
0.025872931649663485
 31
0.0
 11
0.0019881077467647423
 21
0.02588129832828823
 31
0.0
 11
0.0020289318413464897
 21
0.025889838669725822
 31
0.0
 11
0.00206971925302245
 21
0.025898552519567644
 31
0.0
 11
0.0021104692443598763
 21
0.025907439720268072
 31
0.0
 11
0.002151181078602579
 21
0.025916500111147326
 31
0.0
 11
0.002191854019684245
 21
0.025925733528394338
 31
0.0
 11
0.002232487332241747
 21
0.02593513980506976
 31
0.0
 11
0.0022730802816284352
 21
0.025944718771108946
 31
0.0
 11
0.0023136321339274233
 21
0.025954470253325056
 31
0.0
 11
0.0023541421559648596
 21
0.025964394075412157
 31
0.0
 11
0.0023946096153231768
 21
0.02597449005794845
 31
0.0
 11
0.002435033780354337
 21
0.02598475801839946
 31
0.0
 11
0.0024754139201930625
 21
0.025995197771121394
 31
0.0
 11
0.002515749304770046
 21
0.02600580912736445
 31
0.0
 11
0.0025560392048251464
 21
0.026016591895276272
 31
0.0
 11
0.0025962828919205852
 21
0.026027545879905363
 31
0.0
 11
0.0026364796384541088
 21
0.02603867088320468
 31
0.0
 11
0.002676628717672142
 21
0.02604996670403515
 31
0.0
 11
0.0027167294036829336
 21
0.026061433138169356
 31
0.0
 11
0.0027567809714696746
 21
0.02607306997829519
 31
0.0
 11
0.0027967826969036128
 21
0.026084877014019618
 31
0.0
 11
0.002836733856757135
 21
0.02609685403187251
 31
0.0
 11
0.0028766337287168546
 21
0.02610900081531044
 31
0.0
 11
0.0029164815913966637
 21
0.026121317144720668
 31
0.0
 11
0.0029562767243507776
 21
0.02613380279742505
 31
0.0
 11
0.0029960184080867597
 21
0.026146457547684115
 31
0.0
 11
0.0030357059240785325
 21
0.0261592811667011
 31
0.0
 11
0.003075338554779366
 21
0.026172273422626135
 31
0.0
 11
0.003114915583634847
 21
0.026185434080560392
 31
0.0
 11
0.003154436295095843
 21
0.026198762902560357
 31
0.0
 11
0.0031938999746314355
 21
0.026212259647642122
 31
0.0
 11
0.0032333059087418362
 21
0.02622592407178575
 31
0.0
 11
0.0032726533849712883
 21
0.02623975592793967
 31
0.0
 11
0.0033119416919209508
 21
0.026253754966025163
 31
0.0
 11
0.0033511701192617573
 21
0.026267920932940884
 31
0.0
 11
0.0033903379577472545
 21
0.02628225357256742
 31
0.0
 11
0.003429444499226437
 21
0.026296752625771923
 31
0.0
 11
0.00346848903665654
 21
0.026311417830412822
 31
0.0
 11
0.003507470864115828
 21
0.02632624892134452
 31
0.0
 11
0.003546389276816355
 21
0.02634124563042223
 31
0.0
 11
0.003585243571116709
 21
0.026356407686506798
 31
0.0
 11
0.003624033044534735
 21
0.02637173481546961
 31
0.0
 11
0.003662756995760226
 21
0.02638722674019754
 31
0.0
 11
0.0037014147246676185
 21
0.026402883180597983
 31
0.0
 11
0.0037400055323286397
 21
0.026418703853603898
 31
0.0
 11
0.003778528721024946
 21
0.026434688473178942
 31
0.0
 11
0.0038169835942607412
 21
0.026450836750322615
 31
0.0
 11
0.003855369456775363
 21
0.02646714839307553
 31
0.0
 11
0.003893685614555863
 21
0.02648362310652463
 31
0.0
 11
0.003931931374849537
 21
0.02650026059280859
 31
0.0
 11
0.0039701060461764725
 21
0.026517060551123142
 31
0.0
 11
0.0040082089383420335
 21
0.02653402267772654
 31
0.0
  0
SPLINE
  5
34
330
17
100
AcDbEntity
  8
0
100
AcDbSpline
 70
0
 71
3
 72
0
 73
0
 74
100
 11
0.0040082089383420335
 21
0.02653402267772654
 31
0.0
 11
0.005258572536906678
 21
0.02709252591594883
 31
0.0
 11
0.006507680972799338
 21
0.02764785773513364
 31
0.0
 11
0.007755534246020014
 21
0.028200018135280967
 31
0.0
 11
0.009002132356568706
 21
0.02874900711639082
 31
0.0
 11
0.010247475304445414
 21
0.029294824678463196
 31
0.0
 11
0.011491563089650141
 21
0.029837470821498097
 31
0.0
 11
0.012734395712182883
 21
0.030376945545495512
 31
0.0
 11
0.013975973172043639
 21
0.030913248850455457
 31
0.0
 11
0.01521629546923241
 21
0.03144638073637792
 31
0.0
 11
0.0164553626037492
 21
0.03197634120326291
 31
0.0
 11
0.017693174575594002
 21
0.032503130251110415
 31
0.0
 11
0.018929731384766824
 21
0.033026747879920444
 31
0.0
 11
0.020165033031267668
 21
0.033547194089693
 31
0.0
 11
0.02139907951509652
 21
0.03406446888042808
 31
0.0
 11
0.02263187083625339
 21
0.034578572252125676
 31
0.0
 11
0.02386340699473828
 21
0.03508950420478579
 31
0.0
 11
0.02509368799055118
 21
0.03559726473840844
 31
0.0
 11
0.026322713823692098
 21
0.036101853852993596
 31
0.0
 11
0.027550484494161035
 21
0.03660327154854129
 31
0.0
 11
0.02877700000195799
 21
0.0371015178250515
 31
0.0
 11
0.030002260347082952
 21
0.03759659268252423
 31
0.0
 11
0.031226265529535936
 21
0.03808849612095948
 31
0.0
 11
0.03244901554931694
 21
0.03857722814035726
 31
0.0
 11
0.033670510406425956
 21
0.03906278874071755
 31
0.0
 11
0.03489075010086298
 21
0.039545177922040375
 31
0.0
 11
0.03610973463262803
 21
0.04002439568432572
 31
0.0
 11
0.0373274640017211
 21
0.04050044202757359
 31
0.0
 11
0.03854393820814218
 21
0.04097331695178397
 31
0.0
 11
0.03975915725189127
 21
0.04144302045695687
 31
0.0
 11
0.04097312113296839
 21
0.0419095525430923
 31
0.0
 11
0.04218582985137352
 21
0.04237291321019025
 31
0.0
 11
0.04339728340710666
 21
0.04283310245825073
 31
0.0
 11
0.044607481800167825
 21
0.04329012028727373
 31
0.0
 11
0.04581642503055701
 21
0.04374396669725925
 31
0.0
 11
0.0470241130982742
 21
0.04419464168820728
 31
0.0
 11
0.048230546003319406
 21
0.04464214526011785
 31
0.0
 11
0.049435723745692634
 21
0.04508647741299094
 31
0.0
 11
0.05063964632539388
 21
0.045527638146826546
 31
0.0
 11
0.05184231374242313
 21
0.04596562746162467
 31
0.0
 11
0.05304372599678041
 21
0.046400445357385335
 31
0.0
 11
0.05424388308846571
 21
0.04683209183410851
 31
0.0
 11
0.05544278501747901
 21
0.0472605668917942
 31
0.0
 11
0.056640431783820326
 21
0.047685870530442424
 31
0.0
 11
0.057836823387489675
 21
0.04810800275005317
 31
0.0
 11
0.059031959828487024
 21
0.048526963550626426
 31
0.0
 11
0.06022584110681239
 21
0.04894275293216221
 31
0.0
 11
0.06141846722246579
 21
0.04935537089466052
 31
0.0
 11
0.0626098381754472
 21
0.04976481743812135
 31
0.0
 11
0.0637999539657566
 21
0.0501710925625447
 31
0.0
 11
0.06498881459339403
 21
0.050574196267930575
 31
0.0
 11
0.0661764200583595
 21
0.05097412855427898
 31
0.0
 11
0.06736277036065297
 21
0.05137088942158989
 31
0.0
 11
0.06854786550027445
 21
0.05176447886986332
 31
0.0
 11
0.06973170547722396
 21
0.0521548968990993
 31
0.0
 11
0.07091429029150145
 21
0.05254214350929778
 31
0.0
 11
0.07209561994310701
 21
0.05292621870045879
 31
0.0
 11
0.07327569443204056
 21
0.05330712247258232
 31
0.0
 11
0.07445451375830212
 21
0.053684854825668364
 31
0.0
 11
0.07563207792189171
 21
0.05405941575971695
 31
0.0
 11
0.0768083869228093
 21
0.054430805274728045
 31
0.0
 11
0.07798344076105493
 21
0.05479902337070166
 31
0.0
 11
0.07915723943662854
 21
0.0551640700476378
 31
0.0
 11
0.08032978294953019
 21
0.055525945305536464
 31
0.0
 11
0.08150107129975986
 21
0.05588464914439765
 31
0.0
 11
0.08267110448731753
 21
0.05624018156422136
 31
0.0
 11
0.08383988251220323
 21
0.05659254256500759
 31
0.0
 11
0.08500740537441695
 21
0.05694173214675634
 31
0.0
 11
0.08617367307395866
 21
0.05728775030946761
 31
0.0
 11
0.0873386856108284
 21
0.057630597053141414
 31
0.0
 11
0.08850244298502617
 21
0.05797027237777773
 31
0.0
 11
0.08966494519655194
 21
0.05830677628337656
 31
0.0
 11
0.09082619224540574
 21
0.05864010876993792
 31
0.0
 11
0.09198618413158755
 21
0.058970269837461814
 31
0.0
 11
0.09314492085509737
 21
0.05929725948594822
 31
0.0
 11
0.09430240241593524
 21
0.05962107771539716
 31
0.0
 11
0.09545862881410108
 21
0.0599417245258086
 31
0.0
 11
0.09661360004959493
 21
0.06025919991718258
 31
0.0
 11
0.09776731612241683
 21
0.06057350388951908
 31
0.0
 11
0.09891977703256674
 21
0.06088463644281809
 31
0.0
 11
0.10007098278004466
 21
0.061192597577079635
 31
0.0
 11
0.1012209333648506
 21
0.0614973872923037
 31
0.0
 11
0.10236962878698455
 21
0.06179900558849029
 31
0.0
 11
0.10351706904644652
 21
0.062097452465639386
 31
0.0
 11
0.10466325414323652
 21
0.06239272792375102
 31
0.0
 11
0.10580818407735451
 21
0.06268483196282518
 31
0.0
 11
0.10695185884880053
 21
0.06297376458286184
 31
0.0
 11
0.10809427845757458
 21
0.06325952578386104
 31
0.0
 11
0.10923544290367661
 21
0.06354211556582275
 31
0.0
 11
0.11037535218710669
 21
0.063821533928747
 31
0.0
 11
0.11151400630786476
 21
0.06409778087263375
 31
0.0
 11
0.11265140526595087
 21
0.06437085639748304
 31
0.0
 11
0.11378754906136498
 21
0.06464076050329484
 31
0.0
 11
0.11492243769410712
 21
0.06490749319006918
 31
0.0
 11
0.11605607116417727
 21
0.06517105445780602
 31
0.0
 11
0.11718844947157542
 21
0.0654314443065054
 31
0.0
 11
0.11831957261630162
 21
0.0656886627361673
 31
0.0
 11
0.11944944059835581
 21
0.06594270974679171
 31
0.0
 11
0.120578053417738
 21
0.06619358533837866
 31
0.0
 11
0.12170541107444824
 21
0.06644128951092812
 31
0.0
  0
ENDSEC
  0
SECTION
  2
OBJECTS
  0
DICTIONARY
  5
A
330
0
100
AcDbDictionary
281
1
  3
ACAD_COLOR
350
B
  3
ACAD_GROUP
350
C
  3
ACAD_LAYOUT
350
D
  3
ACAD_MATERIAL
350
E
  3
ACAD_MLEADERSTYLE
350
F
  3
ACAD_MLINESTYLE
350
10
  3
ACAD_PLOTSETTINGS
350
11
  3
ACAD_PLOTSTYLENAME
350
12
  3
ACAD_SCALELIST
350
14
  3
ACAD_TABLESTYLE
350
15
  3
ACAD_VISUALSTYLE
350
16
  3
EZDXF_META
350
2D
  0
DICTIONARY
  5
B
330
A
100
AcDbDictionary
281
1
  0
DICTIONARY
  5
C
330
A
100
AcDbDictionary
281
1
  0
DICTIONARY
  5
D
330
A
100
AcDbDictionary
281
1
  3
Model
350
1A
  3
Layout1
350
1E
  0
DICTIONARY
  5
E
330
A
100
AcDbDictionary
281
1
  3
ByBlock
350
1F
  3
ByLayer
350
20
  3
Global
350
21
  0
DICTIONARY
  5
F
330
A
100
AcDbDictionary
281
1
  3
Standard
350
2C
  0
DICTIONARY
  5
10
330
A
100
AcDbDictionary
281
1
  3
Standard
350
22
  0
DICTIONARY
  5
11
330
A
100
AcDbDictionary
281
1
  0
ACDBDICTIONARYWDFLT
  5
12
330
A
100
AcDbDictionary
281
1
  3
Normal
350
13
100
AcDbDictionaryWithDefault
340
13
  0
ACDBPLACEHOLDER
  5
13
330
12
  0
DICTIONARY
  5
14
330
A
100
AcDbDictionary
281
1
  0
DICTIONARY
  5
15
330
A
100
AcDbDictionary
281
1
  0
DICTIONARY
  5
16
330
A
100
AcDbDictionary
281
1
  0
LAYOUT
  5
1A
330
D
100
AcDbPlotSettings
  1

  4
A3
  6

 40
7.5
 41
20.0
 42
7.5
 43
20.0
 44
420.0
 45
297.0
 46
0.0
 47
0.0
 48
0.0
 49
0.0
140
0.0
141
0.0
142
1.0
143
1.0
 70
1024
 72
1
 73
0
 74
5
  7

 75
16
 76
0
 77
2
 78
300
147
1.0
148
0.0
149
0.0
100
AcDbLayout
  1
Model
 70
1
 71
0
 10
0.0
 20
0.0
 11
420.0
 21
297.0
 12
0.0
 22
0.0
 32
0.0
 14
1e+20
 24
1e+20
 34
1e+20
 15
-1e+20
 25
-1e+20
 35
-1e+20
146
0.0
 13
0.0
 23
0.0
 33
0.0
 16
1.0
 26
0.0
 36
0.0
 17
0.0
 27
1.0
 37
0.0
 76
1
330
17
  0
LAYOUT
  5
1E
330
D
100
AcDbPlotSettings
  1

  4
A3
  6

 40
7.5
 41
20.0
 42
7.5
 43
20.0
 44
420.0
 45
297.0
 46
0.0
 47
0.0
 48
0.0
 49
0.0
140
0.0
141
0.0
142
1.0
143
1.0
 70
0
 72
1
 73
0
 74
5
  7

 75
16
 76
0
 77
2
 78
300
147
1.0
148
0.0
149
0.0
100
AcDbLayout
  1
Layout1
 70
1
 71
1
 10
0.0
 20
0.0
 11
420.0
 21
297.0
 12
0.0
 22
0.0
 32
0.0
 14
1e+20
 24
1e+20
 34
1e+20
 15
-1e+20
 25
-1e+20
 35
-1e+20
146
0.0
 13
0.0
 23
0.0
 33
0.0
 16
1.0
 26
0.0
 36
0.0
 17
0.0
 27
1.0
 37
0.0
 76
1
330
1B
  0
MATERIAL
  5
1F
102
{ACAD_REACTORS
330
E
102
}
330
E
100
AcDbMaterial
  1
ByBlock
  2

 70
0
 40
1.0
 71
1
 41
1.0
 91
-1023410177
 42
1.0
 72
1
  3

 73
1
 74
1
 75
1
 44
0.5
 73
0
 45
1.0
 46
1.0
 77
1
  4

 78
1
 79
1
170
1
 48
1.0
171
1
  6

172
1
173
1
174
1
140
1.0
141
1.0
175
1
  7

176
1
177
1
178
1
143
1.0
179
1
  8

270
1
271
1
272
1
145
1.0
146
1.0
273
1
  9

274
1
275
1
276
1
 42
1.0
 72
1
  3

 73
1
 74
1
 75
1
 94
63
  0
MATERIAL
  5
20
102
{ACAD_REACTORS
330
E
102
}
330
E
100
AcDbMaterial
  1
ByLayer
  2

 70
0
 40
1.0
 71
1
 41
1.0
 91
-1023410177
 42
1.0
 72
1
  3

 73
1
 74
1
 75
1
 44
0.5
 73
0
 45
1.0
 46
1.0
 77
1
  4

 78
1
 79
1
170
1
 48
1.0
171
1
  6

172
1
173
1
174
1
140
1.0
141
1.0
175
1
  7

176
1
177
1
178
1
143
1.0
179
1
  8

270
1
271
1
272
1
145
1.0
146
1.0
273
1
  9

274
1
275
1
276
1
 42
1.0
 72
1
  3

 73
1
 74
1
 75
1
 94
63
  0
MATERIAL
  5
21
102
{ACAD_REACTORS
330
E
102
}
330
E
100
AcDbMaterial
  1
Global
  2

 70
0
 40
1.0
 71
1
 41
1.0
 91
-1023410177
 42
1.0
 72
1
  3

 73
1
 74
1
 75
1
 44
0.5
 73
0
 45
1.0
 46
1.0
 77
1
  4

 78
1
 79
1
170
1
 48
1.0
171
1
  6

172
1
173
1
174
1
140
1.0
141
1.0
175
1
  7

176
1
177
1
178
1
143
1.0
179
1
  8

270
1
271
1
272
1
145
1.0
146
1.0
273
1
  9

274
1
275
1
276
1
 42
1.0
 72
1
  3

 73
1
 74
1
 75
1
 94
63
  0
MLINESTYLE
  5
22
102
{ACAD_REACTORS
330
10
102
}
330
10
100
AcDbMlineStyle
  2
Standard
 70
0
  3

 62
256
 51
90.0
 52
90.0
 71
2
 49
0.5
 62
256
  6
BYLAYER
 49
-0.5
 62
256
  6
BYLAYER
  0
MLEADERSTYLE
  5
2C
102
{ACAD_REACTORS
330
F
102
}
330
F
100
AcDbMLeaderStyle
179
2
170
2
171
1
172
0
 90
2
 40
0.0
 41
0.0
173
1
 91
-1056964608
 92
-2
290
1
 42
2.0
291
1
 43
8.0
  3
Standard
 44
4.0
300

342
29
174
1
175
1
176
0
178
1
 93
-1056964608
 45
4.0
292
0
297
0
 46
4.0
 94
-1056964608
 47
1.0
 49
1.0
140
1.0
294
1
141
0.0
177
0
142
1.0
295
0
296
0
143
3.75
271
0
272
9
273
9
  0
DICTIONARY
  5
2D
330
A
100
AcDbDictionary
280
1
281
1
  3
CREATED_BY_EZDXF
350
2E
  3
WRITTEN_BY_EZDXF
350
37
  0
DICTIONARYVAR
  5
2E
330
2D
100
DictionaryVariables
280
0
  1
1.4.4 @ 2026-06-10T15:37:26.423686+00:00
  0
DICTIONARYVAR
  5
37
330
2D
100
DictionaryVariables
280
0
  1
1.4.4 @ 2026-06-10T15:37:26.424521+00:00
  0
ENDSEC
  0
EOF
