**ABCDEFGHIJKLMNOPQRSTUVWXYZabcdefghijklmnopqrstuvwxyz**************************
**PARASOLID !"#$%&'()*+,-./:;<=>?@[\]^_`{|}~0123456789**************************
**PART1;
MC=AMD64;
MC_MODEL=Intel64 Family 6 Model 183 Stepping 1, GenuineIntel;
MC_ID=unknown;
OS=Windows_NT;
OS_RELEASE=unknown;
FRU=Parasolid Version 35.1, build 251, 11- 4-2023;
APPL=SOLIDWORKS 2024-2024157;
SITE=;
USER=unknown;
FORMAT=text;
GUISE=transmit;
KEY=AN_fitting_inlet;
FILE=AN_fitting_inlet.x_t;
DATE=Sun Jan 19 16:40:00 2025;
**PART2;
SCH=SCH_3501251_35102;
USFLD_SIZE=0;
**PART3;
**END_OF_HEADER*****************************************************************
T51 : TRANSMIT FILE created by modeller version 350125123 SCH_3501251_35102_1300
6231 0 12 36 CCCI7 lattice222 0 CCCI4 mesh1006 0 I8 polyline1008 0 CCCCCCCDI5 ow
ner1040 0 CCCI16 boundary_lattice222 0 CCCI13 boundary_mesh1006 0 I17 boundary_p
olyline1008 0 CCCA16 index_map_offset0 0 1 dA9 index_map82 0 A17 node_id_index_m
ap82 0 A20 schema_embedding_map82 0 A5 child12 0 A14 lowest_node_id0 0 1 dA16 me
sh_offset_data206 0 Z1 868 2 3 0 0 0 0 0 0 0 1e3 1e-8 0 4 0 1 0 1 1 5 0 6 7 0 0
 0 8 9 0 0 0 0 0 0 0 0 81 255 2 2 822 10 1 11 0 0 0 0 12 70 11 CI9 list_type0 0
 1 uI10 notransmit0 0 1 lCCCDCCDI12 finger_index0 0 1 dI12 finger_block1012 0 CZ
3 0 4 T1 0 0 10 20 1 13 13 13 255 5 31 0 1 0 14 0 0 15 0 51 255 6 30 0 16 17 0 0
 -0 .0127 0 0 -1 0 .04318 0 0 -1 31 255 7 155 0 9 18 0 0 +0 .0161798 0 0 1 0 0 0
 1 .0150876 19 9 CCCCCCI5 frame230 0 CA5 owner12 0 Z8 9 0 1 15 0 19 0 V0 16 255
 9 152 0 ?20 0 21 7 0 0 1 17 255 20 0 22 20 20 0 23 9 0 0 +16 21 58 0 ?24 9 25 2
6 0 0 1 17 24 0 27 24 24 0 28 21 0 0 +16 25 5 0 ?29 21 30 31 0 0 1 31 26 87 0 21
 32 31 0 +0 .0127 0 0 1 0 0 0 1 .0150876 31 32 140 0 33 34 26 0 -0 0 0 0 1 0 0 0
 1 .010668 31 31 7 0 25 26 18 0 +0 .0127 0 0 1 0 0 0 1 .04318 31 18 25 0 30 31 7
 0 +0 0 0 0 1 0 0 0 1 .04318 16 30 20 0 ?35 25 33 18 0 0 1 17 35 0 36 35 35 0 37
 30 0 0 +16 33 122 0 ?38 30 39 32 0 0 1 17 38 0 40 38 38 0 41 33 0 0 +16 39 119
 0 ?42 33 43 34 0 0 1 17 42 0 44 42 42 0 45 39 0 0 +16 43 167 0 ?46 39 47 48 0 0
 1 31 34 141 0 39 49 32 0 +0 .035814 0 0 1 0 0 0 1 .010668 31 49 203 0 47 48 34
 0 +0 .0161798 0 0 1 0 0 0 1 .016637 16 47 173 0 ?50 43 51 49 0 0 1 31 48 204 0
 43 52 49 0 +0 .0278892 0 0 1 0 0 0 1 .016637 31 52 206 0 51 53 48 0 +0 .0278892
 0 0 1 0 0 0 1 .0150876 16 51 176 0 ?54 47 55 52 0 0 1 31 53 274 0 55 56 52 0 +0
 .0326286943146645 0 0 -1 0 0 0 -1 .0150876 16 55 255 0 ?57 51 58 53 0 0 1 31 56
 275 0 58 59 53 0 +0 .035814 0 0 -1 0 0 0 -1 .0126873 16 58 253 0 ?60 55 61 56 0
 0 1 31 59 340 0 62 63 56 0 +0 0 0 0 -1 0 0 0 -1 .0151892 16 62 310 0 ?64 61 65
 59 0 0 1 31 63 341 0 61 66 59 0 +0 .00126238 0 0 -1 0 0 0 -1 .0151892 16 61 304
 0 ?67 58 62 63 0 0 1 31 66 342 0 68 69 63 0 +0 0 0 0 -1 0 0 0 -1 .0127 16 68 31
3 0 ?70 65 71 66 0 0 1 31 69 343 0 65 72 66 0 +0 .00126238 0 0 -1 0 0 0 -1 .0127
 16 65 307 0 ?73 62 68 69 0 0 1 31 72 403 0 74 75 69 0 -0 .0127 .03175 0 1 0 0 0
 1 .003175 16 74 382 0 ?76 71 77 72 0 0 1 31 75 404 0 71 78 72 0 +0 0 .03175 0 -
1 0 0 0 -1 .003175 16 71 383 0 ?79 68 74 75 0 0 1 31 78 667 0 80 81 75 0 -.02245
064030267295 .0127 .02245064030267285 0 1 0 0 0 1 .003175 16 80 616 0 ?82 77 83
 78 0 0 1 31 81 668 0 77 84 78 0 +.02245064030267295 0 .02245064030267285 0 -1 0
 -.707106781186549 0 -.707106781186546 .003175 16 77 617 0 ?85 74 80 81 0 0 1 31
 84 669 0 86 87 81 0 --.0224506403026731 .0127 -.0224506403026727 0 1 0 0 0 1 .0
03175 16 86 565 0 ?88 89 90 84 0 0 1 31 87 670 0 89 91 84 0 +-.0224506403026731
 0 -.0224506403026727 0 -1 0 .707106781186554 0 .707106781186541 .003175 16 89 5
66 0 ?92 93 86 87 0 0 1 31 91 671 0 93 94 87 0 -0 .0127 -.03175 0 1 0 0 0 1 .003
175 16 93 548 0 ?95 96 89 91 0 0 1 31 94 672 0 96 97 91 0 +0 0 -.03175 0 -1 0 0
 0 1 .003175 16 96 549 0 ?98 99 93 94 0 0 1 31 97 673 0 99 100 94 0 -.0224506403
0267275 .0127 -.022450640302673 0 1 0 0 0 1 .003175 16 99 531 0 ?101 102 96 97 0
 0 1 31 100 674 0 102 103 97 0 +.02245064030267275 0 -.022450640302673 0 -1 0 -.
707106781186544 0 .707106781186551 .003175 16 102 532 0 ?104 105 99 100 0 0 1 31
 103 675 0 105 106 100 0 -.03175 .0127 -1108545325082694e-31 0 1 0 0 0 1 .003175
 16 105 514 0 ?107 83 102 103 0 0 1 31 106 676 0 83 108 103 0 +.03175 0 -1108545
325082694e-31 0 -1 0 -1 0 3491481338843135e-30 .003175 16 83 515 0 ?109 80 105 1
06 0 0 1 31 108 677 0 110 111 106 0 --.0224506403026726 .0127 .02245064030267315
 0 1 0 0 0 1 .003175 16 110 599 0 ?112 113 0 108 0 0 1 31 111 678 0 113 114 108
 0 +-.0224506403026726 0 .02245064030267315 0 -1 0 .707106781186539 0 -.70710678
1186556 .003175 16 113 600 0 ?115 116 110 111 0 0 1 31 114 679 0 116 117 111 0 -
-.03175 .0127 3325635975248085e-31 0 1 0 0 0 1 .003175 16 116 582 0 ?118 90 113
 114 0 0 1 31 117 680 0 90 0 114 0 +-.03175 0 3325635975248085e-31 0 -1 0 1 0 -1
04744440165294e-28 .003175 16 90 583 0 ?119 86 116 117 0 0 1 17 119 0 120 119 11
9 0 121 90 0 0 +15 255 120 590 0 119 122 0 17 121 0 123 121 121 0 119 90 0 0 -15
 123 430 0 121 124 125 14 255 124 18 126 ?127 128 129 5 17 -14 14 127 128 19 15
 125 423 0 130 124 131 17 130 0 125 130 130 0 115 113 0 0 -15 131 416 0 132 124
 133 17 132 0 131 132 132 0 85 77 0 0 -15 133 368 0 134 124 135 17 134 0 133 134
 134 0 79 71 0 0 -15 135 297 0 136 124 137 17 136 0 135 136 136 0 64 62 0 0 -15
 137 19 0 37 124 0 17 37 0 137 37 37 0 35 30 0 0 -17 64 0 138 64 64 0 136 62 0 0
 +15 138 320 0 64 139 0 14 139 316 140 ?141 142 143 5 144 -0 0 141 142 19 81 1 1
40 826 145 139 146 0 126 147 148 14 141 321 147 ?149 139 150 5 151 +0 0 149 139
 19 14 142 264 152 ?139 153 154 5 155 -0 0 139 153 19 15 143 319 0 156 139 138 5
1 144 336 0 139 151 155 0 +0 .00126238 0 0 -1 0 .0151892 0 0 -1 13 19 10 0 0 0 0
 0 0 8 14 14 14 293 157 ?158 0 159 5 17 -124 124 158 0 19 81 1 157 832 145 14 16
0 0 152 161 162 14 158 241 161 ?163 14 164 5 165 +0 0 163 14 19 15 159 112 0 41
 14 166 50 255 17 24 0 124 167 6 0 +0 0 0 0 1 0 0 0 1 50 167 3 0 128 168 17 0 +0
 .0127 0 0 1 0 0 0 1 14 128 1 169 ?124 16 170 5 167 +0 0 124 16 19 51 168 84 0 1
27 165 167 0 -0 .035814 0 0 -1 0 .0150876 0 0 -1 14 127 71 171 ?172 124 173 5 16
8 -163 163 172 124 19 50 165 86 0 158 174 168 0 +0 .035814 0 0 1 0 0 0 1 51 174
 137 0 172 175 165 0 +0 -1000000000001e-18 0 0 1 0 .010668 0 0 1 14 172 123 176
 ?177 127 44 5 174 -0 0 177 127 19 51 175 199 0 153 178 174 0 -0 .0278892 0 0 -1
 0 .016637 0 0 -1 14 153 187 179 ?142 180 181 5 175 -0 0 142 180 19 50 178 200 0
 180 182 175 0 +0 .0161798 0 0 1 0 0 0 1 14 180 183 183 ?153 177 184 5 178 -0 0
 153 177 19 50 182 201 0 177 155 178 0 +0 .0278892 0 0 1 0 0 0 1 14 177 179 185
 ?180 172 186 5 182 +0 0 180 172 19 52 255 155 272 0 142 144 182 0 -0 .035814 0
 0 -1 0 .0126873 .601815023152043 .798635510047297 0 0 -1 81 1 185 846 145 177 1
87 0 183 188 189 15 186 181 0 46 177 190 17 46 0 186 46 46 0 191 43 0 0 +15 190
 182 0 192 177 0 17 192 0 190 192 192 0 54 51 0 0 -17 54 0 193 54 54 0 192 51 0
 0 +15 193 160 0 54 127 0 17 191 0 181 191 191 0 46 43 0 0 -15 181 190 0 191 153
 194 15 194 191 0 50 153 0 17 50 0 194 50 50 0 195 47 0 0 +17 195 0 184 195 195
 0 50 47 0 0 -15 184 185 0 195 180 22 15 22 186 0 20 180 0 80 7 CCCCCDI12 legal_
owners0 16 1 lCZ1 145 196 197 9000 1 1 1 1 1 1 1 1 0 FFFFTFTFFFFFFFFF1 81 3 187
 845 198 177 199 185 200 201 202 0 0 81 1 183 844 145 180 200 0 179 185 203 81 1
 188 848 145 149 201 0 185 204 205 82 255 1 189 1130823823 14 149 329 188 ?206 1
41 207 5 208 +0 0 206 141 19 81 3 201 847 198 149 209 188 187 210 211 0 0 81 1 2
04 850 145 206 210 0 188 212 213 82 1 205 -1329528663 14 206 386 204 ?214 149 21
5 5 216 -0 0 214 149 19 81 3 210 849 198 206 217 204 201 218 219 0 0 81 1 212 85
2 145 214 218 0 204 220 221 82 1 213 -1734082372 14 214 620 212 ?222 206 223 5 2
24 -0 0 222 206 19 81 3 218 851 198 214 225 212 210 226 227 0 0 81 1 220 854 145
 222 226 0 212 228 229 82 1 221 -1331822402 14 222 603 220 ?122 214 230 5 231 -0
 0 122 214 19 81 3 226 853 198 222 232 220 218 233 234 0 0 81 1 228 856 145 122
 233 0 220 235 236 82 1 229 -1131347778 14 122 586 228 ?237 222 238 5 239 -0 0 2
37 222 19 81 3 233 855 198 122 240 228 226 241 242 0 0 81 1 235 858 145 237 241
 0 228 243 244 82 1 236 -1164377922 14 237 569 235 ?245 122 246 5 247 -0 0 245 1
22 19 81 3 241 857 198 237 248 235 233 249 250 0 0 81 1 243 860 145 245 249 0 23
5 251 252 82 1 244 -1197408066 14 245 552 243 ?253 237 254 5 255 -0 0 253 237 19
 81 3 249 859 198 245 256 243 241 257 258 0 0 81 1 251 862 145 253 257 0 243 259
 260 82 1 252 -1230438210 14 253 535 251 ?261 245 262 5 263 -0 0 261 245 19 81 3
 257 861 198 253 264 251 249 265 266 0 0 81 1 259 864 145 261 265 0 251 267 268
 82 1 260 -1263468354 14 261 518 259 ?0 253 269 5 270 -0 0 0 253 19 81 3 265 863
 198 261 271 259 257 272 273 0 0 81 1 267 866 145 16 272 0 259 274 275 82 1 268
 -1296498498 14 16 27 267 ?128 163 276 5 6 -0 0 128 163 19 81 3 272 865 198 16 2
77 267 265 278 279 0 0 81 1 274 868 145 163 278 0 267 0 280 82 1 275 -1297350551
 14 163 156 274 ?16 158 27 5 168 -127 127 16 158 19 81 3 278 867 198 163 281 274
 272 0 282 0 0 82 1 280 1136459919 80 3 198 283 284 9000 0 0 0 0 3 5 0 0 0 FFFFT
FFFFFFFFFFF1 1 1 81 1 281 731 285 163 0 278 286 277 287 82 6 282 0 997590993 311
45011 0 0 0 80 1 285 0 288 8001 0 0 0 0 3 5 0 0 0 FFFFTFTFFFFFFFFF2 81 1 286 730
 285 158 0 289 290 281 291 81 1 277 732 285 16 0 272 281 292 293 83 255 3 287 .7
92156862745098 .819607843137255 .933333333333333 81 1 292 733 285 128 0 294 277
 295 296 83 3 293 .792156862745098 .819607843137255 .933333333333333 81 3 294 83
5 198 128 292 169 289 297 298 0 0 81 1 295 734 285 124 0 299 292 300 301 83 3 29
6 .792156862745098 .819607843137255 .933333333333333 81 3 299 823 198 124 295 12
6 0 146 302 0 0 81 1 300 735 285 127 0 297 295 303 304 83 3 301 .792156862745098
 .819607843137255 .933333333333333 81 3 297 837 198 127 300 171 294 305 306 0 0
 81 1 303 736 285 172 0 305 300 199 307 83 3 304 .792156862745098 .8196078431372
55 .933333333333333 81 3 305 839 198 172 303 176 297 308 309 0 0 81 1 199 737 28
5 177 0 187 303 310 311 83 3 307 .792156862745098 .819607843137255 .933333333333
333 81 1 310 738 285 180 0 200 199 312 313 83 3 311 .792156862745098 .8196078431
37255 .933333333333333 81 3 200 843 198 180 310 183 308 187 314 0 0 81 1 312 739
 285 153 0 308 310 315 316 83 3 313 .792156862745098 .819607843137255 .933333333
333333 81 3 308 841 198 153 312 179 305 200 317 0 0 81 1 315 740 285 142 0 318 3
12 319 320 83 3 316 .792156862745098 .819607843137255 .933333333333333 81 3 318
 829 198 142 315 152 321 160 322 0 0 81 1 319 741 285 139 0 146 315 323 324 83 3
 320 .792156862745098 .819607843137255 .933333333333333 81 3 146 825 198 139 319
 140 299 321 325 0 0 81 1 323 742 285 141 0 321 319 209 326 83 3 324 .7921568627
45098 .819607843137255 .933333333333333 81 3 321 827 198 141 323 147 146 318 327
 0 0 81 1 209 743 285 149 0 201 323 217 328 83 3 326 .792156862745098 .819607843
137255 .933333333333333 81 1 217 744 285 206 0 210 209 225 329 83 3 328 .7921568
62745098 .819607843137255 .933333333333333 81 1 225 745 285 214 0 218 217 232 33
0 83 3 329 .792156862745098 .819607843137255 .933333333333333 81 1 232 746 285 2
22 0 226 225 240 331 83 3 330 .792156862745098 .819607843137255 .933333333333333
 81 1 240 747 285 122 0 233 232 248 332 83 3 331 .792156862745098 .8196078431372
55 .933333333333333 81 1 248 748 285 237 0 241 240 256 333 83 3 332 .79215686274
5098 .819607843137255 .933333333333333 81 1 256 749 285 245 0 249 248 264 334 83
 3 333 .792156862745098 .819607843137255 .933333333333333 81 1 264 750 285 253 0
 257 256 271 335 83 3 334 .792156862745098 .819607843137255 .933333333333333 81
 1 271 751 285 261 0 265 264 0 336 83 3 335 .792156862745098 .819607843137255 .9
33333333333333 83 3 336 .792156862745098 .819607843137255 .933333333333333 81 1
 147 828 145 141 321 0 140 152 337 82 6 327 0 -853213566 31145013 0 0 0 81 1 152
 830 145 142 318 0 147 157 338 82 1 337 -1327497047 82 1 338 -1555169122 82 6 32
5 0 -853213566 31145013 0 0 0 81 3 160 831 198 14 290 157 318 289 339 0 0 82 6 3
22 0 1826760553 31145012 0 0 0 81 1 290 729 285 14 0 160 0 286 340 81 3 289 833
 198 158 286 161 160 294 341 0 0 82 6 339 0 -853213566 31145013 0 0 0 81 1 161 8
34 145 158 289 0 157 169 342 82 6 341 0 1826760553 31145012 0 0 0 81 1 169 836 1
45 128 294 0 161 171 343 82 1 342 -1551630178 81 1 171 838 145 127 297 0 169 176
 344 82 1 343 -1299316546 81 1 176 840 145 172 305 0 171 179 345 82 1 344 160346
9470 81 1 179 842 145 153 308 0 176 183 346 82 1 345 -1393033087 82 1 346 112446
6831 83 3 340 .792156862745098 .819607843137255 .933333333333333 82 6 317 0 9975
90993 31145011 0 0 0 82 6 314 0 997590993 31145011 0 0 0 82 6 309 0 1902140028 3
1145010 0 0 0 82 6 306 0 1826760553 31145012 0 0 0 81 1 126 824 145 124 299 0 0
 140 347 82 6 302 0 -527893817 31145019 0 0 0 82 1 347 -1297612610 82 6 298 0 -5
27893817 31145019 0 0 0 83 3 291 .792156862745098 .819607843137255 .933333333333
333 79 255 15 288 SDL/TYSA_COLOUR79 18 284 DOWNSTREAM_FACE_ID15 27 75 0 24 163 3
48 15 348 154 0 23 163 0 17 23 0 348 23 23 0 20 9 0 0 -82 6 279 0 -89653595 3114
5007 0 0 0 15 276 26 0 349 16 36 17 349 0 276 349 349 0 29 25 0 0 -15 36 28 0 35
 16 0 17 29 0 350 29 29 0 349 25 0 0 +15 350 4 0 29 128 0 82 6 273 0 -527893817
 31145019 0 0 0 15 269 521 0 351 261 352 51 270 658 0 261 231 263 0 +.03175 .035
815 -1108545325082694e-31 0 -1 0 .003175 0 0 -1 51 231 661 0 222 239 270 0 +-.02
24506403026726 .035815 .02245064030267315 0 -1 0 .003175 0 0 -1 51 263 655 0 253
 270 255 0 +.02245064030267275 .035815 -.022450640302673 0 -1 0 .003175 0 0 -1 5
1 255 652 0 245 263 247 0 +0 .035815 -.03175 0 -1 0 .003175 0 0 -1 51 247 649 0
 237 255 224 0 +-.0224506403026731 .035815 -.0224506403026727 0 -1 0 .003175 0 0
 -1 51 224 646 0 214 247 216 0 +.02245064030267295 .035815 .02245064030267285 0
 -1 0 .003175 0 0 -1 51 216 400 0 206 224 208 0 +0 .035815 .03175 0 -1 0 .003175
 0 0 -1 51 208 339 0 149 216 151 0 +0 .00126238 0 0 -1 0 .0127 0 0 -1 50 151 338
 0 141 208 144 0 +0 .00126238 0 0 -1 0 0 0 -1 51 239 664 0 122 0 231 0 +-.03175
 .035815 3325635975248085e-31 0 -1 0 .003175 0 0 -1 17 351 0 269 351 351 0 107 1
05 0 0 -15 352 522 0 109 261 0 17 109 0 352 109 109 0 353 83 0 0 +17 353 0 129 3
53 353 0 109 83 0 0 -15 129 458 0 353 124 354 15 354 451 0 355 124 356 17 355 0
 354 355 355 0 104 102 0 0 -15 356 444 0 357 124 358 17 357 0 356 357 357 0 98 9
6 0 0 -15 358 437 0 359 124 123 17 359 0 358 359 359 0 92 89 0 0 -17 92 0 360 92
 92 0 359 89 0 0 +15 360 573 0 92 237 0 17 98 0 361 98 98 0 357 96 0 0 +15 361 5
56 0 98 245 0 17 104 0 362 104 104 0 355 102 0 0 +15 362 539 0 104 253 0 17 107
 0 170 107 107 0 351 105 0 0 +15 170 508 0 107 128 363 15 363 501 0 101 128 364
 17 101 0 363 101 101 0 365 99 0 0 +15 364 494 0 95 128 366 17 95 0 364 95 95 0
 367 93 0 0 +15 366 487 0 88 128 368 17 88 0 366 88 88 0 369 86 0 0 +15 368 480
 0 118 128 370 17 118 0 368 118 118 0 371 116 0 0 +15 370 473 0 112 128 372 17 1
12 0 370 112 112 0 373 110 0 0 +15 372 466 0 82 128 374 17 82 0 372 82 82 0 375
 80 0 0 +15 374 376 0 76 128 376 17 76 0 374 76 76 0 377 74 0 0 +15 376 60 0 28
 128 350 17 28 0 376 28 28 0 24 21 0 0 -17 377 0 215 377 377 0 76 74 0 0 -15 215
 389 0 377 206 378 15 378 390 0 79 206 0 17 79 0 378 79 79 0 134 71 0 0 +17 375
 0 223 375 375 0 82 80 0 0 -15 223 623 0 375 214 379 15 379 624 0 85 214 0 17 85
 0 379 85 85 0 132 77 0 0 +17 373 0 230 373 373 0 112 110 0 0 -15 230 606 0 373
 222 380 15 380 607 0 115 222 0 17 115 0 380 115 115 0 130 113 0 0 +17 371 0 238
 371 371 0 118 116 0 0 -15 238 589 0 371 122 120 17 369 0 246 369 369 0 88 86 0
 0 -15 246 572 0 369 237 360 17 367 0 254 367 367 0 95 93 0 0 -15 254 555 0 367
 245 361 17 365 0 262 365 365 0 101 99 0 0 -15 262 538 0 365 253 362 82 6 266 0
 -527893817 31145019 0 0 0 82 6 258 0 -527893817 31145019 0 0 0 82 6 250 0 -5278
93817 31145019 0 0 0 82 6 242 0 -527893817 31145019 0 0 0 82 6 234 0 -527893817
 31145019 0 0 0 82 6 227 0 -527893817 31145019 0 0 0 82 6 219 0 -975067175 31145
019 0 0 0 82 6 211 0 -853213566 31145013 0 0 0 15 207 332 0 73 149 381 17 73 0 2
07 73 73 0 382 65 0 0 +15 381 333 0 383 149 0 17 383 0 381 383 383 0 70 68 0 0 -
17 70 0 166 70 70 0 383 68 0 0 +15 166 291 0 70 14 0 17 382 0 150 382 382 0 73 6
5 0 0 -15 150 323 0 382 141 384 15 384 324 0 67 141 0 17 67 0 384 67 67 0 156 61
 0 0 +17 156 0 143 156 156 0 67 61 0 0 -82 1 203 1130299535 82 6 202 0 997590993
 31145011 0 0 0 79 14 197 SWEntUnchanged15 44 126 0 42 172 40 15 40 127 0 38 172
 0 15 173 245 0 57 127 193 17 57 0 173 57 57 0 385 55 0 0 +17 385 0 154 385 385
 0 57 55 0 0 -15 154 266 0 385 142 386 15 386 267 0 60 142 0 17 60 0 386 60 60 0
 387 58 0 0 +17 387 0 388 387 387 0 60 58 0 0 -15 388 239 0 387 158 0 17 41 0 15
9 41 41 0 38 33 0 0 -15 164 106 0 45 158 388 17 45 0 164 45 45 0 42 39 0 0 -82 1
 162 -1318059863 82 1 148 -1325530967 19 15 32 0 1 0 8 5 0 S0 74 4 CI16 index_ma
p_offset0 0 1 dCCZ20 13 10 0 0 278 274 389 390 391 392 393 11 271 2 0 0 0 0 0 0
 0 0 0 0 81 2 389 212 394 1 0 390 0 0 0 395 81 2 390 220 396 1 389 391 0 0 0 397
 81 2 391 221 398 1 390 392 0 0 399 0 81 2 392 235 400 1 391 393 0 0 0 401 81 1
 393 717 402 1 392 11 0 0 403 81 2 11 727 404 1 393 2 0 0 0 0 80 2 404 405 406 9
000 0 0 0 0 3 5 0 0 0 FFTFFFFFFFFFFFFF9 1 79 16 406 BODY_RECIPE_200180 1 402 407
 408 9000 1 1 1 1 1 1 1 1 0 FFTFFFFFFFFFFFFF1 82 1 403 176780 79 10 408 BODY_MAT
CH80 2 400 409 410 9000 0 0 0 0 3 5 0 0 0 FFTFFFFFFFFFFFFF9 1 82 1 401 1 79 24 4
10 BODY_IN_LIGHTWEIGHT_PERM80 2 398 411 412 9000 0 0 0 0 3 5 0 0 0 FFTFTTTFFTFFF
FFF10 10 98 255 11 399 67 105 114 80 97 116 116 101 114 110 49 79 23 412 SWIMPLI
CITBODYNAME_ID_U80 2 396 413 414 9000 0 0 0 0 3 5 0 0 0 FFTFFFFFFFFFFFFF9 1 82 1
 397 1181 79 30 414 LAST_BODY_MODIFYING_FEATURE_ID80 2 394 415 416 9000 0 0 0 0
 3 5 0 0 0 FFTFFFFFFFFFFTFF9 1 82 1 395 138 79 19 416 ENT_TIME_STAMP_200180 2 10
 417 418 9000 0 0 0 0 3 5 0 0 0 FFTFFFFFFFFFFFFF9 1 82 1 12 108 79 12 418 ATOM_I
D_20011 0 
