  0
SECTION
  2
HEADER
  9
$ACADVER
  1
AC1024
  9
$ACADMAINTVER
 70
6
  9
$DWGCODEPAGE
  3
ANSI_1252
  9
$LASTSAVEDBY
  1
ezdxf
  9
$INSBASE
 10
0.0
 20
0.0
 30
0.0
  9
$EXTMIN
 10
1e+20
 20
1e+20
 30
1e+20
  9
$EXTMAX
 10
-1e+20
 20
-1e+20
 30
-1e+20
  9
$LIMMIN
 10
0.0
 20
0.0
  9
$LIMMAX
 10
420.0
 20
297.0
  9
$ORTHOMODE
 70
0
  9
$REGENMODE
 70
1
  9
$FILLMODE
 70
1
  9
$QTEXTMODE
 70
0
  9
$MIRRTEXT
 70
1
  9
$LTSCALE
 40
1.0
  9
$ATTMODE
 70
1
  9
$TEXTSIZE
 40
2.5
  9
$TRACEWID
 40
1.0
  9
$TEXTSTYLE
  7
Standard
  9
$CLAYER
  8
0
  9
$CELTYPE
  6
ByLayer
  9
$CECOLOR
 62
256
  9
$CELTSCALE
 40
1.0
  9
$DISPSILH
 70
0
  9
$DIMSCALE
 40
1.0
  9
$DIMASZ
 40
2.5
  9
$DIMEXO
 40
0.625
  9
$DIMDLI
 40
3.75
  9
$DIMRND
 40
0.0
  9
$DIMDLE
 40
0.0
  9
$DIMEXE
 40
1.25
  9
$DIMTP
 40
0.0
  9
$DIMTM
 40
0.0
  9
$DIMTXT
 40
2.5
  9
$DIMCEN
 40
2.5
  9
$DIMTSZ
 40
0.0
  9
$DIMTOL
 70
0
  9
$DIMLIM
 70
0
  9
$DIMTIH
 70
0
  9
$DIMTOH
 70
0
  9
$DIMSE1
 70
0
  9
$DIMSE2
 70
0
  9
$DIMTAD
 70
1
  9
$DIMZIN
 70
8
  9
$DIMBLK
  1

  9
$DIMASO
 70
1
  9
$DIMSHO
 70
1
  9
$DIMPOST
  1

  9
$DIMAPOST
  1

  9
$DIMALT
 70
0
  9
$DIMALTD
 70
3
  9
$DIMALTF
 40
0.03937007874
  9
$DIMLFAC
 40
1.0
  9
$DIMTOFL
 70
1
  9
$DIMTVP
 40
0.0
  9
$DIMTIX
 70
0
  9
$DIMSOXD
 70
0
  9
$DIMSAH
 70
0
  9
$DIMBLK1
  1

  9
$DIMBLK2
  1

  9
$DIMSTYLE
  2
ISO-25
  9
$DIMCLRD
 70
0
  9
$DIMCLRE
 70
0
  9
$DIMCLRT
 70
0
  9
$DIMTFAC
 40
1.0
  9
$DIMGAP
 40
0.625
  9
$DIMJUST
 70
0
  9
$DIMSD1
 70
0
  9
$DIMSD2
 70
0
  9
$DIMTOLJ
 70
0
  9
$DIMTZIN
 70
8
  9
$DIMALTZ
 70
0
  9
$DIMALTTZ
 70
0
  9
$DIMUPT
 70
0
  9
$DIMDEC
 70
2
  9
$DIMTDEC
 70
2
  9
$DIMALTU
 70
2
  9
$DIMALTTD
 70
3
  9
$DIMTXSTY
  7
Standard
  9
$DIMAUNIT
 70
0
  9
$DIMADEC
 70
0
  9
$DIMALTRND
 40
0.0
  9
$DIMAZIN
 70
0
  9
$DIMDSEP
 70
44
  9
$DIMATFIT
 70
3
  9
$DIMFRAC
 70
0
  9
$DIMLDRBLK
  1

  9
$DIMLUNIT
 70
2
  9
$DIMLWD
 70
-2
  9
$DIMLWE
 70
-2
  9
$DIMTMOVE
 70
0
  9
$DIMFXL
 40
1.0
  9
$DIMFXLON
 70
0
  9
$DIMJOGANG
 40
0.785398163397
  9
$DIMTFILL
 70
0
  9
$DIMTFILLCLR
 70
0
  9
$DIMARCSYM
 70
0
  9
$DIMLTYPE
  6

  9
$DIMLTEX1
  6

  9
$DIMLTEX2
  6

  9
$DIMTXTDIRECTION
 70
0
  9
$LUNITS
 70
2
  9
$LUPREC
 70
4
  9
$SKETCHINC
 40
1.0
  9
$FILLETRAD
 40
10.0
  9
$AUNITS
 70
0
  9
$AUPREC
 70
2
  9
$MENU
  1
.
  9
$ELEVATION
 40
0.0
  9
$PELEVATION
 40
0.0
  9
$THICKNESS
 40
0.0
  9
$LIMCHECK
 70
0
  9
$CHAMFERA
 40
0.0
  9
$CHAMFERB
 40
0.0
  9
$CHAMFERC
 40
0.0
  9
$CHAMFERD
 40
0.0
  9
$SKPOLY
 70
0
  9
$TDCREATE
 40
2461303.4949074076
  9
$TDUCREATE
 40
2458532.153996898
  9
$TDUPDATE
 40
2461303.4949074076
  9
$TDUUPDATE
 40
2458532.1544311
  9
$TDINDWG
 40
0.0
  9
$TDUSRTIMER
 40
0.0
  9
$USRTIMER
 70
1
  9
$ANGBASE
 50
0.0
  9
$ANGDIR
 70
0
  9
$PDMODE
 70
0
  9
$PDSIZE
 40
0.0
  9
$PLINEWID
 40
0.0
  9
$SPLFRAME
 70
0
  9
$SPLINETYPE
 70
6
  9
$SPLINESEGS
 70
8
  9
$HANDSEED
  5
38
  9
$SURFTAB1
 70
6
  9
$SURFTAB2
 70
6
  9
$SURFTYPE
 70
6
  9
$SURFU
 70
6
  9
$SURFV
 70
6
  9
$UCSBASE
  2

  9
$UCSNAME
  2

  9
$UCSORG
 10
0.0
 20
0.0
 30
0.0
  9
$UCSXDIR
 10
1.0
 20
0.0
 30
0.0
  9
$UCSYDIR
 10
0.0
 20
1.0
 30
0.0
  9
$UCSORTHOREF
  2

  9
$UCSORTHOVIEW
 70
0
  9
$UCSORGTOP
 10
0.0
 20
0.0
 30
0.0
  9
$UCSORGBOTTOM
 10
0.0
 20
0.0
 30
0.0
  9
$UCSORGLEFT
 10
0.0
 20
0.0
 30
0.0
  9
$UCSORGRIGHT
 10
0.0
 20
0.0
 30
0.0
  9
$UCSORGFRONT
 10
0.0
 20
0.0
 30
0.0
  9
$UCSORGBACK
 10
0.0
 20
0.0
 30
0.0
  9
$PUCSBASE
  2

  9
$PUCSNAME
  2

  9
$PUCSORG
 10
0.0
 20
0.0
 30
0.0
  9
$PUCSXDIR
 10
1.0
 20
0.0
 30
0.0
  9
$PUCSYDIR
 10
0.0
 20
1.0
 30
0.0
  9
$PUCSORTHOREF
  2

  9
$PUCSORTHOVIEW
 70
0
  9
$PUCSORGTOP
 10
0.0
 20
0.0
 30
0.0
  9
$PUCSORGBOTTOM
 10
0.0
 20
0.0
 30
0.0
  9
$PUCSORGLEFT
 10
0.0
 20
0.0
 30
0.0
  9
$PUCSORGRIGHT
 10
0.0
 20
0.0
 30
0.0
  9
$PUCSORGFRONT
 10
0.0
 20
0.0
 30
0.0
  9
$PUCSORGBACK
 10
0.0
 20
0.0
 30
0.0
  9
$USERI1
 70
0
  9
$USERI2
 70
0
  9
$USERI3
 70
0
  9
$USERI4
 70
0
  9
$USERI5
 70
0
  9
$USERR1
 40
0.0
  9
$USERR2
 40
0.0
  9
$USERR3
 40
0.0
  9
$USERR4
 40
0.0
  9
$USERR5
 40
0.0
  9
$WORLDVIEW
 70
1
  9
$SHADEDGE
 70
3
  9
$SHADEDIF
 70
70
  9
$TILEMODE
 70
1
  9
$MAXACTVP
 70
64
  9
$PINSBASE
 10
0.0
 20
0.0
 30
0.0
  9
$PLIMCHECK
 70
0
  9
$PEXTMIN
 10
1e+20
 20
1e+20
 30
1e+20
  9
$PEXTMAX
 10
-1e+20
 20
-1e+20
 30
-1e+20
  9
$PLIMMIN
 10
0.0
 20
0.0
  9
$PLIMMAX
 10
420.0
 20
297.0
  9
$UNITMODE
 70
0
  9
$VISRETAIN
 70
1
  9
$PLINEGEN
 70
0
  9
$PSLTSCALE
 70
1
  9
$TREEDEPTH
 70
3020
  9
$CMLSTYLE
  2
Standard
  9
$CMLJUST
 70
0
  9
$CMLSCALE
 40
20.0
  9
$PROXYGRAPHICS
 70
1
  9
$MEASUREMENT
 70
1
  9
$CELWEIGHT
370
-1
  9
$ENDCAPS
280
0
  9
$JOINSTYLE
280
0
  9
$LWDISPLAY
290
0
  9
$INSUNITS
 70
6
  9
$HYPERLINKBASE
  1

  9
$STYLESHEET
  1

  9
$XEDIT
290
1
  9
$CEPSNTYPE
380
0
  9
$PSTYLEMODE
290
1
  9
$FINGERPRINTGUID
  2
{A6A8767E-0172-4BFA-ADC4-8306F782E260}
  9
$VERSIONGUID
  2
{480DF255-5060-44A7-ACF9-C90100AF4B74}
  9
$EXTNAMES
290
1
  9
$PSVPSCALE
 40
0.0
  9
$OLESTARTUP
290
0
  9
$SORTENTS
280
127
  9
$INDEXCTL
280
0
  9
$HIDETEXT
280
1
  9
$XCLIPFRAME
280
1
  9
$HALOGAP
280
0
  9
$OBSCOLOR
 70
257
  9
$OBSLTYPE
280
0
  9
$INTERSECTIONDISPLAY
280
0
  9
$INTERSECTIONCOLOR
 70
257
  9
$DIMASSOC
280
2
  9
$PROJECTNAME
  1

  9
$CAMERADISPLAY
290
0
  9
$LENSLENGTH
 40
50.0
  9
$CAMERAHEIGHT
 40
0.0
  9
$STEPSPERSEC
 40
24.0
  9
$STEPSIZE
 40
100.0
  9
$3DDWFPREC
 40
2.0
  9
$PSOLWIDTH
 40
0.005
  9
$PSOLHEIGHT
 40
0.08
  9
$LOFTANG1
 40
1.570796326795
  9
$LOFTANG2
 40
1.570796326795
  9
$LOFTMAG1
 40
0.0
  9
$LOFTMAG2
 40
0.0
  9
$LOFTPARAM
 70
7
  9
$LOFTNORMALS
280
1
  9
$LATITUDE
 40
37.795
  9
$LONGITUDE
 40
-122.394
  9
$NORTHDIRECTION
 40
0.0
  9
$TIMEZONE
 70
-8000
  9
$LIGHTGLYPHDISPLAY
280
1
  9
$TILEMODELIGHTSYNCH
280
1
  9
$CMATERIAL
347
20
  9
$SOLIDHIST
280
0
  9
$SHOWHIST
280
1
  9
$DWFFRAME
280
2
  9
$DGNFRAME
280
2
  9
$REALWORLDSCALE
290
1
  9
$INTERFERECOLOR
 62
256
  9
$CSHADOW
280
0
  9
$SHADOWPLANELOCATION
 40
0.0
  0
ENDSEC
  0
SECTION
  2
CLASSES
  0
CLASS
  1
ACDBDICTIONARYWDFLT
  2
AcDbDictionaryWithDefault
  3
ObjectDBX Classes
 90
0
 91
0
280
0
281
0
  0
CLASS
  1
SUN
  2
AcDbSun
  3
SCENEOE
 90
1153
 91
0
280
0
281
0
  0
CLASS
  1
VISUALSTYLE
  2
AcDbVisualStyle
  3
ObjectDBX Classes
 90
4095
 91
0
280
0
281
0
  0
CLASS
  1
MATERIAL
  2
AcDbMaterial
  3
ObjectDBX Classes
 90
1153
 91
0
280
0
281
0
  0
CLASS
  1
SCALE
  2
AcDbScale
  3
ObjectDBX Classes
 90
1153
 91
0
280
0
281
0
  0
CLASS
  1
TABLESTYLE
  2
AcDbTableStyle
  3
ObjectDBX Classes
 90
4095
 91
0
280
0
281
0
  0
CLASS
  1
MLEADERSTYLE
  2
AcDbMLeaderStyle
  3
ACDB_MLEADERSTYLE_CLASS
 90
4095
 91
0
280
0
281
0
  0
CLASS
  1
DICTIONARYVAR
  2
AcDbDictionaryVar
  3
ObjectDBX Classes
 90
0
 91
0
280
0
281
0
  0
CLASS
  1
CELLSTYLEMAP
  2
AcDbCellStyleMap
  3
ObjectDBX Classes
 90
1152
 91
0
280
0
281
0
  0
CLASS
  1
MENTALRAYRENDERSETTINGS
  2
AcDbMentalRayRenderSettings
  3
SCENEOE
 90
1024
 91
0
280
0
281
0
  0
CLASS
  1
ACDBDETAILVIEWSTYLE
  2
AcDbDetailViewStyle
  3
ObjectDBX Classes
 90
1025
 91
0
280
0
281
0
  0
CLASS
  1
ACDBSECTIONVIEWSTYLE
  2
AcDbSectionViewStyle
  3
ObjectDBX Classes
 90
1025
 91
0
280
0
281
0
  0
CLASS
  1
RASTERVARIABLES
  2
AcDbRasterVariables
  3
ISM
 90
0
 91
0
280
0
281
0
  0
CLASS
  1
ACDBPLACEHOLDER
  2
AcDbPlaceHolder
  3
ObjectDBX Classes
 90
0
 91
0
280
0
281
0
  0
CLASS
  1
LAYOUT
  2
AcDbLayout
  3
ObjectDBX Classes
 90
0
 91
0
280
0
281
0
  0
ENDSEC
  0
SECTION
  2
TABLES
  0
TABLE
  2
VPORT
  5
8
330
0
100
AcDbSymbolTable
 70
1
  0
VPORT
  5
23
330
8
100
AcDbSymbolTableRecord
100
AcDbViewportTableRecord
  2
*Active
 70
0
 10
0.0
 20
0.0
 11
1.0
 21
1.0
 12
0.0
 22
0.0
 13
0.0
 23
0.0
 14
0.5
 24
0.5
 15
0.5
 25
0.5
 16
0.0
 26
0.0
 36
1.0
 17
0.0
 27
0.0
 37
0.0
 40
1000.0
 41
1.34
 42
50.0
 43
0.0
 44
0.0
 50
0.0
 51
0.0
 71
0
 72
1000
 73
1
 74
3
 75
0
 76
0
 77
0
 78
0
281
0
 65
0
146
0.0
  0
ENDTAB
  0
TABLE
  2
LTYPE
  5
2
330
0
100
AcDbSymbolTable
 70
3
  0
LTYPE
  5
24
330
2
100
AcDbSymbolTableRecord
100
AcDbLinetypeTableRecord
  2
ByBlock
 70
0
  3

 72
65
 73
0
 40
0.0
  0
LTYPE
  5
25
330
2
100
AcDbSymbolTableRecord
100
AcDbLinetypeTableRecord
  2
ByLayer
 70
0
  3

 72
65
 73
0
 40
0.0
  0
LTYPE
  5
26
330
2
100
AcDbSymbolTableRecord
100
AcDbLinetypeTableRecord
  2
Continuous
 70
0
  3

 72
65
 73
0
 40
0.0
  0
ENDTAB
  0
TABLE
  2
LAYER
  5
1
330
0
100
AcDbSymbolTable
 70
2
  0
LAYER
  5
27
330
1
100
AcDbSymbolTableRecord
100
AcDbLayerTableRecord
  2
0
 70
0
 62
7
  6
Continuous
370
-3
390
13
347
21
  0
LAYER
  5
28
330
1
100
AcDbSymbolTableRecord
100
AcDbLayerTableRecord
  2
Defpoints
 70
0
 62
7
  6
Continuous
290
0
370
-3
390
13
347
21
  0
ENDTAB
  0
TABLE
  2
STYLE
  5
5
330
0
100
AcDbSymbolTable
 70
1
  0
STYLE
  5
29
330
5
100
AcDbSymbolTableRecord
100
AcDbTextStyleTableRecord
  2
Standard
 70
0
 40
0.0
 41
1.0
 50
0.0
 71
0
 42
2.5
  3
txt
  4

  0
ENDTAB
  0
TABLE
  2
VIEW
  5
7
330
0
100
AcDbSymbolTable
 70
0
  0
ENDTAB
  0
TABLE
  2
UCS
  5
6
330
0
100
AcDbSymbolTable
 70
0
  0
ENDTAB
  0
TABLE
  2
APPID
  5
3
330
0
100
AcDbSymbolTable
 70
3
  0
APPID
  5
2A
330
3
100
AcDbSymbolTableRecord
100
AcDbRegAppTableRecord
  2
ACAD
 70
0
  0
APPID
  5
35
330
3
100
AcDbSymbolTableRecord
100
AcDbRegAppTableRecord
  2
HATCHBACKGROUNDCOLOR
 70
0
  0
APPID
  5
36
330
3
100
AcDbSymbolTableRecord
100
AcDbRegAppTableRecord
  2
EZDXF
 70
0
  0
ENDTAB
  0
TABLE
  2
DIMSTYLE
  5
4
330
0
100
AcDbSymbolTable
 70
1
100
AcDbDimStyleTable
  0
DIMSTYLE
105
2B
330
4
100
AcDbSymbolTableRecord
100
AcDbDimStyleTableRecord
  2
Standard
 70
0
 40
1.0
 41
2.5
 42
0.625
 43
3.75
 44
1.25
 45
0.0
 46
0.0
 47
0.0
 48
0.0
 49
2.5
140
2.5
141
2.5
142
0.0
143
0.03937007874
144
1.0
145
0.0
146
1.0
147
0.625
148
0.0
 69
0
 70
0
 71
0
 72
0
 73
0
 74
0
 75
0
 76
0
 77
1
 78
8
 79
3
170
0
171
3
172
1
173
0
174
0
175
0
176
0
177
0
178
0
179
2
271
2
272
2
273
2
274
3
275
0
276
0
277
2
278
44
279
0
280
0
281
0
282
0
283
0
284
8
285
0
286
0
288
0
289
3
290
0
371
-2
372
-2
  0
ENDTAB
  0
TABLE
  2
BLOCK_RECORD
  5
9
330
0
100
AcDbSymbolTable
 70
2
  0
BLOCK_RECORD
  5
17
330
9
100
AcDbSymbolTableRecord
100
AcDbBlockTableRecord
  2
*Model_Space
340
1A
 70
0
280
1
281
0
  0
BLOCK_RECORD
  5
1B
330
9
100
AcDbSymbolTableRecord
100
AcDbBlockTableRecord
  2
*Paper_Space
340
1E
 70
0
280
1
281
0
  0
ENDTAB
  0
ENDSEC
  0
SECTION
  2
BLOCKS
  0
BLOCK
  5
18
330
17
100
AcDbEntity
  8
0
100
AcDbBlockBegin
  2
*Model_Space
 70
0
 10
0.0
 20
0.0
 30
0.0
  3
*Model_Space
  1

  0
ENDBLK
  5
19
330
17
100
AcDbEntity
  8
0
100
AcDbBlockEnd
  0
BLOCK
  5
1C
330
1B
100
AcDbEntity
  8
0
100
AcDbBlockBegin
  2
*Paper_Space
 70
0
 10
0.0
 20
0.0
 30
0.0
  3
*Paper_Space
  1

  0
ENDBLK
  5
1D
330
1B
100
AcDbEntity
  8
0
100
AcDbBlockEnd
  0
ENDSEC
  0
SECTION
  2
ENTITIES
  0
SPLINE
  5
2F
330
17
100
AcDbEntity
  8
0
100
AcDbSpline
 70
0
 71
3
 72
0
 73
0
 74
100
 11
-0.2328
 21
0.048590369848560425
 31
0.0
 11
-0.2309189306247337
 21
0.048590369848560425
 31
0.0
 11
-0.22903786124946734
 21
0.048590369848560425
 31
0.0
 11
-0.22715679187420101
 21
0.048590369848560425
 31
0.0
 11
-0.22527572249893468
 21
0.048590369848560425
 31
0.0
 11
-0.22339465312366832
 21
0.048590369848560425
 31
0.0
 11
-0.221513583748402
 21
0.048590369848560425
 31
0.0
 11
-0.21963251437313566
 21
0.048590369848560425
 31
0.0
 11
-0.21775144499786933
 21
0.048590369848560425
 31
0.0
 11
-0.21587037562260297
 21
0.048590369848560425
 31
0.0
 11
-0.21398930624733667
 21
0.048590369848560425
 31
0.0
 11
-0.2121082368720703
 21
0.048590369848560425
 31
0.0
 11
-0.21022716749680398
 21
0.048590369848560425
 31
0.0
 11
-0.20834609812153765
 21
0.048590369848560425
 31
0.0
 11
-0.20646502874627132
 21
0.048590369848560425
 31
0.0
 11
-0.20458395937100496
 21
0.048590369848560425
 31
0.0
 11
-0.20270288999573866
 21
0.048590369848560425
 31
0.0
 11
-0.2008218206204723
 21
0.048590369848560425
 31
0.0
 11
-0.19894075124520597
 21
0.048590369848560425
 31
0.0
 11
-0.19705968186993963
 21
0.048590369848560425
 31
0.0
 11
-0.1951786124946733
 21
0.048590369848560425
 31
0.0
 11
-0.19329754311940694
 21
0.048590369848560425
 31
0.0
 11
-0.19141647374414064
 21
0.048590369848560425
 31
0.0
 11
-0.18953540436887428
 21
0.048590369848560425
 31
0.0
 11
-0.18765433499360795
 21
0.048590369848560425
 31
0.0
 11
-0.18577326561834162
 21
0.048590369848560425
 31
0.0
 11
-0.1838921962430753
 21
0.048590369848560425
 31
0.0
 11
-0.18201112686780893
 21
0.048590369848560425
 31
0.0
 11
-0.18013005749254263
 21
0.048590369848560425
 31
0.0
 11
-0.17824898811727627
 21
0.048590369848560425
 31
0.0
 11
-0.17636791874200994
 21
0.048590369848560425
 31
0.0
 11
-0.1744868493667436
 21
0.048590369848560425
 31
0.0
 11
-0.17260577999147728
 21
0.048590369848560425
 31
0.0
 11
-0.17072471061621092
 21
0.048590369848560425
 31
0.0
 11
-0.1688436412409446
 21
0.048590369848560425
 31
0.0
 11
-0.16696257186567826
 21
0.048590369848560425
 31
0.0
 11
-0.16508150249041192
 21
0.048590369848560425
 31
0.0
 11
-0.1632004331151456
 21
0.048590369848560425
 31
0.0
 11
-0.16131936373987923
 21
0.048590369848560425
 31
0.0
 11
-0.1594382943646129
 21
0.048590369848560425
 31
0.0
 11
-0.1575572249893466
 21
0.048590369848560425
 31
0.0
 11
-0.15567615561408024
 21
0.048590369848560425
 31
0.0
 11
-0.15379508623881388
 21
0.048590369848560425
 31
0.0
 11
-0.15191401686354758
 21
0.048590369848560425
 31
0.0
 11
-0.15003294748828125
 21
0.048590369848560425
 31
0.0
 11
-0.1481518781130149
 21
0.048590369848560425
 31
0.0
 11
-0.14627080873774856
 21
0.048590369848560425
 31
0.0
 11
-0.14438973936248223
 21
0.048590369848560425
 31
0.0
 11
-0.1425086699872159
 21
0.048590369848560425
 31
0.0
 11
-0.14062760061194957
 21
0.048590369848560425
 31
0.0
 11
-0.1387465312366832
 21
0.048590369848560425
 31
0.0
 11
-0.13686546186141688
 21
0.048590369848560425
 31
0.0
 11
-0.13498439248615055
 21
0.048590369848560425
 31
0.0
 11
-0.13310332311088421
 21
0.048590369848560425
 31
0.0
 11
-0.13122225373561786
 21
0.048590369848560425
 31
0.0
 11
-0.12934118436035152
 21
0.048590369848560425
 31
0.0
 11
-0.1274601149850852
 21
0.048590369848560425
 31
0.0
 11
-0.12557904560981886
 21
0.048590369848560425
 31
0.0
 11
-0.12369797623455253
 21
0.048590369848560425
 31
0.0
 11
-0.12181690685928619
 21
0.048590369848560425
 31
0.0
 11
-0.11993583748401986
 21
0.048590369848560425
 31
0.0
 11
-0.11805476810875352
 21
0.048590369848560425
 31
0.0
 11
-0.11617369873348718
 21
0.048590369848560425
 31
0.0
 11
-0.11429262935822085
 21
0.048590369848560425
 31
0.0
 11
-0.11241155998295452
 21
0.048590369848560425
 31
0.0
 11
-0.11053049060768817
 21
0.048590369848560425
 31
0.0
 11
-0.10864942123242184
 21
0.048590369848560425
 31
0.0
 11
-0.10676835185715551
 21
0.048590369848560425
 31
0.0
 11
-0.10488728248188918
 21
0.048590369848560425
 31
0.0
 11
-0.10300621310662283
 21
0.048590369848560425
 31
0.0
 11
-0.1011251437313565
 21
0.048590369848560425
 31
0.0
 11
-0.09924407435609017
 21
0.048590369848560425
 31
0.0
 11
-0.09736300498082383
 21
0.048590369848560425
 31
0.0
 11
-0.0954819356055575
 21
0.048590369848560425
 31
0.0
 11
-0.09360086623029117
 21
0.048590369848560425
 31
0.0
 11
-0.09171979685502482
 21
0.048590369848560425
 31
0.0
 11
-0.08983872747975849
 21
0.048590369848560425
 31
0.0
 11
-0.08795765810449215
 21
0.048590369848560425
 31
0.0
 11
-0.08607658872922581
 21
0.048590369848560425
 31
0.0
 11
-0.08419551935395947
 21
0.048590369848560425
 31
0.0
 11
-0.08231444997869315
 21
0.048590369848560425
 31
0.0
 11
-0.0804333806034268
 21
0.048590369848560425
 31
0.0
 11
-0.07855231122816048
 21
0.048590369848560425
 31
0.0
 11
-0.07667124185289413
 21
0.048590369848560425
 31
0.0
 11
-0.0747901724776278
 21
0.048590369848560425
 31
0.0
 11
-0.07290910310236146
 21
0.048590369848560425
 31
0.0
 11
-0.07102803372709514
 21
0.048590369848560425
 31
0.0
 11
-0.06914696435182878
 21
0.048590369848560425
 31
0.0
 11
-0.06726589497656245
 21
0.048590369848560425
 31
0.0
 11
-0.06538482560129612
 21
0.048590369848560425
 31
0.0
 11
-0.06350375622602977
 21
0.048590369848560425
 31
0.0
 11
-0.06162268685076344
 21
0.048590369848560425
 31
0.0
 11
-0.05974161747549711
 21
0.048590369848560425
 31
0.0
 11
-0.05786054810023077
 21
0.048590369848560425
 31
0.0
 11
-0.055979478724964435
 21
0.048590369848560425
 31
0.0
 11
-0.054098409349698104
 21
0.048590369848560425
 31
0.0
 11
-0.052217339974431766
 21
0.048590369848560425
 31
0.0
 11
-0.05033627059916543
 21
0.048590369848560425
 31
0.0
 11
-0.0484552012238991
 21
0.048590369848560425
 31
0.0
 11
-0.04657413184863276
 21
0.048590369848560425
 31
0.0
  0
SPLINE
  5
30
330
17
100
AcDbEntity
  8
0
100
AcDbSpline
 70
0
 71
3
 72
0
 73
0
 74
100
 11
-0.04657413184863276
 21
0.048590369848560425
 31
0.0
 11
-0.04644684135902267
 21
0.04858986492815083
 31
0.0
 11
-0.046319558880713645
 21
0.04858835019870025
 31
0.0
 11
-0.04619229242450254
 21
0.04858582575554149
 31
0.0
 11
-0.04606505000017782
 21
0.04858229175755578
 31
0.0
 11
-0.045937839616015455
 21
0.04857774842716291
 31
0.0
 11
-0.0458106692782749
 21
0.04857219605030717
 31
0.0
 11
-0.045683546990695205
 21
0.04856563497643934
 31
0.0
 11
-0.04555648075399127
 21
0.04855806561849474
 31
0.0
 11
-0.04542947856535031
 21
0.0485494884528672
 31
0.0
 11
-0.04530254841792855
 21
0.04853990401937911
 31
0.0
 11
-0.045175698300348156
 21
0.04852931292124744
 31
0.0
 11
-0.04504893619619442
 21
0.04851771582504574
 31
0.0
 11
-0.04492227008351333
 21
0.04850511346066226
 31
0.0
 11
-0.04479570793430942
 21
0.04849150662125392
 31
0.0
 11
-0.044669257714044106
 21
0.048476896163196455
 31
0.0
 11
-0.04454292738113428
 21
0.048461283006030524
 31
0.0
 11
-0.04441672488645148
 21
0.048444668132403765
 31
0.0
 11
-0.04429065817282147
 21
0.04842705258800906
 31
0.0
 11
-0.04416473517452431
 21
0.04840843748151859
 31
0.0
 11
-0.044038963816795076
 21
0.048388823984514204
 31
0.0
 11
-0.04391335201532499
 21
0.04836821333141354
 31
0.0
 11
-0.043787907675763266
 21
0.048346606819392464
 31
0.0
 11
-0.043662638693219534
 21
0.048324005808303296
 31
0.0
 11
-0.04353755295176696
 21
0.04830041172058938
 31
0.0
 11
-0.043412658323946
 21
0.04827582604119539
 31
0.0
 11
-0.04328796267026905
 21
0.04825025031747403
 31
0.0
 11
-0.04316347383872555
 21
0.04822368615908853
 31
0.0
 11
-0.043039199664288194
 21
0.04819613523791142
 31
0.0
 11
-0.04291514796841975
 21
0.048167599287919215
 31
0.0
 11
-0.042791326558580804
 21
0.04813808010508342
 31
0.0
 11
-0.04266774322773844
 21
0.04810757954725733
 31
0.0
 11
-0.04254440575387569
 21
0.04807609953405925
 31
0.0
 11
-0.042421321899502075
 21
0.0480436420467516
 31
0.0
 11
-0.04229849941116497
 21
0.04801020912811622
 31
0.0
 11
-0.04217594601896219
 21
0.04797580288232585
 31
0.0
 11
-0.042053669436055374
 21
0.047940425474811664
 31
0.0
 11
-0.041931677358184545
 21
0.04790407913212695
 31
0.0
 11
-0.04180997746318383
 21
0.04786676614180709
 31
0.0
 11
-0.04168857741049818
 21
0.04782848885222546
 31
0.0
 11
-0.04156748484070132
 21
0.04778924967244571
 31
0.0
 11
-0.041446707375014886
 21
0.0477490510720701
 31
0.0
 11
-0.04132625261482876
 21
0.04770789558108412
 31
0.0
 11
-0.041206128141222646
 21
0.04766578578969721
 31
0.0
 11
-0.041086341514488964
 21
0.04762272434817976
 31
0.0
 11
-0.040966900273657
 21
0.04757871396669633
 31
0.0
 11
-0.040847811936018455
 21
0.04753375741513504
 31
0.0
 11
-0.04072908399665428
 21
0.04748785752293328
 31
0.0
 11
-0.04061072392796302
 21
0.0474410171788996
 31
0.0
 11
-0.040492739179190454
 21
0.04739323933103191
 31
0.0
 11
-0.0403751371759608
 21
0.047344526986331945
 31
0.0
 11
-0.04025792531980937
 21
0.04729488321061601
 31
0.0
 11
-0.04014111098771674
 21
0.04724431112832204
 31
0.0
 11
-0.04002470153164444
 21
0.04719281392231292
 31
0.0
 11
-0.03990870427807224
 21
0.04714039483367623
 31
0.0
 11
-0.03979312652753708
 21
0.04708705716152015
 31
0.0
 11
-0.039677975554173586
 21
0.04703280426276595
 31
0.0
 11
-0.0395632586052562
 21
0.04697763955193665
 31
0.0
 11
-0.03944898290074314
 21
0.04692156650094208
 31
0.0
 11
-0.03933515563282194
 21
0.046864588638860484
 31
0.0
 11
-0.03922178396545681
 21
0.04680670955171628
 31
0.0
 11
-0.039108875033937764
 21
0.04674793288225446
 31
0.0
 11
-0.03899643594443156
 21
0.046688262329711294
 31
0.0
 11
-0.038884473773534364
 21
0.046627701649581466
 31
0.0
 11
-0.03877299556782655
 21
0.046566254653381815
 31
0.0
 11
-0.038662008343429005
 21
0.04650392520841136
 31
0.0
 11
-0.03855151908556172
 21
0.04644071723750792
 31
0.0
 11
-0.038441534748104016
 21
0.04637663471880128
 31
0.0
 11
-0.03833206225315705
 21
0.046311681685462715
 31
0.0
 11
-0.038223108490608
 21
0.04624586222545126
 31
0.0
 11
-0.03811468031769653
 21
0.046179180481256354
 31
0.0
 11
-0.038006784558583175
 21
0.046111640649637166
 31
0.0
 11
-0.03789942800391988
 21
0.04604324698135842
 31
0.0
 11
-0.03779261741042258
 21
0.04597400378092293
 31
0.0
 11
-0.037686359500445986
 21
0.04590391540630059
 31
0.0
 11
-0.03758066096156047
 21
0.045832986268654195
 31
0.0
 11
-0.03747552844613117
 21
0.04576122083206175
 31
0.0
 11
-0.03737096857089934
 21
0.04568862361323555
 31
0.0
 11
-0.03726698791656588
 21
0.04561519918123788
 31
0.0
 11
-0.03716359302737716
 21
0.04554095215719349
 31
0.0
 11
-0.037060790410713196
 21
0.0454658872139987
 31
0.0
 11
-0.03695858653667803
 21
0.04539000907602735
 31
0.0
 11
-0.03685698783769254
 21
0.04531332251883346
 31
0.0
 11
-0.036756000708089646
 21
0.04523583236885062
 31
0.0
 11
-0.03665563150371179
 21
0.04515754350308831
 31
0.0
 11
-0.036555886541510985
 21
0.04507846084882483
 31
0.0
 11
-0.0364567720991512
 21
0.04499858938329737
 31
0.0
 11
-0.03635829441461331
 21
0.04491793413338857
 31
0.0
 11
-0.03626045968580244
 21
0.044836500175310275
 31
0.0
 11
-0.03616327407015791
 21
0.04475429263428399
 31
0.0
 11
-0.03606674368426573
 21
0.04467131668421831
 31
0.0
 11
-0.03597087460347358
 21
0.04458757754738335
 31
0.0
 11
-0.03587567286150851
 21
0.044503080494082
 31
0.0
 11
-0.03578114445009715
 21
0.04441783084231827
 31
0.0
 11
-0.03568729531858861
 21
0.044331833957462534
 31
0.0
 11
-0.0355941313735801
 21
0.04424509525191394
 31
0.0
 11
-0.03550165847854508
 21
0.04415762018475971
 31
0.0
 11
-0.03540988245346433
 21
0.044069414261431544
 31
0.0
 11
-0.03531880907445964
 21
0.04398048303335916
 31
0.0
 11
-0.0352284440734302
 21
0.0438908320976209
 31
0.0
  0
SPLINE
  5
31
330
17
100
AcDbEntity
  8
0
100
AcDbSpline
 70
0
 71
3
 72
0
 73
0
 74
100
 11
-0.0352284440734302
 21
0.04389083209762091
 31
0.0
 11
-0.035117680557414786
 21
0.0437800685816055
 31
0.0
 11
-0.035006917041399375
 21
0.04366930506559009
 31
0.0
 11
-0.034896153525383965
 21
0.04355854154957468
 31
0.0
 11
-0.034785390009368554
 21
0.043447778033559266
 31
0.0
 11
-0.03467462649335314
 21
0.043337014517543855
 31
0.0
 11
-0.03456386297733773
 21
0.043226251001528444
 31
0.0
 11
-0.03445309946132232
 21
0.043115487485513034
 31
0.0
 11
-0.03434233594530692
 21
0.04300472396949763
 31
0.0
 11
-0.034231572429291514
 21
0.04289396045348222
 31
0.0
 11
-0.0341208089132761
 21
0.042783196937466815
 31
0.0
 11
-0.03401004539726069
 21
0.042672433421451404
 31
0.0
 11
-0.03389928188124528
 21
0.04256166990543599
 31
0.0
 11
-0.03378851836522987
 21
0.04245090638942058
 31
0.0
 11
-0.03367775484921446
 21
0.04234014287340517
 31
0.0
 11
-0.03356699133319905
 21
0.04222937935738976
 31
0.0
 11
-0.033456227817183645
 21
0.04211861584137436
 31
0.0
 11
-0.033345464301168234
 21
0.042007852325358946
 31
0.0
 11
-0.033234700785152824
 21
0.041897088809343536
 31
0.0
 11
-0.03312393726913741
 21
0.041786325293328125
 31
0.0
 11
-0.033013173753122
 21
0.041675561777312714
 31
0.0
 11
-0.03290241023710659
 21
0.0415647982612973
 31
0.0
 11
-0.03279164672109118
 21
0.04145403474528189
 31
0.0
 11
-0.03268088320507577
 21
0.04134327122926648
 31
0.0
 11
-0.032570119689060366
 21
0.04123250771325107
 31
0.0
 11
-0.032459356173044955
 21
0.04112174419723567
 31
0.0
 11
-0.032348592657029544
 21
0.041010980681220256
 31
0.0
 11
-0.032237829141014133
 21
0.040900217165204845
 31
0.0
 11
-0.03212706562499872
 21
0.040789453649189435
 31
0.0
 11
-0.03201630210898332
 21
0.04067869013317403
 31
0.0
 11
-0.0319055385929679
 21
0.04056792661715861
 31
0.0
 11
-0.0317947750769525
 21
0.04045716310114321
 31
0.0
 11
-0.031684011560937086
 21
0.0403463995851278
 31
0.0
 11
-0.031573248044921676
 21
0.04023563606911239
 31
0.0
 11
-0.031462484528906265
 21
0.04012487255309698
 31
0.0
 11
-0.031351721012890854
 21
0.040014109037081566
 31
0.0
 11
-0.031240957496875447
 21
0.039903345521066155
 31
0.0
 11
-0.031130193980860036
 21
0.039792582005050744
 31
0.0
 11
-0.03101943046484463
 21
0.039681818489035334
 31
0.0
 11
-0.030908666948829218
 21
0.03957105497301992
 31
0.0
 11
-0.030797903432813807
 21
0.03946029145700452
 31
0.0
 11
-0.030687139916798396
 21
0.03934952794098911
 31
0.0
 11
-0.03057637640078299
 21
0.039238764424973704
 31
0.0
 11
-0.03046561288476758
 21
0.039128000908958294
 31
0.0
 11
-0.03035484936875217
 21
0.03901723739294288
 31
0.0
 11
-0.03024408585273676
 21
0.03890647387692747
 31
0.0
 11
-0.03013332233672135
 21
0.03879571036091206
 31
0.0
 11
-0.03002255882070594
 21
0.03868494684489665
 31
0.0
 11
-0.02991179530469053
 21
0.03857418332888124
 31
0.0
 11
-0.02980103178867512
 21
0.03846341981286583
 31
0.0
 11
-0.029690268272659713
 21
0.03835265629685042
 31
0.0
 11
-0.029579504756644302
 21
0.03824189278083501
 31
0.0
 11
-0.02946874124062889
 21
0.038131129264819597
 31
0.0
 11
-0.029357977724613484
 21
0.03802036574880419
 31
0.0
 11
-0.029247214208598073
 21
0.03790960223278878
 31
0.0
 11
-0.029136450692582663
 21
0.03779883871677338
 31
0.0
 11
-0.029025687176567252
 21
0.03768807520075797
 31
0.0
 11
-0.02891492366055184
 21
0.037577311684742556
 31
0.0
 11
-0.028804160144536434
 21
0.037466548168727146
 31
0.0
 11
-0.028693396628521026
 21
0.037355784652711735
 31
0.0
 11
-0.028582633112505616
 21
0.037245021136696324
 31
0.0
 11
-0.028471869596490205
 21
0.03713425762068091
 31
0.0
 11
-0.028361106080474794
 21
0.0370234941046655
 31
0.0
 11
-0.028250342564459383
 21
0.03691273058865009
 31
0.0
 11
-0.028139579048443976
 21
0.03680196707263469
 31
0.0
 11
-0.028028815532428565
 21
0.03669120355661928
 31
0.0
 11
-0.027918052016413158
 21
0.036580440040603866
 31
0.0
 11
-0.027807288500397747
 21
0.036469676524588455
 31
0.0
 11
-0.027696524984382336
 21
0.036358913008573045
 31
0.0
 11
-0.027585761468366925
 21
0.036248149492557634
 31
0.0
 11
-0.027474997952351518
 21
0.03613738597654223
 31
0.0
 11
-0.027364234436336107
 21
0.03602662246052682
 31
0.0
 11
-0.027253470920320697
 21
0.03591585894451141
 31
0.0
 11
-0.02714270740430529
 21
0.035805095428496
 31
0.0
 11
-0.02703194388828988
 21
0.03569433191248059
 31
0.0
 11
-0.02692118037227447
 21
0.03558356839646518
 31
0.0
 11
-0.02681041685625906
 21
0.03547280488044977
 31
0.0
 11
-0.02669965334024365
 21
0.03536204136443436
 31
0.0
 11
-0.02658888982422824
 21
0.03525127784841895
 31
0.0
 11
-0.026478126308212828
 21
0.03514051433240354
 31
0.0
 11
-0.026367362792197417
 21
0.03502975081638813
 31
0.0
 11
-0.026256599276182013
 21
0.03491898730037272
 31
0.0
 11
-0.026145835760166602
 21
0.03480822378435731
 31
0.0
 11
-0.02603507224415119
 21
0.0346974602683419
 31
0.0
 11
-0.02592430872813578
 21
0.034586696752326486
 31
0.0
 11
-0.02581354521212037
 21
0.03447593323631108
 31
0.0
 11
-0.025702781696104963
 21
0.03436516972029568
 31
0.0
 11
-0.025592018180089552
 21
0.03425440620428027
 31
0.0
 11
-0.025481254664074145
 21
0.03414364268826486
 31
0.0
 11
-0.025370491148058734
 21
0.034032879172249446
 31
0.0
 11
-0.025259727632043323
 21
0.033922115656234035
 31
0.0
 11
-0.025148964116027916
 21
0.033811352140218624
 31
0.0
 11
-0.025038200600012505
 21
0.033700588624203213
 31
0.0
 11
-0.024927437083997094
 21
0.0335898251081878
 31
0.0
 11
-0.024816673567981683
 21
0.03347906159217239
 31
0.0
 11
-0.024705910051966273
 21
0.03336829807615698
 31
0.0
 11
-0.024595146535950865
 21
0.03325753456014157
 31
0.0
 11
-0.024484383019935458
 21
0.033146771044126166
 31
0.0
 11
-0.024373619503920047
 21
0.033036007528110756
 31
0.0
 11
-0.024262855987904636
 21
0.032925244012095345
 31
0.0
  0
SPLINE
  5
32
330
17
100
AcDbEntity
  8
0
100
AcDbSpline
 70
0
 71
3
 72
0
 73
0
 74
100
 11
-0.024262855987904636
 21
0.032925244012095345
 31
0.0
 11
-0.024069609615382716
 21
0.032733524674661056
 31
0.0
 11
-0.023874848370149755
 21
0.032543344438583734
 31
0.0
 11
-0.023678584509924095
 21
0.032354715273266055
 31
0.0
 11
-0.023480830386994417
 21
0.032167649050490715
 31
0.0
 11
-0.023281598447442257
 21
0.03198215754367326
 31
0.0
 11
-0.02308090123035876
 21
0.031798252427121115
 31
0.0
 11
-0.02287875136705544
 21
0.03161594527529877
 31
0.0
 11
-0.022675161580269245
 21
0.031435247562099415
 31
0.0
 11
-0.022470144683361813
 21
0.03125617066012274
 31
0.0
 11
-0.022263713579513
 21
0.03107872583995915
 31
0.0
 11
-0.02205588126090887
 21
0.030902924269480537
 31
0.0
 11
-0.02184666080792389
 21
0.030728777013137264
 31
0.0
 11
-0.02163606538829783
 21
0.03055629503126194
 31
0.0
 11
-0.021424108256306872
 21
0.030385489179379478
 31
0.0
 11
-0.02121080275192956
 21
0.03021637020752399
 31
0.0
 11
-0.020996162300007105
 21
0.03004894875956212
 31
0.0
 11
-0.020780200409398552
 21
0.029883235372523218
 31
0.0
 11
-0.02056293067213054
 21
0.029719240475936142
 31
0.0
 11
-0.020344366762541807
 21
0.029556974391172827
 31
0.0
 11
-0.020124522436422675
 21
0.02939644733079875
 31
0.0
 11
-0.019903411530149177
 21
0.02923766939793011
 31
0.0
 11
-0.019681047959812358
 21
0.029080650585598018
 31
0.0
 11
-0.019457445720342307
 21
0.028925400776119537
 31
0.0
 11
-0.019232618884627475
 21
0.028771929740475738
 31
0.0
 11
-0.019006581602628903
 21
0.02862024713769673
 31
0.0
 11
-0.01877934810048964
 21
0.028470362514253725
 31
0.0
 11
-0.018550932679639476
 21
0.028322285303458268
 31
0.0
 11
-0.01832134971589476
 21
0.028176024824868466
 31
0.0
 11
-0.018090613658553707
 21
0.028031590283702498
 31
0.0
 11
-0.017858739029486908
 21
0.027888990770259216
 31
0.0
 11
-0.017625740422223462
 21
0.027748235259346072
 31
0.0
 11
-0.017391632501032456
 21
0.027609332609714245
 31
0.0
 11
-0.017156429999999993
 21
0.02747229156350108
 31
0.0
 11
-0.016920147722101972
 21
0.02733712074567992
 31
0.0
 11
-0.016682800538272324
 21
0.027203828663517247
 31
0.0
 11
-0.016444403386467174
 21
0.027072423706037293
 31
0.0
 11
-0.01620497127072459
 21
0.02694291414349399
 31
0.0
 11
-0.015964519260220373
 21
0.02681530812685055
 31
0.0
 11
-0.01572306248831959
 21
0.02668961368726641
 31
0.0
 11
-0.015480616151624087
 21
0.02656583873559178
 31
0.0
 11
-0.015237195509016163
 21
0.026443991061869784
 31
0.0
 11
-0.014992815880698097
 21
0.026324078334846127
 31
0.0
 11
-0.014747492647228053
 21
0.026206108101486516
 31
0.0
 11
-0.014501241248551972
 21
0.0260900877865016
 31
0.0
 11
-0.014254077183031904
 21
0.025976024691879752
 31
0.0
 11
-0.014006016006470539
 21
0.02586392599642743
 31
0.0
 11
-0.013757073331132177
 21
0.025753798755317425
 31
0.0
 11
-0.01350726482476015
 21
0.025645649899644803
 31
0.0
 11
-0.01325660620959072
 21
0.02553948623599066
 31
0.0
 11
-0.0130051132613636
 21
0.025435314445993795
 31
0.0
 11
-0.012752801808329021
 21
0.025333141085930114
 31
0.0
 11
-0.0124996877302516
 21
0.025232972586300046
 31
0.0
 11
-0.012245786957410873
 21
0.025134815251423817
 31
0.0
 11
-0.011991115469598716
 21
0.025038675259044667
 31
0.0
 11
-0.011735689295113606
 21
0.02494455865994003
 31
0.0
 11
-0.011479524509751843
 21
0.024852471377540732
 31
0.0
 11
-0.011222637235795824
 21
0.02476241920755819
 31
0.0
 11
-0.010965043640999275
 21
0.024674407817619638
 31
0.0
 11
-0.010706759937569787
 21
0.024588442746911413
 31
0.0
 11
-0.0104478023811484
 21
0.02450452940583036
 31
0.0
 11
-0.010188187269786549
 21
0.02442267307564329
 31
0.0
 11
-0.009927930942920304
 21
0.024342878908154595
 31
0.0
 11
-0.009667049780342019
 21
0.02426515192538205
 31
0.0
 11
-0.009405560201169423
 21
0.02418949701924067
 31
0.0
 11
-0.009143478662812248
 21
0.024115918951234896
 31
0.0
 11
-0.008880821659936476
 21
0.024044422352158867
 31
0.0
 11
-0.008617605723426163
 21
0.02397501172180501
 31
0.0
 11
-0.008353847419343061
 21
0.023907691428680808
 31
0.0
 11
-0.008089563347884002
 21
0.023842465709733873
 31
0.0
 11
-0.007824770142336108
 21
0.023779338670085266
 31
0.0
 11
-0.0075594844680299785
 21
0.023718314282771182
 31
0.0
 11
-0.007293723021290745
 21
0.02365939638849283
 31
0.0
 11
-0.0070275025283873605
 21
0.023602588695374755
 31
0.0
 11
-0.006760839744479779
 21
0.023547894778731454
 31
0.0
 11
-0.006493751452564542
 21
0.02349531808084235
 31
0.0
 11
-0.006226254462418422
 21
0.023444861910735134
 31
0.0
 11
-0.005958365609540507
 21
0.02339652944397752
 31
0.0
 11
-0.005690101754092604
 21
0.023350323722477376
 31
0.0
 11
-0.005421479779838112
 21
0.023306247654291283
 31
0.0
 11
-0.005152516593079435
 21
0.02326430401344152
 31
0.0
 11
-0.00488322912159387
 21
0.02322449543974141
 31
0.0
 11
-0.0046136343135683225
 21
0.023186824438629287
 31
0.0
 11
-0.004343749136532556
 21
0.02315129338101071
 31
0.0
 11
-0.004073590576291339
 21
0.023117904503109302
 31
0.0
 11
-0.0038031756358554037
 21
0.023086659906326006
 31
0.0
 11
-0.0035325213343713113
 21
0.02305756155710678
 31
0.0
 11
-0.0032616447060503585
 21
0.023030611286818894
 31
0.0
 11
-0.002990562799096405
 21
0.02300581079163566
 31
0.0
 11
-0.0027192926746330177
 21
0.022983161632429628
 31
0.0
 11
-0.002447851405629608
 21
0.022962665234674412
 31
0.0
 11
-0.002176256075826944
 21
0.022944322888354924
 31
0.0
 11
-0.0019045237786619413
 21
0.02292813574788625
 31
0.0
 11
-0.0016326716161918463
 21
0.022914104832040927
 31
0.0
 11
-0.001360716698017914
 21
0.022902231023884844
 31
0.0
 11
-0.0010886761402084998
 21
0.022892515070721695
 31
0.0
 11
-0.0008165670642219256
 21
0.022884957584045906
 31
0.0
 11
-0.0005444065958288234
 21
0.022879559039504185
 31
0.0
 11
-0.0002722118640343237
 21
0.022876319776865564
 31
0.0
 11
2.1010567084295628e-18
 21
0.02287523999999999
 31
0.0
  0
SPLINE
  5
33
330
17
100
AcDbEntity
  8
0
100
AcDbSpline
 70
0
 71
3
 72
0
 73
0
 74
100
 11
5.350691084133952e-19
 21
0.022875239999999998
 31
0.0
 11
3.312139462920043e-05
 21
0.022875302771104777
 31
0.0
 11
6.624231340918113e-05
 21
0.022875491083517295
 31
0.0
 11
9.936228049755795e-05
 21
0.022875804934532097
 31
0.0
 11
0.00013248082006562481
 21
0.02287624431964015
 31
0.0
 11
0.00016559745630517872
 21
0.022876809232528876
 31
0.0
 11
0.00019871171343536348
 21
0.02287749966508228
 31
0.0
 11
0.00023182311570950302
 21
0.022878315607381034
 31
0.0
 11
0.00026493118742193663
 21
0.022879257047702637
 31
0.0
 11
0.000298035452914851
 21
0.02288032397252159
 31
0.0
 11
0.00033113543658512236
 21
0.022881516366509563
 31
0.0
 11
0.00036423066289113673
 21
0.02288283421253565
 31
0.0
 11
0.00039732065635963087
 21
0.022884277491666587
 31
0.0
 11
0.0004304049415925203
 21
0.022885846183167042
 31
0.0
 11
0.0004634830432737302
 21
0.022887540264499896
 31
0.0
 11
0.0004965544861760213
 21
0.022889359711326593
 31
0.0
 11
0.000529618795167826
 21
0.022891304497507446
 31
0.0
 11
0.0005626754952200627
 21
0.022893374595102066
 31
0.0
 11
0.0005957241114129672
 21
0.02289556997436972
 31
0.0
 11
0.0006287641689429158
 21
0.022897890603769795
 31
0.0
 11
0.0006617951931292448
 21
0.02290033644996221
 31
0.0
 11
0.000694816709421069
 21
0.022902907477807922
 31
0.0
 11
0.0007278282434041079
 21
0.022905603650369435
 31
0.0
 11
0.0007608293208074885
 21
0.022908424928911316
 31
0.0
 11
0.0007938194675105682
 21
0.022911371272900747
 31
0.0
 11
0.0008267982095497435
 21
0.022914442640008133
 31
0.0
 11
0.0008597650731252595
 21
0.022917638986107682
 31
0.0
 11
0.0008927195846080157
 21
0.022920960265278054
 31
0.0
 11
0.0009256612705463773
 21
0.02292440642980302
 31
0.0
 11
0.0009585896576729661
 21
0.022927977430172143
 31
0.0
 11
0.0009915042729114678
 21
0.022931673215081497
 31
0.0
 11
0.0010244046433834258
 21
0.022935493731434383
 31
0.0
 11
0.0010572902964150342
 21
0.02293943892434213
 31
0.0
 11
0.0010901607595439353
 21
0.022943508737124845
 31
0.0
 11
0.0011230155605259967
 21
0.022947703111312244
 31
0.0
 11
0.0011558542273421028
 21
0.022952021986644495
 31
0.0
 11
0.0011886762882049352
 21
0.02295646530107309
 31
0.0
 11
0.0012214812715657497
 21
0.0229610329907617
 31
0.0
 11
0.001254268706121152
 21
0.022965724990087148
 31
0.0
 11
0.001287038120819866
 21
0.022970541231640305
 31
0.0
 11
0.0013197890448695105
 21
0.02297548164622708
 31
0.0
 11
0.0013525210077433487
 21
0.022980546162869413
 31
0.0
 11
0.0013852335391870594
 21
0.022985734708806285
 31
0.0
 11
0.0014179261692254881
 21
0.022991047209494773
 31
0.0
 11
0.0014505984281693986
 21
0.022996483588611127
 31
0.0
 11
0.001483249846622229
 21
0.02300204376805184
 31
0.0
 11
0.0015158799554868224
 21
0.02300772766793481
 31
0.0
 11
0.0015484882859721754
 21
0.023013535206600436
 31
0.0
 11
0.0015810743696001708
 21
0.023019466300612853
 31
0.0
 11
0.0016136377382123075
 21
0.02302552086476107
 31
0.0
 11
0.0016461779239764257
 21
0.02303169881206024
 31
0.0
 11
0.0016786944593934353
 21
0.023038000053752887
 31
0.0
 11
0.0017111868773040202
 21
0.023044424499310184
 31
0.0
 11
0.0017436547108953587
 21
0.02305097205643326
 31
0.0
 11
0.001776097493707827
 21
0.02305764263105452
 31
0.0
 11
0.0018085147596417005
 21
0.023064436127338998
 31
0.0
 11
0.0018409060429638562
 21
0.02307135244768573
 31
0.0
 11
0.0018732708783144526
 21
0.023078391492729167
 31
0.0
 11
0.0019056088007136244
 21
0.0230855531613406
 31
0.0
 11
0.0019379193455681591
 21
0.023092837350629593
 31
0.0
 11
0.001970202048678173
 21
0.02310024395594549
 31
0.0
 11
0.0020024564462437795
 21
0.023107772870878902
 31
0.0
 11
0.00203468207487175
 21
0.023115423987263246
 31
0.0
 11
0.0020668784715821833
 21
0.02312319719517628
 31
0.0
 11
0.0020990451738151375
 21
0.023131092382941695
 31
0.0
 11
0.0021311817194372916
 21
0.023139109437130736
 31
0.0
 11
0.0021632876467485773
 21
0.023147248242563798
 31
0.0
 11
0.0021953624944888134
 21
0.023155508682312104
 31
0.0
 11
0.002227405801844337
 21
0.023163890637699375
 31
0.0
 11
0.0022594171084546182
 21
0.02317239398830354
 31
0.0
 11
0.0022913959544188754
 21
0.023181018611958464
 31
0.0
 11
0.0023233418803026836
 21
0.023189764384755705
 31
0.0
 11
0.002355254427144576
 21
0.023198631181046293
 31
0.0
 11
0.002387133136462635
 21
0.02320761887344254
 31
0.0
 11
0.00241897755026108
 21
0.02321672733281985
 31
0.0
 11
0.0024507872110368528
 21
0.0232259564283186
 31
0.0
 11
0.0024825616617861813
 21
0.023235306027346005
 31
0.0
 11
0.0025143004460111504
 21
0.023244775995578035
 31
0.0
 11
0.0025460031077262583
 21
0.023254366196961324
 31
0.0
 11
0.0025776691914649753
 21
0.02326407649371515
 31
0.0
 11
0.002609298242286273
 21
0.023273906746333395
 31
0.0
 11
0.002640889805781173
 21
0.02328385681358656
 31
0.0
 11
0.0026724434280792687
 21
0.02329392655252379
 31
0.0
 11
0.0027039586558552492
 21
0.02330411581847492
 31
0.0
 11
0.0027354350363354104
 21
0.023314424465052566
 31
0.0
 11
0.00276687211730416
 21
0.02332485234415424
 31
0.0
 11
0.0027982694471105143
 21
0.023335399305964438
 31
0.0
 11
0.002829626574674591
 21
0.023346065198956822
 31
0.0
 11
0.0028609430494940832
 21
0.023356849869896393
 31
0.0
 11
0.002892218421650735
 21
0.0233677531638417
 31
0.0
 11
0.002923452241816803
 21
0.023378774924147038
 31
0.0
 11
0.0029546440612615217
 21
0.023389914992464733
 31
0.0
 11
0.002985793431857534
 21
0.023401173208747388
 31
0.0
 11
0.003016899906087343
 21
0.023412549411250205
 31
0.0
 11
0.0030479630370497325
 21
0.023424043436533287
 31
0.0
 11
0.0030789823784661947
 21
0.023435655119464015
 31
0.0
 11
0.0031099574846873367
 21
0.023447384293219384
 31
0.0
 11
0.0031408879106992844
 21
0.02345923078928844
 31
0.0
 11
0.0031717732121300793
 21
0.023471194437474665
 31
0.0
 11
0.0032026129452560567
 21
0.02348327506589844
 31
0.0
  0
SPLINE
  5
34
330
17
100
AcDbEntity
  8
0
100
AcDbSpline
 70
0
 71
3
 72
0
 73
0
 74
100
 11
0.0032026129452560567
 21
0.02348327506589844
 31
0.0
 11
0.004014462703948808
 21
0.023802741948659667
 31
0.0
 11
0.004822647832516852
 21
0.024120106811598877
 31
0.0
 11
0.005627168330960191
 21
0.024435369654716092
 31
0.0
 11
0.006428024199278825
 21
0.0247485304780113
 31
0.0
 11
0.0072252154374727534
 21
0.025059589281484492
 31
0.0
 11
0.008018742045541975
 21
0.025368546065135687
 31
0.0
 11
0.008808604023486493
 21
0.02567540082896487
 31
0.0
 11
0.009594801371306307
 21
0.025980153572972054
 31
0.0
 11
0.01037733408900141
 21
0.026282804297157226
 31
0.0
 11
0.011156202176571813
 21
0.026583353001520392
 31
0.0
 11
0.011931405634017506
 21
0.02688179968606156
 31
0.0
 11
0.0127029444613385
 21
0.02717814435078071
 31
0.0
 11
0.013470818658534783
 21
0.027472386995677864
 31
0.0
 11
0.014235028225606364
 21
0.02776452762075301
 31
0.0
 11
0.014995573162553235
 21
0.028054566226006147
 31
0.0
 11
0.015752453469375403
 21
0.028342502811437277
 31
0.0
 11
0.016505669146072866
 21
0.028628337377046405
 31
0.0
 11
0.017255220192645623
 21
0.028912069922833523
 31
0.0
 11
0.018001106609093674
 21
0.029193700448798644
 31
0.0
 11
0.01874332839541702
 21
0.02947322895494175
 31
0.0
 11
0.01948188555161566
 21
0.02975065544126285
 31
0.0
 11
0.020216778077689596
 21
0.030025979907761947
 31
0.0
 11
0.020948005973638825
 21
0.030299202354439038
 31
0.0
 11
0.02167556923946335
 21
0.030570322781294124
 31
0.0
 11
0.022399467875163167
 21
0.030839341188327197
 31
0.0
 11
0.023119701880738284
 21
0.03110625757553828
 31
0.0
 11
0.023836271256188694
 21
0.03137107194292734
 31
0.0
 11
0.02454917600151439
 21
0.031633784290494404
 31
0.0
 11
0.02525841611671539
 21
0.03189439461823945
 31
0.0
 11
0.025963991601791685
 21
0.03215290292616251
 31
0.0
 11
0.026665902456743263
 21
0.03240930921426354
 31
0.0
 11
0.027364148681570142
 21
0.03266361348254258
 31
0.0
 11
0.02805873027627232
 21
0.032915815730999616
 31
0.0
 11
0.028749647240849795
 21
0.03316591595963464
 31
0.0
 11
0.029436899575302555
 21
0.033413914168447655
 31
0.0
 11
0.030120487279630608
 21
0.033659810357438674
 31
0.0
 11
0.030800410353833966
 21
0.03390360452660768
 31
0.0
 11
0.03147666879791261
 21
0.03414529667595467
 31
0.0
 11
0.032149262611866555
 21
0.034384886805479666
 31
0.0
 11
0.03281819179569579
 21
0.034622374915182656
 31
0.0
 11
0.03348345634940033
 21
0.03485776100506365
 31
0.0
 11
0.03414505627298014
 21
0.03509104507512262
 31
0.0
 11
0.034802991566435265
 21
0.03532222712535959
 31
0.0
 11
0.03545726222976569
 21
0.03555130715577456
 31
0.0
 11
0.036107868262971396
 21
0.03577828516636751
 31
0.0
 11
0.03675480966605239
 21
0.03600316115713847
 31
0.0
 11
0.037398086439008695
 21
0.036225935128087416
 31
0.0
 11
0.038037698581840286
 21
0.03644660707921435
 31
0.0
 11
0.03867364609454717
 21
0.03666517701051928
 31
0.0
 11
0.039305928977129354
 21
0.036881644922002216
 31
0.0
 11
0.039934547229586836
 21
0.037096010813663136
 31
0.0
 11
0.04055950085191961
 21
0.03730827468550205
 31
0.0
 11
0.04118078984412766
 21
0.03751843653751897
 31
0.0
 11
0.04179841420621102
 21
0.03772649636971387
 31
0.0
 11
0.04241237393816968
 21
0.03793245418208677
 31
0.0
 11
0.04302266904000363
 21
0.03813630997463766
 31
0.0
 11
0.04362929951171287
 21
0.03833806374736655
 31
0.0
 11
0.044232265353297405
 21
0.03853771550027343
 31
0.0
 11
0.044831566564757244
 21
0.0387352652333583
 31
0.0
 11
0.04542720314609237
 21
0.03893071294662117
 31
0.0
 11
0.04601917509730279
 21
0.039124058640062034
 31
0.0
 11
0.0466074824183885
 21
0.03931530231368089
 31
0.0
 11
0.04719212510934952
 21
0.039504443967477744
 31
0.0
 11
0.04777310317018582
 21
0.03969148360145259
 31
0.0
 11
0.048350416600897415
 21
0.03987642121560542
 31
0.0
 11
0.048924065401484314
 21
0.04005925680993626
 31
0.0
 11
0.0494940495719465
 21
0.040239990384445076
 31
0.0
 11
0.05006036911228399
 21
0.0404186219391319
 31
0.0
 11
0.050623024022496764
 21
0.04059515147399672
 31
0.0
 11
0.05118201430258483
 21
0.04076957898903953
 31
0.0
 11
0.0517373399525482
 21
0.040941904484260334
 31
0.0
 11
0.05228900097238686
 21
0.04111212795965912
 31
0.0
 11
0.05283699736210082
 21
0.04128024941523591
 31
0.0
 11
0.053381329121690066
 21
0.041446268850990696
 31
0.0
 11
0.05392199625115462
 21
0.04161018626692348
 31
0.0
 11
0.05445899875049445
 21
0.041772001663034256
 31
0.0
 11
0.05499233661970958
 21
0.04193171503932302
 31
0.0
 11
0.055522009858800014
 21
0.042089326395789786
 31
0.0
 11
0.05604801846776573
 21
0.04224483573243453
 31
0.0
 11
0.05657036244660676
 21
0.04239824304925728
 31
0.0
 11
0.05708904179532307
 21
0.04254954834625803
 31
0.0
 11
0.05760405651391467
 21
0.04269875162343676
 31
0.0
 11
0.05811540660238157
 21
0.0428458528807935
 31
0.0
 11
0.05862309206072376
 21
0.04299085211832822
 31
0.0
 11
0.059127112888941256
 21
0.04313374933604094
 31
0.0
 11
0.05962746908703404
 21
0.04327454453393165
 31
0.0
 11
0.06012416065500212
 21
0.043413237712000355
 31
0.0
 11
0.06061718759284549
 21
0.043549828870247054
 31
0.0
 11
0.06110654990056416
 21
0.04368431800867175
 31
0.0
 11
0.06159224757815812
 21
0.04381670512727444
 31
0.0
 11
0.06207428062562738
 21
0.043946990226055124
 31
0.0
 11
0.06255264904297193
 21
0.0440751733050138
 31
0.0
 11
0.06302735283019177
 21
0.04420125436415046
 31
0.0
 11
0.06349839198728692
 21
0.04432523340346513
 31
0.0
 11
0.06396576651425735
 21
0.04444711042295779
 31
0.0
 11
0.06442947641110308
 21
0.04456688542262845
 31
0.0
 11
0.06488952167782411
 21
0.04468455840247709
 31
0.0
 11
0.06534590231442042
 21
0.04480012936250373
 31
0.0
 11
0.06579861832089204
 21
0.044913598302708364
 31
0.0
  0
ENDSEC
  0
SECTION
  2
OBJECTS
  0
DICTIONARY
  5
A
330
0
100
AcDbDictionary
281
1
  3
ACAD_COLOR
350
B
  3
ACAD_GROUP
350
C
  3
ACAD_LAYOUT
350
D
  3
ACAD_MATERIAL
350
E
  3
ACAD_MLEADERSTYLE
350
F
  3
ACAD_MLINESTYLE
350
10
  3
ACAD_PLOTSETTINGS
350
11
  3
ACAD_PLOTSTYLENAME
350
12
  3
ACAD_SCALELIST
350
14
  3
ACAD_TABLESTYLE
350
15
  3
ACAD_VISUALSTYLE
350
16
  3
EZDXF_META
350
2D
  0
DICTIONARY
  5
B
330
A
100
AcDbDictionary
281
1
  0
DICTIONARY
  5
C
330
A
100
AcDbDictionary
281
1
  0
DICTIONARY
  5
D
330
A
100
AcDbDictionary
281
1
  3
Model
350
1A
  3
Layout1
350
1E
  0
DICTIONARY
  5
E
330
A
100
AcDbDictionary
281
1
  3
ByBlock
350
1F
  3
ByLayer
350
20
  3
Global
350
21
  0
DICTIONARY
  5
F
330
A
100
AcDbDictionary
281
1
  3
Standard
350
2C
  0
DICTIONARY
  5
10
330
A
100
AcDbDictionary
281
1
  3
Standard
350
22
  0
DICTIONARY
  5
11
330
A
100
AcDbDictionary
281
1
  0
ACDBDICTIONARYWDFLT
  5
12
330
A
100
AcDbDictionary
281
1
  3
Normal
350
13
100
AcDbDictionaryWithDefault
340
13
  0
ACDBPLACEHOLDER
  5
13
330
12
  0
DICTIONARY
  5
14
330
A
100
AcDbDictionary
281
1
  0
DICTIONARY
  5
15
330
A
100
AcDbDictionary
281
1
  0
DICTIONARY
  5
16
330
A
100
AcDbDictionary
281
1
  0
LAYOUT
  5
1A
330
D
100
AcDbPlotSettings
  1

  4
A3
  6

 40
7.5
 41
20.0
 42
7.5
 43
20.0
 44
420.0
 45
297.0
 46
0.0
 47
0.0
 48
0.0
 49
0.0
140
0.0
141
0.0
142
1.0
143
1.0
 70
1024
 72
1
 73
0
 74
5
  7

 75
16
 76
0
 77
2
 78
300
147
1.0
148
0.0
149
0.0
100
AcDbLayout
  1
Model
 70
1
 71
0
 10
0.0
 20
0.0
 11
420.0
 21
297.0
 12
0.0
 22
0.0
 32
0.0
 14
1e+20
 24
1e+20
 34
1e+20
 15
-1e+20
 25
-1e+20
 35
-1e+20
146
0.0
 13
0.0
 23
0.0
 33
0.0
 16
1.0
 26
0.0
 36
0.0
 17
0.0
 27
1.0
 37
0.0
 76
1
330
17
  0
LAYOUT
  5
1E
330
D
100
AcDbPlotSettings
  1

  4
A3
  6

 40
7.5
 41
20.0
 42
7.5
 43
20.0
 44
420.0
 45
297.0
 46
0.0
 47
0.0
 48
0.0
 49
0.0
140
0.0
141
0.0
142
1.0
143
1.0
 70
0
 72
1
 73
0
 74
5
  7

 75
16
 76
0
 77
2
 78
300
147
1.0
148
0.0
149
0.0
100
AcDbLayout
  1
Layout1
 70
1
 71
1
 10
0.0
 20
0.0
 11
420.0
 21
297.0
 12
0.0
 22
0.0
 32
0.0
 14
1e+20
 24
1e+20
 34
1e+20
 15
-1e+20
 25
-1e+20
 35
-1e+20
146
0.0
 13
0.0
 23
0.0
 33
0.0
 16
1.0
 26
0.0
 36
0.0
 17
0.0
 27
1.0
 37
0.0
 76
1
330
1B
  0
MATERIAL
  5
1F
102
{ACAD_REACTORS
330
E
102
}
330
E
100
AcDbMaterial
  1
ByBlock
  2

 70
0
 40
1.0
 71
1
 41
1.0
 91
-1023410177
 42
1.0
 72
1
  3

 73
1
 74
1
 75
1
 44
0.5
 73
0
 45
1.0
 46
1.0
 77
1
  4

 78
1
 79
1
170
1
 48
1.0
171
1
  6

172
1
173
1
174
1
140
1.0
141
1.0
175
1
  7

176
1
177
1
178
1
143
1.0
179
1
  8

270
1
271
1
272
1
145
1.0
146
1.0
273
1
  9

274
1
275
1
276
1
 42
1.0
 72
1
  3

 73
1
 74
1
 75
1
 94
63
  0
MATERIAL
  5
20
102
{ACAD_REACTORS
330
E
102
}
330
E
100
AcDbMaterial
  1
ByLayer
  2

 70
0
 40
1.0
 71
1
 41
1.0
 91
-1023410177
 42
1.0
 72
1
  3

 73
1
 74
1
 75
1
 44
0.5
 73
0
 45
1.0
 46
1.0
 77
1
  4

 78
1
 79
1
170
1
 48
1.0
171
1
  6

172
1
173
1
174
1
140
1.0
141
1.0
175
1
  7

176
1
177
1
178
1
143
1.0
179
1
  8

270
1
271
1
272
1
145
1.0
146
1.0
273
1
  9

274
1
275
1
276
1
 42
1.0
 72
1
  3

 73
1
 74
1
 75
1
 94
63
  0
MATERIAL
  5
21
102
{ACAD_REACTORS
330
E
102
}
330
E
100
AcDbMaterial
  1
Global
  2

 70
0
 40
1.0
 71
1
 41
1.0
 91
-1023410177
 42
1.0
 72
1
  3

 73
1
 74
1
 75
1
 44
0.5
 73
0
 45
1.0
 46
1.0
 77
1
  4

 78
1
 79
1
170
1
 48
1.0
171
1
  6

172
1
173
1
174
1
140
1.0
141
1.0
175
1
  7

176
1
177
1
178
1
143
1.0
179
1
  8

270
1
271
1
272
1
145
1.0
146
1.0
273
1
  9

274
1
275
1
276
1
 42
1.0
 72
1
  3

 73
1
 74
1
 75
1
 94
63
  0
MLINESTYLE
  5
22
102
{ACAD_REACTORS
330
10
102
}
330
10
100
AcDbMlineStyle
  2
Standard
 70
0
  3

 62
256
 51
90.0
 52
90.0
 71
2
 49
0.5
 62
256
  6
BYLAYER
 49
-0.5
 62
256
  6
BYLAYER
  0
MLEADERSTYLE
  5
2C
102
{ACAD_REACTORS
330
F
102
}
330
F
100
AcDbMLeaderStyle
179
2
170
2
171
1
172
0
 90
2
 40
0.0
 41
0.0
173
1
 91
-1056964608
 92
-2
290
1
 42
2.0
291
1
 43
8.0
  3
Standard
 44
4.0
300

342
29
174
1
175
1
176
0
178
1
 93
-1056964608
 45
4.0
292
0
297
0
 46
4.0
 94
-1056964608
 47
1.0
 49
1.0
140
1.0
294
1
141
0.0
177
0
142
1.0
295
0
296
0
143
3.75
271
0
272
9
273
9
  0
DICTIONARY
  5
2D
330
A
100
AcDbDictionary
280
1
281
1
  3
CREATED_BY_EZDXF
350
2E
  3
WRITTEN_BY_EZDXF
350
37
  0
DICTIONARYVAR
  5
2E
330
2D
100
DictionaryVariables
280
0
  1
1.4.4 @ 2026-09-19T15:52:40.043272+00:00
  0
DICTIONARYVAR
  5
37
330
2D
100
DictionaryVariables
280
0
  1
1.4.4 @ 2026-09-19T15:52:40.045619+00:00
  0
ENDSEC
  0
EOF
