  0
SECTION
  2
HEADER
  9
$ACADVER
  1
AC1024
  9
$ACADMAINTVER
 70
6
  9
$DWGCODEPAGE
  3
ANSI_1252
  9
$LASTSAVEDBY
  1
ezdxf
  9
$INSBASE
 10
0.0
 20
0.0
 30
0.0
  9
$EXTMIN
 10
1e+20
 20
1e+20
 30
1e+20
  9
$EXTMAX
 10
-1e+20
 20
-1e+20
 30
-1e+20
  9
$LIMMIN
 10
0.0
 20
0.0
  9
$LIMMAX
 10
420.0
 20
297.0
  9
$ORTHOMODE
 70
0
  9
$REGENMODE
 70
1
  9
$FILLMODE
 70
1
  9
$QTEXTMODE
 70
0
  9
$MIRRTEXT
 70
1
  9
$LTSCALE
 40
1.0
  9
$ATTMODE
 70
1
  9
$TEXTSIZE
 40
2.5
  9
$TRACEWID
 40
1.0
  9
$TEXTSTYLE
  7
Standard
  9
$CLAYER
  8
0
  9
$CELTYPE
  6
ByLayer
  9
$CECOLOR
 62
256
  9
$CELTSCALE
 40
1.0
  9
$DISPSILH
 70
0
  9
$DIMSCALE
 40
1.0
  9
$DIMASZ
 40
2.5
  9
$DIMEXO
 40
0.625
  9
$DIMDLI
 40
3.75
  9
$DIMRND
 40
0.0
  9
$DIMDLE
 40
0.0
  9
$DIMEXE
 40
1.25
  9
$DIMTP
 40
0.0
  9
$DIMTM
 40
0.0
  9
$DIMTXT
 40
2.5
  9
$DIMCEN
 40
2.5
  9
$DIMTSZ
 40
0.0
  9
$DIMTOL
 70
0
  9
$DIMLIM
 70
0
  9
$DIMTIH
 70
0
  9
$DIMTOH
 70
0
  9
$DIMSE1
 70
0
  9
$DIMSE2
 70
0
  9
$DIMTAD
 70
1
  9
$DIMZIN
 70
8
  9
$DIMBLK
  1

  9
$DIMASO
 70
1
  9
$DIMSHO
 70
1
  9
$DIMPOST
  1

  9
$DIMAPOST
  1

  9
$DIMALT
 70
0
  9
$DIMALTD
 70
3
  9
$DIMALTF
 40
0.03937007874
  9
$DIMLFAC
 40
1.0
  9
$DIMTOFL
 70
1
  9
$DIMTVP
 40
0.0
  9
$DIMTIX
 70
0
  9
$DIMSOXD
 70
0
  9
$DIMSAH
 70
0
  9
$DIMBLK1
  1

  9
$DIMBLK2
  1

  9
$DIMSTYLE
  2
ISO-25
  9
$DIMCLRD
 70
0
  9
$DIMCLRE
 70
0
  9
$DIMCLRT
 70
0
  9
$DIMTFAC
 40
1.0
  9
$DIMGAP
 40
0.625
  9
$DIMJUST
 70
0
  9
$DIMSD1
 70
0
  9
$DIMSD2
 70
0
  9
$DIMTOLJ
 70
0
  9
$DIMTZIN
 70
8
  9
$DIMALTZ
 70
0
  9
$DIMALTTZ
 70
0
  9
$DIMUPT
 70
0
  9
$DIMDEC
 70
2
  9
$DIMTDEC
 70
2
  9
$DIMALTU
 70
2
  9
$DIMALTTD
 70
3
  9
$DIMTXSTY
  7
Standard
  9
$DIMAUNIT
 70
0
  9
$DIMADEC
 70
0
  9
$DIMALTRND
 40
0.0
  9
$DIMAZIN
 70
0
  9
$DIMDSEP
 70
44
  9
$DIMATFIT
 70
3
  9
$DIMFRAC
 70
0
  9
$DIMLDRBLK
  1

  9
$DIMLUNIT
 70
2
  9
$DIMLWD
 70
-2
  9
$DIMLWE
 70
-2
  9
$DIMTMOVE
 70
0
  9
$DIMFXL
 40
1.0
  9
$DIMFXLON
 70
0
  9
$DIMJOGANG
 40
0.785398163397
  9
$DIMTFILL
 70
0
  9
$DIMTFILLCLR
 70
0
  9
$DIMARCSYM
 70
0
  9
$DIMLTYPE
  6

  9
$DIMLTEX1
  6

  9
$DIMLTEX2
  6

  9
$DIMTXTDIRECTION
 70
0
  9
$LUNITS
 70
2
  9
$LUPREC
 70
4
  9
$SKETCHINC
 40
1.0
  9
$FILLETRAD
 40
10.0
  9
$AUNITS
 70
0
  9
$AUPREC
 70
2
  9
$MENU
  1
.
  9
$ELEVATION
 40
0.0
  9
$PELEVATION
 40
0.0
  9
$THICKNESS
 40
0.0
  9
$LIMCHECK
 70
0
  9
$CHAMFERA
 40
0.0
  9
$CHAMFERB
 40
0.0
  9
$CHAMFERC
 40
0.0
  9
$CHAMFERD
 40
0.0
  9
$SKPOLY
 70
0
  9
$TDCREATE
 40
2460998.8393055554
  9
$TDUCREATE
 40
2458532.153996898
  9
$TDUPDATE
 40
2460998.8393055554
  9
$TDUUPDATE
 40
2458532.1544311
  9
$TDINDWG
 40
0.0
  9
$TDUSRTIMER
 40
0.0
  9
$USRTIMER
 70
1
  9
$ANGBASE
 50
0.0
  9
$ANGDIR
 70
0
  9
$PDMODE
 70
0
  9
$PDSIZE
 40
0.0
  9
$PLINEWID
 40
0.0
  9
$SPLFRAME
 70
0
  9
$SPLINETYPE
 70
6
  9
$SPLINESEGS
 70
8
  9
$HANDSEED
  5
33
  9
$SURFTAB1
 70
6
  9
$SURFTAB2
 70
6
  9
$SURFTYPE
 70
6
  9
$SURFU
 70
6
  9
$SURFV
 70
6
  9
$UCSBASE
  2

  9
$UCSNAME
  2

  9
$UCSORG
 10
0.0
 20
0.0
 30
0.0
  9
$UCSXDIR
 10
1.0
 20
0.0
 30
0.0
  9
$UCSYDIR
 10
0.0
 20
1.0
 30
0.0
  9
$UCSORTHOREF
  2

  9
$UCSORTHOVIEW
 70
0
  9
$UCSORGTOP
 10
0.0
 20
0.0
 30
0.0
  9
$UCSORGBOTTOM
 10
0.0
 20
0.0
 30
0.0
  9
$UCSORGLEFT
 10
0.0
 20
0.0
 30
0.0
  9
$UCSORGRIGHT
 10
0.0
 20
0.0
 30
0.0
  9
$UCSORGFRONT
 10
0.0
 20
0.0
 30
0.0
  9
$UCSORGBACK
 10
0.0
 20
0.0
 30
0.0
  9
$PUCSBASE
  2

  9
$PUCSNAME
  2

  9
$PUCSORG
 10
0.0
 20
0.0
 30
0.0
  9
$PUCSXDIR
 10
1.0
 20
0.0
 30
0.0
  9
$PUCSYDIR
 10
0.0
 20
1.0
 30
0.0
  9
$PUCSORTHOREF
  2

  9
$PUCSORTHOVIEW
 70
0
  9
$PUCSORGTOP
 10
0.0
 20
0.0
 30
0.0
  9
$PUCSORGBOTTOM
 10
0.0
 20
0.0
 30
0.0
  9
$PUCSORGLEFT
 10
0.0
 20
0.0
 30
0.0
  9
$PUCSORGRIGHT
 10
0.0
 20
0.0
 30
0.0
  9
$PUCSORGFRONT
 10
0.0
 20
0.0
 30
0.0
  9
$PUCSORGBACK
 10
0.0
 20
0.0
 30
0.0
  9
$USERI1
 70
0
  9
$USERI2
 70
0
  9
$USERI3
 70
0
  9
$USERI4
 70
0
  9
$USERI5
 70
0
  9
$USERR1
 40
0.0
  9
$USERR2
 40
0.0
  9
$USERR3
 40
0.0
  9
$USERR4
 40
0.0
  9
$USERR5
 40
0.0
  9
$WORLDVIEW
 70
1
  9
$SHADEDGE
 70
3
  9
$SHADEDIF
 70
70
  9
$TILEMODE
 70
1
  9
$MAXACTVP
 70
64
  9
$PINSBASE
 10
0.0
 20
0.0
 30
0.0
  9
$PLIMCHECK
 70
0
  9
$PEXTMIN
 10
1e+20
 20
1e+20
 30
1e+20
  9
$PEXTMAX
 10
-1e+20
 20
-1e+20
 30
-1e+20
  9
$PLIMMIN
 10
0.0
 20
0.0
  9
$PLIMMAX
 10
420.0
 20
297.0
  9
$UNITMODE
 70
0
  9
$VISRETAIN
 70
1
  9
$PLINEGEN
 70
0
  9
$PSLTSCALE
 70
1
  9
$TREEDEPTH
 70
3020
  9
$CMLSTYLE
  2
Standard
  9
$CMLJUST
 70
0
  9
$CMLSCALE
 40
20.0
  9
$PROXYGRAPHICS
 70
1
  9
$MEASUREMENT
 70
1
  9
$CELWEIGHT
370
-1
  9
$ENDCAPS
280
0
  9
$JOINSTYLE
280
0
  9
$LWDISPLAY
290
0
  9
$INSUNITS
 70
6
  9
$HYPERLINKBASE
  1

  9
$STYLESHEET
  1

  9
$XEDIT
290
1
  9
$CEPSNTYPE
380
0
  9
$PSTYLEMODE
290
1
  9
$FINGERPRINTGUID
  2
{0679D770-8D70-49BC-81B8-7C3BF71D3E85}
  9
$VERSIONGUID
  2
{9E53476D-5B30-4AD4-AF2E-B7DA5FC5914E}
  9
$EXTNAMES
290
1
  9
$PSVPSCALE
 40
0.0
  9
$OLESTARTUP
290
0
  9
$SORTENTS
280
127
  9
$INDEXCTL
280
0
  9
$HIDETEXT
280
1
  9
$XCLIPFRAME
280
1
  9
$HALOGAP
280
0
  9
$OBSCOLOR
 70
257
  9
$OBSLTYPE
280
0
  9
$INTERSECTIONDISPLAY
280
0
  9
$INTERSECTIONCOLOR
 70
257
  9
$DIMASSOC
280
2
  9
$PROJECTNAME
  1

  9
$CAMERADISPLAY
290
0
  9
$LENSLENGTH
 40
50.0
  9
$CAMERAHEIGHT
 40
0.0
  9
$STEPSPERSEC
 40
24.0
  9
$STEPSIZE
 40
100.0
  9
$3DDWFPREC
 40
2.0
  9
$PSOLWIDTH
 40
0.005
  9
$PSOLHEIGHT
 40
0.08
  9
$LOFTANG1
 40
1.570796326795
  9
$LOFTANG2
 40
1.570796326795
  9
$LOFTMAG1
 40
0.0
  9
$LOFTMAG2
 40
0.0
  9
$LOFTPARAM
 70
7
  9
$LOFTNORMALS
280
1
  9
$LATITUDE
 40
37.795
  9
$LONGITUDE
 40
-122.394
  9
$NORTHDIRECTION
 40
0.0
  9
$TIMEZONE
 70
-8000
  9
$LIGHTGLYPHDISPLAY
280
1
  9
$TILEMODELIGHTSYNCH
280
1
  9
$CMATERIAL
347
20
  9
$SOLIDHIST
280
0
  9
$SHOWHIST
280
1
  9
$DWFFRAME
280
2
  9
$DGNFRAME
280
2
  9
$REALWORLDSCALE
290
1
  9
$INTERFERECOLOR
 62
256
  9
$CSHADOW
280
0
  9
$SHADOWPLANELOCATION
 40
0.0
  0
ENDSEC
  0
SECTION
  2
CLASSES
  0
CLASS
  1
ACDBDICTIONARYWDFLT
  2
AcDbDictionaryWithDefault
  3
ObjectDBX Classes
 90
0
 91
0
280
0
281
0
  0
CLASS
  1
SUN
  2
AcDbSun
  3
SCENEOE
 90
1153
 91
0
280
0
281
0
  0
CLASS
  1
VISUALSTYLE
  2
AcDbVisualStyle
  3
ObjectDBX Classes
 90
4095
 91
0
280
0
281
0
  0
CLASS
  1
MATERIAL
  2
AcDbMaterial
  3
ObjectDBX Classes
 90
1153
 91
0
280
0
281
0
  0
CLASS
  1
SCALE
  2
AcDbScale
  3
ObjectDBX Classes
 90
1153
 91
0
280
0
281
0
  0
CLASS
  1
TABLESTYLE
  2
AcDbTableStyle
  3
ObjectDBX Classes
 90
4095
 91
0
280
0
281
0
  0
CLASS
  1
MLEADERSTYLE
  2
AcDbMLeaderStyle
  3
ACDB_MLEADERSTYLE_CLASS
 90
4095
 91
0
280
0
281
0
  0
CLASS
  1
DICTIONARYVAR
  2
AcDbDictionaryVar
  3
ObjectDBX Classes
 90
0
 91
0
280
0
281
0
  0
CLASS
  1
CELLSTYLEMAP
  2
AcDbCellStyleMap
  3
ObjectDBX Classes
 90
1152
 91
0
280
0
281
0
  0
CLASS
  1
MENTALRAYRENDERSETTINGS
  2
AcDbMentalRayRenderSettings
  3
SCENEOE
 90
1024
 91
0
280
0
281
0
  0
CLASS
  1
ACDBDETAILVIEWSTYLE
  2
AcDbDetailViewStyle
  3
ObjectDBX Classes
 90
1025
 91
0
280
0
281
0
  0
CLASS
  1
ACDBSECTIONVIEWSTYLE
  2
AcDbSectionViewStyle
  3
ObjectDBX Classes
 90
1025
 91
0
280
0
281
0
  0
CLASS
  1
RASTERVARIABLES
  2
AcDbRasterVariables
  3
ISM
 90
0
 91
0
280
0
281
0
  0
CLASS
  1
ACDBPLACEHOLDER
  2
AcDbPlaceHolder
  3
ObjectDBX Classes
 90
0
 91
0
280
0
281
0
  0
CLASS
  1
LAYOUT
  2
AcDbLayout
  3
ObjectDBX Classes
 90
0
 91
0
280
0
281
0
  0
ENDSEC
  0
SECTION
  2
TABLES
  0
TABLE
  2
VPORT
  5
8
330
0
100
AcDbSymbolTable
 70
1
  0
VPORT
  5
23
330
8
100
AcDbSymbolTableRecord
100
AcDbViewportTableRecord
  2
*Active
 70
0
 10
0.0
 20
0.0
 11
1.0
 21
1.0
 12
0.0
 22
0.0
 13
0.0
 23
0.0
 14
0.5
 24
0.5
 15
0.5
 25
0.5
 16
0.0
 26
0.0
 36
1.0
 17
0.0
 27
0.0
 37
0.0
 40
1000.0
 41
1.34
 42
50.0
 43
0.0
 44
0.0
 50
0.0
 51
0.0
 71
0
 72
1000
 73
1
 74
3
 75
0
 76
0
 77
0
 78
0
281
0
 65
0
146
0.0
  0
ENDTAB
  0
TABLE
  2
LTYPE
  5
2
330
0
100
AcDbSymbolTable
 70
3
  0
LTYPE
  5
24
330
2
100
AcDbSymbolTableRecord
100
AcDbLinetypeTableRecord
  2
ByBlock
 70
0
  3

 72
65
 73
0
 40
0.0
  0
LTYPE
  5
25
330
2
100
AcDbSymbolTableRecord
100
AcDbLinetypeTableRecord
  2
ByLayer
 70
0
  3

 72
65
 73
0
 40
0.0
  0
LTYPE
  5
26
330
2
100
AcDbSymbolTableRecord
100
AcDbLinetypeTableRecord
  2
Continuous
 70
0
  3

 72
65
 73
0
 40
0.0
  0
ENDTAB
  0
TABLE
  2
LAYER
  5
1
330
0
100
AcDbSymbolTable
 70
2
  0
LAYER
  5
27
330
1
100
AcDbSymbolTableRecord
100
AcDbLayerTableRecord
  2
0
 70
0
 62
7
  6
Continuous
370
-3
390
13
347
21
  0
LAYER
  5
28
330
1
100
AcDbSymbolTableRecord
100
AcDbLayerTableRecord
  2
Defpoints
 70
0
 62
7
  6
Continuous
290
0
370
-3
390
13
347
21
  0
ENDTAB
  0
TABLE
  2
STYLE
  5
5
330
0
100
AcDbSymbolTable
 70
1
  0
STYLE
  5
29
330
5
100
AcDbSymbolTableRecord
100
AcDbTextStyleTableRecord
  2
Standard
 70
0
 40
0.0
 41
1.0
 50
0.0
 71
0
 42
2.5
  3
txt
  4

  0
ENDTAB
  0
TABLE
  2
VIEW
  5
7
330
0
100
AcDbSymbolTable
 70
0
  0
ENDTAB
  0
TABLE
  2
UCS
  5
6
330
0
100
AcDbSymbolTable
 70
0
  0
ENDTAB
  0
TABLE
  2
APPID
  5
3
330
0
100
AcDbSymbolTable
 70
3
  0
APPID
  5
2A
330
3
100
AcDbSymbolTableRecord
100
AcDbRegAppTableRecord
  2
ACAD
 70
0
  0
APPID
  5
30
330
3
100
AcDbSymbolTableRecord
100
AcDbRegAppTableRecord
  2
HATCHBACKGROUNDCOLOR
 70
0
  0
APPID
  5
31
330
3
100
AcDbSymbolTableRecord
100
AcDbRegAppTableRecord
  2
EZDXF
 70
0
  0
ENDTAB
  0
TABLE
  2
DIMSTYLE
  5
4
330
0
100
AcDbSymbolTable
 70
1
100
AcDbDimStyleTable
  0
DIMSTYLE
105
2B
330
4
100
AcDbSymbolTableRecord
100
AcDbDimStyleTableRecord
  2
Standard
 70
0
 40
1.0
 41
2.5
 42
0.625
 43
3.75
 44
1.25
 45
0.0
 46
0.0
 47
0.0
 48
0.0
 49
2.5
140
2.5
141
2.5
142
0.0
143
0.03937007874
144
1.0
145
0.0
146
1.0
147
0.625
148
0.0
 69
0
 70
0
 71
0
 72
0
 73
0
 74
0
 75
0
 76
0
 77
1
 78
8
 79
3
170
0
171
3
172
1
173
0
174
0
175
0
176
0
177
0
178
0
179
2
271
2
272
2
273
2
274
3
275
0
276
0
277
2
278
44
279
0
280
0
281
0
282
0
283
0
284
8
285
0
286
0
288
0
289
3
290
0
371
-2
372
-2
  0
ENDTAB
  0
TABLE
  2
BLOCK_RECORD
  5
9
330
0
100
AcDbSymbolTable
 70
2
  0
BLOCK_RECORD
  5
17
330
9
100
AcDbSymbolTableRecord
100
AcDbBlockTableRecord
  2
*Model_Space
340
1A
 70
0
280
1
281
0
  0
BLOCK_RECORD
  5
1B
330
9
100
AcDbSymbolTableRecord
100
AcDbBlockTableRecord
  2
*Paper_Space
340
1E
 70
0
280
1
281
0
  0
ENDTAB
  0
ENDSEC
  0
SECTION
  2
BLOCKS
  0
BLOCK
  5
18
330
17
100
AcDbEntity
  8
0
100
AcDbBlockBegin
  2
*Model_Space
 70
0
 10
0.0
 20
0.0
 30
0.0
  3
*Model_Space
  1

  0
ENDBLK
  5
19
330
17
100
AcDbEntity
  8
0
100
AcDbBlockEnd
  0
BLOCK
  5
1C
330
1B
100
AcDbEntity
  8
0
100
AcDbBlockBegin
  2
*Paper_Space
 70
0
 10
0.0
 20
0.0
 30
0.0
  3
*Paper_Space
  1

  0
ENDBLK
  5
1D
330
1B
100
AcDbEntity
  8
0
100
AcDbBlockEnd
  0
ENDSEC
  0
SECTION
  2
ENTITIES
  0
LWPOLYLINE
  5
2F
330
17
100
AcDbEntity
  8
0
100
AcDbPolyline
 90
601
 70
0
 10
-280.3398
 20
71.97641208643286
 10
-278.16447787959555
 20
71.97641208643286
 10
-275.98915575919114
 20
71.97641208643286
 10
-273.81383363878666
 20
71.97641208643286
 10
-271.6385115183822
 20
71.97641208643286
 10
-269.46318939797777
 20
71.97641208643286
 10
-267.28786727757335
 20
71.97641208643286
 10
-265.1125451571689
 20
71.97641208643286
 10
-262.9372230367644
 20
71.97641208643286
 10
-260.76190091636
 20
71.97641208643286
 10
-258.5865787959556
 20
71.97641208643286
 10
-256.4112566755511
 20
71.97641208643286
 10
-254.23593455514666
 20
71.97641208643286
 10
-252.06061243474218
 20
71.97641208643286
 10
-249.88529031433774
 20
71.97641208643286
 10
-247.7099681939333
 20
71.97641208643286
 10
-245.53464607352885
 20
71.97641208643286
 10
-243.3593239531244
 20
71.97641208643286
 10
-241.18400183271996
 20
71.97641208643286
 10
-239.0086797123155
 20
71.97641208643286
 10
-236.83335759191107
 20
71.97641208643286
 10
-234.65803547150662
 20
71.97641208643286
 10
-232.48271335110215
 20
71.97641208643286
 10
-230.3073912306977
 20
71.97641208643286
 10
-228.13206911029326
 20
71.97641208643286
 10
-225.9567469898888
 20
71.97641208643286
 10
-223.78142486948437
 20
71.97641208643286
 10
-221.60610274907992
 20
71.97641208643286
 10
-219.43078062867548
 20
71.97641208643286
 10
-217.25545850827103
 20
71.97641208643286
 10
-215.0801363878666
 20
71.97641208643286
 10
-212.90481426746211
 20
71.97641208643286
 10
-210.72949214705767
 20
71.97641208643286
 10
-208.55417002665322
 20
71.97641208643286
 10
-206.37884790624878
 20
71.97641208643286
 10
-204.20352578584433
 20
71.97641208643286
 10
-202.0282036654399
 20
71.97641208643286
 10
-199.85288154503544
 20
71.97641208643286
 10
-197.677559424631
 20
71.97641208643286
 10
-195.50223730422655
 20
71.97641208643286
 10
-193.32691518382208
 20
71.97641208643286
 10
-191.15159306341764
 20
71.97641208643286
 10
-188.9762709430132
 20
71.97641208643286
 10
-186.80094882260875
 20
71.97641208643286
 10
-184.6256267022043
 20
71.97641208643286
 10
-182.45030458179986
 20
71.97641208643286
 10
-180.2749824613954
 20
71.97641208643286
 10
-178.09966034099097
 20
71.97641208643286
 10
-175.9243382205865
 20
71.97641208643286
 10
-173.74901610018208
 20
71.97641208643286
 10
-171.5736939797776
 20
71.97641208643286
 10
-169.39837185937316
 20
71.97641208643286
 10
-167.2230497389687
 20
71.97641208643286
 10
-165.04772761856427
 20
71.97641208643286
 10
-162.87240549815982
 20
71.97641208643286
 10
-160.69708337775538
 20
71.97641208643286
 10
-158.52176125735093
 20
71.97641208643286
 10
-156.34643913694646
 20
71.97641208643286
 10
-154.17111701654204
 20
71.97641208643286
 10
-151.99579489613757
 20
71.97641208643286
 10
-149.82047277573315
 20
71.97641208643286
 10
-147.64515065532868
 20
71.97641208643286
 10
-145.46982853492423
 20
71.97641208643286
 10
-143.2945064145198
 20
71.97641208643286
 10
-141.11918429411534
 20
71.97641208643286
 10
-138.9438621737109
 20
71.97641208643286
 10
-136.76854005330642
 20
71.97641208643286
 10
-134.593217932902
 20
71.97641208643286
 10
-132.41789581249753
 20
71.97641208643286
 10
-130.24257369209312
 20
71.97641208643286
 10
-128.06725157168864
 20
71.97641208643286
 10
-125.8919294512842
 20
71.97641208643286
 10
-123.71660733087975
 20
71.97641208643286
 10
-121.54128521047531
 20
71.97641208643286
 10
-119.36596309007086
 20
71.97641208643286
 10
-117.1906409696664
 20
71.97641208643286
 10
-115.01531884926196
 20
71.97641208643286
 10
-112.83999672885751
 20
71.97641208643286
 10
-110.66467460845305
 20
71.97641208643286
 10
-108.48935248804861
 20
71.97641208643286
 10
-106.31403036764416
 20
71.97641208643286
 10
-104.13870824723972
 20
71.97641208643286
 10
-101.96338612683527
 20
71.97641208643286
 10
-99.78806400643083
 20
71.97641208643286
 10
-97.61274188602638
 20
71.97641208643286
 10
-95.43741976562193
 20
71.97641208643286
 10
-93.26209764521748
 20
71.97641208643286
 10
-91.08677552481302
 20
71.97641208643286
 10
-88.91145340440858
 20
71.97641208643286
 10
-86.73613128400413
 20
71.97641208643286
 10
-84.56080916359969
 20
71.97641208643286
 10
-82.38548704319524
 20
71.97641208643286
 10
-80.2101649227908
 20
71.97641208643286
 10
-78.03484280238634
 20
71.97641208643286
 10
-75.85952068198189
 20
71.97641208643286
 10
-73.68419856157745
 20
71.97641208643286
 10
-71.508876441173
 20
71.97641208643286
 10
-69.33355432076854
 20
71.97641208643286
 10
-67.1582322003641
 20
71.97641208643286
 10
-64.98291007995965
 20
71.97641208643286
 10
-64.98291007995965
 20
71.97641208643286
 10
-64.84172400255812
 20
71.97585204669815
 10
-64.70054681100639
 20
71.97417196274132
 10
-64.55938739059502
 20
71.97137194030209
 10
-64.41825462549609
 20
71.96745215560588
 10
-64.27715739820408
 20
71.9624128553528
 10
-64.13610458897682
 20
71.95625435670205
 10
-63.99510507527658
 20
71.94897704725199
 10
-63.85416773121139
 20
71.94058138501579
 10
-63.71330142697648
 20
71.93106789839251
 10
-63.57251502829603
 20
71.92043718613392
 10
-63.43181739586521
 20
71.9086899173068
 10
-63.29121738479248
 20
71.8958268312508
 10
-63.150723844042304
 20
71.88184873753195
 10
-63.010345615878194
 20
71.86675651589167
 10
-62.87009153530622
 20
71.85055111619141
 10
-62.72997042951896
 20
71.83323355835292
 10
-62.58999111733993
 20
71.814804932294
 10
-62.45016240866856
 20
71.79526639785986
 10
-62.31049310392574
 20
71.7746191847503
 10
-62.17099199349991
 20
71.75286459244212
 10
-62.03166785719385
 20
71.73000399010742
 10
-61.89252946367209
 20
71.70603881652745
 10
-61.75358556990904
 20
71.68097058000198
 10
-61.61484492063784
 20
71.6548008582545
 10
-61.476316247800014
 20
71.62753129833278
 10
-61.338008269995875
 20
71.5991636165053
 10
-61.19992969193584
 20
71.56969959815318
 10
-61.06208920389255
 20
71.53914109765789
 10
-60.924495481153926
 20
71.50749003828444
 10
-60.7871571834772
 20
71.4747484120604
 10
-60.65008295454387
 20
71.44091827965056
 10
-60.5132814214157
 20
71.40600177022712
 10
-60.37676119399176
 20
71.37000108133579
 10
-60.240530864466535
 20
71.33291847875745
 10
-60.10459900678916
 20
71.29475629636555
 10
-59.96897417612381
 20
71.2555169359792
 10
-59.83366490831124
 20
71.21520286721206
 10
-59.6986797193316
 20
71.17381662731684
 10
-59.564027104768414
 20
71.13136082102568
 10
-59.429715539273936
 20
71.08783812038617
 10
-59.295753476035756
 20
71.04325126459318
 10
-59.16214934624479
 20
70.9976030598165
 10
-59.028911558564644
 20
70.9508963790242
 10
-58.89604849860238
 20
70.90313416180179
 10
-58.763568528380794
 20
70.85431941416728
 10
-58.63147998581207
 20
70.80445520838191
 10
-58.49979118417307
 20
70.75354468275685
 10
-58.3685104115821
 20
70.70159104145567
 10
-58.237645930477264
 20
70.64859755429265
 10
-58.107205977096484
 20
70.59456755652702
 10
-57.9771987609591
 20
70.53950444865303
 10
-57.84763246434922
 20
70.48341169618594
 10
-57.7185152418007
 20
70.42629282944391
 10
-57.589855219584
 20
70.36815144332584
 10
-57.46166049519465
 20
70.30899119708504
 10
-57.333939136843675
 20
70.24881581409899
 10
-57.20669918294979
 20
70.18762908163502
 10
-57.079948641633486
 20
70.1254348506119
 10
-56.95369549021302
 20
70.06223703535744
 10
-56.827947674702344
 20
69.99803961336227
 10
-56.70271310931099
 20
69.93284662502937
 10
-56.57799967594602
 20
69.86666217341983
 10
-56.45381522371589
 20
69.79949042399464
 10
-56.33016756843654
 20
69.73133560435251
 10
-56.20706449213939
 20
69.66220200396374
 10
-56.08451374258164
 20
69.59209397390036
 10
-55.9625230327586
 20
69.52101592656221
 10
-55.84110004041827
 20
69.44897233539925
 10
-55.72025240757815
 20
69.37596773463002
 10
-55.59998774004424
 20
69.30200671895628
 10
-55.480313606932356
 20
69.2270939432738
 10
-55.36123754019176
 20
69.15123412237944
 10
-55.242767034131134
 20
69.07443203067437
 10
-55.124909544946874
 20
68.99669250186363
 10
-55.007672490253846
 20
68.91802042865184
 10
-54.89106324861854
 20
68.83842076243538
 10
-54.77508915909469
 20
68.7578985129906
 10
-54.65975752076133
 20
68.67645874815867
 10
-54.54507559226349
 20
68.59410659352658
 10
-54.43105059135526
 20
68.51084723210448
 10
-54.317689694445626
 20
68.4266859039996
 10
-54.205000036146735
 20
68.34162790608633
 10
-54.09298870882489
 20
68.25567859167293
 10
-53.98166276215417
 20
68.16884337016458
 10
-53.87102920267276
 20
68.08112770672294
 10
-53.76109499334194
 20
67.99253712192217
 10
-53.65186705310792
 20
67.90307719140147
 10
-53.543352256466314
 20
67.81275354551423
 10
-53.43555743302951
 20
67.72157186897358
 10
-53.32848936709685
 20
67.62953790049468
 10
-53.2221547972276
 20
67.53665743243354
 10
-53.11656041581691
 20
67.4429363104224
 10
-53.01171286867455
 20
67.34838043300188
 10
-52.90761875460666
 20
67.25299575124974
 10
-52.80428462500046
 20
67.15678826840633
 10
-52.70171698341192
 20
67.05976403949676
 10
-52.59992228515642
 20
66.96192917094977
 10
-52.498906936902486
 20
66.8632898202135
 10
-52.39867729626859
 20
66.7638521953679
 10
-52.39867729626859
 20
66.7638521953679
 10
-52.27582234934113
 20
66.64099724844044
 10
-52.15296740241367
 20
66.51814230151298
 10
-52.03011245548622
 20
66.39528735458553
 10
-51.90725750855876
 20
66.27243240765807
 10
-51.7844025616313
 20
66.14957746073061
 10
-51.66154761470385
 20
66.02672251380316
 10
-51.53869266777639
 20
65.9038675668757
 10
-51.41583772084893
 20
65.78101261994824
 10
-51.29298277392147
 20
65.65815767302078
 10
-51.17012782699402
 20
65.53530272609333
 10
-51.04727288006656
 20
65.41244777916587
 10
-50.924417933139104
 20
65.28959283223841
 10
-50.80156298621165
 20
65.16673788531097
 10
-50.67870803928419
 20
65.0438829383835
 10
-50.55585309235673
 20
64.92102799145604
 10
-50.43299814542927
 20
64.79817304452858
 10
-50.31014319850182
 20
64.67531809760114
 10
-50.18728825157436
 20
64.55246315067367
 10
-50.064433304646904
 20
64.42960820374621
 10
-49.94157835771945
 20
64.30675325681877
 10
-49.81872341079199
 20
64.1838983098913
 10
-49.695868463864535
 20
64.06104336296384
 10
-49.573013516937074
 20
63.93818841603639
 10
-49.45015857000962
 20
63.815333469108936
 10
-49.32730362308216
 20
63.692478522181474
 10
-49.204448676154705
 20
63.56962357525402
 10
-49.08159372922725
 20
63.446768628326566
 10
-48.95873878229979
 20
63.323913681399105
 10
-48.835883835372336
 20
63.20105873447165
 10
-48.713028888444875
 20
63.07820378754419
 10
-48.59017394151742
 20
62.955348840616736
 10
-48.46731899458996
 20
62.832493893689275
 10
-48.344464047662505
 20
62.70963894676182
 10
-48.22160910073505
 20
62.58678399983437
 10
-48.09875415380759
 20
62.463929052906906
 10
-47.975899206880136
 20
62.34107410597945
 10
-47.853044259952675
 20
62.21821915905199
 10
-47.73018931302522
 20
62.09536421212454
 10
-47.60733436609776
 20
61.972509265197075
 10
-47.484479419170306
 20
61.84965431826962
 10
-47.36162447224285
 20
61.72679937134217
 10
-47.23876952531539
 20
61.603944424414706
 10
-47.11591457838794
 20
61.48108947748725
 10
-46.993059631460476
 20
61.35823453055979
 10
-46.87020468453302
 20
61.23537958363234
 10
-46.74734973760556
 20
61.112524636704876
 10
-46.624494790678106
 20
60.98966968977742
 10
-46.50163984375065
 20
60.86681474284997
 10
-46.37878489682319
 20
60.74395979592251
 10
-46.25592994989574
 20
60.62110484899505
 10
-46.133075002968276
 20
60.49824990206759
 10
-46.01022005604082
 20
60.37539495514014
 10
-45.88736510911336
 20
60.25254000821268
 10
-45.76451016218591
 20
60.12968506128522
 10
-45.64165521525845
 20
60.00683011435777
 10
-45.51880026833099
 20
59.88397516743031
 10
-45.39594532140354
 20
59.76112022050285
 10
-45.27309037447608
 20
59.63826527357539
 10
-45.15023542754862
 20
59.51541032664794
 10
-45.02738048062116
 20
59.39255537972048
 10
-44.90452553369371
 20
59.26970043279302
 10
-44.78167058676625
 20
59.14684548586557
 10
-44.65881563983879
 20
59.02399053893811
 10
-44.53596069291134
 20
58.901135592010654
 10
-44.41310574598388
 20
58.77828064508319
 10
-44.29025079905642
 20
58.65542569815574
 10
-44.16739585212897
 20
58.532570751228285
 10
-44.04454090520151
 20
58.40971580430082
 10
-43.921685958274054
 20
58.28686085737337
 10
-43.79883101134659
 20
58.16400591044591
 10
-43.67597606441914
 20
58.041150963518454
 10
-43.55312111749168
 20
57.91829601659099
 10
-43.430266170564224
 20
57.79544106966354
 10
-43.30741122363677
 20
57.672586122736085
 10
-43.18455627670931
 20
57.549731175808624
 10
-43.061701329781854
 20
57.42687622888117
 10
-42.93884638285439
 20
57.30402128195371
 10
-42.81599143592694
 20
57.181166335026255
 10
-42.693136488999485
 20
57.0583113880988
 10
-42.570281542072024
 20
56.93545644117134
 10
-42.44742659514457
 20
56.812601494243886
 10
-42.32457164821711
 20
56.689746547316425
 10
-42.201716701289655
 20
56.56689160038897
 10
-42.078861754362194
 20
56.44403665346151
 10
-41.95600680743474
 20
56.321181706534055
 10
-41.833151860507286
 20
56.1983267596066
 10
-41.710296913579825
 20
56.07547181267914
 10
-41.58744196665237
 20
55.952616865751686
 10
-41.46458701972491
 20
55.829761918824225
 10
-41.341732072797456
 20
55.70690697189677
 10
-41.218877125869994
 20
55.58405202496931
 10
-41.09602217894254
 20
55.461197078041856
 10
-40.973167232015086
 20
55.3383421311144
 10
-40.850312285087625
 20
55.21548718418694
 10
-40.72745733816017
 20
55.09263223725949
 10
-40.60460239123271
 20
54.969777290332026
 10
-40.481747444305256
 20
54.84692234340457
 10
-40.358892497377795
 20
54.72406739647711
 10
-40.23603755045034
 20
54.60121244954966
 10
-40.23603755045034
 20
54.60121244954966
 10
-39.915569576475775
 20
54.28327681723995
 10
-39.59258943017839
 20
53.96789353655876
 10
-39.26711743900914
 20
53.65508245683195
 10
-38.93917408724868
 20
53.34486326549844
 10
-38.60878001471797
 20
53.037255486871004
 10
-38.275956015479466
 20
52.73227848090761
 10
-37.9407230365282
 20
52.42995144199281
 10
-37.60310217647359
 20
52.13029339772983
 10
-37.26311468421149
 20
51.83332320774297
 10
-36.92078195758679
 20
51.539059562490564
 10
-36.57612554204685
 20
51.24752098208882
 10
-36.229167129285294
 20
50.95872581514603
 10
-35.87992855587698
 20
50.672692237607954
 10
-35.52843180190352
 20
50.38943825161366
 10
-35.17469898957006
 20
50.10898168436275
 10
-34.8187523818128
 20
49.83134018699316
 10
-34.460614380897994
 20
49.556531233470395
 10
-34.10030752701194
 20
49.28457211948772
 10
-33.73785449684231
 20
49.01547996137756
 10
-33.37327810215108
 20
48.749271695034366
 10
-33.00660128833866
 20
48.485964074848575
 10
-32.63784713299995
 20
48.225573672652295
 10
-32.26703884447173
 20
47.96811687667615
 10
-31.89419976037212
 20
47.713609890518015
 10
-31.51935334613176
 20
47.462068732123115
 10
-31.142523193516848
 20
47.21350923277588
 10
-30.76373301914452
 20
46.96794703610364
 10
-30.383006662990034
 20
46.72539759709201
 10
-30.000368086886475
 20
46.48587618111225
 10
-29.61584137301654
 20
46.24939786296042
 10
-29.229450722397004
 20
46.015977525908696
 10
-28.841220453355508
 20
45.78562986076864
 10
-28.451174999999985
 20
45.558369364966545
 10
-28.059338910680985
 20
45.3342103416311
 10
-27.665736846446496
 20
45.113166898693116
 10
-27.27039357949003
 20
44.895252947997676
 10
-26.873333991591355
 20
44.68048220442848
 10
-26.47458307255066
 20
44.46886818504476
 10
-26.07416591861571
 20
44.26042420823051
 10
-25.67210773090226
 20
44.055163392856244
 10
-25.26843381380817
 20
43.8530986574534
 10
-24.863169573420617
 20
43.65424271940118
 10
-24.456340515917276
 20
43.458608094126284
 10
-24.04797224596088
 20
43.26620709431508
 10
-23.638090465087885
 20
43.07705182913882
 10
-23.22672097009077
 20
42.891154203491425
 10
-22.813889651394522
 20
42.70852591724027
 10
-22.39962249142714
 20
42.52917846448981
 10
-21.98394556298439
 20
42.353123132858165
 10
-21.566885027588867
 20
42.180371002766755
 10
-21.14846713384343
 20
42.01093294674288
 10
-20.728718215779217
 20
41.844819628735436
 10
-20.307664691198244
 20
41.6820415034438
 10
-19.88533306001075
 20
41.52260881565981
 10
-19.461749902567366
 20
41.36653159962296
 10
-19.036941877986205
 20
41.21381967838895
 10
-18.610935722475087
 20
41.064482663211386
 10
-18.183758247648697
 20
40.918529952936865
 10
-17.755436338841303
 20
40.775970733413516
 10
-17.32599695341454
 20
40.63681397691279
 10
-16.895467119060857
 20
40.501068441564804
 10
-16.46387393210246
 20
40.36874267080713
 10
-16.031244555785925
 20
40.239844992847104
 10
-15.597606218572656
 20
40.114383520137636
 10
-15.162986212425151
 20
39.99236614886667
 10
-14.727411891089414
 20
39.87380055846023
 10
-14.290910668373277
 20
39.75869421109904
 10
-13.85351001642112
 20
39.64705435124895
 10
-13.415237463984854
 20
39.53888800520492
 10
-12.976120594691292
 20
39.43420198064886
 10
-12.53618704530621
 20
39.33300286622116
 10
-12.095464503994812
 20
39.23529703110599
 10
-11.653980708579306
 20
39.141090624630486
 10
-11.21176344479297
 20
39.05038957587769
 10
-10.768840544531582
 20
38.96319959331342
 10
-10.325239884101613
 20
38.87952616442698
 10
-9.88098938246585
 20
38.79937455538578
 10
-9.436116999486236
 20
38.722749810703945
 10
-8.990650734164134
 20
38.64965675292477
 10
-8.544618622878232
 20
38.58009998231725
 10
-8.098048737619859
 20
38.514083876586504
 10
-7.650969184226392
 20
38.45161259059832
 10
-7.203408100612227
 20
38.392690056117594
 10
-6.755393654997906
 20
38.33731998156091
 10
-6.306954044137292
 20
38.285505851763155
 10
-5.858117491542919
 20
38.23725092775815
 10
-5.40891224570976
 20
38.19255824657344
 10
-4.959366578337198
 20
38.15143062103916
 10
-4.509508782549869
 20
38.11387063961099
 10
-4.059367171116833
 20
38.07988066620724
 10
-3.6089700746697093
 20
38.049462840060066
 10
-3.1583458399196194
 20
38.02261907558087
 10
-2.707522827873109
 20
37.99935106223977
 10
-2.256529412047251
 20
37.97966026445928
 10
-1.80539397668376
 20
37.963547921522164
 10
-1.3541449149627425
 20
37.95101504749342
 10
-0.9028106272155759
 20
37.94206243115647
 10
-0.4514195191375332
 20
37.9366906359635
 10
3.4842640395731198e-15
 20
37.9349
 10
8.873259087446212e-16
 20
37.9349
 10
0.059335205656468486
 20
37.93502147710184
 10
0.11866941651571852
 20
37.93538590637072
 10
0.1780016377972022
 20
37.93599328169672
 10
0.23733087475373724
 20
37.93684359289675
 10
0.2966561326881755
 20
37.93793682571474
 10
0.3559764169700704
 20
37.93927296182186
 10
0.4152907330523719
 20
37.94085197881683
 10
0.47459808648809126
 20
37.9426738502263
 10
0.5338974829469634
 20
37.94473854550528
 10
0.5931879282321378
 20
37.9470460300377
 10
0.6524684282968366
 20
37.9495962651369
 10
0.7117379892610108
 20
37.95238920804638
 10
0.7709956174280234
 20
37.95542481194044
 10
0.8302403193012986
 20
37.95870302592502
 10
0.8894711016009702
 20
37.96222379503851
 10
0.9486869712805528
 20
37.96598706025269
 10
1.0078869355435822
 20
37.96999275847372
 10
1.0670700018602497
 20
37.974240822543216
 10
1.1262351779840631
 20
37.978731181239326
 10
1.185381471968468
 20
37.983463759277974
 10
1.244507892183487
 20
37.988438477314105
 10
1.3036134473323295
 20
37.993655251943004
 10
1.3626971464680337
 20
37.999113995701705
 10
1.4217579990100688
 20
38.00481461707046
 10
1.4807950147609343
 20
38.01075702047427
 10
1.5398072039227797
 20
38.01694110628449
 10
1.5987935771139903
 20
38.02336677082049
 10
1.6577531453857652
 20
38.0300339063514
 10
1.7166849202387162
 20
38.03694240109792
 10
1.7755879136394328
 20
38.04409213923418
 10
1.8344611380370353
 20
38.051483000889704
 10
1.8933036063797521
 20
38.05911486215141
 10
1.9521143321314613
 20
38.06698759506567
 10
2.0108923292882155
 20
38.075101067640475
 10
2.069636612394798
 20
38.08345514384765
 10
2.1283461965612296
 20
38.09204968362513
 10
2.187020097479276
 20
38.100884542879285
 10
2.245657331438968
 20
38.10995957348739
 10
2.304256915345082
 20
38.11927462330004
 10
2.362817866733617
 20
38.12882953614377
 10
2.4213392037882833
 20
38.138624151823606
 10
2.4798199453569523
 20
38.14865830612582
 10
2.5382591109681
 20
38.158931830820606
 10
2.5966557208472616
 20
38.169444553664974
 10
2.6550087959334507
 20
38.180196298405605
 10
2.713317357895561
 20
38.191186884781786
 10
2.771580429148793
 20
38.20241612852846
 10
2.82979703287103
 20
38.21388384137933
 10
2.8879661930192073
 20
38.22558983106997
 10
2.9460869343456957
 20
38.23753390134107
 10
3.0041582824146387
 20
38.249715851941744
 10
3.0621792636182956
 20
38.262135478632864
 10
3.1201489051933544
 20
38.274792573190496
 10
3.1780662352372597
 20
38.28768692340938
 10
3.2359302827244854
 20
38.300818313106504
 10
3.2937400775228345
 20
38.31418652212471
 10
3.3514946504096907
 20
38.327791326336396
 10
3.409193033088277
 20
38.34163249764728
 10
3.4668342582038765
 20
38.35570980400021
 10
3.5244173593600716
 20
38.370023009379075
 10
3.581941371134922
 20
38.38457187381272
 10
3.639405329097173
 20
38.39935615337901
 10
3.6968082698224105
 20
38.41437560020891
 10
3.7541492309092237
 20
38.42962996249065
 10
3.8114272509953238
 20
38.445118984473915
 10
3.8686413697736852
 20
38.46084240647415
 10
3.9257906280086226
 20
38.47679996487693
 10
3.9828740675518906
 20
38.49299139214235
 10
4.039890731358743
 20
38.50941641680955
 10
4.096839663503974
 20
38.52607476350122
 10
4.153719909197942
 20
38.542966152928244
 10
4.210530514802592
 20
38.56009030189438
 10
4.267270527847435
 20
38.57744692330101
 10
4.323938997045505
 20
38.59503572615194
 10
4.3805349723093325
 20
38.6128564155583
 10
4.437057504766859
 20
38.63090869274346
 10
4.493505646777337
 20
38.649192255048064
 10
4.54987845194724
 20
38.667706795935096
 10
4.606174975146117
 20
38.686452004995026
 10
4.662394272522427
 20
38.705427567950984
 10
4.718535401519387
 20
38.72463316666408
 10
4.77459742089076
 20
38.744068479138676
 10
4.830579390716639
 20
38.76373317952786
 10
4.886480372419199
 20
38.78362693813883
 10
4.9422994287784485
 20
38.80374942143848
 10
4.9980356239479224
 20
38.82410029205897
 10
5.053688023470392
 20
38.84467920880338
 10
5.109255694293519
 20
38.86548582665141
 10
5.164737704785504
 20
38.886519796765235
 10
5.220133124750699
 20
38.907780766495264
 10
5.275441025445216
 20
38.92926837938612
 10
5.330660479592484
 20
38.95098227518258
 10
5.385790561398803
 20
38.97292208983563
 10
5.440830346568868
 20
38.99508745550856
 10
5.495778912321261
 20
39.01747800058314
 10
5.550635337403915
 20
39.04009334966585
 10
5.6053987021095795
 20
39.062933123594156
 10
5.660068088291217
 20
39.0859969394429
 10
5.714642579377414
 20
39.10928441053068
 10
5.714642579377414
 20
39.10928441053068
 10
5.714642579377414
 20
39.10928441053068
 10
7.318831001870918
 20
39.79639605261251
 10
8.919718223775474
 20
40.47949712236735
 10
10.517304245091083
 20
41.15858761979522
 10
12.111589065817745
 20
41.8336675448961
 10
13.702572685955458
 20
42.50473689766999
 10
15.290255105504222
 20
43.171795678116915
 10
16.874636324464042
 20
43.83484388623684
 10
18.455716342834915
 20
44.493881522029795
 10
20.033495160616837
 20
45.148908585495754
 10
21.607972777809813
 20
45.79992507663475
 10
23.17914919441384
 20
46.44693099544674
 10
24.74702441042892
 20
47.08992634193176
 10
26.31159842585506
 20
47.728911116089805
 10
27.87287124069225
 20
48.36388531792085
 10
29.430842854940483
 20
48.99484894742493
 10
30.985513268599778
 20
49.62180200460201
 10
32.53688248167012
 20
50.24474448945212
 10
34.084950494151514
 20
50.86367640197523
 10
35.62971730604397
 20
51.478597742171374
 10
37.17118291734747
 20
52.08950851004054
 10
38.709347328062016
 20
52.6964087055827
 10
40.24421053818764
 20
53.299298328797896
 10
41.775772547724294
 20
53.898177379686096
 10
43.304033356672
 20
54.49304585824733
 10
44.828992965030764
 20
55.08390376448156
 10
46.35065137280059
 20
55.670751098388834
 10
47.869008579981454
 20
56.25358785996911
 10
49.38406458657337
 20
56.83241404922241
 10
50.89581939257635
 20
57.4072296661487
 10
52.404272997990375
 20
57.97803471074804
 10
53.90942540281546
 20
58.54482918302038
 10
55.41127660705158
 20
59.10761308296574
 10
56.90982661069878
 20
59.66638641058413
 10
58.40507541375702
 20
60.22114916587553
 10
59.897023016226306
 20
60.77190134883993
 10
61.385669418106644
 20
61.31864295947737
 10
62.87101461939805
 20
61.86137399778782
 10
64.35305862010048
 20
62.40009446377128
 10
65.83180142021399
 20
62.934804357427765
 10
67.30724301973855
 20
63.465503678757266
 10
68.77938341867416
 20
63.99219242775979
 10
70.24822261702082
 20
64.51487060443532
 10
71.71376061477852
 20
65.03353820878387
 10
73.1759974119473
 20
65.54819524080544
 10
74.6349330085271
 20
66.05884170050003
 10
76.09056740451797
 20
66.56547758786762
 10
77.54290059991989
 20
67.06810290290825
 10
78.99193259473286
 20
67.56671764562189
 10
80.43766338895688
 20
68.06132181600853
 10
81.88009298259198
 20
68.55191541406822
 10
83.31922137563811
 20
69.03849843980092
 10
84.75504856809529
 20
69.52107089320663
 10
86.18757455996351
 20
69.99963277428533
 10
87.6167993512428
 20
70.47418408303707
 10
89.04272294193314
 20
70.94472481946184
 10
90.46534533203456
 20
71.41125498355962
 10
91.88466652154699
 20
71.8737745753304
 10
93.30068651047048
 20
72.33228359477421
 10
94.71340529880506
 20
72.78678204189104
 10
96.12282288655065
 20
73.2372699166809
 10
97.52893927370732
 20
73.68374721914375
 10
98.93175446027502
 20
74.12621394927963
 10
100.33126844625379
 20
74.56467010708852
 10
101.7274812316436
 20
74.99911569257043
 10
103.12039281644445
 20
75.42955070572536
 10
104.5100032006564
 20
75.8559751465533
 10
105.89631238427936
 20
76.27838901505427
 10
107.27932036731337
 20
76.69679231122825
 10
108.65902714975846
 20
77.11118503507527
 10
110.0354327316146
 20
77.52156718659529
 10
111.40853711288176
 20
77.92793876578831
 10
112.77834029356
 20
78.33029977265436
 10
114.14484227364929
 20
78.72865020719343
 10
115.50804305314963
 20
79.12299006940552
 10
116.86794263206103
 20
79.51331935929062
 10
118.22454101038348
 20
79.89963807684873
 10
119.57783818811696
 20
80.28194622207988
 10
120.92783416526152
 20
80.66024379498403
 10
122.27452894181711
 20
81.03453079556118
 10
123.61792251778378
 20
81.40480722381139
 10
124.95801489316149
 20
81.77107307973459
 10
126.29480606795025
 20
82.13332836333082
 10
127.62829604215005
 20
82.49157307460005
 10
128.95848481576093
 20
82.84580721354232
 10
130.28537238878283
 20
83.19603078015759
 10
131.60895876121583
 20
83.54224377444588
 10
132.92924393305984
 20
83.8844461964072
 10
134.2462279043149
 20
84.22263804604151
 10
135.55991067498107
 20
84.55681932334886
 10
136.87029224505824
 20
84.88699002832922
 10
138.17737261454644
 20
85.21315016098261
 10
139.48115178344574
 20
85.53529972130899
 10
140.78162975175607
 20
85.85343870930839
 10
142.07880651947747
 20
86.16756712498083
 10
143.37268208660993
 20
86.47768496832627
 10
144.6632564531534
 20
86.78379223934473
 10
145.95052961910798
 20
87.08588893803623
 10
147.23450158447355
 20
87.38397506440072
 10
148.5151723492502
 20
87.67805061843823
  0
ENDSEC
  0
SECTION
  2
OBJECTS
  0
DICTIONARY
  5
A
330
0
100
AcDbDictionary
281
1
  3
ACAD_COLOR
350
B
  3
ACAD_GROUP
350
C
  3
ACAD_LAYOUT
350
D
  3
ACAD_MATERIAL
350
E
  3
ACAD_MLEADERSTYLE
350
F
  3
ACAD_MLINESTYLE
350
10
  3
ACAD_PLOTSETTINGS
350
11
  3
ACAD_PLOTSTYLENAME
350
12
  3
ACAD_SCALELIST
350
14
  3
ACAD_TABLESTYLE
350
15
  3
ACAD_VISUALSTYLE
350
16
  3
EZDXF_META
350
2D
  0
DICTIONARY
  5
B
330
A
100
AcDbDictionary
281
1
  0
DICTIONARY
  5
C
330
A
100
AcDbDictionary
281
1
  0
DICTIONARY
  5
D
330
A
100
AcDbDictionary
281
1
  3
Model
350
1A
  3
Layout1
350
1E
  0
DICTIONARY
  5
E
330
A
100
AcDbDictionary
281
1
  3
ByBlock
350
1F
  3
ByLayer
350
20
  3
Global
350
21
  0
DICTIONARY
  5
F
330
A
100
AcDbDictionary
281
1
  3
Standard
350
2C
  0
DICTIONARY
  5
10
330
A
100
AcDbDictionary
281
1
  3
Standard
350
22
  0
DICTIONARY
  5
11
330
A
100
AcDbDictionary
281
1
  0
ACDBDICTIONARYWDFLT
  5
12
330
A
100
AcDbDictionary
281
1
  3
Normal
350
13
100
AcDbDictionaryWithDefault
340
13
  0
ACDBPLACEHOLDER
  5
13
330
12
  0
DICTIONARY
  5
14
330
A
100
AcDbDictionary
281
1
  0
DICTIONARY
  5
15
330
A
100
AcDbDictionary
281
1
  0
DICTIONARY
  5
16
330
A
100
AcDbDictionary
281
1
  0
LAYOUT
  5
1A
330
D
100
AcDbPlotSettings
  1

  4
A3
  6

 40
7.5
 41
20.0
 42
7.5
 43
20.0
 44
420.0
 45
297.0
 46
0.0
 47
0.0
 48
0.0
 49
0.0
140
0.0
141
0.0
142
1.0
143
1.0
 70
1024
 72
1
 73
0
 74
5
  7

 75
16
 76
0
 77
2
 78
300
147
1.0
148
0.0
149
0.0
100
AcDbLayout
  1
Model
 70
1
 71
0
 10
0.0
 20
0.0
 11
420.0
 21
297.0
 12
0.0
 22
0.0
 32
0.0
 14
1e+20
 24
1e+20
 34
1e+20
 15
-1e+20
 25
-1e+20
 35
-1e+20
146
0.0
 13
0.0
 23
0.0
 33
0.0
 16
1.0
 26
0.0
 36
0.0
 17
0.0
 27
1.0
 37
0.0
 76
1
330
17
  0
LAYOUT
  5
1E
330
D
100
AcDbPlotSettings
  1

  4
A3
  6

 40
7.5
 41
20.0
 42
7.5
 43
20.0
 44
420.0
 45
297.0
 46
0.0
 47
0.0
 48
0.0
 49
0.0
140
0.0
141
0.0
142
1.0
143
1.0
 70
0
 72
1
 73
0
 74
5
  7

 75
16
 76
0
 77
2
 78
300
147
1.0
148
0.0
149
0.0
100
AcDbLayout
  1
Layout1
 70
1
 71
1
 10
0.0
 20
0.0
 11
420.0
 21
297.0
 12
0.0
 22
0.0
 32
0.0
 14
1e+20
 24
1e+20
 34
1e+20
 15
-1e+20
 25
-1e+20
 35
-1e+20
146
0.0
 13
0.0
 23
0.0
 33
0.0
 16
1.0
 26
0.0
 36
0.0
 17
0.0
 27
1.0
 37
0.0
 76
1
330
1B
  0
MATERIAL
  5
1F
102
{ACAD_REACTORS
330
E
102
}
330
E
100
AcDbMaterial
  1
ByBlock
  2

 70
0
 40
1.0
 71
1
 41
1.0
 91
-1023410177
 42
1.0
 72
1
  3

 73
1
 74
1
 75
1
 44
0.5
 73
0
 45
1.0
 46
1.0
 77
1
  4

 78
1
 79
1
170
1
 48
1.0
171
1
  6

172
1
173
1
174
1
140
1.0
141
1.0
175
1
  7

176
1
177
1
178
1
143
1.0
179
1
  8

270
1
271
1
272
1
145
1.0
146
1.0
273
1
  9

274
1
275
1
276
1
 42
1.0
 72
1
  3

 73
1
 74
1
 75
1
 94
63
  0
MATERIAL
  5
20
102
{ACAD_REACTORS
330
E
102
}
330
E
100
AcDbMaterial
  1
ByLayer
  2

 70
0
 40
1.0
 71
1
 41
1.0
 91
-1023410177
 42
1.0
 72
1
  3

 73
1
 74
1
 75
1
 44
0.5
 73
0
 45
1.0
 46
1.0
 77
1
  4

 78
1
 79
1
170
1
 48
1.0
171
1
  6

172
1
173
1
174
1
140
1.0
141
1.0
175
1
  7

176
1
177
1
178
1
143
1.0
179
1
  8

270
1
271
1
272
1
145
1.0
146
1.0
273
1
  9

274
1
275
1
276
1
 42
1.0
 72
1
  3

 73
1
 74
1
 75
1
 94
63
  0
MATERIAL
  5
21
102
{ACAD_REACTORS
330
E
102
}
330
E
100
AcDbMaterial
  1
Global
  2

 70
0
 40
1.0
 71
1
 41
1.0
 91
-1023410177
 42
1.0
 72
1
  3

 73
1
 74
1
 75
1
 44
0.5
 73
0
 45
1.0
 46
1.0
 77
1
  4

 78
1
 79
1
170
1
 48
1.0
171
1
  6

172
1
173
1
174
1
140
1.0
141
1.0
175
1
  7

176
1
177
1
178
1
143
1.0
179
1
  8

270
1
271
1
272
1
145
1.0
146
1.0
273
1
  9

274
1
275
1
276
1
 42
1.0
 72
1
  3

 73
1
 74
1
 75
1
 94
63
  0
MLINESTYLE
  5
22
102
{ACAD_REACTORS
330
10
102
}
330
10
100
AcDbMlineStyle
  2
Standard
 70
0
  3

 62
256
 51
90.0
 52
90.0
 71
2
 49
0.5
 62
256
  6
BYLAYER
 49
-0.5
 62
256
  6
BYLAYER
  0
MLEADERSTYLE
  5
2C
102
{ACAD_REACTORS
330
F
102
}
330
F
100
AcDbMLeaderStyle
179
2
170
2
171
1
172
0
 90
2
 40
0.0
 41
0.0
173
1
 91
-1056964608
 92
-2
290
1
 42
2.0
291
1
 43
8.0
  3
Standard
 44
4.0
300

342
29
174
1
175
1
176
0
178
1
 93
-1056964608
 45
4.0
292
0
297
0
 46
4.0
 94
-1056964608
 47
1.0
 49
1.0
140
1.0
294
1
141
0.0
177
0
142
1.0
295
0
296
0
143
3.75
271
0
272
9
273
9
  0
DICTIONARY
  5
2D
330
A
100
AcDbDictionary
280
1
281
1
  3
CREATED_BY_EZDXF
350
2E
  3
WRITTEN_BY_EZDXF
350
32
  0
DICTIONARYVAR
  5
2E
330
2D
100
DictionaryVariables
280
0
  1
1.4.3 @ 2025-11-19T01:08:36.937040+00:00
  0
DICTIONARYVAR
  5
32
330
2D
100
DictionaryVariables
280
0
  1
1.4.3 @ 2025-11-19T01:08:36.943559+00:00
  0
ENDSEC
  0
EOF
