  0
SECTION
  2
HEADER
  9
$ACADVER
  1
AC1024
  9
$ACADMAINTVER
 70
6
  9
$DWGCODEPAGE
  3
ANSI_1252
  9
$LASTSAVEDBY
  1
ezdxf
  9
$INSBASE
 10
0.0
 20
0.0
 30
0.0
  9
$EXTMIN
 10
1e+20
 20
1e+20
 30
1e+20
  9
$EXTMAX
 10
-1e+20
 20
-1e+20
 30
-1e+20
  9
$LIMMIN
 10
0.0
 20
0.0
  9
$LIMMAX
 10
420.0
 20
297.0
  9
$ORTHOMODE
 70
0
  9
$REGENMODE
 70
1
  9
$FILLMODE
 70
1
  9
$QTEXTMODE
 70
0
  9
$MIRRTEXT
 70
1
  9
$LTSCALE
 40
1.0
  9
$ATTMODE
 70
1
  9
$TEXTSIZE
 40
2.5
  9
$TRACEWID
 40
1.0
  9
$TEXTSTYLE
  7
Standard
  9
$CLAYER
  8
0
  9
$CELTYPE
  6
ByLayer
  9
$CECOLOR
 62
256
  9
$CELTSCALE
 40
1.0
  9
$DISPSILH
 70
0
  9
$DIMSCALE
 40
1.0
  9
$DIMASZ
 40
2.5
  9
$DIMEXO
 40
0.625
  9
$DIMDLI
 40
3.75
  9
$DIMRND
 40
0.0
  9
$DIMDLE
 40
0.0
  9
$DIMEXE
 40
1.25
  9
$DIMTP
 40
0.0
  9
$DIMTM
 40
0.0
  9
$DIMTXT
 40
2.5
  9
$DIMCEN
 40
2.5
  9
$DIMTSZ
 40
0.0
  9
$DIMTOL
 70
0
  9
$DIMLIM
 70
0
  9
$DIMTIH
 70
0
  9
$DIMTOH
 70
0
  9
$DIMSE1
 70
0
  9
$DIMSE2
 70
0
  9
$DIMTAD
 70
1
  9
$DIMZIN
 70
8
  9
$DIMBLK
  1

  9
$DIMASO
 70
1
  9
$DIMSHO
 70
1
  9
$DIMPOST
  1

  9
$DIMAPOST
  1

  9
$DIMALT
 70
0
  9
$DIMALTD
 70
3
  9
$DIMALTF
 40
0.03937007874
  9
$DIMLFAC
 40
1.0
  9
$DIMTOFL
 70
1
  9
$DIMTVP
 40
0.0
  9
$DIMTIX
 70
0
  9
$DIMSOXD
 70
0
  9
$DIMSAH
 70
0
  9
$DIMBLK1
  1

  9
$DIMBLK2
  1

  9
$DIMSTYLE
  2
ISO-25
  9
$DIMCLRD
 70
0
  9
$DIMCLRE
 70
0
  9
$DIMCLRT
 70
0
  9
$DIMTFAC
 40
1.0
  9
$DIMGAP
 40
0.625
  9
$DIMJUST
 70
0
  9
$DIMSD1
 70
0
  9
$DIMSD2
 70
0
  9
$DIMTOLJ
 70
0
  9
$DIMTZIN
 70
8
  9
$DIMALTZ
 70
0
  9
$DIMALTTZ
 70
0
  9
$DIMUPT
 70
0
  9
$DIMDEC
 70
2
  9
$DIMTDEC
 70
2
  9
$DIMALTU
 70
2
  9
$DIMALTTD
 70
3
  9
$DIMTXSTY
  7
Standard
  9
$DIMAUNIT
 70
0
  9
$DIMADEC
 70
0
  9
$DIMALTRND
 40
0.0
  9
$DIMAZIN
 70
0
  9
$DIMDSEP
 70
44
  9
$DIMATFIT
 70
3
  9
$DIMFRAC
 70
0
  9
$DIMLDRBLK
  1

  9
$DIMLUNIT
 70
2
  9
$DIMLWD
 70
-2
  9
$DIMLWE
 70
-2
  9
$DIMTMOVE
 70
0
  9
$DIMFXL
 40
1.0
  9
$DIMFXLON
 70
0
  9
$DIMJOGANG
 40
0.785398163397
  9
$DIMTFILL
 70
0
  9
$DIMTFILLCLR
 70
0
  9
$DIMARCSYM
 70
0
  9
$DIMLTYPE
  6

  9
$DIMLTEX1
  6

  9
$DIMLTEX2
  6

  9
$DIMTXTDIRECTION
 70
0
  9
$LUNITS
 70
2
  9
$LUPREC
 70
4
  9
$SKETCHINC
 40
1.0
  9
$FILLETRAD
 40
10.0
  9
$AUNITS
 70
0
  9
$AUPREC
 70
2
  9
$MENU
  1
.
  9
$ELEVATION
 40
0.0
  9
$PELEVATION
 40
0.0
  9
$THICKNESS
 40
0.0
  9
$LIMCHECK
 70
0
  9
$CHAMFERA
 40
0.0
  9
$CHAMFERB
 40
0.0
  9
$CHAMFERC
 40
0.0
  9
$CHAMFERD
 40
0.0
  9
$SKPOLY
 70
0
  9
$TDCREATE
 40
2460998.8490162035
  9
$TDUCREATE
 40
2458532.153996898
  9
$TDUPDATE
 40
2460998.8490162035
  9
$TDUUPDATE
 40
2458532.1544311
  9
$TDINDWG
 40
0.0
  9
$TDUSRTIMER
 40
0.0
  9
$USRTIMER
 70
1
  9
$ANGBASE
 50
0.0
  9
$ANGDIR
 70
0
  9
$PDMODE
 70
0
  9
$PDSIZE
 40
0.0
  9
$PLINEWID
 40
0.0
  9
$SPLFRAME
 70
0
  9
$SPLINETYPE
 70
6
  9
$SPLINESEGS
 70
8
  9
$HANDSEED
  5
33
  9
$SURFTAB1
 70
6
  9
$SURFTAB2
 70
6
  9
$SURFTYPE
 70
6
  9
$SURFU
 70
6
  9
$SURFV
 70
6
  9
$UCSBASE
  2

  9
$UCSNAME
  2

  9
$UCSORG
 10
0.0
 20
0.0
 30
0.0
  9
$UCSXDIR
 10
1.0
 20
0.0
 30
0.0
  9
$UCSYDIR
 10
0.0
 20
1.0
 30
0.0
  9
$UCSORTHOREF
  2

  9
$UCSORTHOVIEW
 70
0
  9
$UCSORGTOP
 10
0.0
 20
0.0
 30
0.0
  9
$UCSORGBOTTOM
 10
0.0
 20
0.0
 30
0.0
  9
$UCSORGLEFT
 10
0.0
 20
0.0
 30
0.0
  9
$UCSORGRIGHT
 10
0.0
 20
0.0
 30
0.0
  9
$UCSORGFRONT
 10
0.0
 20
0.0
 30
0.0
  9
$UCSORGBACK
 10
0.0
 20
0.0
 30
0.0
  9
$PUCSBASE
  2

  9
$PUCSNAME
  2

  9
$PUCSORG
 10
0.0
 20
0.0
 30
0.0
  9
$PUCSXDIR
 10
1.0
 20
0.0
 30
0.0
  9
$PUCSYDIR
 10
0.0
 20
1.0
 30
0.0
  9
$PUCSORTHOREF
  2

  9
$PUCSORTHOVIEW
 70
0
  9
$PUCSORGTOP
 10
0.0
 20
0.0
 30
0.0
  9
$PUCSORGBOTTOM
 10
0.0
 20
0.0
 30
0.0
  9
$PUCSORGLEFT
 10
0.0
 20
0.0
 30
0.0
  9
$PUCSORGRIGHT
 10
0.0
 20
0.0
 30
0.0
  9
$PUCSORGFRONT
 10
0.0
 20
0.0
 30
0.0
  9
$PUCSORGBACK
 10
0.0
 20
0.0
 30
0.0
  9
$USERI1
 70
0
  9
$USERI2
 70
0
  9
$USERI3
 70
0
  9
$USERI4
 70
0
  9
$USERI5
 70
0
  9
$USERR1
 40
0.0
  9
$USERR2
 40
0.0
  9
$USERR3
 40
0.0
  9
$USERR4
 40
0.0
  9
$USERR5
 40
0.0
  9
$WORLDVIEW
 70
1
  9
$SHADEDGE
 70
3
  9
$SHADEDIF
 70
70
  9
$TILEMODE
 70
1
  9
$MAXACTVP
 70
64
  9
$PINSBASE
 10
0.0
 20
0.0
 30
0.0
  9
$PLIMCHECK
 70
0
  9
$PEXTMIN
 10
1e+20
 20
1e+20
 30
1e+20
  9
$PEXTMAX
 10
-1e+20
 20
-1e+20
 30
-1e+20
  9
$PLIMMIN
 10
0.0
 20
0.0
  9
$PLIMMAX
 10
420.0
 20
297.0
  9
$UNITMODE
 70
0
  9
$VISRETAIN
 70
1
  9
$PLINEGEN
 70
0
  9
$PSLTSCALE
 70
1
  9
$TREEDEPTH
 70
3020
  9
$CMLSTYLE
  2
Standard
  9
$CMLJUST
 70
0
  9
$CMLSCALE
 40
20.0
  9
$PROXYGRAPHICS
 70
1
  9
$MEASUREMENT
 70
1
  9
$CELWEIGHT
370
-1
  9
$ENDCAPS
280
0
  9
$JOINSTYLE
280
0
  9
$LWDISPLAY
290
0
  9
$INSUNITS
 70
6
  9
$HYPERLINKBASE
  1

  9
$STYLESHEET
  1

  9
$XEDIT
290
1
  9
$CEPSNTYPE
380
0
  9
$PSTYLEMODE
290
1
  9
$FINGERPRINTGUID
  2
{88472746-E38E-4524-A4ED-A74FB9106728}
  9
$VERSIONGUID
  2
{93C54C78-2D94-4D38-817F-53E48A5C4F69}
  9
$EXTNAMES
290
1
  9
$PSVPSCALE
 40
0.0
  9
$OLESTARTUP
290
0
  9
$SORTENTS
280
127
  9
$INDEXCTL
280
0
  9
$HIDETEXT
280
1
  9
$XCLIPFRAME
280
1
  9
$HALOGAP
280
0
  9
$OBSCOLOR
 70
257
  9
$OBSLTYPE
280
0
  9
$INTERSECTIONDISPLAY
280
0
  9
$INTERSECTIONCOLOR
 70
257
  9
$DIMASSOC
280
2
  9
$PROJECTNAME
  1

  9
$CAMERADISPLAY
290
0
  9
$LENSLENGTH
 40
50.0
  9
$CAMERAHEIGHT
 40
0.0
  9
$STEPSPERSEC
 40
24.0
  9
$STEPSIZE
 40
100.0
  9
$3DDWFPREC
 40
2.0
  9
$PSOLWIDTH
 40
0.005
  9
$PSOLHEIGHT
 40
0.08
  9
$LOFTANG1
 40
1.570796326795
  9
$LOFTANG2
 40
1.570796326795
  9
$LOFTMAG1
 40
0.0
  9
$LOFTMAG2
 40
0.0
  9
$LOFTPARAM
 70
7
  9
$LOFTNORMALS
280
1
  9
$LATITUDE
 40
37.795
  9
$LONGITUDE
 40
-122.394
  9
$NORTHDIRECTION
 40
0.0
  9
$TIMEZONE
 70
-8000
  9
$LIGHTGLYPHDISPLAY
280
1
  9
$TILEMODELIGHTSYNCH
280
1
  9
$CMATERIAL
347
20
  9
$SOLIDHIST
280
0
  9
$SHOWHIST
280
1
  9
$DWFFRAME
280
2
  9
$DGNFRAME
280
2
  9
$REALWORLDSCALE
290
1
  9
$INTERFERECOLOR
 62
256
  9
$CSHADOW
280
0
  9
$SHADOWPLANELOCATION
 40
0.0
  0
ENDSEC
  0
SECTION
  2
CLASSES
  0
CLASS
  1
ACDBDICTIONARYWDFLT
  2
AcDbDictionaryWithDefault
  3
ObjectDBX Classes
 90
0
 91
0
280
0
281
0
  0
CLASS
  1
SUN
  2
AcDbSun
  3
SCENEOE
 90
1153
 91
0
280
0
281
0
  0
CLASS
  1
VISUALSTYLE
  2
AcDbVisualStyle
  3
ObjectDBX Classes
 90
4095
 91
0
280
0
281
0
  0
CLASS
  1
MATERIAL
  2
AcDbMaterial
  3
ObjectDBX Classes
 90
1153
 91
0
280
0
281
0
  0
CLASS
  1
SCALE
  2
AcDbScale
  3
ObjectDBX Classes
 90
1153
 91
0
280
0
281
0
  0
CLASS
  1
TABLESTYLE
  2
AcDbTableStyle
  3
ObjectDBX Classes
 90
4095
 91
0
280
0
281
0
  0
CLASS
  1
MLEADERSTYLE
  2
AcDbMLeaderStyle
  3
ACDB_MLEADERSTYLE_CLASS
 90
4095
 91
0
280
0
281
0
  0
CLASS
  1
DICTIONARYVAR
  2
AcDbDictionaryVar
  3
ObjectDBX Classes
 90
0
 91
0
280
0
281
0
  0
CLASS
  1
CELLSTYLEMAP
  2
AcDbCellStyleMap
  3
ObjectDBX Classes
 90
1152
 91
0
280
0
281
0
  0
CLASS
  1
MENTALRAYRENDERSETTINGS
  2
AcDbMentalRayRenderSettings
  3
SCENEOE
 90
1024
 91
0
280
0
281
0
  0
CLASS
  1
ACDBDETAILVIEWSTYLE
  2
AcDbDetailViewStyle
  3
ObjectDBX Classes
 90
1025
 91
0
280
0
281
0
  0
CLASS
  1
ACDBSECTIONVIEWSTYLE
  2
AcDbSectionViewStyle
  3
ObjectDBX Classes
 90
1025
 91
0
280
0
281
0
  0
CLASS
  1
RASTERVARIABLES
  2
AcDbRasterVariables
  3
ISM
 90
0
 91
0
280
0
281
0
  0
CLASS
  1
ACDBPLACEHOLDER
  2
AcDbPlaceHolder
  3
ObjectDBX Classes
 90
0
 91
0
280
0
281
0
  0
CLASS
  1
LAYOUT
  2
AcDbLayout
  3
ObjectDBX Classes
 90
0
 91
0
280
0
281
0
  0
ENDSEC
  0
SECTION
  2
TABLES
  0
TABLE
  2
VPORT
  5
8
330
0
100
AcDbSymbolTable
 70
1
  0
VPORT
  5
23
330
8
100
AcDbSymbolTableRecord
100
AcDbViewportTableRecord
  2
*Active
 70
0
 10
0.0
 20
0.0
 11
1.0
 21
1.0
 12
0.0
 22
0.0
 13
0.0
 23
0.0
 14
0.5
 24
0.5
 15
0.5
 25
0.5
 16
0.0
 26
0.0
 36
1.0
 17
0.0
 27
0.0
 37
0.0
 40
1000.0
 41
1.34
 42
50.0
 43
0.0
 44
0.0
 50
0.0
 51
0.0
 71
0
 72
1000
 73
1
 74
3
 75
0
 76
0
 77
0
 78
0
281
0
 65
0
146
0.0
  0
ENDTAB
  0
TABLE
  2
LTYPE
  5
2
330
0
100
AcDbSymbolTable
 70
3
  0
LTYPE
  5
24
330
2
100
AcDbSymbolTableRecord
100
AcDbLinetypeTableRecord
  2
ByBlock
 70
0
  3

 72
65
 73
0
 40
0.0
  0
LTYPE
  5
25
330
2
100
AcDbSymbolTableRecord
100
AcDbLinetypeTableRecord
  2
ByLayer
 70
0
  3

 72
65
 73
0
 40
0.0
  0
LTYPE
  5
26
330
2
100
AcDbSymbolTableRecord
100
AcDbLinetypeTableRecord
  2
Continuous
 70
0
  3

 72
65
 73
0
 40
0.0
  0
ENDTAB
  0
TABLE
  2
LAYER
  5
1
330
0
100
AcDbSymbolTable
 70
2
  0
LAYER
  5
27
330
1
100
AcDbSymbolTableRecord
100
AcDbLayerTableRecord
  2
0
 70
0
 62
7
  6
Continuous
370
-3
390
13
347
21
  0
LAYER
  5
28
330
1
100
AcDbSymbolTableRecord
100
AcDbLayerTableRecord
  2
Defpoints
 70
0
 62
7
  6
Continuous
290
0
370
-3
390
13
347
21
  0
ENDTAB
  0
TABLE
  2
STYLE
  5
5
330
0
100
AcDbSymbolTable
 70
1
  0
STYLE
  5
29
330
5
100
AcDbSymbolTableRecord
100
AcDbTextStyleTableRecord
  2
Standard
 70
0
 40
0.0
 41
1.0
 50
0.0
 71
0
 42
2.5
  3
txt
  4

  0
ENDTAB
  0
TABLE
  2
VIEW
  5
7
330
0
100
AcDbSymbolTable
 70
0
  0
ENDTAB
  0
TABLE
  2
UCS
  5
6
330
0
100
AcDbSymbolTable
 70
0
  0
ENDTAB
  0
TABLE
  2
APPID
  5
3
330
0
100
AcDbSymbolTable
 70
3
  0
APPID
  5
2A
330
3
100
AcDbSymbolTableRecord
100
AcDbRegAppTableRecord
  2
ACAD
 70
0
  0
APPID
  5
30
330
3
100
AcDbSymbolTableRecord
100
AcDbRegAppTableRecord
  2
HATCHBACKGROUNDCOLOR
 70
0
  0
APPID
  5
31
330
3
100
AcDbSymbolTableRecord
100
AcDbRegAppTableRecord
  2
EZDXF
 70
0
  0
ENDTAB
  0
TABLE
  2
DIMSTYLE
  5
4
330
0
100
AcDbSymbolTable
 70
1
100
AcDbDimStyleTable
  0
DIMSTYLE
105
2B
330
4
100
AcDbSymbolTableRecord
100
AcDbDimStyleTableRecord
  2
Standard
 70
0
 40
1.0
 41
2.5
 42
0.625
 43
3.75
 44
1.25
 45
0.0
 46
0.0
 47
0.0
 48
0.0
 49
2.5
140
2.5
141
2.5
142
0.0
143
0.03937007874
144
1.0
145
0.0
146
1.0
147
0.625
148
0.0
 69
0
 70
0
 71
0
 72
0
 73
0
 74
0
 75
0
 76
0
 77
1
 78
8
 79
3
170
0
171
3
172
1
173
0
174
0
175
0
176
0
177
0
178
0
179
2
271
2
272
2
273
2
274
3
275
0
276
0
277
2
278
44
279
0
280
0
281
0
282
0
283
0
284
8
285
0
286
0
288
0
289
3
290
0
371
-2
372
-2
  0
ENDTAB
  0
TABLE
  2
BLOCK_RECORD
  5
9
330
0
100
AcDbSymbolTable
 70
2
  0
BLOCK_RECORD
  5
17
330
9
100
AcDbSymbolTableRecord
100
AcDbBlockTableRecord
  2
*Model_Space
340
1A
 70
0
280
1
281
0
  0
BLOCK_RECORD
  5
1B
330
9
100
AcDbSymbolTableRecord
100
AcDbBlockTableRecord
  2
*Paper_Space
340
1E
 70
0
280
1
281
0
  0
ENDTAB
  0
ENDSEC
  0
SECTION
  2
BLOCKS
  0
BLOCK
  5
18
330
17
100
AcDbEntity
  8
0
100
AcDbBlockBegin
  2
*Model_Space
 70
0
 10
0.0
 20
0.0
 30
0.0
  3
*Model_Space
  1

  0
ENDBLK
  5
19
330
17
100
AcDbEntity
  8
0
100
AcDbBlockEnd
  0
BLOCK
  5
1C
330
1B
100
AcDbEntity
  8
0
100
AcDbBlockBegin
  2
*Paper_Space
 70
0
 10
0.0
 20
0.0
 30
0.0
  3
*Paper_Space
  1

  0
ENDBLK
  5
1D
330
1B
100
AcDbEntity
  8
0
100
AcDbBlockEnd
  0
ENDSEC
  0
SECTION
  2
ENTITIES
  0
LWPOLYLINE
  5
2F
330
17
100
AcDbEntity
  8
0
100
AcDbPolyline
 90
601
 70
0
 10
-0.28033980000000003
 20
0.07197641208643286
 10
-0.27816447787959553
 20
0.07197641208643286
 10
-0.27598915575919114
 20
0.07197641208643286
 10
-0.27381383363878664
 20
0.07197641208643286
 10
-0.2716385115183822
 20
0.07197641208643286
 10
-0.26946318939797775
 20
0.07197641208643286
 10
-0.26728786727757337
 20
0.07197641208643286
 10
-0.26511254515716887
 20
0.07197641208643286
 10
-0.2629372230367644
 20
0.07197641208643286
 10
-0.26076190091636
 20
0.07197641208643286
 10
-0.2585865787959556
 20
0.07197641208643286
 10
-0.2564112566755511
 20
0.07197641208643286
 10
-0.25423593455514665
 20
0.07197641208643286
 10
-0.2520606124347422
 20
0.07197641208643286
 10
-0.24988529031433773
 20
0.07197641208643286
 10
-0.2477099681939333
 20
0.07197641208643286
 10
-0.24553464607352884
 20
0.07197641208643286
 10
-0.2433593239531244
 20
0.07197641208643286
 10
-0.24118400183271996
 20
0.07197641208643286
 10
-0.2390086797123155
 20
0.07197641208643286
 10
-0.23683335759191107
 20
0.07197641208643286
 10
-0.23465803547150663
 20
0.07197641208643286
 10
-0.23248271335110215
 20
0.07197641208643286
 10
-0.2303073912306977
 20
0.07197641208643286
 10
-0.22813206911029327
 20
0.07197641208643286
 10
-0.22595674698988882
 20
0.07197641208643286
 10
-0.22378142486948438
 20
0.07197641208643286
 10
-0.22160610274907994
 20
0.07197641208643286
 10
-0.21943078062867546
 20
0.07197641208643286
 10
-0.21725545850827102
 20
0.07197641208643286
 10
-0.21508013638786658
 20
0.07197641208643286
 10
-0.2129048142674621
 20
0.07197641208643286
 10
-0.21072949214705766
 20
0.07197641208643286
 10
-0.20855417002665322
 20
0.07197641208643286
 10
-0.20637884790624877
 20
0.07197641208643286
 10
-0.20420352578584433
 20
0.07197641208643286
 10
-0.2020282036654399
 20
0.07197641208643286
 10
-0.19985288154503544
 20
0.07197641208643286
 10
-0.197677559424631
 20
0.07197641208643286
 10
-0.19550223730422656
 20
0.07197641208643286
 10
-0.19332691518382208
 20
0.07197641208643286
 10
-0.19115159306341764
 20
0.07197641208643286
 10
-0.1889762709430132
 20
0.07197641208643286
 10
-0.18680094882260875
 20
0.07197641208643286
 10
-0.1846256267022043
 20
0.07197641208643286
 10
-0.18245030458179987
 20
0.07197641208643286
 10
-0.18027498246139542
 20
0.07197641208643286
 10
-0.17809966034099098
 20
0.07197641208643286
 10
-0.17592433822058648
 20
0.07197641208643286
 10
-0.17374901610018206
 20
0.07197641208643286
 10
-0.1715736939797776
 20
0.07197641208643286
 10
-0.16939837185937315
 20
0.07197641208643286
 10
-0.1672230497389687
 20
0.07197641208643286
 10
-0.16504772761856426
 20
0.07197641208643286
 10
-0.16287240549815982
 20
0.07197641208643286
 10
-0.16069708337775537
 20
0.07197641208643286
 10
-0.15852176125735093
 20
0.07197641208643286
 10
-0.15634643913694646
 20
0.07197641208643286
 10
-0.15417111701654204
 20
0.07197641208643286
 10
-0.15199579489613757
 20
0.07197641208643286
 10
-0.14982047277573315
 20
0.07197641208643286
 10
-0.14764515065532868
 20
0.07197641208643286
 10
-0.14546982853492424
 20
0.07197641208643286
 10
-0.1432945064145198
 20
0.07197641208643286
 10
-0.14111918429411535
 20
0.07197641208643286
 10
-0.1389438621737109
 20
0.07197641208643286
 10
-0.13676854005330644
 20
0.07197641208643286
 10
-0.13459321793290202
 20
0.07197641208643286
 10
-0.13241789581249752
 20
0.07197641208643286
 10
-0.1302425736920931
 20
0.07197641208643286
 10
-0.12806725157168863
 20
0.07197641208643286
 10
-0.1258919294512842
 20
0.07197641208643286
 10
-0.12371660733087976
 20
0.07197641208643286
 10
-0.1215412852104753
 20
0.07197641208643286
 10
-0.11936596309007086
 20
0.07197641208643286
 10
-0.1171906409696664
 20
0.07197641208643286
 10
-0.11501531884926196
 20
0.07197641208643286
 10
-0.11283999672885751
 20
0.07197641208643286
 10
-0.11066467460845306
 20
0.07197641208643286
 10
-0.10848935248804861
 20
0.07197641208643286
 10
-0.10631403036764417
 20
0.07197641208643286
 10
-0.10413870824723973
 20
0.07197641208643286
 10
-0.10196338612683528
 20
0.07197641208643286
 10
-0.09978806400643082
 20
0.07197641208643286
 10
-0.09761274188602638
 20
0.07197641208643286
 10
-0.09543741976562192
 20
0.07197641208643286
 10
-0.09326209764521748
 20
0.07197641208643286
 10
-0.09108677552481302
 20
0.07197641208643286
 10
-0.08891145340440858
 20
0.07197641208643286
 10
-0.08673613128400413
 20
0.07197641208643286
 10
-0.08456080916359969
 20
0.07197641208643286
 10
-0.08238548704319525
 20
0.07197641208643286
 10
-0.08021016492279079
 20
0.07197641208643286
 10
-0.07803484280238633
 20
0.07197641208643286
 10
-0.07585952068198189
 20
0.07197641208643286
 10
-0.07368419856157744
 20
0.07197641208643286
 10
-0.071508876441173
 20
0.07197641208643286
 10
-0.06933355432076854
 20
0.07197641208643286
 10
-0.0671582322003641
 20
0.07197641208643286
 10
-0.06498291007995965
 20
0.07197641208643286
 10
-0.06498291007995965
 20
0.07197641208643286
 10
-0.06484172400255812
 20
0.07197585204669815
 10
-0.06470054681100638
 20
0.07197417196274132
 10
-0.06455938739059502
 20
0.07197137194030209
 10
-0.0644182546254961
 20
0.07196745215560588
 10
-0.06427715739820408
 20
0.07196241285535279
 10
-0.06413610458897682
 20
0.07195625435670204
 10
-0.06399510507527657
 20
0.07194897704725199
 10
-0.06385416773121139
 20
0.07194058138501579
 10
-0.06371330142697648
 20
0.07193106789839251
 10
-0.06357251502829603
 20
0.07192043718613392
 10
-0.0634318173958652
 20
0.0719086899173068
 10
-0.06329121738479249
 20
0.0718958268312508
 10
-0.0631507238440423
 20
0.07188184873753195
 10
-0.06301034561587819
 20
0.07186675651589167
 10
-0.06287009153530622
 20
0.07185055111619142
 10
-0.06272997042951896
 20
0.07183323355835292
 10
-0.06258999111733993
 20
0.071814804932294
 10
-0.06245016240866856
 20
0.07179526639785987
 10
-0.06231049310392574
 20
0.07177461918475031
 10
-0.06217099199349991
 20
0.07175286459244212
 10
-0.06203166785719385
 20
0.07173000399010741
 10
-0.06189252946367209
 20
0.07170603881652746
 10
-0.06175358556990904
 20
0.07168097058000199
 10
-0.061614844920637846
 20
0.0716548008582545
 10
-0.06147631624780001
 20
0.07162753129833278
 10
-0.06133800826999587
 20
0.0715991636165053
 10
-0.06119992969193584
 20
0.07156969959815318
 10
-0.06106208920389255
 20
0.0715391410976579
 10
-0.060924495481153924
 20
0.07150749003828444
 10
-0.0607871571834772
 20
0.0714747484120604
 10
-0.06065008295454387
 20
0.07144091827965056
 10
-0.060513281421415696
 20
0.07140600177022711
 10
-0.06037676119399176
 20
0.07137000108133579
 10
-0.060240530864466534
 20
0.07133291847875745
 10
-0.06010459900678916
 20
0.07129475629636554
 10
-0.05996897417612381
 20
0.0712555169359792
 10
-0.05983366490831124
 20
0.07121520286721206
 10
-0.0596986797193316
 20
0.07117381662731684
 10
-0.059564027104768415
 20
0.07113136082102568
 10
-0.05942971553927394
 20
0.07108783812038616
 10
-0.05929575347603576
 20
0.07104325126459318
 10
-0.05916214934624479
 20
0.07099760305981649
 10
-0.05902891155856464
 20
0.0709508963790242
 10
-0.05889604849860238
 20
0.07090313416180179
 10
-0.05876356852838079
 20
0.07085431941416728
 10
-0.05863147998581207
 20
0.07080445520838191
 10
-0.05849979118417307
 20
0.07075354468275685
 10
-0.0583685104115821
 20
0.07070159104145567
 10
-0.05823764593047726
 20
0.07064859755429265
 10
-0.05810720597709648
 20
0.07059456755652703
 10
-0.057977198760959095
 20
0.07053950444865303
 10
-0.057847632464349215
 20
0.07048341169618594
 10
-0.0577185152418007
 20
0.0704262928294439
 10
-0.057589855219584
 20
0.07036815144332584
 10
-0.05746166049519465
 20
0.07030899119708503
 10
-0.057333939136843676
 20
0.07024881581409899
 10
-0.057206699182949794
 20
0.07018762908163502
 10
-0.05707994864163349
 20
0.0701254348506119
 10
-0.05695369549021302
 20
0.07006223703535744
 10
-0.056827947674702346
 20
0.06999803961336226
 10
-0.05670271310931099
 20
0.06993284662502937
 10
-0.05657799967594602
 20
0.06986666217341983
 10
-0.05645381522371589
 20
0.06979949042399464
 10
-0.05633016756843654
 20
0.0697313356043525
 10
-0.056207064492139386
 20
0.06966220200396374
 10
-0.056084513742581645
 20
0.06959209397390036
 10
-0.055962523032758595
 20
0.06952101592656221
 10
-0.05584110004041827
 20
0.06944897233539925
 10
-0.05572025240757815
 20
0.06937596773463002
 10
-0.055599987740044245
 20
0.06930200671895628
 10
-0.055480313606932355
 20
0.0692270939432738
 10
-0.05536123754019176
 20
0.06915123412237943
 10
-0.055242767034131134
 20
0.06907443203067437
 10
-0.05512490954494687
 20
0.06899669250186363
 10
-0.055007672490253845
 20
0.06891802042865185
 10
-0.054891063248618546
 20
0.06883842076243538
 10
-0.05477508915909469
 20
0.06875789851299059
 10
-0.05465975752076133
 20
0.06867645874815867
 10
-0.05454507559226349
 20
0.06859410659352658
 10
-0.05443105059135526
 20
0.06851084723210449
 10
-0.05431768969444563
 20
0.0684266859039996
 10
-0.054205000036146735
 20
0.06834162790608633
 10
-0.05409298870882489
 20
0.06825567859167293
 10
-0.05398166276215417
 20
0.06816884337016459
 10
-0.05387102920267276
 20
0.06808112770672294
 10
-0.05376109499334194
 20
0.06799253712192217
 10
-0.05365186705310792
 20
0.06790307719140147
 10
-0.053543352256466316
 20
0.06781275354551422
 10
-0.05343555743302951
 20
0.06772157186897358
 10
-0.05332848936709685
 20
0.06762953790049468
 10
-0.053222154797227604
 20
0.06753665743243355
 10
-0.053116560415816916
 20
0.06744293631042239
 10
-0.05301171286867455
 20
0.06734838043300188
 10
-0.05290761875460666
 20
0.06725299575124974
 10
-0.05280428462500046
 20
0.06715678826840633
 10
-0.05270171698341192
 20
0.06705976403949676
 10
-0.05259992228515642
 20
0.06696192917094977
 10
-0.052498906936902484
 20
0.0668632898202135
 10
-0.05239867729626859
 20
0.0667638521953679
 10
-0.05239867729626859
 20
0.0667638521953679
 10
-0.052275822349341125
 20
0.06664099724844044
 10
-0.05215296740241367
 20
0.06651814230151298
 10
-0.05203011245548622
 20
0.06639528735458554
 10
-0.051907257508558756
 20
0.06627243240765807
 10
-0.051784402561631304
 20
0.06614957746073061
 10
-0.05166154761470385
 20
0.06602672251380316
 10
-0.05153869266777639
 20
0.0659038675668757
 10
-0.05141583772084893
 20
0.06578101261994825
 10
-0.051292982773921476
 20
0.06565815767302079
 10
-0.05117012782699402
 20
0.06553530272609333
 10
-0.05104727288006656
 20
0.06541244777916587
 10
-0.05092441793313911
 20
0.06528959283223841
 10
-0.05080156298621165
 20
0.06516673788531097
 10
-0.05067870803928419
 20
0.06504388293838351
 10
-0.050555853092356724
 20
0.06492102799145605
 10
-0.05043299814542927
 20
0.06479817304452858
 10
-0.05031014319850182
 20
0.06467531809760113
 10
-0.050187288251574355
 20
0.06455246315067367
 10
-0.0500644333046469
 20
0.06442960820374621
 10
-0.04994157835771945
 20
0.06430675325681877
 10
-0.049818723410791986
 20
0.06418389830989131
 10
-0.049695868463864534
 20
0.06406104336296384
 10
-0.049573013516937076
 20
0.06393818841603639
 10
-0.04945015857000962
 20
0.06381533346910893
 10
-0.04932730362308216
 20
0.06369247852218148
 10
-0.049204448676154706
 20
0.06356962357525402
 10
-0.04908159372922725
 20
0.06344676862832657
 10
-0.04895873878229979
 20
0.0633239136813991
 10
-0.04883588383537234
 20
0.06320105873447165
 10
-0.04871302888844487
 20
0.0630782037875442
 10
-0.04859017394151742
 20
0.06295534884061674
 10
-0.04846731899458996
 20
0.06283249389368928
 10
-0.0483444640476625
 20
0.06270963894676182
 10
-0.04822160910073505
 20
0.06258678399983436
 10
-0.04809875415380759
 20
0.0624639290529069
 10
-0.047975899206880133
 20
0.06234107410597945
 10
-0.047853044259952675
 20
0.06221821915905199
 10
-0.04773018931302522
 20
0.06209536421212453
 10
-0.04760733436609776
 20
0.061972509265197075
 10
-0.047484479419170306
 20
0.06184965431826962
 10
-0.047361624472242854
 20
0.061726799371342164
 10
-0.04723876952531539
 20
0.061603944424414706
 10
-0.04711591457838794
 20
0.061481089477487254
 10
-0.04699305963146048
 20
0.06135823453055979
 10
-0.04687020468453302
 20
0.061235379583632336
 10
-0.04674734973760556
 20
0.06111252463670488
 10
-0.04662449479067811
 20
0.06098966968977742
 10
-0.04650163984375065
 20
0.06086681474284997
 10
-0.04637878489682319
 20
0.06074395979592251
 10
-0.04625592994989574
 20
0.06062110484899505
 10
-0.046133075002968274
 20
0.06049824990206759
 10
-0.04601022005604082
 20
0.06037539495514014
 10
-0.045887365109113364
 20
0.060252540008212674
 10
-0.045764510162185905
 20
0.06012968506128522
 10
-0.04564165521525845
 20
0.06000683011435777
 10
-0.045518800268330994
 20
0.059883975167430305
 10
-0.045395945321403536
 20
0.05976112022050285
 10
-0.04527309037447608
 20
0.059638265273575394
 10
-0.045150235427548625
 20
0.059515410326647936
 10
-0.04502738048062116
 20
0.05939255537972048
 10
-0.04490452553369371
 20
0.059269700432793025
 10
-0.044781670586766256
 20
0.059146845485865567
 10
-0.04465881563983879
 20
0.05902399053893811
 10
-0.04453596069291134
 20
0.058901135592010656
 10
-0.04441310574598388
 20
0.05877828064508319
 10
-0.04429025079905642
 20
0.05865542569815574
 10
-0.04416739585212897
 20
0.05853257075122829
 10
-0.04404454090520151
 20
0.05840971580430082
 10
-0.04392168595827405
 20
0.05828686085737337
 10
-0.043798831011346594
 20
0.05816400591044591
 10
-0.04367597606441914
 20
0.05804115096351845
 10
-0.043553121117491676
 20
0.057918296016590994
 10
-0.043430266170564225
 20
0.05779544106966354
 10
-0.04330741122363677
 20
0.05767258612273608
 10
-0.04318455627670931
 20
0.057549731175808624
 10
-0.043061701329781855
 20
0.05742687622888117
 10
-0.0429388463828544
 20
0.05730402128195371
 10
-0.04281599143592694
 20
0.057181166335026255
 10
-0.042693136488999486
 20
0.057058311388098804
 10
-0.04257028154207203
 20
0.05693545644117134
 10
-0.04244742659514457
 20
0.056812601494243886
 10
-0.04232457164821711
 20
0.05668974654731643
 10
-0.04220171670128965
 20
0.05656689160038897
 10
-0.04207886175436219
 20
0.05644403665346151
 10
-0.04195600680743474
 20
0.05632118170653406
 10
-0.04183315186050728
 20
0.0561983267596066
 10
-0.041710296913579824
 20
0.05607547181267914
 10
-0.04158744196665237
 20
0.05595261686575169
 10
-0.041464587019724906
 20
0.055829761918824224
 10
-0.041341732072797455
 20
0.05570690697189677
 10
-0.041218877125869996
 20
0.05558405202496931
 10
-0.04109602217894254
 20
0.055461197078041855
 10
-0.040973167232015086
 20
0.0553383421311144
 10
-0.04085031228508763
 20
0.055215487184186944
 10
-0.04072745733816017
 20
0.055092632237259485
 10
-0.04060460239123271
 20
0.05496977729033203
 10
-0.04048174744430526
 20
0.054846922343404575
 10
-0.04035889249737779
 20
0.05472406739647711
 10
-0.04023603755045034
 20
0.05460121244954966
 10
-0.04023603755045034
 20
0.05460121244954966
 10
-0.039915569576475775
 20
0.05428327681723995
 10
-0.03959258943017839
 20
0.05396789353655876
 10
-0.03926711743900914
 20
0.05365508245683195
 10
-0.03893917408724868
 20
0.05334486326549844
 10
-0.03860878001471797
 20
0.05303725548687101
 10
-0.038275956015479465
 20
0.05273227848090761
 10
-0.0379407230365282
 20
0.05242995144199281
 10
-0.03760310217647359
 20
0.05213029339772983
 10
-0.037263114684211486
 20
0.05183332320774297
 10
-0.03692078195758679
 20
0.051539059562490566
 10
-0.03657612554204685
 20
0.051247520982088825
 10
-0.0362291671292853
 20
0.05095872581514603
 10
-0.03587992855587698
 20
0.05067269223760795
 10
-0.03552843180190352
 20
0.05038943825161366
 10
-0.03517469898957006
 20
0.05010898168436275
 10
-0.0348187523818128
 20
0.04983134018699316
 10
-0.034460614380897994
 20
0.0495565312334704
 10
-0.034100307527011944
 20
0.04928457211948772
 10
-0.03373785449684231
 20
0.049015479961377555
 10
-0.033373278102151085
 20
0.04874927169503437
 10
-0.033006601288338655
 20
0.04848596407484857
 10
-0.03263784713299995
 20
0.048225573672652296
 10
-0.03226703884447173
 20
0.047968116876676146
 10
-0.031894199760372124
 20
0.04771360989051802
 10
-0.031519353346131755
 20
0.047462068732123115
 10
-0.031142523193516847
 20
0.047213509232775876
 10
-0.03076373301914452
 20
0.04696794703610364
 10
-0.030383006662990035
 20
0.04672539759709201
 10
-0.030000368086886473
 20
0.04648587618111225
 10
-0.02961584137301654
 20
0.04624939786296042
 10
-0.029229450722397004
 20
0.0460159775259087
 10
-0.028841220453355507
 20
0.04578562986076864
 10
-0.028451174999999985
 20
0.045558369364966544
 10
-0.028059338910680985
 20
0.0453342103416311
 10
-0.027665736846446496
 20
0.045113166898693116
 10
-0.02727039357949003
 20
0.04489525294799768
 10
-0.026873333991591357
 20
0.04468048220442848
 10
-0.026474583072550663
 20
0.04446886818504476
 10
-0.026074165918615708
 20
0.04426042420823051
 10
-0.02567210773090226
 20
0.04405516339285624
 10
-0.02526843381380817
 20
0.043853098657453404
 10
-0.024863169573420617
 20
0.04365424271940118
 10
-0.024456340515917278
 20
0.043458608094126286
 10
-0.02404797224596088
 20
0.04326620709431508
 10
-0.023638090465087885
 20
0.04307705182913882
 10
-0.02322672097009077
 20
0.042891154203491426
 10
-0.022813889651394522
 20
0.042708525917240274
 10
-0.022399622491427143
 20
0.04252917846448981
 10
-0.02198394556298439
 20
0.04235312313285817
 10
-0.021566885027588866
 20
0.04218037100276675
 10
-0.02114846713384343
 20
0.04201093294674288
 10
-0.020728718215779218
 20
0.04184481962873544
 10
-0.020307664691198244
 20
0.0416820415034438
 10
-0.01988533306001075
 20
0.041522608815659806
 10
-0.019461749902567365
 20
0.04136653159962296
 10
-0.019036941877986206
 20
0.04121381967838895
 10
-0.01861093572247509
 20
0.04106448266321139
 10
-0.018183758247648698
 20
0.04091852995293686
 10
-0.0177554363388413
 20
0.04077597073341352
 10
-0.017325996953414538
 20
0.04063681397691279
 10
-0.016895467119060856
 20
0.04050106844156481
 10
-0.016463873932102458
 20
0.04036874267080713
 10
-0.016031244555785924
 20
0.04023984499284711
 10
-0.015597606218572656
 20
0.04011438352013764
 10
-0.015162986212425152
 20
0.03999236614886667
 10
-0.014727411891089413
 20
0.03987380055846023
 10
-0.014290910668373277
 20
0.03975869421109904
 10
-0.01385351001642112
 20
0.03964705435124895
 10
-0.013415237463984854
 20
0.039538888005204914
 10
-0.012976120594691292
 20
0.039434201980648856
 10
-0.012536187045306211
 20
0.039333002866221156
 10
-0.012095464503994811
 20
0.039235297031105995
 10
-0.011653980708579306
 20
0.03914109062463049
 10
-0.01121176344479297
 20
0.03905038957587769
 10
-0.010768840544531581
 20
0.038963199593313416
 10
-0.010325239884101613
 20
0.03887952616442698
 10
-0.00988098938246585
 20
0.038799374555385784
 10
-0.009436116999486236
 20
0.03872274981070394
 10
-0.008990650734164135
 20
0.03864965675292477
 10
-0.008544618622878232
 20
0.03858009998231725
 10
-0.00809804873761986
 20
0.0385140838765865
 10
-0.0076509691842263925
 20
0.03845161259059832
 10
-0.007203408100612227
 20
0.0383926900561176
 10
-0.006755393654997907
 20
0.03833731998156091
 10
-0.006306954044137292
 20
0.03828550585176316
 10
-0.00585811749154292
 20
0.03823725092775815
 10
-0.00540891224570976
 20
0.038192558246573444
 10
-0.004959366578337198
 20
0.03815143062103916
 10
-0.004509508782549868
 20
0.03811387063961098
 10
-0.004059367171116833
 20
0.03807988066620724
 10
-0.003608970074669709
 20
0.03804946284006007
 10
-0.0031583458399196194
 20
0.03802261907558087
 10
-0.002707522827873109
 20
0.03799935106223977
 10
-0.002256529412047251
 20
0.03797966026445928
 10
-0.0018053939766837599
 20
0.037963547921522164
 10
-0.0013541449149627426
 20
0.037951015047493424
 10
-0.0009028106272155759
 20
0.03794206243115647
 10
-0.0004514195191375332
 20
0.0379366906359635
 10
3.48426403957312e-18
 20
0.0379349
 10
8.873259087446212e-19
 20
0.0379349
 10
5.9335205656468485e-05
 20
0.03793502147710184
 10
0.00011866941651571852
 20
0.03793538590637072
 10
0.0001780016377972022
 20
0.037935993281696716
 10
0.00023733087475373723
 20
0.03793684359289675
 10
0.00029665613268817546
 20
0.037937936825714745
 10
0.0003559764169700704
 20
0.037939272961821854
 10
0.0004152907330523719
 20
0.03794085197881683
 10
0.0004745980864880913
 20
0.0379426738502263
 10
0.0005338974829469634
 20
0.03794473854550528
 10
0.0005931879282321379
 20
0.0379470460300377
 10
0.0006524684282968366
 20
0.037949596265136894
 10
0.0007117379892610108
 20
0.037952389208046375
 10
0.0007709956174280233
 20
0.03795542481194044
 10
0.0008302403193012986
 20
0.037958703025925015
 10
0.0008894711016009702
 20
0.03796222379503851
 10
0.0009486869712805527
 20
0.037965987060252684
 10
0.0010078869355435822
 20
0.03796999275847372
 10
0.0010670700018602496
 20
0.037974240822543213
 10
0.0011262351779840632
 20
0.037978731181239324
 10
0.001185381471968468
 20
0.037983463759277976
 10
0.001244507892183487
 20
0.037988438477314104
 10
0.0013036134473323295
 20
0.037993655251943
 10
0.0013626971464680338
 20
0.0379991139957017
 10
0.0014217579990100687
 20
0.038004814617070455
 10
0.0014807950147609343
 20
0.038010757020474274
 10
0.0015398072039227797
 20
0.038016941106284494
 10
0.0015987935771139903
 20
0.03802336677082049
 10
0.0016577531453857651
 20
0.0380300339063514
 10
0.0017166849202387162
 20
0.038036942401097916
 10
0.001775587913639433
 20
0.03804409213923418
 10
0.0018344611380370353
 20
0.0380514830008897
 10
0.0018933036063797522
 20
0.03805911486215141
 10
0.0019521143321314612
 20
0.03806698759506567
 10
0.0020108923292882154
 20
0.03807510106764048
 10
0.002069636612394798
 20
0.03808345514384765
 10
0.0021283461965612297
 20
0.038092049683625125
 10
0.002187020097479276
 20
0.038100884542879285
 10
0.0022456573314389677
 20
0.03810995957348739
 10
0.002304256915345082
 20
0.038119274623300045
 10
0.002362817866733617
 20
0.03812882953614377
 10
0.0024213392037882833
 20
0.038138624151823605
 10
0.0024798199453569523
 20
0.038148658306125814
 10
0.0025382591109681
 20
0.03815893183082061
 10
0.0025966557208472615
 20
0.03816944455366497
 10
0.0026550087959334506
 20
0.038180196298405605
 10
0.002713317357895561
 20
0.038191186884781785
 10
0.002771580429148793
 20
0.03820241612852846
 10
0.00282979703287103
 20
0.03821388384137933
 10
0.0028879661930192074
 20
0.03822558983106997
 10
0.0029460869343456955
 20
0.03823753390134107
 10
0.003004158282414639
 20
0.03824971585194174
 10
0.0030621792636182955
 20
0.038262135478632865
 10
0.0031201489051933544
 20
0.0382747925731905
 10
0.0031780662352372596
 20
0.038287686923409385
 10
0.0032359302827244855
 20
0.038300818313106506
 10
0.0032937400775228344
 20
0.038314186522124705
 10
0.003351494650409691
 20
0.038327791326336395
 10
0.003409193033088277
 20
0.038341632497647285
 10
0.0034668342582038765
 20
0.038355709804000215
 10
0.003524417359360072
 20
0.03837002300937908
 10
0.003581941371134922
 20
0.038384571873812716
 10
0.003639405329097173
 20
0.03839935615337901
 10
0.0036968082698224107
 20
0.03841437560020891
 10
0.0037541492309092236
 20
0.03842962996249065
 10
0.003811427250995324
 20
0.03844511898447391
 10
0.003868641369773685
 20
0.03846084240647415
 10
0.003925790628008623
 20
0.038476799964876934
 10
0.00398287406755189
 20
0.03849299139214235
 10
0.0040398907313587435
 20
0.03850941641680955
 10
0.004096839663503974
 20
0.03852607476350122
 10
0.004153719909197943
 20
0.038542966152928244
 10
0.004210530514802592
 20
0.038560090301894376
 10
0.004267270527847435
 20
0.03857744692330101
 10
0.004323938997045505
 20
0.038595035726151944
 10
0.004380534972309332
 20
0.0386128564155583
 10
0.004437057504766859
 20
0.03863090869274346
 10
0.0044935056467773375
 20
0.038649192255048065
 10
0.00454987845194724
 20
0.0386677067959351
 10
0.004606174975146117
 20
0.03868645200499503
 10
0.004662394272522427
 20
0.038705427567950985
 10
0.004718535401519387
 20
0.03872463316666408
 10
0.00477459742089076
 20
0.03874406847913867
 10
0.0048305793907166385
 20
0.03876373317952786
 10
0.004886480372419199
 20
0.03878362693813883
 10
0.004942299428778448
 20
0.03880374942143848
 10
0.0049980356239479225
 20
0.038824100292058975
 10
0.005053688023470392
 20
0.03884467920880338
 10
0.0051092556942935186
 20
0.038865485826651405
 10
0.005164737704785504
 20
0.03888651979676523
 10
0.005220133124750699
 20
0.038907780766495266
 10
0.005275441025445217
 20
0.03892926837938612
 10
0.005330660479592484
 20
0.03895098227518258
 10
0.005385790561398803
 20
0.038972922089835625
 10
0.005440830346568868
 20
0.03899508745550856
 10
0.005495778912321261
 20
0.03901747800058314
 10
0.0055506353374039155
 20
0.03904009334966585
 10
0.00560539870210958
 20
0.03906293312359416
 10
0.005660068088291217
 20
0.0390859969394429
 10
0.005714642579377414
 20
0.03910928441053068
 10
0.005714642579377414
 20
0.03910928441053068
 10
0.005714642579377414
 20
0.03910928441053068
 10
0.007318831001870918
 20
0.03979639605261251
 10
0.008919718223775474
 20
0.04047949712236735
 10
0.010517304245091083
 20
0.04115858761979522
 10
0.012111589065817744
 20
0.0418336675448961
 10
0.013702572685955457
 20
0.042504736897669995
 10
0.015290255105504223
 20
0.043171795678116916
 10
0.01687463632446404
 20
0.04383484388623684
 10
0.018455716342834914
 20
0.04449388152202979
 10
0.020033495160616838
 20
0.04514890858549575
 10
0.021607972777809813
 20
0.04579992507663475
 10
0.02317914919441384
 20
0.04644693099544674
 10
0.02474702441042892
 20
0.04708992634193176
 10
0.026311598425855058
 20
0.0477289111160898
 10
0.027872871240692248
 20
0.048363885317920845
 10
0.02943084285494048
 20
0.048994848947424924
 10
0.030985513268599777
 20
0.04962180200460201
 10
0.03253688248167012
 20
0.05024474448945212
 10
0.034084950494151514
 20
0.050863676401975234
 10
0.03562971730604397
 20
0.051478597742171374
 10
0.03717118291734747
 20
0.05208950851004054
 10
0.03870934732806201
 20
0.0526964087055827
 10
0.040244210538187636
 20
0.053299298328797894
 10
0.04177577254772429
 20
0.053898177379686094
 10
0.043304033356672
 20
0.05449304585824733
 10
0.04482899296503076
 20
0.055083903764481565
 10
0.04635065137280059
 20
0.055670751098388836
 10
0.047869008579981456
 20
0.05625358785996911
 10
0.04938406458657337
 20
0.05683241404922241
 10
0.05089581939257635
 20
0.0574072296661487
 10
0.05240427299799037
 20
0.05797803471074804
 10
0.05390942540281546
 20
0.05854482918302038
 10
0.055411276607051585
 20
0.05910761308296574
 10
0.05690982661069878
 20
0.05966638641058413
 10
0.058405075413757016
 20
0.06022114916587553
 10
0.059897023016226306
 20
0.06077190134883993
 10
0.06138566941810664
 20
0.06131864295947737
 10
0.06287101461939805
 20
0.06186137399778782
 10
0.06435305862010049
 20
0.06240009446377128
 10
0.065831801420214
 20
0.06293480435742776
 10
0.06730724301973855
 20
0.06346550367875727
 10
0.06877938341867416
 20
0.06399219242775979
 10
0.07024822261702081
 20
0.06451487060443531
 10
0.07171376061477852
 20
0.06503353820878387
 10
0.07317599741194729
 20
0.06554819524080543
 10
0.0746349330085271
 20
0.06605884170050003
 10
0.07609056740451797
 20
0.06656547758786761
 10
0.07754290059991989
 20
0.06706810290290825
 10
0.07899193259473286
 20
0.06756671764562189
 10
0.08043766338895687
 20
0.06806132181600853
 10
0.08188009298259198
 20
0.06855191541406822
 10
0.0833192213756381
 20
0.06903849843980092
 10
0.08475504856809529
 20
0.06952107089320662
 10
0.08618757455996351
 20
0.06999963277428534
 10
0.08761679935124281
 20
0.07047418408303707
 10
0.08904272294193313
 20
0.07094472481946185
 10
0.09046534533203456
 20
0.07141125498355962
 10
0.09188466652154699
 20
0.0718737745753304
 10
0.09330068651047048
 20
0.07233228359477421
 10
0.09471340529880505
 20
0.07278678204189104
 10
0.09612282288655065
 20
0.0732372699166809
 10
0.09752893927370733
 20
0.07368374721914375
 10
0.09893175446027501
 20
0.07412621394927964
 10
0.10033126844625379
 20
0.07456467010708852
 10
0.10172748123164359
 20
0.07499911569257042
 10
0.10312039281644444
 20
0.07542955070572537
 10
0.1045100032006564
 20
0.0758559751465533
 10
0.10589631238427935
 20
0.07627838901505428
 10
0.10727932036731337
 20
0.07669679231122825
 10
0.10865902714975846
 20
0.07711118503507526
 10
0.1100354327316146
 20
0.0775215671865953
 10
0.11140853711288176
 20
0.07792793876578831
 10
0.11277834029356
 20
0.07833029977265436
 10
0.1141448422736493
 20
0.07872865020719343
 10
0.11550804305314963
 20
0.07912299006940551
 10
0.11686794263206103
 20
0.07951331935929062
 10
0.11822454101038347
 20
0.07989963807684873
 10
0.11957783818811696
 20
0.08028194622207988
 10
0.12092783416526151
 20
0.08066024379498403
 10
0.1222745289418171
 20
0.08103453079556118
 10
0.12361792251778378
 20
0.0814048072238114
 10
0.1249580148931615
 20
0.0817710730797346
 10
0.12629480606795024
 20
0.08213332836333082
 10
0.12762829604215006
 20
0.08249157307460006
 10
0.12895848481576092
 20
0.08284580721354232
 10
0.13028537238878282
 20
0.08319603078015758
 10
0.13160895876121584
 20
0.08354224377444588
 10
0.13292924393305983
 20
0.0838844461964072
 10
0.1342462279043149
 20
0.0842226380460415
 10
0.13555991067498108
 20
0.08455681932334887
 10
0.13687029224505823
 20
0.08488699002832922
 10
0.13817737261454643
 20
0.0852131501609826
 10
0.13948115178344575
 20
0.085535299721309
 10
0.14078162975175607
 20
0.0858534387093084
 10
0.14207880651947746
 20
0.08616756712498083
 10
0.14337268208660991
 20
0.08647768496832628
 10
0.1446632564531534
 20
0.08678379223934474
 10
0.14595052961910798
 20
0.08708588893803623
 10
0.14723450158447354
 20
0.08738397506440071
 10
0.1485151723492502
 20
0.08767805061843824
  0
ENDSEC
  0
SECTION
  2
OBJECTS
  0
DICTIONARY
  5
A
330
0
100
AcDbDictionary
281
1
  3
ACAD_COLOR
350
B
  3
ACAD_GROUP
350
C
  3
ACAD_LAYOUT
350
D
  3
ACAD_MATERIAL
350
E
  3
ACAD_MLEADERSTYLE
350
F
  3
ACAD_MLINESTYLE
350
10
  3
ACAD_PLOTSETTINGS
350
11
  3
ACAD_PLOTSTYLENAME
350
12
  3
ACAD_SCALELIST
350
14
  3
ACAD_TABLESTYLE
350
15
  3
ACAD_VISUALSTYLE
350
16
  3
EZDXF_META
350
2D
  0
DICTIONARY
  5
B
330
A
100
AcDbDictionary
281
1
  0
DICTIONARY
  5
C
330
A
100
AcDbDictionary
281
1
  0
DICTIONARY
  5
D
330
A
100
AcDbDictionary
281
1
  3
Model
350
1A
  3
Layout1
350
1E
  0
DICTIONARY
  5
E
330
A
100
AcDbDictionary
281
1
  3
ByBlock
350
1F
  3
ByLayer
350
20
  3
Global
350
21
  0
DICTIONARY
  5
F
330
A
100
AcDbDictionary
281
1
  3
Standard
350
2C
  0
DICTIONARY
  5
10
330
A
100
AcDbDictionary
281
1
  3
Standard
350
22
  0
DICTIONARY
  5
11
330
A
100
AcDbDictionary
281
1
  0
ACDBDICTIONARYWDFLT
  5
12
330
A
100
AcDbDictionary
281
1
  3
Normal
350
13
100
AcDbDictionaryWithDefault
340
13
  0
ACDBPLACEHOLDER
  5
13
330
12
  0
DICTIONARY
  5
14
330
A
100
AcDbDictionary
281
1
  0
DICTIONARY
  5
15
330
A
100
AcDbDictionary
281
1
  0
DICTIONARY
  5
16
330
A
100
AcDbDictionary
281
1
  0
LAYOUT
  5
1A
330
D
100
AcDbPlotSettings
  1

  4
A3
  6

 40
7.5
 41
20.0
 42
7.5
 43
20.0
 44
420.0
 45
297.0
 46
0.0
 47
0.0
 48
0.0
 49
0.0
140
0.0
141
0.0
142
1.0
143
1.0
 70
1024
 72
1
 73
0
 74
5
  7

 75
16
 76
0
 77
2
 78
300
147
1.0
148
0.0
149
0.0
100
AcDbLayout
  1
Model
 70
1
 71
0
 10
0.0
 20
0.0
 11
420.0
 21
297.0
 12
0.0
 22
0.0
 32
0.0
 14
1e+20
 24
1e+20
 34
1e+20
 15
-1e+20
 25
-1e+20
 35
-1e+20
146
0.0
 13
0.0
 23
0.0
 33
0.0
 16
1.0
 26
0.0
 36
0.0
 17
0.0
 27
1.0
 37
0.0
 76
1
330
17
  0
LAYOUT
  5
1E
330
D
100
AcDbPlotSettings
  1

  4
A3
  6

 40
7.5
 41
20.0
 42
7.5
 43
20.0
 44
420.0
 45
297.0
 46
0.0
 47
0.0
 48
0.0
 49
0.0
140
0.0
141
0.0
142
1.0
143
1.0
 70
0
 72
1
 73
0
 74
5
  7

 75
16
 76
0
 77
2
 78
300
147
1.0
148
0.0
149
0.0
100
AcDbLayout
  1
Layout1
 70
1
 71
1
 10
0.0
 20
0.0
 11
420.0
 21
297.0
 12
0.0
 22
0.0
 32
0.0
 14
1e+20
 24
1e+20
 34
1e+20
 15
-1e+20
 25
-1e+20
 35
-1e+20
146
0.0
 13
0.0
 23
0.0
 33
0.0
 16
1.0
 26
0.0
 36
0.0
 17
0.0
 27
1.0
 37
0.0
 76
1
330
1B
  0
MATERIAL
  5
1F
102
{ACAD_REACTORS
330
E
102
}
330
E
100
AcDbMaterial
  1
ByBlock
  2

 70
0
 40
1.0
 71
1
 41
1.0
 91
-1023410177
 42
1.0
 72
1
  3

 73
1
 74
1
 75
1
 44
0.5
 73
0
 45
1.0
 46
1.0
 77
1
  4

 78
1
 79
1
170
1
 48
1.0
171
1
  6

172
1
173
1
174
1
140
1.0
141
1.0
175
1
  7

176
1
177
1
178
1
143
1.0
179
1
  8

270
1
271
1
272
1
145
1.0
146
1.0
273
1
  9

274
1
275
1
276
1
 42
1.0
 72
1
  3

 73
1
 74
1
 75
1
 94
63
  0
MATERIAL
  5
20
102
{ACAD_REACTORS
330
E
102
}
330
E
100
AcDbMaterial
  1
ByLayer
  2

 70
0
 40
1.0
 71
1
 41
1.0
 91
-1023410177
 42
1.0
 72
1
  3

 73
1
 74
1
 75
1
 44
0.5
 73
0
 45
1.0
 46
1.0
 77
1
  4

 78
1
 79
1
170
1
 48
1.0
171
1
  6

172
1
173
1
174
1
140
1.0
141
1.0
175
1
  7

176
1
177
1
178
1
143
1.0
179
1
  8

270
1
271
1
272
1
145
1.0
146
1.0
273
1
  9

274
1
275
1
276
1
 42
1.0
 72
1
  3

 73
1
 74
1
 75
1
 94
63
  0
MATERIAL
  5
21
102
{ACAD_REACTORS
330
E
102
}
330
E
100
AcDbMaterial
  1
Global
  2

 70
0
 40
1.0
 71
1
 41
1.0
 91
-1023410177
 42
1.0
 72
1
  3

 73
1
 74
1
 75
1
 44
0.5
 73
0
 45
1.0
 46
1.0
 77
1
  4

 78
1
 79
1
170
1
 48
1.0
171
1
  6

172
1
173
1
174
1
140
1.0
141
1.0
175
1
  7

176
1
177
1
178
1
143
1.0
179
1
  8

270
1
271
1
272
1
145
1.0
146
1.0
273
1
  9

274
1
275
1
276
1
 42
1.0
 72
1
  3

 73
1
 74
1
 75
1
 94
63
  0
MLINESTYLE
  5
22
102
{ACAD_REACTORS
330
10
102
}
330
10
100
AcDbMlineStyle
  2
Standard
 70
0
  3

 62
256
 51
90.0
 52
90.0
 71
2
 49
0.5
 62
256
  6
BYLAYER
 49
-0.5
 62
256
  6
BYLAYER
  0
MLEADERSTYLE
  5
2C
102
{ACAD_REACTORS
330
F
102
}
330
F
100
AcDbMLeaderStyle
179
2
170
2
171
1
172
0
 90
2
 40
0.0
 41
0.0
173
1
 91
-1056964608
 92
-2
290
1
 42
2.0
291
1
 43
8.0
  3
Standard
 44
4.0
300

342
29
174
1
175
1
176
0
178
1
 93
-1056964608
 45
4.0
292
0
297
0
 46
4.0
 94
-1056964608
 47
1.0
 49
1.0
140
1.0
294
1
141
0.0
177
0
142
1.0
295
0
296
0
143
3.75
271
0
272
9
273
9
  0
DICTIONARY
  5
2D
330
A
100
AcDbDictionary
280
1
281
1
  3
CREATED_BY_EZDXF
350
2E
  3
WRITTEN_BY_EZDXF
350
32
  0
DICTIONARYVAR
  5
2E
330
2D
100
DictionaryVariables
280
0
  1
1.4.3 @ 2025-11-19T01:22:35.785371+00:00
  0
DICTIONARYVAR
  5
32
330
2D
100
DictionaryVariables
280
0
  1
1.4.3 @ 2025-11-19T01:22:35.789327+00:00
  0
ENDSEC
  0
EOF
