  0
SECTION
  2
HEADER
  9
$ACADVER
  1
AC1024
  9
$ACADMAINTVER
 70
6
  9
$DWGCODEPAGE
  3
ANSI_1252
  9
$LASTSAVEDBY
  1
ezdxf
  9
$INSBASE
 10
0.0
 20
0.0
 30
0.0
  9
$EXTMIN
 10
1e+20
 20
1e+20
 30
1e+20
  9
$EXTMAX
 10
-1e+20
 20
-1e+20
 30
-1e+20
  9
$LIMMIN
 10
0.0
 20
0.0
  9
$LIMMAX
 10
420.0
 20
297.0
  9
$ORTHOMODE
 70
0
  9
$REGENMODE
 70
1
  9
$FILLMODE
 70
1
  9
$QTEXTMODE
 70
0
  9
$MIRRTEXT
 70
1
  9
$LTSCALE
 40
1.0
  9
$ATTMODE
 70
1
  9
$TEXTSIZE
 40
2.5
  9
$TRACEWID
 40
1.0
  9
$TEXTSTYLE
  7
Standard
  9
$CLAYER
  8
0
  9
$CELTYPE
  6
ByLayer
  9
$CECOLOR
 62
256
  9
$CELTSCALE
 40
1.0
  9
$DISPSILH
 70
0
  9
$DIMSCALE
 40
1.0
  9
$DIMASZ
 40
2.5
  9
$DIMEXO
 40
0.625
  9
$DIMDLI
 40
3.75
  9
$DIMRND
 40
0.0
  9
$DIMDLE
 40
0.0
  9
$DIMEXE
 40
1.25
  9
$DIMTP
 40
0.0
  9
$DIMTM
 40
0.0
  9
$DIMTXT
 40
2.5
  9
$DIMCEN
 40
2.5
  9
$DIMTSZ
 40
0.0
  9
$DIMTOL
 70
0
  9
$DIMLIM
 70
0
  9
$DIMTIH
 70
0
  9
$DIMTOH
 70
0
  9
$DIMSE1
 70
0
  9
$DIMSE2
 70
0
  9
$DIMTAD
 70
1
  9
$DIMZIN
 70
8
  9
$DIMBLK
  1

  9
$DIMASO
 70
1
  9
$DIMSHO
 70
1
  9
$DIMPOST
  1

  9
$DIMAPOST
  1

  9
$DIMALT
 70
0
  9
$DIMALTD
 70
3
  9
$DIMALTF
 40
0.03937007874
  9
$DIMLFAC
 40
1.0
  9
$DIMTOFL
 70
1
  9
$DIMTVP
 40
0.0
  9
$DIMTIX
 70
0
  9
$DIMSOXD
 70
0
  9
$DIMSAH
 70
0
  9
$DIMBLK1
  1

  9
$DIMBLK2
  1

  9
$DIMSTYLE
  2
ISO-25
  9
$DIMCLRD
 70
0
  9
$DIMCLRE
 70
0
  9
$DIMCLRT
 70
0
  9
$DIMTFAC
 40
1.0
  9
$DIMGAP
 40
0.625
  9
$DIMJUST
 70
0
  9
$DIMSD1
 70
0
  9
$DIMSD2
 70
0
  9
$DIMTOLJ
 70
0
  9
$DIMTZIN
 70
8
  9
$DIMALTZ
 70
0
  9
$DIMALTTZ
 70
0
  9
$DIMUPT
 70
0
  9
$DIMDEC
 70
2
  9
$DIMTDEC
 70
2
  9
$DIMALTU
 70
2
  9
$DIMALTTD
 70
3
  9
$DIMTXSTY
  7
Standard
  9
$DIMAUNIT
 70
0
  9
$DIMADEC
 70
0
  9
$DIMALTRND
 40
0.0
  9
$DIMAZIN
 70
0
  9
$DIMDSEP
 70
44
  9
$DIMATFIT
 70
3
  9
$DIMFRAC
 70
0
  9
$DIMLDRBLK
  1

  9
$DIMLUNIT
 70
2
  9
$DIMLWD
 70
-2
  9
$DIMLWE
 70
-2
  9
$DIMTMOVE
 70
0
  9
$DIMFXL
 40
1.0
  9
$DIMFXLON
 70
0
  9
$DIMJOGANG
 40
0.785398163397
  9
$DIMTFILL
 70
0
  9
$DIMTFILLCLR
 70
0
  9
$DIMARCSYM
 70
0
  9
$DIMLTYPE
  6

  9
$DIMLTEX1
  6

  9
$DIMLTEX2
  6

  9
$DIMTXTDIRECTION
 70
0
  9
$LUNITS
 70
2
  9
$LUPREC
 70
4
  9
$SKETCHINC
 40
1.0
  9
$FILLETRAD
 40
10.0
  9
$AUNITS
 70
0
  9
$AUPREC
 70
2
  9
$MENU
  1
.
  9
$ELEVATION
 40
0.0
  9
$PELEVATION
 40
0.0
  9
$THICKNESS
 40
0.0
  9
$LIMCHECK
 70
0
  9
$CHAMFERA
 40
0.0
  9
$CHAMFERB
 40
0.0
  9
$CHAMFERC
 40
0.0
  9
$CHAMFERD
 40
0.0
  9
$SKPOLY
 70
0
  9
$TDCREATE
 40
2461003.6212962964
  9
$TDUCREATE
 40
2458532.153996898
  9
$TDUPDATE
 40
2461003.6212962964
  9
$TDUUPDATE
 40
2458532.1544311
  9
$TDINDWG
 40
0.0
  9
$TDUSRTIMER
 40
0.0
  9
$USRTIMER
 70
1
  9
$ANGBASE
 50
0.0
  9
$ANGDIR
 70
0
  9
$PDMODE
 70
0
  9
$PDSIZE
 40
0.0
  9
$PLINEWID
 40
0.0
  9
$SPLFRAME
 70
0
  9
$SPLINETYPE
 70
6
  9
$SPLINESEGS
 70
8
  9
$HANDSEED
  5
33
  9
$SURFTAB1
 70
6
  9
$SURFTAB2
 70
6
  9
$SURFTYPE
 70
6
  9
$SURFU
 70
6
  9
$SURFV
 70
6
  9
$UCSBASE
  2

  9
$UCSNAME
  2

  9
$UCSORG
 10
0.0
 20
0.0
 30
0.0
  9
$UCSXDIR
 10
1.0
 20
0.0
 30
0.0
  9
$UCSYDIR
 10
0.0
 20
1.0
 30
0.0
  9
$UCSORTHOREF
  2

  9
$UCSORTHOVIEW
 70
0
  9
$UCSORGTOP
 10
0.0
 20
0.0
 30
0.0
  9
$UCSORGBOTTOM
 10
0.0
 20
0.0
 30
0.0
  9
$UCSORGLEFT
 10
0.0
 20
0.0
 30
0.0
  9
$UCSORGRIGHT
 10
0.0
 20
0.0
 30
0.0
  9
$UCSORGFRONT
 10
0.0
 20
0.0
 30
0.0
  9
$UCSORGBACK
 10
0.0
 20
0.0
 30
0.0
  9
$PUCSBASE
  2

  9
$PUCSNAME
  2

  9
$PUCSORG
 10
0.0
 20
0.0
 30
0.0
  9
$PUCSXDIR
 10
1.0
 20
0.0
 30
0.0
  9
$PUCSYDIR
 10
0.0
 20
1.0
 30
0.0
  9
$PUCSORTHOREF
  2

  9
$PUCSORTHOVIEW
 70
0
  9
$PUCSORGTOP
 10
0.0
 20
0.0
 30
0.0
  9
$PUCSORGBOTTOM
 10
0.0
 20
0.0
 30
0.0
  9
$PUCSORGLEFT
 10
0.0
 20
0.0
 30
0.0
  9
$PUCSORGRIGHT
 10
0.0
 20
0.0
 30
0.0
  9
$PUCSORGFRONT
 10
0.0
 20
0.0
 30
0.0
  9
$PUCSORGBACK
 10
0.0
 20
0.0
 30
0.0
  9
$USERI1
 70
0
  9
$USERI2
 70
0
  9
$USERI3
 70
0
  9
$USERI4
 70
0
  9
$USERI5
 70
0
  9
$USERR1
 40
0.0
  9
$USERR2
 40
0.0
  9
$USERR3
 40
0.0
  9
$USERR4
 40
0.0
  9
$USERR5
 40
0.0
  9
$WORLDVIEW
 70
1
  9
$SHADEDGE
 70
3
  9
$SHADEDIF
 70
70
  9
$TILEMODE
 70
1
  9
$MAXACTVP
 70
64
  9
$PINSBASE
 10
0.0
 20
0.0
 30
0.0
  9
$PLIMCHECK
 70
0
  9
$PEXTMIN
 10
1e+20
 20
1e+20
 30
1e+20
  9
$PEXTMAX
 10
-1e+20
 20
-1e+20
 30
-1e+20
  9
$PLIMMIN
 10
0.0
 20
0.0
  9
$PLIMMAX
 10
420.0
 20
297.0
  9
$UNITMODE
 70
0
  9
$VISRETAIN
 70
1
  9
$PLINEGEN
 70
0
  9
$PSLTSCALE
 70
1
  9
$TREEDEPTH
 70
3020
  9
$CMLSTYLE
  2
Standard
  9
$CMLJUST
 70
0
  9
$CMLSCALE
 40
20.0
  9
$PROXYGRAPHICS
 70
1
  9
$MEASUREMENT
 70
1
  9
$CELWEIGHT
370
-1
  9
$ENDCAPS
280
0
  9
$JOINSTYLE
280
0
  9
$LWDISPLAY
290
0
  9
$INSUNITS
 70
6
  9
$HYPERLINKBASE
  1

  9
$STYLESHEET
  1

  9
$XEDIT
290
1
  9
$CEPSNTYPE
380
0
  9
$PSTYLEMODE
290
1
  9
$FINGERPRINTGUID
  2
{C18C67D4-F22D-42C1-8BA2-FCD7A592BC4E}
  9
$VERSIONGUID
  2
{88EE8C99-0B2B-4463-9FBB-FE988E832B50}
  9
$EXTNAMES
290
1
  9
$PSVPSCALE
 40
0.0
  9
$OLESTARTUP
290
0
  9
$SORTENTS
280
127
  9
$INDEXCTL
280
0
  9
$HIDETEXT
280
1
  9
$XCLIPFRAME
280
1
  9
$HALOGAP
280
0
  9
$OBSCOLOR
 70
257
  9
$OBSLTYPE
280
0
  9
$INTERSECTIONDISPLAY
280
0
  9
$INTERSECTIONCOLOR
 70
257
  9
$DIMASSOC
280
2
  9
$PROJECTNAME
  1

  9
$CAMERADISPLAY
290
0
  9
$LENSLENGTH
 40
50.0
  9
$CAMERAHEIGHT
 40
0.0
  9
$STEPSPERSEC
 40
24.0
  9
$STEPSIZE
 40
100.0
  9
$3DDWFPREC
 40
2.0
  9
$PSOLWIDTH
 40
0.005
  9
$PSOLHEIGHT
 40
0.08
  9
$LOFTANG1
 40
1.570796326795
  9
$LOFTANG2
 40
1.570796326795
  9
$LOFTMAG1
 40
0.0
  9
$LOFTMAG2
 40
0.0
  9
$LOFTPARAM
 70
7
  9
$LOFTNORMALS
280
1
  9
$LATITUDE
 40
37.795
  9
$LONGITUDE
 40
-122.394
  9
$NORTHDIRECTION
 40
0.0
  9
$TIMEZONE
 70
-8000
  9
$LIGHTGLYPHDISPLAY
280
1
  9
$TILEMODELIGHTSYNCH
280
1
  9
$CMATERIAL
347
20
  9
$SOLIDHIST
280
0
  9
$SHOWHIST
280
1
  9
$DWFFRAME
280
2
  9
$DGNFRAME
280
2
  9
$REALWORLDSCALE
290
1
  9
$INTERFERECOLOR
 62
256
  9
$CSHADOW
280
0
  9
$SHADOWPLANELOCATION
 40
0.0
  0
ENDSEC
  0
SECTION
  2
CLASSES
  0
CLASS
  1
ACDBDICTIONARYWDFLT
  2
AcDbDictionaryWithDefault
  3
ObjectDBX Classes
 90
0
 91
0
280
0
281
0
  0
CLASS
  1
SUN
  2
AcDbSun
  3
SCENEOE
 90
1153
 91
0
280
0
281
0
  0
CLASS
  1
VISUALSTYLE
  2
AcDbVisualStyle
  3
ObjectDBX Classes
 90
4095
 91
0
280
0
281
0
  0
CLASS
  1
MATERIAL
  2
AcDbMaterial
  3
ObjectDBX Classes
 90
1153
 91
0
280
0
281
0
  0
CLASS
  1
SCALE
  2
AcDbScale
  3
ObjectDBX Classes
 90
1153
 91
0
280
0
281
0
  0
CLASS
  1
TABLESTYLE
  2
AcDbTableStyle
  3
ObjectDBX Classes
 90
4095
 91
0
280
0
281
0
  0
CLASS
  1
MLEADERSTYLE
  2
AcDbMLeaderStyle
  3
ACDB_MLEADERSTYLE_CLASS
 90
4095
 91
0
280
0
281
0
  0
CLASS
  1
DICTIONARYVAR
  2
AcDbDictionaryVar
  3
ObjectDBX Classes
 90
0
 91
0
280
0
281
0
  0
CLASS
  1
CELLSTYLEMAP
  2
AcDbCellStyleMap
  3
ObjectDBX Classes
 90
1152
 91
0
280
0
281
0
  0
CLASS
  1
MENTALRAYRENDERSETTINGS
  2
AcDbMentalRayRenderSettings
  3
SCENEOE
 90
1024
 91
0
280
0
281
0
  0
CLASS
  1
ACDBDETAILVIEWSTYLE
  2
AcDbDetailViewStyle
  3
ObjectDBX Classes
 90
1025
 91
0
280
0
281
0
  0
CLASS
  1
ACDBSECTIONVIEWSTYLE
  2
AcDbSectionViewStyle
  3
ObjectDBX Classes
 90
1025
 91
0
280
0
281
0
  0
CLASS
  1
RASTERVARIABLES
  2
AcDbRasterVariables
  3
ISM
 90
0
 91
0
280
0
281
0
  0
CLASS
  1
LAYOUT
  2
AcDbLayout
  3
ObjectDBX Classes
 90
0
 91
0
280
0
281
0
  0
CLASS
  1
ACDBPLACEHOLDER
  2
AcDbPlaceHolder
  3
ObjectDBX Classes
 90
0
 91
0
280
0
281
0
  0
ENDSEC
  0
SECTION
  2
TABLES
  0
TABLE
  2
VPORT
  5
8
330
0
100
AcDbSymbolTable
 70
1
  0
VPORT
  5
23
330
8
100
AcDbSymbolTableRecord
100
AcDbViewportTableRecord
  2
*Active
 70
0
 10
0.0
 20
0.0
 11
1.0
 21
1.0
 12
0.0
 22
0.0
 13
0.0
 23
0.0
 14
0.5
 24
0.5
 15
0.5
 25
0.5
 16
0.0
 26
0.0
 36
1.0
 17
0.0
 27
0.0
 37
0.0
 40
1000.0
 41
1.34
 42
50.0
 43
0.0
 44
0.0
 50
0.0
 51
0.0
 71
0
 72
1000
 73
1
 74
3
 75
0
 76
0
 77
0
 78
0
281
0
 65
0
146
0.0
  0
ENDTAB
  0
TABLE
  2
LTYPE
  5
2
330
0
100
AcDbSymbolTable
 70
3
  0
LTYPE
  5
24
330
2
100
AcDbSymbolTableRecord
100
AcDbLinetypeTableRecord
  2
ByBlock
 70
0
  3

 72
65
 73
0
 40
0.0
  0
LTYPE
  5
25
330
2
100
AcDbSymbolTableRecord
100
AcDbLinetypeTableRecord
  2
ByLayer
 70
0
  3

 72
65
 73
0
 40
0.0
  0
LTYPE
  5
26
330
2
100
AcDbSymbolTableRecord
100
AcDbLinetypeTableRecord
  2
Continuous
 70
0
  3

 72
65
 73
0
 40
0.0
  0
ENDTAB
  0
TABLE
  2
LAYER
  5
1
330
0
100
AcDbSymbolTable
 70
2
  0
LAYER
  5
27
330
1
100
AcDbSymbolTableRecord
100
AcDbLayerTableRecord
  2
0
 70
0
 62
7
  6
Continuous
370
-3
390
13
347
21
  0
LAYER
  5
28
330
1
100
AcDbSymbolTableRecord
100
AcDbLayerTableRecord
  2
Defpoints
 70
0
 62
7
  6
Continuous
290
0
370
-3
390
13
347
21
  0
ENDTAB
  0
TABLE
  2
STYLE
  5
5
330
0
100
AcDbSymbolTable
 70
1
  0
STYLE
  5
29
330
5
100
AcDbSymbolTableRecord
100
AcDbTextStyleTableRecord
  2
Standard
 70
0
 40
0.0
 41
1.0
 50
0.0
 71
0
 42
2.5
  3
txt
  4

  0
ENDTAB
  0
TABLE
  2
VIEW
  5
7
330
0
100
AcDbSymbolTable
 70
0
  0
ENDTAB
  0
TABLE
  2
UCS
  5
6
330
0
100
AcDbSymbolTable
 70
0
  0
ENDTAB
  0
TABLE
  2
APPID
  5
3
330
0
100
AcDbSymbolTable
 70
3
  0
APPID
  5
2A
330
3
100
AcDbSymbolTableRecord
100
AcDbRegAppTableRecord
  2
ACAD
 70
0
  0
APPID
  5
30
330
3
100
AcDbSymbolTableRecord
100
AcDbRegAppTableRecord
  2
HATCHBACKGROUNDCOLOR
 70
0
  0
APPID
  5
31
330
3
100
AcDbSymbolTableRecord
100
AcDbRegAppTableRecord
  2
EZDXF
 70
0
  0
ENDTAB
  0
TABLE
  2
DIMSTYLE
  5
4
330
0
100
AcDbSymbolTable
 70
1
100
AcDbDimStyleTable
  0
DIMSTYLE
105
2B
330
4
100
AcDbSymbolTableRecord
100
AcDbDimStyleTableRecord
  2
Standard
 70
0
 40
1.0
 41
2.5
 42
0.625
 43
3.75
 44
1.25
 45
0.0
 46
0.0
 47
0.0
 48
0.0
 49
2.5
140
2.5
141
2.5
142
0.0
143
0.03937007874
144
1.0
145
0.0
146
1.0
147
0.625
148
0.0
 69
0
 70
0
 71
0
 72
0
 73
0
 74
0
 75
0
 76
0
 77
1
 78
8
 79
3
170
0
171
3
172
1
173
0
174
0
175
0
176
0
177
0
178
0
179
2
271
2
272
2
273
2
274
3
275
0
276
0
277
2
278
44
279
0
280
0
281
0
282
0
283
0
284
8
285
0
286
0
288
0
289
3
290
0
371
-2
372
-2
  0
ENDTAB
  0
TABLE
  2
BLOCK_RECORD
  5
9
330
0
100
AcDbSymbolTable
 70
2
  0
BLOCK_RECORD
  5
17
330
9
100
AcDbSymbolTableRecord
100
AcDbBlockTableRecord
  2
*Model_Space
340
1A
 70
0
280
1
281
0
  0
BLOCK_RECORD
  5
1B
330
9
100
AcDbSymbolTableRecord
100
AcDbBlockTableRecord
  2
*Paper_Space
340
1E
 70
0
280
1
281
0
  0
ENDTAB
  0
ENDSEC
  0
SECTION
  2
BLOCKS
  0
BLOCK
  5
18
330
17
100
AcDbEntity
  8
0
100
AcDbBlockBegin
  2
*Model_Space
 70
0
 10
0.0
 20
0.0
 30
0.0
  3
*Model_Space
  1

  0
ENDBLK
  5
19
330
17
100
AcDbEntity
  8
0
100
AcDbBlockEnd
  0
BLOCK
  5
1C
330
1B
100
AcDbEntity
  8
0
100
AcDbBlockBegin
  2
*Paper_Space
 70
0
 10
0.0
 20
0.0
 30
0.0
  3
*Paper_Space
  1

  0
ENDBLK
  5
1D
330
1B
100
AcDbEntity
  8
0
100
AcDbBlockEnd
  0
ENDSEC
  0
SECTION
  2
ENTITIES
  0
LWPOLYLINE
  5
2F
330
17
100
AcDbEntity
  8
0
100
AcDbPolyline
 90
601
 70
0
 10
-0.3156458
 20
0.0758698
 10
-0.31316986386455364
 20
0.0758698
 10
-0.31069392772910726
 20
0.0758698
 10
-0.30821799159366087
 20
0.0758698
 10
-0.3057420554582146
 20
0.0758698
 10
-0.3032661193227682
 20
0.0758698
 10
-0.3007901831873218
 20
0.0758698
 10
-0.2983142470518754
 20
0.0758698
 10
-0.29583831091642915
 20
0.0758698
 10
-0.29336237478098276
 20
0.0758698
 10
-0.29088643864553637
 20
0.0758698
 10
-0.28841050251009004
 20
0.0758698
 10
-0.2859345663746437
 20
0.0758698
 10
-0.2834586302391973
 20
0.0758698
 10
-0.280982694103751
 20
0.0758698
 10
-0.2785067579683046
 20
0.0758698
 10
-0.27603082183285826
 20
0.0758698
 10
-0.27355488569741193
 20
0.0758698
 10
-0.27107894956196554
 20
0.0758698
 10
-0.26860301342651915
 20
0.0758698
 10
-0.2661270772910729
 20
0.0758698
 10
-0.2636511411556265
 20
0.0758698
 10
-0.2611752050201801
 20
0.0758698
 10
-0.2586992688847337
 20
0.0758698
 10
-0.25622333274928744
 20
0.0758698
 10
-0.25374739661384105
 20
0.0758698
 10
-0.25127146047839466
 20
0.0758698
 10
-0.24879552434294833
 20
0.0758698
 10
-0.24631958820750197
 20
0.0758698
 10
-0.24384365207205558
 20
0.0758698
 10
-0.24136771593660927
 20
0.0758698
 10
-0.23889177980116288
 20
0.0758698
 10
-0.23641584366571652
 20
0.0758698
 10
-0.2339399075302702
 20
0.0758698
 10
-0.23146397139482383
 20
0.0758698
 10
-0.22898803525937744
 20
0.0758698
 10
-0.22651209912393114
 20
0.0758698
 10
-0.22403616298848475
 20
0.0758698
 10
-0.2215602268530384
 20
0.0758698
 10
-0.219084290717592
 20
0.0758698
 10
-0.2166083545821457
 20
0.0758698
 10
-0.2141324184466993
 20
0.0758698
 10
-0.21165648231125295
 20
0.0758698
 10
-0.20918054617580661
 20
0.0758698
 10
-0.20670461004036025
 20
0.0758698
 10
-0.20422867390491387
 20
0.0758698
 10
-0.20175273776946756
 20
0.0758698
 10
-0.19927680163402117
 20
0.0758698
 10
-0.1968008654985748
 20
0.0758698
 10
-0.19432492936312848
 20
0.0758698
 10
-0.19184899322768212
 20
0.0758698
 10
-0.18937305709223573
 20
0.0758698
 10
-0.1868971209567894
 20
0.0758698
 10
-0.18442118482134304
 20
0.0758698
 10
-0.18194524868589668
 20
0.0758698
 10
-0.17946931255045032
 20
0.0758698
 10
-0.17699337641500398
 20
0.0758698
 10
-0.1745174402795576
 20
0.0758698
 10
-0.17204150414411126
 20
0.0758698
 10
-0.1695655680086649
 20
0.0758698
 10
-0.16708963187321854
 20
0.0758698
 10
-0.16461369573777215
 20
0.0758698
 10
-0.16213775960232585
 20
0.0758698
 10
-0.15966182346687946
 20
0.0758698
 10
-0.1571858873314331
 20
0.0758698
 10
-0.15470995119598677
 20
0.0758698
 10
-0.1522340150605404
 20
0.0758698
 10
-0.14975807892509402
 20
0.0758698
 10
-0.14728214278964769
 20
0.0758698
 10
-0.14480620665420132
 20
0.0758698
 10
-0.14233027051875496
 20
0.0758698
 10
-0.1398543343833086
 20
0.0758698
 10
-0.13737839824786227
 20
0.0758698
 10
-0.13490246211241588
 20
0.0758698
 10
-0.13242652597696955
 20
0.0758698
 10
-0.1299505898415232
 20
0.0758698
 10
-0.12747465370607683
 20
0.0758698
 10
-0.12499871757063047
 20
0.0758698
 10
-0.12252278143518411
 20
0.0758698
 10
-0.12004684529973775
 20
0.0758698
 10
-0.11757090916429139
 20
0.0758698
 10
-0.11509497302884503
 20
0.0758698
 10
-0.11261903689339868
 20
0.0758698
 10
-0.11014310075795232
 20
0.0758698
 10
-0.10766716462250596
 20
0.0758698
 10
-0.10519122848705961
 20
0.0758698
 10
-0.10271529235161325
 20
0.0758698
 10
-0.10023935621616689
 20
0.0758698
 10
-0.09776342008072053
 20
0.0758698
 10
-0.09528748394527417
 20
0.0758698
 10
-0.09281154780982782
 20
0.0758698
 10
-0.09033561167438146
 20
0.0758698
 10
-0.0878596755389351
 20
0.0758698
 10
-0.08538373940348876
 20
0.0758698
 10
-0.0829078032680424
 20
0.0758698
 10
-0.08043186713259604
 20
0.0758698
 10
-0.07795593099714967
 20
0.0758698
 10
-0.07547999486170331
 20
0.0758698
 10
-0.07300405872625697
 20
0.0758698
 10
-0.07052812259081061
 20
0.0758698
 10
-0.07052812259081061
 20
0.0758698
 10
-0.07035529991764002
 20
0.07586911446807068
 10
-0.07018248812143649
 20
0.07586705791542815
 10
-0.07000969807848256
 20
0.07586363047150596
 10
-0.06983694066369166
 20
0.07585883235201768
 10
-0.06966422674992369
 20
0.07585266385894333
 10
-0.06949156720730072
 20
0.07584512538051025
 10
-0.06931897290252285
 20
0.07583621739116886
 10
-0.06914645469818433
 20
0.07582594045156262
 10
-0.06897402345208982
 20
0.07581429520849284
 10
-0.0688016900165711
 20
0.07580128239487802
 10
-0.06862946523780403
 20
0.07578690282970756
 10
-0.0684573599551259
 20
0.07577115741799037
 10
-0.06828538500035332
 20
0.07575404715069786
 10
-0.06811355119710032
 20
0.07573557310470151
 10
-0.06794186936009738
 20
0.07571573644270524
 10
-0.06777035029451058
 20
0.07569453841317204
 10
-0.06759900479526165
 20
0.07567198035024555
 10
-0.06742784364634856
 20
0.07564806367366605
 10
-0.06725687762016676
 20
0.0756227898886811
 10
-0.0670861174768313
 20
0.07559616058595073
 10
-0.06691557396349944
 20
0.07556817744144749
 10
-0.06674525781369448
 20
0.07553884221635082
 10
-0.06657517974663003
 20
0.07550815675693628
 10
-0.06640535046653548
 20
0.07547612299445934
 10
-0.0662357806619823
 20
0.07544274294503382
 10
-0.06606648100521123
 20
0.07540801870950502
 10
-0.06589746215146076
 20
0.07537195247331743
 10
-0.0657287347382964
 20
0.07533454650637735
 10
-0.06556030938494123
 20
0.07529580316290982
 10
-0.06539219669160752
 20
0.0752557248813106
 10
-0.06522440723882963
 20
0.07521431418399263
 10
-0.06505695158679813
 20
0.07517157367722734
 10
-0.06488984027469498
 20
0.07512750605098052
 10
-0.06472308382003052
 20
0.07508211407874317
 10
-0.06455669271798127
 20
0.07503540061735677
 10
-0.06439067744072956
 20
0.07498736860683362
 10
-0.06422504843680434
 20
0.07493802107017172
 10
-0.06405981613042361
 20
0.07488736111316456
 10
-0.0638949909208384
 20
0.07483539192420563
 10
-0.0637305831816782
 20
0.0747821167740877
 10
-0.06356660326029806
 20
0.07472753901579714
 10
-0.06340306147712746
 20
0.0746716620843026
 10
-0.06323996812502071
 20
0.07461448949633916
 10
-0.06307733346860907
 20
0.07455602485018673
 10
-0.06291516774365488
 20
0.0744962718254437
 10
-0.06275348115640723
 20
0.07443523418279535
 10
-0.06259228388295966
 20
0.07437291576377718
 10
-0.062431586068609664
 20
0.07430932049053304
 10
-0.06227139782722024
 20
0.07424445236556844
 10
-0.06211172924058331
 20
0.07417831547149847
 10
-0.061952590357785164
 20
0.07411091397079099
 10
-0.0617939911945741
 20
0.0740422521055046
 10
-0.061635941732729946
 20
0.07397233419702161
 10
-0.06147845191943594
 20
0.07390116464577616
 10
-0.0613215316666526
 20
0.07382874793097724
 10
-0.06116519085049392
 20
0.07375508861032669
 10
-0.06100943931060585
 20
0.07368019131973248
 10
-0.06085428684954691
 20
0.0736040607730169
 10
-0.06069974323217135
 20
0.0735267017616198
 10
-0.06054581818501451
 20
0.07344811915429716
 10
-0.06039252139568068
 20
0.0733683178968146
 10
-0.0602398625122334
 20
0.07328730301163608
 10
-0.060087851142588224
 20
0.07320507959760786
 10
-0.059936496853908026
 20
0.07312165282963755
 10
-0.05978580917200088
 20
0.07303702795836844
 10
-0.05963579758072055
 20
0.07295121030984905
 10
-0.05948647152136953
 20
0.07286420528519784
 10
-0.05933784039210493
 20
0.07277601836026344
 10
-0.059189913547346915
 20
0.07268665508527981
 10
-0.059042700297190005
 20
0.07259612108451714
 10
-0.058896209906817085
 20
0.07250442205592768
 10
-0.058750451595916325
 20
0.07241156377078727
 10
-0.05860543453810089
 20
0.07231755207333204
 10
-0.05846116786033158
 20
0.07222239288039062
 10
-0.0583176606423424
 20
0.0721260921810117
 10
-0.05817492191606916
 20
0.07202865603608717
 10
-0.05803296066508095
 20
0.07193009057797065
 10
-0.05789178582401478
 20
0.07183040201009146
 10
-0.05775140627801329
 20
0.0717295966065643
 10
-0.057611830862165474
 20
0.0716276807117943
 10
-0.057473068360950695
 20
0.07152466074007777
 10
-0.05733512750768576
 20
0.07142054317519844
 10
-0.0571980169839753
 20
0.07131533457001947
 10
-0.057061745419165366
 20
0.071209041546071
 10
-0.056926321389800354
 20
0.07110167079313333
 10
-0.05679175341908313
 20
0.07099322906881603
 10
-0.05665804997633873
 20
0.07088372319813252
 10
-0.0565252194764812
 20
0.07077316007307058
 10
-0.056393270279484105
 20
0.0706615466521586
 10
-0.05626221068985428
 20
0.07054888996002748
 10
-0.05613204895610921
 20
0.0704351970869688
 10
-0.05600279327025789
 20
0.07032047518848833
 10
-0.05587445176728524
 20
0.07020473148485577
 10
-0.055747032524640125
 20
0.07008797326065036
 10
-0.05562054356172693
 20
0.06997020786430234
 10
-0.05549499283940094
 20
0.06985144270763052
 10
-0.05537038825946718
 20
0.0697316852653758
 10
-0.05524673766418324
 20
0.06961094307473067
 10
-0.05512404883576558
 20
0.0694892237348649
 10
-0.05512404883576558
 20
0.0694892237348649
 10
-0.05497366488338866
 20
0.06933883978248796
 10
-0.054823280931011735
 20
0.06918845583011106
 10
-0.05467289697863481
 20
0.06903807187773413
 10
-0.05452251302625789
 20
0.0688876879253572
 10
-0.05437212907388097
 20
0.06873730397298028
 10
-0.05422174512150405
 20
0.06858692002060336
 10
-0.05407136116912713
 20
0.06843653606822644
 10
-0.0539209772167502
 20
0.06828615211584951
 10
-0.053770593264373286
 20
0.0681357681634726
 10
-0.05362020931199636
 20
0.06798538421109568
 10
-0.053469825359619444
 20
0.06783500025871875
 10
-0.05331944140724252
 20
0.06768461630634184
 10
-0.053169057454865595
 20
0.06753423235396491
 10
-0.05301867350248867
 20
0.06738384840158798
 10
-0.052868289550111754
 20
0.06723346444921106
 10
-0.052717905597734836
 20
0.06708308049683415
 10
-0.05256752164535791
 20
0.06693269654445723
 10
-0.05241713769298099
 20
0.0667823125920803
 10
-0.05226675374060406
 20
0.06663192863970338
 10
-0.052116369788227146
 20
0.06648154468732646
 10
-0.05196598583585023
 20
0.06633116073494953
 10
-0.051815601883473304
 20
0.06618077678257263
 10
-0.05166521793109638
 20
0.0660303928301957
 10
-0.051514833978719456
 20
0.06588000887781877
 10
-0.05136445002634254
 20
0.06572962492544185
 10
-0.05121406607396562
 20
0.06557924097306493
 10
-0.0510636821215887
 20
0.06542885702068801
 10
-0.05091329816921177
 20
0.06527847306831108
 10
-0.05076291421683485
 20
0.06512808911593417
 10
-0.05061253026445793
 20
0.06497770516355725
 10
-0.05046214631208101
 20
0.06482732121118032
 10
-0.05031176235970409
 20
0.0646769372588034
 10
-0.050161378407327165
 20
0.06452655330642648
 10
-0.05001099445495024
 20
0.06437616935404955
 10
-0.04986061050257332
 20
0.06422578540167263
 10
-0.049710226550196406
 20
0.06407540144929572
 10
-0.04955984259781948
 20
0.0639250174969188
 10
-0.04940945864544256
 20
0.06377463354454187
 10
-0.04925907469306563
 20
0.06362424959216495
 10
-0.049108690740688715
 20
0.06347386563978803
 10
-0.0489583067883118
 20
0.06332348168741112
 10
-0.048807922835934874
 20
0.06317309773503418
 10
-0.04865753888355795
 20
0.06302271378265727
 10
-0.048507154931181025
 20
0.06287232983028035
 10
-0.04835677097880411
 20
0.06272194587790342
 10
-0.04820638702642719
 20
0.0625715619255265
 10
-0.048056003074050266
 20
0.06242117797314958
 10
-0.04790561912167334
 20
0.06227079402077265
 10
-0.04775523516929642
 20
0.062120410068395734
 10
-0.0476048512169195
 20
0.06197002611601882
 10
-0.04745446726454258
 20
0.06181964216364189
 10
-0.04730408331216566
 20
0.061669258211264975
 10
-0.047153699359788734
 20
0.061518874258888044
 10
-0.04700331540741181
 20
0.06136849030651113
 10
-0.04685293145503489
 20
0.06121810635413421
 10
-0.04670254750265797
 20
0.061067722401757285
 10
-0.04655216355028105
 20
0.06091733844938037
 10
-0.046401779597904126
 20
0.060766954497003436
 10
-0.0462513956455272
 20
0.06061657054462652
 10
-0.046101011693150284
 20
0.0604661865922496
 10
-0.04595062774077336
 20
0.06031580263987268
 10
-0.04580024378839644
 20
0.06016541868749576
 10
-0.04564985983601952
 20
0.06001503473511883
 10
-0.045499475883642594
 20
0.05986465078274191
 10
-0.04534909193126568
 20
0.059714266830364994
 10
-0.04519870797888875
 20
0.05956388287798807
 10
-0.045048324026511835
 20
0.05941349892561115
 10
-0.04489794007413491
 20
0.05926311497323422
 10
-0.044747556121757986
 20
0.059112731020857304
 10
-0.04459717216938107
 20
0.058962347068480386
 10
-0.044446788217004145
 20
0.05881196311610346
 10
-0.04429640426462723
 20
0.058661579163726545
 10
-0.0441460203122503
 20
0.05851119521134961
 10
-0.04399563635987338
 20
0.058360811258972696
 10
-0.04384525240749646
 20
0.05821042730659578
 10
-0.04369486845511954
 20
0.058060043354218854
 10
-0.04354448450274262
 20
0.05790965940184194
 10
-0.043394100550365695
 20
0.057759275449465006
 10
-0.04324371659798877
 20
0.05760889149708809
 10
-0.043093332645611854
 20
0.05745850754471117
 10
-0.04294294869323493
 20
0.05730812359233425
 10
-0.042792564740858005
 20
0.05715773963995732
 10
-0.04264218078848109
 20
0.0570073556875804
 10
-0.04249179683610416
 20
0.05685697173520348
 10
-0.042341412883727246
 20
0.05670658778282656
 10
-0.04219102893135032
 20
0.05655620383044964
 10
-0.0420406449789734
 20
0.056405819878072715
 10
-0.04189026102659648
 20
0.05625543592569579
 10
-0.041739877074219556
 20
0.05610505197331887
 10
-0.04158949312184264
 20
0.05595466802094195
 10
-0.041439109169465714
 20
0.05580428406856503
 10
-0.04128872521708879
 20
0.05565390011618811
 10
-0.04113834126471187
 20
0.05550351616381118
 10
-0.04098795731233495
 20
0.055353132211434265
 10
-0.04083757335995803
 20
0.05520274825905734
 10
-0.040687189407581106
 20
0.055052364306680424
 10
-0.04053680545520418
 20
0.0549019803543035
 10
-0.04038642150282726
 20
0.054751596401926575
 10
-0.04023603755045034
 20
0.05460121244954966
 10
-0.04023603755045034
 20
0.05460121244954966
 10
-0.039915569576475775
 20
0.05428327681723995
 10
-0.03959258943017839
 20
0.05396789353655876
 10
-0.03926711743900914
 20
0.05365508245683195
 10
-0.03893917408724868
 20
0.05334486326549844
 10
-0.03860878001471797
 20
0.05303725548687101
 10
-0.038275956015479465
 20
0.05273227848090761
 10
-0.0379407230365282
 20
0.05242995144199281
 10
-0.03760310217647359
 20
0.05213029339772983
 10
-0.037263114684211486
 20
0.05183332320774297
 10
-0.03692078195758679
 20
0.051539059562490566
 10
-0.03657612554204685
 20
0.051247520982088825
 10
-0.0362291671292853
 20
0.05095872581514603
 10
-0.03587992855587698
 20
0.05067269223760795
 10
-0.03552843180190352
 20
0.05038943825161366
 10
-0.03517469898957006
 20
0.05010898168436275
 10
-0.0348187523818128
 20
0.04983134018699316
 10
-0.034460614380897994
 20
0.0495565312334704
 10
-0.034100307527011944
 20
0.04928457211948772
 10
-0.03373785449684231
 20
0.049015479961377555
 10
-0.033373278102151085
 20
0.04874927169503437
 10
-0.033006601288338655
 20
0.04848596407484857
 10
-0.03263784713299995
 20
0.048225573672652296
 10
-0.03226703884447173
 20
0.047968116876676146
 10
-0.031894199760372124
 20
0.04771360989051802
 10
-0.031519353346131755
 20
0.047462068732123115
 10
-0.031142523193516847
 20
0.047213509232775876
 10
-0.03076373301914452
 20
0.04696794703610364
 10
-0.030383006662990035
 20
0.04672539759709201
 10
-0.030000368086886473
 20
0.04648587618111225
 10
-0.02961584137301654
 20
0.04624939786296042
 10
-0.029229450722397004
 20
0.0460159775259087
 10
-0.028841220453355507
 20
0.04578562986076864
 10
-0.028451174999999985
 20
0.045558369364966544
 10
-0.028059338910680985
 20
0.0453342103416311
 10
-0.027665736846446496
 20
0.045113166898693116
 10
-0.02727039357949003
 20
0.04489525294799768
 10
-0.026873333991591357
 20
0.04468048220442848
 10
-0.026474583072550663
 20
0.04446886818504476
 10
-0.026074165918615708
 20
0.04426042420823051
 10
-0.02567210773090226
 20
0.04405516339285624
 10
-0.02526843381380817
 20
0.043853098657453404
 10
-0.024863169573420617
 20
0.04365424271940118
 10
-0.024456340515917278
 20
0.043458608094126286
 10
-0.02404797224596088
 20
0.04326620709431508
 10
-0.023638090465087885
 20
0.04307705182913882
 10
-0.02322672097009077
 20
0.042891154203491426
 10
-0.022813889651394522
 20
0.042708525917240274
 10
-0.022399622491427143
 20
0.04252917846448981
 10
-0.02198394556298439
 20
0.04235312313285817
 10
-0.021566885027588866
 20
0.04218037100276675
 10
-0.02114846713384343
 20
0.04201093294674288
 10
-0.020728718215779218
 20
0.04184481962873544
 10
-0.020307664691198244
 20
0.0416820415034438
 10
-0.01988533306001075
 20
0.041522608815659806
 10
-0.019461749902567365
 20
0.04136653159962296
 10
-0.019036941877986206
 20
0.04121381967838895
 10
-0.01861093572247509
 20
0.04106448266321139
 10
-0.018183758247648698
 20
0.04091852995293686
 10
-0.0177554363388413
 20
0.04077597073341352
 10
-0.017325996953414538
 20
0.04063681397691279
 10
-0.016895467119060856
 20
0.04050106844156481
 10
-0.016463873932102458
 20
0.04036874267080713
 10
-0.016031244555785924
 20
0.04023984499284711
 10
-0.015597606218572656
 20
0.04011438352013764
 10
-0.015162986212425152
 20
0.03999236614886667
 10
-0.014727411891089413
 20
0.03987380055846023
 10
-0.014290910668373277
 20
0.03975869421109904
 10
-0.01385351001642112
 20
0.03964705435124895
 10
-0.013415237463984854
 20
0.039538888005204914
 10
-0.012976120594691292
 20
0.039434201980648856
 10
-0.012536187045306211
 20
0.039333002866221156
 10
-0.012095464503994811
 20
0.039235297031105995
 10
-0.011653980708579306
 20
0.03914109062463049
 10
-0.01121176344479297
 20
0.03905038957587769
 10
-0.010768840544531581
 20
0.038963199593313416
 10
-0.010325239884101613
 20
0.03887952616442698
 10
-0.00988098938246585
 20
0.038799374555385784
 10
-0.009436116999486236
 20
0.03872274981070394
 10
-0.008990650734164135
 20
0.03864965675292477
 10
-0.008544618622878232
 20
0.03858009998231725
 10
-0.00809804873761986
 20
0.0385140838765865
 10
-0.0076509691842263925
 20
0.03845161259059832
 10
-0.007203408100612227
 20
0.0383926900561176
 10
-0.006755393654997907
 20
0.03833731998156091
 10
-0.006306954044137292
 20
0.03828550585176316
 10
-0.00585811749154292
 20
0.03823725092775815
 10
-0.00540891224570976
 20
0.038192558246573444
 10
-0.004959366578337198
 20
0.03815143062103916
 10
-0.004509508782549868
 20
0.03811387063961098
 10
-0.004059367171116833
 20
0.03807988066620724
 10
-0.003608970074669709
 20
0.03804946284006007
 10
-0.0031583458399196194
 20
0.03802261907558087
 10
-0.002707522827873109
 20
0.03799935106223977
 10
-0.002256529412047251
 20
0.03797966026445928
 10
-0.0018053939766837599
 20
0.037963547921522164
 10
-0.0013541449149627426
 20
0.037951015047493424
 10
-0.0009028106272155759
 20
0.03794206243115647
 10
-0.0004514195191375332
 20
0.0379366906359635
 10
3.48426403957312e-18
 20
0.0379349
 10
8.873259087446212e-19
 20
0.0379349
 10
5.9335205656468485e-05
 20
0.03793502147710184
 10
0.00011866941651571852
 20
0.03793538590637072
 10
0.0001780016377972022
 20
0.037935993281696716
 10
0.00023733087475373723
 20
0.03793684359289675
 10
0.00029665613268817546
 20
0.037937936825714745
 10
0.0003559764169700704
 20
0.037939272961821854
 10
0.0004152907330523719
 20
0.03794085197881683
 10
0.0004745980864880913
 20
0.0379426738502263
 10
0.0005338974829469634
 20
0.03794473854550528
 10
0.0005931879282321379
 20
0.0379470460300377
 10
0.0006524684282968366
 20
0.037949596265136894
 10
0.0007117379892610108
 20
0.037952389208046375
 10
0.0007709956174280233
 20
0.03795542481194044
 10
0.0008302403193012986
 20
0.037958703025925015
 10
0.0008894711016009702
 20
0.03796222379503851
 10
0.0009486869712805527
 20
0.037965987060252684
 10
0.0010078869355435822
 20
0.03796999275847372
 10
0.0010670700018602496
 20
0.037974240822543213
 10
0.0011262351779840632
 20
0.037978731181239324
 10
0.001185381471968468
 20
0.037983463759277976
 10
0.001244507892183487
 20
0.037988438477314104
 10
0.0013036134473323295
 20
0.037993655251943
 10
0.0013626971464680338
 20
0.0379991139957017
 10
0.0014217579990100687
 20
0.038004814617070455
 10
0.0014807950147609343
 20
0.038010757020474274
 10
0.0015398072039227797
 20
0.038016941106284494
 10
0.0015987935771139903
 20
0.03802336677082049
 10
0.0016577531453857651
 20
0.0380300339063514
 10
0.0017166849202387162
 20
0.038036942401097916
 10
0.001775587913639433
 20
0.03804409213923418
 10
0.0018344611380370353
 20
0.0380514830008897
 10
0.0018933036063797522
 20
0.03805911486215141
 10
0.0019521143321314612
 20
0.03806698759506567
 10
0.0020108923292882154
 20
0.03807510106764048
 10
0.002069636612394798
 20
0.03808345514384765
 10
0.0021283461965612297
 20
0.038092049683625125
 10
0.002187020097479276
 20
0.038100884542879285
 10
0.0022456573314389677
 20
0.03810995957348739
 10
0.002304256915345082
 20
0.038119274623300045
 10
0.002362817866733617
 20
0.03812882953614377
 10
0.0024213392037882833
 20
0.038138624151823605
 10
0.0024798199453569523
 20
0.038148658306125814
 10
0.0025382591109681
 20
0.03815893183082061
 10
0.0025966557208472615
 20
0.03816944455366497
 10
0.0026550087959334506
 20
0.038180196298405605
 10
0.002713317357895561
 20
0.038191186884781785
 10
0.002771580429148793
 20
0.03820241612852846
 10
0.00282979703287103
 20
0.03821388384137933
 10
0.0028879661930192074
 20
0.03822558983106997
 10
0.0029460869343456955
 20
0.03823753390134107
 10
0.003004158282414639
 20
0.03824971585194174
 10
0.0030621792636182955
 20
0.038262135478632865
 10
0.0031201489051933544
 20
0.0382747925731905
 10
0.0031780662352372596
 20
0.038287686923409385
 10
0.0032359302827244855
 20
0.038300818313106506
 10
0.0032937400775228344
 20
0.038314186522124705
 10
0.003351494650409691
 20
0.038327791326336395
 10
0.003409193033088277
 20
0.038341632497647285
 10
0.0034668342582038765
 20
0.038355709804000215
 10
0.003524417359360072
 20
0.03837002300937908
 10
0.003581941371134922
 20
0.038384571873812716
 10
0.003639405329097173
 20
0.03839935615337901
 10
0.0036968082698224107
 20
0.03841437560020891
 10
0.0037541492309092236
 20
0.03842962996249065
 10
0.003811427250995324
 20
0.03844511898447391
 10
0.003868641369773685
 20
0.03846084240647415
 10
0.003925790628008623
 20
0.038476799964876934
 10
0.00398287406755189
 20
0.03849299139214235
 10
0.0040398907313587435
 20
0.03850941641680955
 10
0.004096839663503974
 20
0.03852607476350122
 10
0.004153719909197943
 20
0.038542966152928244
 10
0.004210530514802592
 20
0.038560090301894376
 10
0.004267270527847435
 20
0.03857744692330101
 10
0.004323938997045505
 20
0.038595035726151944
 10
0.004380534972309332
 20
0.0386128564155583
 10
0.004437057504766859
 20
0.03863090869274346
 10
0.0044935056467773375
 20
0.038649192255048065
 10
0.00454987845194724
 20
0.0386677067959351
 10
0.004606174975146117
 20
0.03868645200499503
 10
0.004662394272522427
 20
0.038705427567950985
 10
0.004718535401519387
 20
0.03872463316666408
 10
0.00477459742089076
 20
0.03874406847913867
 10
0.0048305793907166385
 20
0.03876373317952786
 10
0.004886480372419199
 20
0.03878362693813883
 10
0.004942299428778448
 20
0.03880374942143848
 10
0.0049980356239479225
 20
0.038824100292058975
 10
0.005053688023470392
 20
0.03884467920880338
 10
0.0051092556942935186
 20
0.038865485826651405
 10
0.005164737704785504
 20
0.03888651979676523
 10
0.005220133124750699
 20
0.038907780766495266
 10
0.005275441025445217
 20
0.03892926837938612
 10
0.005330660479592484
 20
0.03895098227518258
 10
0.005385790561398803
 20
0.038972922089835625
 10
0.005440830346568868
 20
0.03899508745550856
 10
0.005495778912321261
 20
0.03901747800058314
 10
0.0055506353374039155
 20
0.03904009334966585
 10
0.00560539870210958
 20
0.03906293312359416
 10
0.005660068088291217
 20
0.0390859969394429
 10
0.005714642579377414
 20
0.03910928441053068
 10
0.005714642579377414
 20
0.03910928441053068
 10
0.005714642579377414
 20
0.03910928441053068
 10
0.007318831001870918
 20
0.03979639605261251
 10
0.008919718223775474
 20
0.04047949712236735
 10
0.010517304245091083
 20
0.04115858761979522
 10
0.012111589065817744
 20
0.0418336675448961
 10
0.013702572685955457
 20
0.042504736897669995
 10
0.015290255105504223
 20
0.043171795678116916
 10
0.01687463632446404
 20
0.04383484388623684
 10
0.018455716342834914
 20
0.04449388152202979
 10
0.020033495160616838
 20
0.04514890858549575
 10
0.021607972777809813
 20
0.04579992507663475
 10
0.02317914919441384
 20
0.04644693099544674
 10
0.02474702441042892
 20
0.04708992634193176
 10
0.026311598425855058
 20
0.0477289111160898
 10
0.027872871240692248
 20
0.048363885317920845
 10
0.02943084285494048
 20
0.048994848947424924
 10
0.030985513268599777
 20
0.04962180200460201
 10
0.03253688248167012
 20
0.05024474448945212
 10
0.034084950494151514
 20
0.050863676401975234
 10
0.03562971730604397
 20
0.051478597742171374
 10
0.03717118291734747
 20
0.05208950851004054
 10
0.03870934732806201
 20
0.0526964087055827
 10
0.040244210538187636
 20
0.053299298328797894
 10
0.04177577254772429
 20
0.053898177379686094
 10
0.043304033356672
 20
0.05449304585824733
 10
0.04482899296503076
 20
0.055083903764481565
 10
0.04635065137280059
 20
0.055670751098388836
 10
0.047869008579981456
 20
0.05625358785996911
 10
0.04938406458657337
 20
0.05683241404922241
 10
0.05089581939257635
 20
0.0574072296661487
 10
0.05240427299799037
 20
0.05797803471074804
 10
0.05390942540281546
 20
0.05854482918302038
 10
0.055411276607051585
 20
0.05910761308296574
 10
0.05690982661069878
 20
0.05966638641058413
 10
0.058405075413757016
 20
0.06022114916587553
 10
0.059897023016226306
 20
0.06077190134883993
 10
0.06138566941810664
 20
0.06131864295947737
 10
0.06287101461939805
 20
0.06186137399778782
 10
0.06435305862010049
 20
0.06240009446377128
 10
0.065831801420214
 20
0.06293480435742776
 10
0.06730724301973855
 20
0.06346550367875727
 10
0.06877938341867416
 20
0.06399219242775979
 10
0.07024822261702081
 20
0.06451487060443531
 10
0.07171376061477852
 20
0.06503353820878387
 10
0.07317599741194729
 20
0.06554819524080543
 10
0.0746349330085271
 20
0.06605884170050003
 10
0.07609056740451797
 20
0.06656547758786761
 10
0.07754290059991989
 20
0.06706810290290825
 10
0.07899193259473286
 20
0.06756671764562189
 10
0.08043766338895687
 20
0.06806132181600853
 10
0.08188009298259198
 20
0.06855191541406822
 10
0.0833192213756381
 20
0.06903849843980092
 10
0.08475504856809529
 20
0.06952107089320662
 10
0.08618757455996351
 20
0.06999963277428534
 10
0.08761679935124281
 20
0.07047418408303707
 10
0.08904272294193313
 20
0.07094472481946185
 10
0.09046534533203456
 20
0.07141125498355962
 10
0.09188466652154699
 20
0.0718737745753304
 10
0.09330068651047048
 20
0.07233228359477421
 10
0.09471340529880505
 20
0.07278678204189104
 10
0.09612282288655065
 20
0.0732372699166809
 10
0.09752893927370733
 20
0.07368374721914375
 10
0.09893175446027501
 20
0.07412621394927964
 10
0.10033126844625379
 20
0.07456467010708852
 10
0.10172748123164359
 20
0.07499911569257042
 10
0.10312039281644444
 20
0.07542955070572537
 10
0.1045100032006564
 20
0.0758559751465533
 10
0.10589631238427935
 20
0.07627838901505428
 10
0.10727932036731337
 20
0.07669679231122825
 10
0.10865902714975846
 20
0.07711118503507526
 10
0.1100354327316146
 20
0.0775215671865953
 10
0.11140853711288176
 20
0.07792793876578831
 10
0.11277834029356
 20
0.07833029977265436
 10
0.1141448422736493
 20
0.07872865020719343
 10
0.11550804305314963
 20
0.07912299006940551
 10
0.11686794263206103
 20
0.07951331935929062
 10
0.11822454101038347
 20
0.07989963807684873
 10
0.11957783818811696
 20
0.08028194622207988
 10
0.12092783416526151
 20
0.08066024379498403
 10
0.1222745289418171
 20
0.08103453079556118
 10
0.12361792251778378
 20
0.0814048072238114
 10
0.1249580148931615
 20
0.0817710730797346
 10
0.12629480606795024
 20
0.08213332836333082
 10
0.12762829604215006
 20
0.08249157307460006
 10
0.12895848481576092
 20
0.08284580721354232
 10
0.13028537238878282
 20
0.08319603078015758
 10
0.13160895876121584
 20
0.08354224377444588
 10
0.13292924393305983
 20
0.0838844461964072
 10
0.1342462279043149
 20
0.0842226380460415
 10
0.13555991067498108
 20
0.08455681932334887
 10
0.13687029224505823
 20
0.08488699002832922
 10
0.13817737261454643
 20
0.0852131501609826
 10
0.13948115178344575
 20
0.085535299721309
 10
0.14078162975175607
 20
0.0858534387093084
 10
0.14207880651947746
 20
0.08616756712498083
 10
0.14337268208660991
 20
0.08647768496832628
 10
0.1446632564531534
 20
0.08678379223934474
 10
0.14595052961910798
 20
0.08708588893803623
 10
0.14723450158447354
 20
0.08738397506440071
 10
0.1485151723492502
 20
0.08767805061843824
  0
ENDSEC
  0
SECTION
  2
OBJECTS
  0
DICTIONARY
  5
A
330
0
100
AcDbDictionary
281
1
  3
ACAD_COLOR
350
B
  3
ACAD_GROUP
350
C
  3
ACAD_LAYOUT
350
D
  3
ACAD_MATERIAL
350
E
  3
ACAD_MLEADERSTYLE
350
F
  3
ACAD_MLINESTYLE
350
10
  3
ACAD_PLOTSETTINGS
350
11
  3
ACAD_PLOTSTYLENAME
350
12
  3
ACAD_SCALELIST
350
14
  3
ACAD_TABLESTYLE
350
15
  3
ACAD_VISUALSTYLE
350
16
  3
EZDXF_META
350
2D
  0
DICTIONARY
  5
B
330
A
100
AcDbDictionary
281
1
  0
DICTIONARY
  5
C
330
A
100
AcDbDictionary
281
1
  0
DICTIONARY
  5
D
330
A
100
AcDbDictionary
281
1
  3
Model
350
1A
  3
Layout1
350
1E
  0
DICTIONARY
  5
E
330
A
100
AcDbDictionary
281
1
  3
ByBlock
350
1F
  3
ByLayer
350
20
  3
Global
350
21
  0
DICTIONARY
  5
F
330
A
100
AcDbDictionary
281
1
  3
Standard
350
2C
  0
DICTIONARY
  5
10
330
A
100
AcDbDictionary
281
1
  3
Standard
350
22
  0
DICTIONARY
  5
11
330
A
100
AcDbDictionary
281
1
  0
ACDBDICTIONARYWDFLT
  5
12
330
A
100
AcDbDictionary
281
1
  3
Normal
350
13
100
AcDbDictionaryWithDefault
340
13
  0
ACDBPLACEHOLDER
  5
13
330
12
  0
DICTIONARY
  5
14
330
A
100
AcDbDictionary
281
1
  0
DICTIONARY
  5
15
330
A
100
AcDbDictionary
281
1
  0
DICTIONARY
  5
16
330
A
100
AcDbDictionary
281
1
  0
LAYOUT
  5
1A
330
D
100
AcDbPlotSettings
  1

  4
A3
  6

 40
7.5
 41
20.0
 42
7.5
 43
20.0
 44
420.0
 45
297.0
 46
0.0
 47
0.0
 48
0.0
 49
0.0
140
0.0
141
0.0
142
1.0
143
1.0
 70
1024
 72
1
 73
0
 74
5
  7

 75
16
 76
0
 77
2
 78
300
147
1.0
148
0.0
149
0.0
100
AcDbLayout
  1
Model
 70
1
 71
0
 10
0.0
 20
0.0
 11
420.0
 21
297.0
 12
0.0
 22
0.0
 32
0.0
 14
1e+20
 24
1e+20
 34
1e+20
 15
-1e+20
 25
-1e+20
 35
-1e+20
146
0.0
 13
0.0
 23
0.0
 33
0.0
 16
1.0
 26
0.0
 36
0.0
 17
0.0
 27
1.0
 37
0.0
 76
1
330
17
  0
LAYOUT
  5
1E
330
D
100
AcDbPlotSettings
  1

  4
A3
  6

 40
7.5
 41
20.0
 42
7.5
 43
20.0
 44
420.0
 45
297.0
 46
0.0
 47
0.0
 48
0.0
 49
0.0
140
0.0
141
0.0
142
1.0
143
1.0
 70
0
 72
1
 73
0
 74
5
  7

 75
16
 76
0
 77
2
 78
300
147
1.0
148
0.0
149
0.0
100
AcDbLayout
  1
Layout1
 70
1
 71
1
 10
0.0
 20
0.0
 11
420.0
 21
297.0
 12
0.0
 22
0.0
 32
0.0
 14
1e+20
 24
1e+20
 34
1e+20
 15
-1e+20
 25
-1e+20
 35
-1e+20
146
0.0
 13
0.0
 23
0.0
 33
0.0
 16
1.0
 26
0.0
 36
0.0
 17
0.0
 27
1.0
 37
0.0
 76
1
330
1B
  0
MATERIAL
  5
1F
102
{ACAD_REACTORS
330
E
102
}
330
E
100
AcDbMaterial
  1
ByBlock
  2

 70
0
 40
1.0
 71
1
 41
1.0
 91
-1023410177
 42
1.0
 72
1
  3

 73
1
 74
1
 75
1
 44
0.5
 73
0
 45
1.0
 46
1.0
 77
1
  4

 78
1
 79
1
170
1
 48
1.0
171
1
  6

172
1
173
1
174
1
140
1.0
141
1.0
175
1
  7

176
1
177
1
178
1
143
1.0
179
1
  8

270
1
271
1
272
1
145
1.0
146
1.0
273
1
  9

274
1
275
1
276
1
 42
1.0
 72
1
  3

 73
1
 74
1
 75
1
 94
63
  0
MATERIAL
  5
20
102
{ACAD_REACTORS
330
E
102
}
330
E
100
AcDbMaterial
  1
ByLayer
  2

 70
0
 40
1.0
 71
1
 41
1.0
 91
-1023410177
 42
1.0
 72
1
  3

 73
1
 74
1
 75
1
 44
0.5
 73
0
 45
1.0
 46
1.0
 77
1
  4

 78
1
 79
1
170
1
 48
1.0
171
1
  6

172
1
173
1
174
1
140
1.0
141
1.0
175
1
  7

176
1
177
1
178
1
143
1.0
179
1
  8

270
1
271
1
272
1
145
1.0
146
1.0
273
1
  9

274
1
275
1
276
1
 42
1.0
 72
1
  3

 73
1
 74
1
 75
1
 94
63
  0
MATERIAL
  5
21
102
{ACAD_REACTORS
330
E
102
}
330
E
100
AcDbMaterial
  1
Global
  2

 70
0
 40
1.0
 71
1
 41
1.0
 91
-1023410177
 42
1.0
 72
1
  3

 73
1
 74
1
 75
1
 44
0.5
 73
0
 45
1.0
 46
1.0
 77
1
  4

 78
1
 79
1
170
1
 48
1.0
171
1
  6

172
1
173
1
174
1
140
1.0
141
1.0
175
1
  7

176
1
177
1
178
1
143
1.0
179
1
  8

270
1
271
1
272
1
145
1.0
146
1.0
273
1
  9

274
1
275
1
276
1
 42
1.0
 72
1
  3

 73
1
 74
1
 75
1
 94
63
  0
MLINESTYLE
  5
22
102
{ACAD_REACTORS
330
10
102
}
330
10
100
AcDbMlineStyle
  2
Standard
 70
0
  3

 62
256
 51
90.0
 52
90.0
 71
2
 49
0.5
 62
256
  6
BYLAYER
 49
-0.5
 62
256
  6
BYLAYER
  0
MLEADERSTYLE
  5
2C
102
{ACAD_REACTORS
330
F
102
}
330
F
100
AcDbMLeaderStyle
179
2
170
2
171
1
172
0
 90
2
 40
0.0
 41
0.0
173
1
 91
-1056964608
 92
-2
290
1
 42
2.0
291
1
 43
8.0
  3
Standard
 44
4.0
300

342
29
174
1
175
1
176
0
178
1
 93
-1056964608
 45
4.0
292
0
297
0
 46
4.0
 94
-1056964608
 47
1.0
 49
1.0
140
1.0
294
1
141
0.0
177
0
142
1.0
295
0
296
0
143
3.75
271
0
272
9
273
9
  0
DICTIONARY
  5
2D
330
A
100
AcDbDictionary
280
1
281
1
  3
CREATED_BY_EZDXF
350
2E
  3
WRITTEN_BY_EZDXF
350
32
  0
DICTIONARYVAR
  5
2E
330
2D
100
DictionaryVariables
280
0
  1
1.4.3 @ 2025-11-23T21:54:40.979445+00:00
  0
DICTIONARYVAR
  5
32
330
2D
100
DictionaryVariables
280
0
  1
1.4.3 @ 2025-11-23T21:54:40.983445+00:00
  0
ENDSEC
  0
EOF
