  0
SECTION
  2
HEADER
  9
$ACADVER
  1
AC1024
  9
$ACADMAINTVER
 70
6
  9
$DWGCODEPAGE
  3
ANSI_1252
  9
$LASTSAVEDBY
  1
ezdxf
  9
$INSBASE
 10
0.0
 20
0.0
 30
0.0
  9
$EXTMIN
 10
1e+20
 20
1e+20
 30
1e+20
  9
$EXTMAX
 10
-1e+20
 20
-1e+20
 30
-1e+20
  9
$LIMMIN
 10
0.0
 20
0.0
  9
$LIMMAX
 10
420.0
 20
297.0
  9
$ORTHOMODE
 70
0
  9
$REGENMODE
 70
1
  9
$FILLMODE
 70
1
  9
$QTEXTMODE
 70
0
  9
$MIRRTEXT
 70
1
  9
$LTSCALE
 40
1.0
  9
$ATTMODE
 70
1
  9
$TEXTSIZE
 40
2.5
  9
$TRACEWID
 40
1.0
  9
$TEXTSTYLE
  7
Standard
  9
$CLAYER
  8
0
  9
$CELTYPE
  6
ByLayer
  9
$CECOLOR
 62
256
  9
$CELTSCALE
 40
1.0
  9
$DISPSILH
 70
0
  9
$DIMSCALE
 40
1.0
  9
$DIMASZ
 40
2.5
  9
$DIMEXO
 40
0.625
  9
$DIMDLI
 40
3.75
  9
$DIMRND
 40
0.0
  9
$DIMDLE
 40
0.0
  9
$DIMEXE
 40
1.25
  9
$DIMTP
 40
0.0
  9
$DIMTM
 40
0.0
  9
$DIMTXT
 40
2.5
  9
$DIMCEN
 40
2.5
  9
$DIMTSZ
 40
0.0
  9
$DIMTOL
 70
0
  9
$DIMLIM
 70
0
  9
$DIMTIH
 70
0
  9
$DIMTOH
 70
0
  9
$DIMSE1
 70
0
  9
$DIMSE2
 70
0
  9
$DIMTAD
 70
1
  9
$DIMZIN
 70
8
  9
$DIMBLK
  1

  9
$DIMASO
 70
1
  9
$DIMSHO
 70
1
  9
$DIMPOST
  1

  9
$DIMAPOST
  1

  9
$DIMALT
 70
0
  9
$DIMALTD
 70
3
  9
$DIMALTF
 40
0.03937007874
  9
$DIMLFAC
 40
1.0
  9
$DIMTOFL
 70
1
  9
$DIMTVP
 40
0.0
  9
$DIMTIX
 70
0
  9
$DIMSOXD
 70
0
  9
$DIMSAH
 70
0
  9
$DIMBLK1
  1

  9
$DIMBLK2
  1

  9
$DIMSTYLE
  2
ISO-25
  9
$DIMCLRD
 70
0
  9
$DIMCLRE
 70
0
  9
$DIMCLRT
 70
0
  9
$DIMTFAC
 40
1.0
  9
$DIMGAP
 40
0.625
  9
$DIMJUST
 70
0
  9
$DIMSD1
 70
0
  9
$DIMSD2
 70
0
  9
$DIMTOLJ
 70
0
  9
$DIMTZIN
 70
8
  9
$DIMALTZ
 70
0
  9
$DIMALTTZ
 70
0
  9
$DIMUPT
 70
0
  9
$DIMDEC
 70
2
  9
$DIMTDEC
 70
2
  9
$DIMALTU
 70
2
  9
$DIMALTTD
 70
3
  9
$DIMTXSTY
  7
Standard
  9
$DIMAUNIT
 70
0
  9
$DIMADEC
 70
0
  9
$DIMALTRND
 40
0.0
  9
$DIMAZIN
 70
0
  9
$DIMDSEP
 70
44
  9
$DIMATFIT
 70
3
  9
$DIMFRAC
 70
0
  9
$DIMLDRBLK
  1

  9
$DIMLUNIT
 70
2
  9
$DIMLWD
 70
-2
  9
$DIMLWE
 70
-2
  9
$DIMTMOVE
 70
0
  9
$DIMFXL
 40
1.0
  9
$DIMFXLON
 70
0
  9
$DIMJOGANG
 40
0.785398163397
  9
$DIMTFILL
 70
0
  9
$DIMTFILLCLR
 70
0
  9
$DIMARCSYM
 70
0
  9
$DIMLTYPE
  6

  9
$DIMLTEX1
  6

  9
$DIMLTEX2
  6

  9
$DIMTXTDIRECTION
 70
0
  9
$LUNITS
 70
2
  9
$LUPREC
 70
4
  9
$SKETCHINC
 40
1.0
  9
$FILLETRAD
 40
10.0
  9
$AUNITS
 70
0
  9
$AUPREC
 70
2
  9
$MENU
  1
.
  9
$ELEVATION
 40
0.0
  9
$PELEVATION
 40
0.0
  9
$THICKNESS
 40
0.0
  9
$LIMCHECK
 70
0
  9
$CHAMFERA
 40
0.0
  9
$CHAMFERB
 40
0.0
  9
$CHAMFERC
 40
0.0
  9
$CHAMFERD
 40
0.0
  9
$SKPOLY
 70
0
  9
$TDCREATE
 40
2461011.5437384257
  9
$TDUCREATE
 40
2458532.153996898
  9
$TDUPDATE
 40
2461011.5437384257
  9
$TDUUPDATE
 40
2458532.1544311
  9
$TDINDWG
 40
0.0
  9
$TDUSRTIMER
 40
0.0
  9
$USRTIMER
 70
1
  9
$ANGBASE
 50
0.0
  9
$ANGDIR
 70
0
  9
$PDMODE
 70
0
  9
$PDSIZE
 40
0.0
  9
$PLINEWID
 40
0.0
  9
$SPLFRAME
 70
0
  9
$SPLINETYPE
 70
6
  9
$SPLINESEGS
 70
8
  9
$HANDSEED
  5
33
  9
$SURFTAB1
 70
6
  9
$SURFTAB2
 70
6
  9
$SURFTYPE
 70
6
  9
$SURFU
 70
6
  9
$SURFV
 70
6
  9
$UCSBASE
  2

  9
$UCSNAME
  2

  9
$UCSORG
 10
0.0
 20
0.0
 30
0.0
  9
$UCSXDIR
 10
1.0
 20
0.0
 30
0.0
  9
$UCSYDIR
 10
0.0
 20
1.0
 30
0.0
  9
$UCSORTHOREF
  2

  9
$UCSORTHOVIEW
 70
0
  9
$UCSORGTOP
 10
0.0
 20
0.0
 30
0.0
  9
$UCSORGBOTTOM
 10
0.0
 20
0.0
 30
0.0
  9
$UCSORGLEFT
 10
0.0
 20
0.0
 30
0.0
  9
$UCSORGRIGHT
 10
0.0
 20
0.0
 30
0.0
  9
$UCSORGFRONT
 10
0.0
 20
0.0
 30
0.0
  9
$UCSORGBACK
 10
0.0
 20
0.0
 30
0.0
  9
$PUCSBASE
  2

  9
$PUCSNAME
  2

  9
$PUCSORG
 10
0.0
 20
0.0
 30
0.0
  9
$PUCSXDIR
 10
1.0
 20
0.0
 30
0.0
  9
$PUCSYDIR
 10
0.0
 20
1.0
 30
0.0
  9
$PUCSORTHOREF
  2

  9
$PUCSORTHOVIEW
 70
0
  9
$PUCSORGTOP
 10
0.0
 20
0.0
 30
0.0
  9
$PUCSORGBOTTOM
 10
0.0
 20
0.0
 30
0.0
  9
$PUCSORGLEFT
 10
0.0
 20
0.0
 30
0.0
  9
$PUCSORGRIGHT
 10
0.0
 20
0.0
 30
0.0
  9
$PUCSORGFRONT
 10
0.0
 20
0.0
 30
0.0
  9
$PUCSORGBACK
 10
0.0
 20
0.0
 30
0.0
  9
$USERI1
 70
0
  9
$USERI2
 70
0
  9
$USERI3
 70
0
  9
$USERI4
 70
0
  9
$USERI5
 70
0
  9
$USERR1
 40
0.0
  9
$USERR2
 40
0.0
  9
$USERR3
 40
0.0
  9
$USERR4
 40
0.0
  9
$USERR5
 40
0.0
  9
$WORLDVIEW
 70
1
  9
$SHADEDGE
 70
3
  9
$SHADEDIF
 70
70
  9
$TILEMODE
 70
1
  9
$MAXACTVP
 70
64
  9
$PINSBASE
 10
0.0
 20
0.0
 30
0.0
  9
$PLIMCHECK
 70
0
  9
$PEXTMIN
 10
1e+20
 20
1e+20
 30
1e+20
  9
$PEXTMAX
 10
-1e+20
 20
-1e+20
 30
-1e+20
  9
$PLIMMIN
 10
0.0
 20
0.0
  9
$PLIMMAX
 10
420.0
 20
297.0
  9
$UNITMODE
 70
0
  9
$VISRETAIN
 70
1
  9
$PLINEGEN
 70
0
  9
$PSLTSCALE
 70
1
  9
$TREEDEPTH
 70
3020
  9
$CMLSTYLE
  2
Standard
  9
$CMLJUST
 70
0
  9
$CMLSCALE
 40
20.0
  9
$PROXYGRAPHICS
 70
1
  9
$MEASUREMENT
 70
1
  9
$CELWEIGHT
370
-1
  9
$ENDCAPS
280
0
  9
$JOINSTYLE
280
0
  9
$LWDISPLAY
290
0
  9
$INSUNITS
 70
6
  9
$HYPERLINKBASE
  1

  9
$STYLESHEET
  1

  9
$XEDIT
290
1
  9
$CEPSNTYPE
380
0
  9
$PSTYLEMODE
290
1
  9
$FINGERPRINTGUID
  2
{5E8FB338-4879-437C-8AC6-5D93A94D2317}
  9
$VERSIONGUID
  2
{D90775A1-9D3C-4E52-B719-16C33A62D6F8}
  9
$EXTNAMES
290
1
  9
$PSVPSCALE
 40
0.0
  9
$OLESTARTUP
290
0
  9
$SORTENTS
280
127
  9
$INDEXCTL
280
0
  9
$HIDETEXT
280
1
  9
$XCLIPFRAME
280
1
  9
$HALOGAP
280
0
  9
$OBSCOLOR
 70
257
  9
$OBSLTYPE
280
0
  9
$INTERSECTIONDISPLAY
280
0
  9
$INTERSECTIONCOLOR
 70
257
  9
$DIMASSOC
280
2
  9
$PROJECTNAME
  1

  9
$CAMERADISPLAY
290
0
  9
$LENSLENGTH
 40
50.0
  9
$CAMERAHEIGHT
 40
0.0
  9
$STEPSPERSEC
 40
24.0
  9
$STEPSIZE
 40
100.0
  9
$3DDWFPREC
 40
2.0
  9
$PSOLWIDTH
 40
0.005
  9
$PSOLHEIGHT
 40
0.08
  9
$LOFTANG1
 40
1.570796326795
  9
$LOFTANG2
 40
1.570796326795
  9
$LOFTMAG1
 40
0.0
  9
$LOFTMAG2
 40
0.0
  9
$LOFTPARAM
 70
7
  9
$LOFTNORMALS
280
1
  9
$LATITUDE
 40
37.795
  9
$LONGITUDE
 40
-122.394
  9
$NORTHDIRECTION
 40
0.0
  9
$TIMEZONE
 70
-8000
  9
$LIGHTGLYPHDISPLAY
280
1
  9
$TILEMODELIGHTSYNCH
280
1
  9
$CMATERIAL
347
20
  9
$SOLIDHIST
280
0
  9
$SHOWHIST
280
1
  9
$DWFFRAME
280
2
  9
$DGNFRAME
280
2
  9
$REALWORLDSCALE
290
1
  9
$INTERFERECOLOR
 62
256
  9
$CSHADOW
280
0
  9
$SHADOWPLANELOCATION
 40
0.0
  0
ENDSEC
  0
SECTION
  2
CLASSES
  0
CLASS
  1
ACDBDICTIONARYWDFLT
  2
AcDbDictionaryWithDefault
  3
ObjectDBX Classes
 90
0
 91
0
280
0
281
0
  0
CLASS
  1
SUN
  2
AcDbSun
  3
SCENEOE
 90
1153
 91
0
280
0
281
0
  0
CLASS
  1
VISUALSTYLE
  2
AcDbVisualStyle
  3
ObjectDBX Classes
 90
4095
 91
0
280
0
281
0
  0
CLASS
  1
MATERIAL
  2
AcDbMaterial
  3
ObjectDBX Classes
 90
1153
 91
0
280
0
281
0
  0
CLASS
  1
SCALE
  2
AcDbScale
  3
ObjectDBX Classes
 90
1153
 91
0
280
0
281
0
  0
CLASS
  1
TABLESTYLE
  2
AcDbTableStyle
  3
ObjectDBX Classes
 90
4095
 91
0
280
0
281
0
  0
CLASS
  1
MLEADERSTYLE
  2
AcDbMLeaderStyle
  3
ACDB_MLEADERSTYLE_CLASS
 90
4095
 91
0
280
0
281
0
  0
CLASS
  1
DICTIONARYVAR
  2
AcDbDictionaryVar
  3
ObjectDBX Classes
 90
0
 91
0
280
0
281
0
  0
CLASS
  1
CELLSTYLEMAP
  2
AcDbCellStyleMap
  3
ObjectDBX Classes
 90
1152
 91
0
280
0
281
0
  0
CLASS
  1
MENTALRAYRENDERSETTINGS
  2
AcDbMentalRayRenderSettings
  3
SCENEOE
 90
1024
 91
0
280
0
281
0
  0
CLASS
  1
ACDBDETAILVIEWSTYLE
  2
AcDbDetailViewStyle
  3
ObjectDBX Classes
 90
1025
 91
0
280
0
281
0
  0
CLASS
  1
ACDBSECTIONVIEWSTYLE
  2
AcDbSectionViewStyle
  3
ObjectDBX Classes
 90
1025
 91
0
280
0
281
0
  0
CLASS
  1
RASTERVARIABLES
  2
AcDbRasterVariables
  3
ISM
 90
0
 91
0
280
0
281
0
  0
CLASS
  1
ACDBPLACEHOLDER
  2
AcDbPlaceHolder
  3
ObjectDBX Classes
 90
0
 91
0
280
0
281
0
  0
CLASS
  1
LAYOUT
  2
AcDbLayout
  3
ObjectDBX Classes
 90
0
 91
0
280
0
281
0
  0
ENDSEC
  0
SECTION
  2
TABLES
  0
TABLE
  2
VPORT
  5
8
330
0
100
AcDbSymbolTable
 70
1
  0
VPORT
  5
23
330
8
100
AcDbSymbolTableRecord
100
AcDbViewportTableRecord
  2
*Active
 70
0
 10
0.0
 20
0.0
 11
1.0
 21
1.0
 12
0.0
 22
0.0
 13
0.0
 23
0.0
 14
0.5
 24
0.5
 15
0.5
 25
0.5
 16
0.0
 26
0.0
 36
1.0
 17
0.0
 27
0.0
 37
0.0
 40
1000.0
 41
1.34
 42
50.0
 43
0.0
 44
0.0
 50
0.0
 51
0.0
 71
0
 72
1000
 73
1
 74
3
 75
0
 76
0
 77
0
 78
0
281
0
 65
0
146
0.0
  0
ENDTAB
  0
TABLE
  2
LTYPE
  5
2
330
0
100
AcDbSymbolTable
 70
3
  0
LTYPE
  5
24
330
2
100
AcDbSymbolTableRecord
100
AcDbLinetypeTableRecord
  2
ByBlock
 70
0
  3

 72
65
 73
0
 40
0.0
  0
LTYPE
  5
25
330
2
100
AcDbSymbolTableRecord
100
AcDbLinetypeTableRecord
  2
ByLayer
 70
0
  3

 72
65
 73
0
 40
0.0
  0
LTYPE
  5
26
330
2
100
AcDbSymbolTableRecord
100
AcDbLinetypeTableRecord
  2
Continuous
 70
0
  3

 72
65
 73
0
 40
0.0
  0
ENDTAB
  0
TABLE
  2
LAYER
  5
1
330
0
100
AcDbSymbolTable
 70
2
  0
LAYER
  5
27
330
1
100
AcDbSymbolTableRecord
100
AcDbLayerTableRecord
  2
0
 70
0
 62
7
  6
Continuous
370
-3
390
13
347
21
  0
LAYER
  5
28
330
1
100
AcDbSymbolTableRecord
100
AcDbLayerTableRecord
  2
Defpoints
 70
0
 62
7
  6
Continuous
290
0
370
-3
390
13
347
21
  0
ENDTAB
  0
TABLE
  2
STYLE
  5
5
330
0
100
AcDbSymbolTable
 70
1
  0
STYLE
  5
29
330
5
100
AcDbSymbolTableRecord
100
AcDbTextStyleTableRecord
  2
Standard
 70
0
 40
0.0
 41
1.0
 50
0.0
 71
0
 42
2.5
  3
txt
  4

  0
ENDTAB
  0
TABLE
  2
VIEW
  5
7
330
0
100
AcDbSymbolTable
 70
0
  0
ENDTAB
  0
TABLE
  2
UCS
  5
6
330
0
100
AcDbSymbolTable
 70
0
  0
ENDTAB
  0
TABLE
  2
APPID
  5
3
330
0
100
AcDbSymbolTable
 70
3
  0
APPID
  5
2A
330
3
100
AcDbSymbolTableRecord
100
AcDbRegAppTableRecord
  2
ACAD
 70
0
  0
APPID
  5
30
330
3
100
AcDbSymbolTableRecord
100
AcDbRegAppTableRecord
  2
HATCHBACKGROUNDCOLOR
 70
0
  0
APPID
  5
31
330
3
100
AcDbSymbolTableRecord
100
AcDbRegAppTableRecord
  2
EZDXF
 70
0
  0
ENDTAB
  0
TABLE
  2
DIMSTYLE
  5
4
330
0
100
AcDbSymbolTable
 70
1
100
AcDbDimStyleTable
  0
DIMSTYLE
105
2B
330
4
100
AcDbSymbolTableRecord
100
AcDbDimStyleTableRecord
  2
Standard
 70
0
 40
1.0
 41
2.5
 42
0.625
 43
3.75
 44
1.25
 45
0.0
 46
0.0
 47
0.0
 48
0.0
 49
2.5
140
2.5
141
2.5
142
0.0
143
0.03937007874
144
1.0
145
0.0
146
1.0
147
0.625
148
0.0
 69
0
 70
0
 71
0
 72
0
 73
0
 74
0
 75
0
 76
0
 77
1
 78
8
 79
3
170
0
171
3
172
1
173
0
174
0
175
0
176
0
177
0
178
0
179
2
271
2
272
2
273
2
274
3
275
0
276
0
277
2
278
44
279
0
280
0
281
0
282
0
283
0
284
8
285
0
286
0
288
0
289
3
290
0
371
-2
372
-2
  0
ENDTAB
  0
TABLE
  2
BLOCK_RECORD
  5
9
330
0
100
AcDbSymbolTable
 70
2
  0
BLOCK_RECORD
  5
17
330
9
100
AcDbSymbolTableRecord
100
AcDbBlockTableRecord
  2
*Model_Space
340
1A
 70
0
280
1
281
0
  0
BLOCK_RECORD
  5
1B
330
9
100
AcDbSymbolTableRecord
100
AcDbBlockTableRecord
  2
*Paper_Space
340
1E
 70
0
280
1
281
0
  0
ENDTAB
  0
ENDSEC
  0
SECTION
  2
BLOCKS
  0
BLOCK
  5
18
330
17
100
AcDbEntity
  8
0
100
AcDbBlockBegin
  2
*Model_Space
 70
0
 10
0.0
 20
0.0
 30
0.0
  3
*Model_Space
  1

  0
ENDBLK
  5
19
330
17
100
AcDbEntity
  8
0
100
AcDbBlockEnd
  0
BLOCK
  5
1C
330
1B
100
AcDbEntity
  8
0
100
AcDbBlockBegin
  2
*Paper_Space
 70
0
 10
0.0
 20
0.0
 30
0.0
  3
*Paper_Space
  1

  0
ENDBLK
  5
1D
330
1B
100
AcDbEntity
  8
0
100
AcDbBlockEnd
  0
ENDSEC
  0
SECTION
  2
ENTITIES
  0
LWPOLYLINE
  5
2F
330
17
100
AcDbEntity
  8
0
100
AcDbPolyline
 90
601
 70
0
 10
-0.3246882
 20
0.07096969940076539
 10
-0.32205043116539644
 20
0.07096969940076539
 10
-0.31941266233079285
 20
0.07096969940076539
 10
-0.3167748934961893
 20
0.07096969940076539
 10
-0.3141371246615857
 20
0.07096969940076539
 10
-0.3114993558269821
 20
0.07096969940076539
 10
-0.3088615869923786
 20
0.07096969940076539
 10
-0.30622381815777505
 20
0.07096969940076539
 10
-0.30358604932317146
 20
0.07096969940076539
 10
-0.30094828048856787
 20
0.07096969940076539
 10
-0.2983105116539643
 20
0.07096969940076539
 10
-0.2956727428193608
 20
0.07096969940076539
 10
-0.2930349739847572
 20
0.07096969940076539
 10
-0.29039720515015366
 20
0.07096969940076539
 10
-0.28775943631555007
 20
0.07096969940076539
 10
-0.2851216674809465
 20
0.07096969940076539
 10
-0.28248389864634293
 20
0.07096969940076539
 10
-0.2798461298117394
 20
0.07096969940076539
 10
-0.2772083609771358
 20
0.07096969940076539
 10
-0.2745705921425322
 20
0.07096969940076539
 10
-0.2719328233079287
 20
0.07096969940076539
 10
-0.26929505447332514
 20
0.07096969940076539
 10
-0.26665728563872154
 20
0.07096969940076539
 10
-0.264019516804118
 20
0.07096969940076539
 10
-0.2613817479695144
 20
0.07096969940076539
 10
-0.2587439791349108
 20
0.07096969940076539
 10
-0.2561062103003073
 20
0.07096969940076539
 10
-0.25346844146570374
 20
0.07096969940076539
 10
-0.25083067263110015
 20
0.07096969940076539
 10
-0.24819290379649658
 20
0.07096969940076539
 10
-0.24555513496189302
 20
0.07096969940076539
 10
-0.24291736612728942
 20
0.07096969940076539
 10
-0.2402795972926859
 20
0.07096969940076539
 10
-0.23764182845808232
 20
0.07096969940076539
 10
-0.23500405962347878
 20
0.07096969940076539
 10
-0.23236629078887516
 20
0.07096969940076539
 10
-0.22972852195427163
 20
0.07096969940076539
 10
-0.2270907531196681
 20
0.07096969940076539
 10
-0.22445298428506447
 20
0.07096969940076539
 10
-0.22181521545046093
 20
0.07096969940076539
 10
-0.2191774466158574
 20
0.07096969940076539
 10
-0.21653967778125377
 20
0.07096969940076539
 10
-0.21390190894665023
 20
0.07096969940076539
 10
-0.21126414011204667
 20
0.07096969940076539
 10
-0.20862637127744313
 20
0.07096969940076539
 10
-0.2059886024428395
 20
0.07096969940076539
 10
-0.20335083360823597
 20
0.07096969940076539
 10
-0.20071306477363243
 20
0.07096969940076539
 10
-0.1980752959390288
 20
0.07096969940076539
 10
-0.19543752710442527
 20
0.07096969940076539
 10
-0.19279975826982174
 20
0.07096969940076539
 10
-0.19016198943521812
 20
0.07096969940076539
 10
-0.18752422060061458
 20
0.07096969940076539
 10
-0.184886451766011
 20
0.07096969940076539
 10
-0.18224868293140745
 20
0.07096969940076539
 10
-0.17961091409680388
 20
0.07096969940076539
 10
-0.17697314526220032
 20
0.07096969940076539
 10
-0.17433537642759675
 20
0.07096969940076539
 10
-0.17169760759299316
 20
0.07096969940076539
 10
-0.16905983875838962
 20
0.07096969940076539
 10
-0.16642206992378608
 20
0.07096969940076539
 10
-0.16378430108918246
 20
0.07096969940076539
 10
-0.16114653225457892
 20
0.07096969940076539
 10
-0.15850876341997536
 20
0.07096969940076539
 10
-0.1558709945853718
 20
0.07096969940076539
 10
-0.15323322575076823
 20
0.07096969940076539
 10
-0.15059545691616466
 20
0.07096969940076539
 10
-0.1479576880815611
 20
0.07096969940076539
 10
-0.1453199192469575
 20
0.07096969940076539
 10
-0.14268215041235396
 20
0.07096969940076539
 10
-0.1400443815777504
 20
0.07096969940076539
 10
-0.1374066127431468
 20
0.07096969940076539
 10
-0.13476884390854327
 20
0.07096969940076539
 10
-0.1321310750739397
 20
0.07096969940076539
 10
-0.1294933062393361
 20
0.07096969940076539
 10
-0.12685553740473257
 20
0.07096969940076539
 10
-0.12421776857012899
 20
0.07096969940076539
 10
-0.12157999973552544
 20
0.07096969940076539
 10
-0.11894223090092186
 20
0.07096969940076539
 10
-0.11630446206631831
 20
0.07096969940076539
 10
-0.11366669323171473
 20
0.07096969940076539
 10
-0.11102892439711116
 20
0.07096969940076539
 10
-0.10839115556250761
 20
0.07096969940076539
 10
-0.10575338672790403
 20
0.07096969940076539
 10
-0.10311561789330048
 20
0.07096969940076539
 10
-0.1004778490586969
 20
0.07096969940076539
 10
-0.09784008022409334
 20
0.07096969940076539
 10
-0.09520231138948979
 20
0.07096969940076539
 10
-0.0925645425548862
 20
0.07096969940076539
 10
-0.08992677372028264
 20
0.07096969940076539
 10
-0.08728900488567908
 20
0.07096969940076539
 10
-0.08465123605107551
 20
0.07096969940076539
 10
-0.08201346721647196
 20
0.07096969940076539
 10
-0.07937569838186838
 20
0.07096969940076539
 10
-0.07673792954726481
 20
0.07096969940076539
 10
-0.07410016071266125
 20
0.07096969940076539
 10
-0.07146239187805768
 20
0.07096969940076539
 10
-0.06882462304345412
 20
0.07096969940076539
 10
-0.06618685420885055
 20
0.07096969940076539
 10
-0.06354908537424699
 20
0.07096969940076539
 10
-0.06354908537424699
 20
0.07096969940076539
 10
-0.06341607956631747
 20
0.07096917180952723
 10
-0.06328308212939489
 20
0.07096758906901783
 10
-0.06315010143395931
 20
0.07096495127885037
 10
-0.06301714584943717
 20
0.07096125860503986
 10
-0.06288422374367444
 20
0.07095651127999268
 10
-0.06275134348241013
 20
0.07095070960249196
 10
-0.06261851342874956
 20
0.07094385393767874
 10
-0.062485741942638236
 20
0.07093594471702908
 10
-0.0623530373803355
 20
0.07092698243832679
 10
-0.062220408093888756
 20
0.07091696766563219
 10
-0.06208786243060774
 20
0.07090590102924656
 10
-0.06195540873253918
 20
0.07089378322567248
 10
-0.06182305533594178
 20
0.07088061501757005
 10
-0.061690810570761555
 20
0.07086639723370876
 10
-0.061558682760107584
 20
0.07085113076891547
 10
-0.061426680219728136
 20
0.07083481658401801
 10
-0.06129481125748733
 20
0.07081745570578477
 10
-0.06116308417284226
 20
0.07079904922685995
 10
-0.061031507256320665
 20
0.07077959830569495
 10
-0.060900088788999114
 20
0.07075910416647542
 10
-0.06076883704198182
 20
0.0707375680990441
 10
-0.060637760275880116
 20
0.07071499145881979
 10
-0.06050686674029254
 20
0.07069137566671196
 10
-0.06037616467328561
 20
0.07066672220903132
 10
-0.06024566230087534
 20
0.07064103263739631
 10
-0.06011536783650957
 20
0.07061430856863546
 10
-0.059985289480550985
 20
0.07058655168468558
 10
-0.059855435419760995
 20
0.07055776373248594
 10
-0.05972581382678457
 20
0.07052794652386828
 10
-0.05959643285963575
 20
0.07049710193544284
 10
-0.05946730066118432
 20
0.07046523190848021
 10
-0.059338425358643254
 20
0.07043233844878917
 10
-0.05920981506305723
 20
0.07039842362659043
 10
-0.059081477868792136
 20
0.07036348957638636
 10
-0.05895342185302564
 20
0.07032753849682663
 10
-0.05882565507523886
 20
0.07029057265056984
 10
-0.05869818557670907
 20
0.07025259436414115
 10
-0.05857102138000364
 20
0.07021360602778576
 10
-0.05844417048847513
 20
0.0701736100953186
 10
-0.058317640885757534
 20
0.0701326090839698
 10
-0.058191440535263865
 20
0.07009060557422629
 10
-0.058065577379684936
 20
0.07004760220966941
 10
-0.05794005934048948
 20
0.07000360169680848
 10
-0.05781489431742555
 20
0.06995860680491059
 10
-0.05769009018802341
 20
0.0699126203658261
 10
-0.05756565480709969
 20
0.06986564527381059
 10
-0.05744159600626304
 20
0.06981768448534262
 10
-0.057317921593421216
 20
0.06976874101893771
 10
-0.057194639352289724
 20
0.06971881795495828
 10
-0.05707175704190187
 20
0.06966791843541989
 10
-0.05694928239612045
 20
0.0696160456637934
 10
-0.05682722312315104
 20
0.06956320290480338
 10
-0.05670558690505682
 20
0.06950939348422265
 10
-0.056584381397275105
 20
0.06945462078866299
 10
-0.0564636142281355
 20
0.06939888826536193
 10
-0.05634329299837987
 20
0.06934219942196582
 10
-0.056223425280683886
 20
0.0692845578263091
 10
-0.05610401861918047
 20
0.06922596710618971
 10
-0.05598508052898501
 20
0.0691664309491408
 10
-0.05586661849572232
 20
0.06910595310219858
 10
-0.05574863997505553
 20
0.06904453737166662
 10
-0.055631152392216915
 20
0.06898218762287614
 10
-0.055514163141540465
 20
0.06891890777994286
 10
-0.055397679585996604
 20
0.06885470182551993
 10
-0.05528170905672873
 20
0.06878957380054739
 10
-0.05516625885259182
 20
0.0687235278039977
 10
-0.05505133623969306
 20
0.06865656799261788
 10
-0.05493694845093459
 20
0.06858869858066784
 10
-0.054823102685558185
 20
0.06851992383965518
 10
-0.05470980610869225
 20
0.06845024809806632
 10
-0.0545970658509008
 20
0.06837967574109408
 10
-0.05448488900773475
 20
0.06830821121036172
 10
-0.05437328263928527
 20
0.06823585900364337
 10
-0.05426225376973947
 20
0.06816262367458095
 10
-0.05415180938693836
 20
0.06808850983239761
 10
-0.054041956441936975
 20
0.0680135221416076
 10
-0.05393270184856697
 20
0.06793766532172267
 10
-0.053824052483001435
 20
0.06786094414695519
 10
-0.053716015183322155
 20
0.06778336344591744
 10
-0.053608596749089216
 20
0.06770492810131795
 10
-0.0535018039409131
 20
0.067625643049654
 10
-0.053395643480029134
 20
0.06754551328090104
 10
-0.05329012204787454
 20
0.06746454383819862
 10
-0.053185246285667856
 20
0.06738273981753298
 10
-0.053081022793991024
 20
0.0673001063674163
 10
-0.05297745813237391
 20
0.06721664868856271
 10
-0.052874558818881506
 20
0.06713237203356093
 10
-0.05277233132970367
 20
0.06704728170654373
 10
-0.05267078209874759
 20
0.06696138306285405
 10
-0.05256991751723277
 20
0.06687468150870803
 10
-0.05246974393328885
 20
0.06678718250085464
 10
-0.05237026765155603
 20
0.06669889154623238
 10
-0.05227149493278831
 20
0.0666098142016226
 10
-0.052173431993459446
 20
0.06651995607329976
 10
-0.052076085005371676
 20
0.06642932281667872
 10
-0.05197946009526732
 20
0.06633792013595861
 10
-0.05188356334444317
 20
0.06624575378376396
 10
-0.051788400788367724
 20
0.06615282956078264
 10
-0.05169397841630136
 20
0.06605915331540067
 10
-0.05169397841630136
 20
0.06605915331540067
 10
-0.051578241639878626
 20
0.06594341653897794
 10
-0.05146250486345589
 20
0.0658276797625552
 10
-0.051346768087033146
 20
0.06571194298613246
 10
-0.05123103131061041
 20
0.06559620620970973
 10
-0.05111529453418768
 20
0.06548046943328699
 10
-0.050999557757764935
 20
0.06536473265686425
 10
-0.0508838209813422
 20
0.06524899588044152
 10
-0.05076808420491946
 20
0.06513325910401878
 10
-0.050652347428496725
 20
0.06501752232759604
 10
-0.05053661065207399
 20
0.0649017855511733
 10
-0.05042087387565125
 20
0.06478604877475057
 10
-0.05030513709922851
 20
0.06467031199832782
 10
-0.05018940032280578
 20
0.06455457522190508
 10
-0.05007366354638304
 20
0.06443883844548234
 10
-0.0499579267699603
 20
0.0643231016690596
 10
-0.04984218999353756
 20
0.06420736489263687
 10
-0.04972645321711482
 20
0.06409162811621413
 10
-0.049610716440692086
 20
0.0639758913397914
 10
-0.04949497966426935
 20
0.06386015456336867
 10
-0.049379242887846606
 20
0.06374441778694592
 10
-0.049263506111423876
 20
0.06362868101052319
 10
-0.04914776933500114
 20
0.06351294423410045
 10
-0.0490320325585784
 20
0.06339720745767771
 10
-0.04891629578215566
 20
0.06328147068125498
 10
-0.04880055900573292
 20
0.06316573390483224
 10
-0.048684822229310185
 20
0.0630499971284095
 10
-0.04856908545288745
 20
0.06293426035198676
 10
-0.04845334867646471
 20
0.06281852357556403
 10
-0.048337611900041974
 20
0.06270278679914129
 10
-0.04822187512361924
 20
0.06258705002271855
 10
-0.0481061383471965
 20
0.06247131324629582
 10
-0.047990401570773764
 20
0.06235557646987308
 10
-0.04787466479435102
 20
0.06223983969345034
 10
-0.04775892801792828
 20
0.0621241029170276
 10
-0.047643191241505546
 20
0.06200836614060486
 10
-0.04752745446508281
 20
0.061892629364182127
 10
-0.047411717688660066
 20
0.06177689258775938
 10
-0.047295980912237336
 20
0.061661155811336646
 10
-0.0471802441358146
 20
0.06154541903491391
 10
-0.04706450735939186
 20
0.06142968225849118
 10
-0.04694877058296912
 20
0.061313945482068435
 10
-0.04683303380654638
 20
0.0611982087056457
 10
-0.046717297030123645
 20
0.06108247192922296
 10
-0.04660156025370091
 20
0.060966735152800225
 10
-0.04648582347727817
 20
0.06085099837637749
 10
-0.046370086700855434
 20
0.060735261599954744
 10
-0.0462543499244327
 20
0.06061952482353201
 10
-0.04613861314800996
 20
0.06050378804710928
 10
-0.046022876371587224
 20
0.06038805127068654
 10
-0.04590713959516448
 20
0.0602723144942638
 10
-0.04579140281874174
 20
0.06015657771784106
 10
-0.045675666042319006
 20
0.06004084094141832
 10
-0.04555992926589627
 20
0.059925104164995587
 10
-0.04544419248947354
 20
0.05980936738857285
 10
-0.045328455713050796
 20
0.059693630612150106
 10
-0.04521271893662806
 20
0.059577893835727376
 10
-0.04509698216020532
 20
0.05946215705930464
 10
-0.04498124538378258
 20
0.059346420282881895
 10
-0.04486550860735984
 20
0.05923068350645916
 10
-0.044749771830937105
 20
0.05911494673003642
 10
-0.04463403505451437
 20
0.058999209953613685
 10
-0.04451829827809164
 20
0.05888347317719095
 10
-0.044402561501668894
 20
0.058767736400768204
 10
-0.04428682472524616
 20
0.058651999624345474
 10
-0.04417108794882342
 20
0.05853626284792274
 10
-0.044055351172400684
 20
0.0584205260715
 10
-0.04393961439597794
 20
0.05830478929507726
 10
-0.0438238776195552
 20
0.05818905251865452
 10
-0.043708140843132466
 20
0.05807331574223178
 10
-0.043592404066709736
 20
0.057957578965809047
 10
-0.043476667290287
 20
0.05784184218938631
 10
-0.043360930513864256
 20
0.05772610541296357
 10
-0.04324519373744152
 20
0.057610368636540836
 10
-0.04312945696101878
 20
0.0574946318601181
 10
-0.043013720184596045
 20
0.05737889508369536
 10
-0.0428979834081733
 20
0.05726315830727262
 10
-0.042782246631750565
 20
0.05714742153084988
 10
-0.042666509855327835
 20
0.057031684754427145
 10
-0.0425507730789051
 20
0.05691594797800441
 10
-0.042435036302482354
 20
0.05680021120158167
 10
-0.04231929952605962
 20
0.056684474425158934
 10
-0.04220356274963688
 20
0.0565687376487362
 10
-0.042087825973214144
 20
0.05645300087231346
 10
-0.0419720891967914
 20
0.05633726409589072
 10
-0.04185635242036866
 20
0.05622152731946798
 10
-0.041740615643945926
 20
0.05610579054304524
 10
-0.041624878867523196
 20
0.055990053766622506
 10
-0.04150914209110046
 20
0.05587431699019978
 10
-0.041393405314677716
 20
0.05575858021377703
 10
-0.04127766853825498
 20
0.055642843437354296
 10
-0.04116193176183224
 20
0.05552710666093156
 10
-0.041046194985409505
 20
0.05541136988450882
 10
-0.04093045820898676
 20
0.05529563310808608
 10
-0.040814721432564025
 20
0.05517989633166334
 10
-0.040698984656141295
 20
0.055064159555240605
 10
-0.04058324787971856
 20
0.05494842277881787
 10
-0.040467511103295814
 20
0.05483268600239513
 10
-0.04035177432687308
 20
0.054716949225972394
 10
-0.04023603755045034
 20
0.05460121244954966
 10
-0.04023603755045034
 20
0.05460121244954966
 10
-0.039915569576475775
 20
0.05428327681723995
 10
-0.03959258943017839
 20
0.05396789353655876
 10
-0.03926711743900914
 20
0.05365508245683195
 10
-0.03893917408724868
 20
0.05334486326549844
 10
-0.03860878001471797
 20
0.05303725548687101
 10
-0.038275956015479465
 20
0.05273227848090761
 10
-0.0379407230365282
 20
0.05242995144199281
 10
-0.03760310217647359
 20
0.05213029339772983
 10
-0.037263114684211486
 20
0.05183332320774297
 10
-0.03692078195758679
 20
0.051539059562490566
 10
-0.03657612554204685
 20
0.051247520982088825
 10
-0.0362291671292853
 20
0.05095872581514603
 10
-0.03587992855587698
 20
0.05067269223760795
 10
-0.03552843180190352
 20
0.05038943825161366
 10
-0.03517469898957006
 20
0.05010898168436275
 10
-0.0348187523818128
 20
0.04983134018699316
 10
-0.034460614380897994
 20
0.0495565312334704
 10
-0.034100307527011944
 20
0.04928457211948772
 10
-0.03373785449684231
 20
0.049015479961377555
 10
-0.033373278102151085
 20
0.04874927169503437
 10
-0.033006601288338655
 20
0.04848596407484857
 10
-0.03263784713299995
 20
0.048225573672652296
 10
-0.03226703884447173
 20
0.047968116876676146
 10
-0.031894199760372124
 20
0.04771360989051802
 10
-0.031519353346131755
 20
0.047462068732123115
 10
-0.031142523193516847
 20
0.047213509232775876
 10
-0.03076373301914452
 20
0.04696794703610364
 10
-0.030383006662990035
 20
0.04672539759709201
 10
-0.030000368086886473
 20
0.04648587618111225
 10
-0.02961584137301654
 20
0.04624939786296042
 10
-0.029229450722397004
 20
0.0460159775259087
 10
-0.028841220453355507
 20
0.04578562986076864
 10
-0.028451174999999985
 20
0.045558369364966544
 10
-0.028059338910680985
 20
0.0453342103416311
 10
-0.027665736846446496
 20
0.045113166898693116
 10
-0.02727039357949003
 20
0.04489525294799768
 10
-0.026873333991591357
 20
0.04468048220442848
 10
-0.026474583072550663
 20
0.04446886818504476
 10
-0.026074165918615708
 20
0.04426042420823051
 10
-0.02567210773090226
 20
0.04405516339285624
 10
-0.02526843381380817
 20
0.043853098657453404
 10
-0.024863169573420617
 20
0.04365424271940118
 10
-0.024456340515917278
 20
0.043458608094126286
 10
-0.02404797224596088
 20
0.04326620709431508
 10
-0.023638090465087885
 20
0.04307705182913882
 10
-0.02322672097009077
 20
0.042891154203491426
 10
-0.022813889651394522
 20
0.042708525917240274
 10
-0.022399622491427143
 20
0.04252917846448981
 10
-0.02198394556298439
 20
0.04235312313285817
 10
-0.021566885027588866
 20
0.04218037100276675
 10
-0.02114846713384343
 20
0.04201093294674288
 10
-0.020728718215779218
 20
0.04184481962873544
 10
-0.020307664691198244
 20
0.0416820415034438
 10
-0.01988533306001075
 20
0.041522608815659806
 10
-0.019461749902567365
 20
0.04136653159962296
 10
-0.019036941877986206
 20
0.04121381967838895
 10
-0.01861093572247509
 20
0.04106448266321139
 10
-0.018183758247648698
 20
0.04091852995293686
 10
-0.0177554363388413
 20
0.04077597073341352
 10
-0.017325996953414538
 20
0.04063681397691279
 10
-0.016895467119060856
 20
0.04050106844156481
 10
-0.016463873932102458
 20
0.04036874267080713
 10
-0.016031244555785924
 20
0.04023984499284711
 10
-0.015597606218572656
 20
0.04011438352013764
 10
-0.015162986212425152
 20
0.03999236614886667
 10
-0.014727411891089413
 20
0.03987380055846023
 10
-0.014290910668373277
 20
0.03975869421109904
 10
-0.01385351001642112
 20
0.03964705435124895
 10
-0.013415237463984854
 20
0.039538888005204914
 10
-0.012976120594691292
 20
0.039434201980648856
 10
-0.012536187045306211
 20
0.039333002866221156
 10
-0.012095464503994811
 20
0.039235297031105995
 10
-0.011653980708579306
 20
0.03914109062463049
 10
-0.01121176344479297
 20
0.03905038957587769
 10
-0.010768840544531581
 20
0.038963199593313416
 10
-0.010325239884101613
 20
0.03887952616442698
 10
-0.00988098938246585
 20
0.038799374555385784
 10
-0.009436116999486236
 20
0.03872274981070394
 10
-0.008990650734164135
 20
0.03864965675292477
 10
-0.008544618622878232
 20
0.03858009998231725
 10
-0.00809804873761986
 20
0.0385140838765865
 10
-0.0076509691842263925
 20
0.03845161259059832
 10
-0.007203408100612227
 20
0.0383926900561176
 10
-0.006755393654997907
 20
0.03833731998156091
 10
-0.006306954044137292
 20
0.03828550585176316
 10
-0.00585811749154292
 20
0.03823725092775815
 10
-0.00540891224570976
 20
0.038192558246573444
 10
-0.004959366578337198
 20
0.03815143062103916
 10
-0.004509508782549868
 20
0.03811387063961098
 10
-0.004059367171116833
 20
0.03807988066620724
 10
-0.003608970074669709
 20
0.03804946284006007
 10
-0.0031583458399196194
 20
0.03802261907558087
 10
-0.002707522827873109
 20
0.03799935106223977
 10
-0.002256529412047251
 20
0.03797966026445928
 10
-0.0018053939766837599
 20
0.037963547921522164
 10
-0.0013541449149627426
 20
0.037951015047493424
 10
-0.0009028106272155759
 20
0.03794206243115647
 10
-0.0004514195191375332
 20
0.0379366906359635
 10
3.48426403957312e-18
 20
0.0379349
 10
8.873259087446212e-19
 20
0.0379349
 10
5.9335205656468485e-05
 20
0.03793502147710184
 10
0.00011866941651571852
 20
0.03793538590637072
 10
0.0001780016377972022
 20
0.037935993281696716
 10
0.00023733087475373723
 20
0.03793684359289675
 10
0.00029665613268817546
 20
0.037937936825714745
 10
0.0003559764169700704
 20
0.037939272961821854
 10
0.0004152907330523719
 20
0.03794085197881683
 10
0.0004745980864880913
 20
0.0379426738502263
 10
0.0005338974829469634
 20
0.03794473854550528
 10
0.0005931879282321379
 20
0.0379470460300377
 10
0.0006524684282968366
 20
0.037949596265136894
 10
0.0007117379892610108
 20
0.037952389208046375
 10
0.0007709956174280233
 20
0.03795542481194044
 10
0.0008302403193012986
 20
0.037958703025925015
 10
0.0008894711016009702
 20
0.03796222379503851
 10
0.0009486869712805527
 20
0.037965987060252684
 10
0.0010078869355435822
 20
0.03796999275847372
 10
0.0010670700018602496
 20
0.037974240822543213
 10
0.0011262351779840632
 20
0.037978731181239324
 10
0.001185381471968468
 20
0.037983463759277976
 10
0.001244507892183487
 20
0.037988438477314104
 10
0.0013036134473323295
 20
0.037993655251943
 10
0.0013626971464680338
 20
0.0379991139957017
 10
0.0014217579990100687
 20
0.038004814617070455
 10
0.0014807950147609343
 20
0.038010757020474274
 10
0.0015398072039227797
 20
0.038016941106284494
 10
0.0015987935771139903
 20
0.03802336677082049
 10
0.0016577531453857651
 20
0.0380300339063514
 10
0.0017166849202387162
 20
0.038036942401097916
 10
0.001775587913639433
 20
0.03804409213923418
 10
0.0018344611380370353
 20
0.0380514830008897
 10
0.0018933036063797522
 20
0.03805911486215141
 10
0.0019521143321314612
 20
0.03806698759506567
 10
0.0020108923292882154
 20
0.03807510106764048
 10
0.002069636612394798
 20
0.03808345514384765
 10
0.0021283461965612297
 20
0.038092049683625125
 10
0.002187020097479276
 20
0.038100884542879285
 10
0.0022456573314389677
 20
0.03810995957348739
 10
0.002304256915345082
 20
0.038119274623300045
 10
0.002362817866733617
 20
0.03812882953614377
 10
0.0024213392037882833
 20
0.038138624151823605
 10
0.0024798199453569523
 20
0.038148658306125814
 10
0.0025382591109681
 20
0.03815893183082061
 10
0.0025966557208472615
 20
0.03816944455366497
 10
0.0026550087959334506
 20
0.038180196298405605
 10
0.002713317357895561
 20
0.038191186884781785
 10
0.002771580429148793
 20
0.03820241612852846
 10
0.00282979703287103
 20
0.03821388384137933
 10
0.0028879661930192074
 20
0.03822558983106997
 10
0.0029460869343456955
 20
0.03823753390134107
 10
0.003004158282414639
 20
0.03824971585194174
 10
0.0030621792636182955
 20
0.038262135478632865
 10
0.0031201489051933544
 20
0.0382747925731905
 10
0.0031780662352372596
 20
0.038287686923409385
 10
0.0032359302827244855
 20
0.038300818313106506
 10
0.0032937400775228344
 20
0.038314186522124705
 10
0.003351494650409691
 20
0.038327791326336395
 10
0.003409193033088277
 20
0.038341632497647285
 10
0.0034668342582038765
 20
0.038355709804000215
 10
0.003524417359360072
 20
0.03837002300937908
 10
0.003581941371134922
 20
0.038384571873812716
 10
0.003639405329097173
 20
0.03839935615337901
 10
0.0036968082698224107
 20
0.03841437560020891
 10
0.0037541492309092236
 20
0.03842962996249065
 10
0.003811427250995324
 20
0.03844511898447391
 10
0.003868641369773685
 20
0.03846084240647415
 10
0.003925790628008623
 20
0.038476799964876934
 10
0.00398287406755189
 20
0.03849299139214235
 10
0.0040398907313587435
 20
0.03850941641680955
 10
0.004096839663503974
 20
0.03852607476350122
 10
0.004153719909197943
 20
0.038542966152928244
 10
0.004210530514802592
 20
0.038560090301894376
 10
0.004267270527847435
 20
0.03857744692330101
 10
0.004323938997045505
 20
0.038595035726151944
 10
0.004380534972309332
 20
0.0386128564155583
 10
0.004437057504766859
 20
0.03863090869274346
 10
0.0044935056467773375
 20
0.038649192255048065
 10
0.00454987845194724
 20
0.0386677067959351
 10
0.004606174975146117
 20
0.03868645200499503
 10
0.004662394272522427
 20
0.038705427567950985
 10
0.004718535401519387
 20
0.03872463316666408
 10
0.00477459742089076
 20
0.03874406847913867
 10
0.0048305793907166385
 20
0.03876373317952786
 10
0.004886480372419199
 20
0.03878362693813883
 10
0.004942299428778448
 20
0.03880374942143848
 10
0.0049980356239479225
 20
0.038824100292058975
 10
0.005053688023470392
 20
0.03884467920880338
 10
0.0051092556942935186
 20
0.038865485826651405
 10
0.005164737704785504
 20
0.03888651979676523
 10
0.005220133124750699
 20
0.038907780766495266
 10
0.005275441025445217
 20
0.03892926837938612
 10
0.005330660479592484
 20
0.03895098227518258
 10
0.005385790561398803
 20
0.038972922089835625
 10
0.005440830346568868
 20
0.03899508745550856
 10
0.005495778912321261
 20
0.03901747800058314
 10
0.0055506353374039155
 20
0.03904009334966585
 10
0.00560539870210958
 20
0.03906293312359416
 10
0.005660068088291217
 20
0.0390859969394429
 10
0.005714642579377414
 20
0.03910928441053068
 10
0.005714642579377414
 20
0.03910928441053068
 10
0.005714642579377414
 20
0.03910928441053068
 10
0.007318831001870918
 20
0.03979639605261251
 10
0.008919718223775474
 20
0.04047949712236735
 10
0.010517304245091083
 20
0.04115858761979522
 10
0.012111589065817744
 20
0.0418336675448961
 10
0.013702572685955457
 20
0.042504736897669995
 10
0.015290255105504223
 20
0.043171795678116916
 10
0.01687463632446404
 20
0.04383484388623684
 10
0.018455716342834914
 20
0.04449388152202979
 10
0.020033495160616838
 20
0.04514890858549575
 10
0.021607972777809813
 20
0.04579992507663475
 10
0.02317914919441384
 20
0.04644693099544674
 10
0.02474702441042892
 20
0.04708992634193176
 10
0.026311598425855058
 20
0.0477289111160898
 10
0.027872871240692248
 20
0.048363885317920845
 10
0.02943084285494048
 20
0.048994848947424924
 10
0.030985513268599777
 20
0.04962180200460201
 10
0.03253688248167012
 20
0.05024474448945212
 10
0.034084950494151514
 20
0.050863676401975234
 10
0.03562971730604397
 20
0.051478597742171374
 10
0.03717118291734747
 20
0.05208950851004054
 10
0.03870934732806201
 20
0.0526964087055827
 10
0.040244210538187636
 20
0.053299298328797894
 10
0.04177577254772429
 20
0.053898177379686094
 10
0.043304033356672
 20
0.05449304585824733
 10
0.04482899296503076
 20
0.055083903764481565
 10
0.04635065137280059
 20
0.055670751098388836
 10
0.047869008579981456
 20
0.05625358785996911
 10
0.04938406458657337
 20
0.05683241404922241
 10
0.05089581939257635
 20
0.0574072296661487
 10
0.05240427299799037
 20
0.05797803471074804
 10
0.05390942540281546
 20
0.05854482918302038
 10
0.055411276607051585
 20
0.05910761308296574
 10
0.05690982661069878
 20
0.05966638641058413
 10
0.058405075413757016
 20
0.06022114916587553
 10
0.059897023016226306
 20
0.06077190134883993
 10
0.06138566941810664
 20
0.06131864295947737
 10
0.06287101461939805
 20
0.06186137399778782
 10
0.06435305862010049
 20
0.06240009446377128
 10
0.065831801420214
 20
0.06293480435742776
 10
0.06730724301973855
 20
0.06346550367875727
 10
0.06877938341867416
 20
0.06399219242775979
 10
0.07024822261702081
 20
0.06451487060443531
 10
0.07171376061477852
 20
0.06503353820878387
 10
0.07317599741194729
 20
0.06554819524080543
 10
0.0746349330085271
 20
0.06605884170050003
 10
0.07609056740451797
 20
0.06656547758786761
 10
0.07754290059991989
 20
0.06706810290290825
 10
0.07899193259473286
 20
0.06756671764562189
 10
0.08043766338895687
 20
0.06806132181600853
 10
0.08188009298259198
 20
0.06855191541406822
 10
0.0833192213756381
 20
0.06903849843980092
 10
0.08475504856809529
 20
0.06952107089320662
 10
0.08618757455996351
 20
0.06999963277428534
 10
0.08761679935124281
 20
0.07047418408303707
 10
0.08904272294193313
 20
0.07094472481946185
 10
0.09046534533203456
 20
0.07141125498355962
 10
0.09188466652154699
 20
0.0718737745753304
 10
0.09330068651047048
 20
0.07233228359477421
 10
0.09471340529880505
 20
0.07278678204189104
 10
0.09612282288655065
 20
0.0732372699166809
 10
0.09752893927370733
 20
0.07368374721914375
 10
0.09893175446027501
 20
0.07412621394927964
 10
0.10033126844625379
 20
0.07456467010708852
 10
0.10172748123164359
 20
0.07499911569257042
 10
0.10312039281644444
 20
0.07542955070572537
 10
0.1045100032006564
 20
0.0758559751465533
 10
0.10589631238427935
 20
0.07627838901505428
 10
0.10727932036731337
 20
0.07669679231122825
 10
0.10865902714975846
 20
0.07711118503507526
 10
0.1100354327316146
 20
0.0775215671865953
 10
0.11140853711288176
 20
0.07792793876578831
 10
0.11277834029356
 20
0.07833029977265436
 10
0.1141448422736493
 20
0.07872865020719343
 10
0.11550804305314963
 20
0.07912299006940551
 10
0.11686794263206103
 20
0.07951331935929062
 10
0.11822454101038347
 20
0.07989963807684873
 10
0.11957783818811696
 20
0.08028194622207988
 10
0.12092783416526151
 20
0.08066024379498403
 10
0.1222745289418171
 20
0.08103453079556118
 10
0.12361792251778378
 20
0.0814048072238114
 10
0.1249580148931615
 20
0.0817710730797346
 10
0.12629480606795024
 20
0.08213332836333082
 10
0.12762829604215006
 20
0.08249157307460006
 10
0.12895848481576092
 20
0.08284580721354232
 10
0.13028537238878282
 20
0.08319603078015758
 10
0.13160895876121584
 20
0.08354224377444588
 10
0.13292924393305983
 20
0.0838844461964072
 10
0.1342462279043149
 20
0.0842226380460415
 10
0.13555991067498108
 20
0.08455681932334887
 10
0.13687029224505823
 20
0.08488699002832922
 10
0.13817737261454643
 20
0.0852131501609826
 10
0.13948115178344575
 20
0.085535299721309
 10
0.14078162975175607
 20
0.0858534387093084
 10
0.14207880651947746
 20
0.08616756712498083
 10
0.14337268208660991
 20
0.08647768496832628
 10
0.1446632564531534
 20
0.08678379223934474
 10
0.14595052961910798
 20
0.08708588893803623
 10
0.14723450158447354
 20
0.08738397506440071
 10
0.1485151723492502
 20
0.08767805061843824
  0
ENDSEC
  0
SECTION
  2
OBJECTS
  0
DICTIONARY
  5
A
330
0
100
AcDbDictionary
281
1
  3
ACAD_COLOR
350
B
  3
ACAD_GROUP
350
C
  3
ACAD_LAYOUT
350
D
  3
ACAD_MATERIAL
350
E
  3
ACAD_MLEADERSTYLE
350
F
  3
ACAD_MLINESTYLE
350
10
  3
ACAD_PLOTSETTINGS
350
11
  3
ACAD_PLOTSTYLENAME
350
12
  3
ACAD_SCALELIST
350
14
  3
ACAD_TABLESTYLE
350
15
  3
ACAD_VISUALSTYLE
350
16
  3
EZDXF_META
350
2D
  0
DICTIONARY
  5
B
330
A
100
AcDbDictionary
281
1
  0
DICTIONARY
  5
C
330
A
100
AcDbDictionary
281
1
  0
DICTIONARY
  5
D
330
A
100
AcDbDictionary
281
1
  3
Model
350
1A
  3
Layout1
350
1E
  0
DICTIONARY
  5
E
330
A
100
AcDbDictionary
281
1
  3
ByBlock
350
1F
  3
ByLayer
350
20
  3
Global
350
21
  0
DICTIONARY
  5
F
330
A
100
AcDbDictionary
281
1
  3
Standard
350
2C
  0
DICTIONARY
  5
10
330
A
100
AcDbDictionary
281
1
  3
Standard
350
22
  0
DICTIONARY
  5
11
330
A
100
AcDbDictionary
281
1
  0
ACDBDICTIONARYWDFLT
  5
12
330
A
100
AcDbDictionary
281
1
  3
Normal
350
13
100
AcDbDictionaryWithDefault
340
13
  0
ACDBPLACEHOLDER
  5
13
330
12
  0
DICTIONARY
  5
14
330
A
100
AcDbDictionary
281
1
  0
DICTIONARY
  5
15
330
A
100
AcDbDictionary
281
1
  0
DICTIONARY
  5
16
330
A
100
AcDbDictionary
281
1
  0
LAYOUT
  5
1A
330
D
100
AcDbPlotSettings
  1

  4
A3
  6

 40
7.5
 41
20.0
 42
7.5
 43
20.0
 44
420.0
 45
297.0
 46
0.0
 47
0.0
 48
0.0
 49
0.0
140
0.0
141
0.0
142
1.0
143
1.0
 70
1024
 72
1
 73
0
 74
5
  7

 75
16
 76
0
 77
2
 78
300
147
1.0
148
0.0
149
0.0
100
AcDbLayout
  1
Model
 70
1
 71
0
 10
0.0
 20
0.0
 11
420.0
 21
297.0
 12
0.0
 22
0.0
 32
0.0
 14
1e+20
 24
1e+20
 34
1e+20
 15
-1e+20
 25
-1e+20
 35
-1e+20
146
0.0
 13
0.0
 23
0.0
 33
0.0
 16
1.0
 26
0.0
 36
0.0
 17
0.0
 27
1.0
 37
0.0
 76
1
330
17
  0
LAYOUT
  5
1E
330
D
100
AcDbPlotSettings
  1

  4
A3
  6

 40
7.5
 41
20.0
 42
7.5
 43
20.0
 44
420.0
 45
297.0
 46
0.0
 47
0.0
 48
0.0
 49
0.0
140
0.0
141
0.0
142
1.0
143
1.0
 70
0
 72
1
 73
0
 74
5
  7

 75
16
 76
0
 77
2
 78
300
147
1.0
148
0.0
149
0.0
100
AcDbLayout
  1
Layout1
 70
1
 71
1
 10
0.0
 20
0.0
 11
420.0
 21
297.0
 12
0.0
 22
0.0
 32
0.0
 14
1e+20
 24
1e+20
 34
1e+20
 15
-1e+20
 25
-1e+20
 35
-1e+20
146
0.0
 13
0.0
 23
0.0
 33
0.0
 16
1.0
 26
0.0
 36
0.0
 17
0.0
 27
1.0
 37
0.0
 76
1
330
1B
  0
MATERIAL
  5
1F
102
{ACAD_REACTORS
330
E
102
}
330
E
100
AcDbMaterial
  1
ByBlock
  2

 70
0
 40
1.0
 71
1
 41
1.0
 91
-1023410177
 42
1.0
 72
1
  3

 73
1
 74
1
 75
1
 44
0.5
 73
0
 45
1.0
 46
1.0
 77
1
  4

 78
1
 79
1
170
1
 48
1.0
171
1
  6

172
1
173
1
174
1
140
1.0
141
1.0
175
1
  7

176
1
177
1
178
1
143
1.0
179
1
  8

270
1
271
1
272
1
145
1.0
146
1.0
273
1
  9

274
1
275
1
276
1
 42
1.0
 72
1
  3

 73
1
 74
1
 75
1
 94
63
  0
MATERIAL
  5
20
102
{ACAD_REACTORS
330
E
102
}
330
E
100
AcDbMaterial
  1
ByLayer
  2

 70
0
 40
1.0
 71
1
 41
1.0
 91
-1023410177
 42
1.0
 72
1
  3

 73
1
 74
1
 75
1
 44
0.5
 73
0
 45
1.0
 46
1.0
 77
1
  4

 78
1
 79
1
170
1
 48
1.0
171
1
  6

172
1
173
1
174
1
140
1.0
141
1.0
175
1
  7

176
1
177
1
178
1
143
1.0
179
1
  8

270
1
271
1
272
1
145
1.0
146
1.0
273
1
  9

274
1
275
1
276
1
 42
1.0
 72
1
  3

 73
1
 74
1
 75
1
 94
63
  0
MATERIAL
  5
21
102
{ACAD_REACTORS
330
E
102
}
330
E
100
AcDbMaterial
  1
Global
  2

 70
0
 40
1.0
 71
1
 41
1.0
 91
-1023410177
 42
1.0
 72
1
  3

 73
1
 74
1
 75
1
 44
0.5
 73
0
 45
1.0
 46
1.0
 77
1
  4

 78
1
 79
1
170
1
 48
1.0
171
1
  6

172
1
173
1
174
1
140
1.0
141
1.0
175
1
  7

176
1
177
1
178
1
143
1.0
179
1
  8

270
1
271
1
272
1
145
1.0
146
1.0
273
1
  9

274
1
275
1
276
1
 42
1.0
 72
1
  3

 73
1
 74
1
 75
1
 94
63
  0
MLINESTYLE
  5
22
102
{ACAD_REACTORS
330
10
102
}
330
10
100
AcDbMlineStyle
  2
Standard
 70
0
  3

 62
256
 51
90.0
 52
90.0
 71
2
 49
0.5
 62
256
  6
BYLAYER
 49
-0.5
 62
256
  6
BYLAYER
  0
MLEADERSTYLE
  5
2C
102
{ACAD_REACTORS
330
F
102
}
330
F
100
AcDbMLeaderStyle
179
2
170
2
171
1
172
0
 90
2
 40
0.0
 41
0.0
173
1
 91
-1056964608
 92
-2
290
1
 42
2.0
291
1
 43
8.0
  3
Standard
 44
4.0
300

342
29
174
1
175
1
176
0
178
1
 93
-1056964608
 45
4.0
292
0
297
0
 46
4.0
 94
-1056964608
 47
1.0
 49
1.0
140
1.0
294
1
141
0.0
177
0
142
1.0
295
0
296
0
143
3.75
271
0
272
9
273
9
  0
DICTIONARY
  5
2D
330
A
100
AcDbDictionary
280
1
281
1
  3
CREATED_BY_EZDXF
350
2E
  3
WRITTEN_BY_EZDXF
350
32
  0
DICTIONARYVAR
  5
2E
330
2D
100
DictionaryVariables
280
0
  1
1.4.3 @ 2025-12-01T18:02:59.316322+00:00
  0
DICTIONARYVAR
  5
32
330
2D
100
DictionaryVariables
280
0
  1
1.4.3 @ 2025-12-01T18:02:59.316322+00:00
  0
ENDSEC
  0
EOF
